<svg width="26" height="22" viewBox="0 0 26 22" fill="none" xmlns="http://www.w3.org/2000/svg">
<path d="M25 7.25L21.856 8.5L20.848 3.485C20.5564 2.0375 19.3312 1 17.9104 1H8.2144C6.8212 1 5.6104 2 5.2936 3.41375L4.1524 8.5M4.156 8.5L1 7.25M20.5 13.5H17.5M8.5 13.5H5.5M2.5 21H5.2C6.1936 21 7 20.16 7 19.125V17.875H19V19.125C19 20.16 19.8064 21 20.8 21H23.5C24.328 21 25 20.3 25 19.4375V12.25C25 10.1787 23.3884 8.5 21.4 8.5H4.6C2.6116 8.5 1 10.1787 1 12.25V19.4375C1 20.3 1.672 21 2.5 21Z" stroke="#9A9EA7" stroke-width="1.5" stroke-linecap="round" stroke-linejoin="round"/>
</svg>
