<svg width="40" height="30" viewBox="0 0 40 30" fill="none" xmlns="http://www.w3.org/2000/svg">
<path d="M25.6822 18.3741L26.1859 15.9403C26.4447 14.6928 26.0572 13.3991 25.1559 12.4978L22.6397 9.98156C21.7384 9.08031 20.4447 8.69406 19.1972 8.95156L16.7647 9.45656M16.7622 9.45156L14.9872 7.67656M11.4122 14.8141L20.3247 23.7266M27.4622 20.1641L25.6872 18.3766M14.0872 26.3991L8.73969 21.0516C7.75344 20.0653 7.75344 18.4678 8.73969 17.4816L22.1122 4.10906C23.5909 2.63031 25.9884 2.63031 27.4672 4.10906L31.0297 7.67156C32.5084 9.15031 32.5084 11.5478 31.0297 13.0266L17.6572 26.3991C16.6722 27.3841 15.0734 27.3841 14.0872 26.3991Z" stroke="#474450" stroke-width="1.5" stroke-linecap="round" stroke-linejoin="round"/>
</svg>
