<svg width="103" height="45" viewBox="0 0 103 45" fill="none" xmlns="http://www.w3.org/2000/svg">
<g clip-path="url(#clip0_6_84133)">
<path fill-rule="evenodd" clip-rule="evenodd" d="M15.2904 0.767334L6.10352e-05 22.5016H1.78769L17.077 0.768886L15.2904 0.767334Z" fill="#00C1DE"/>
<path fill-rule="evenodd" clip-rule="evenodd" d="M17.0771 44.2338H18.8647L34.1541 22.5013L32.3675 22.4995L17.0771 44.2338Z" fill="#00C1DE"/>
<path fill-rule="evenodd" clip-rule="evenodd" d="M9.98048 22.5016H6.17777L8.96046 18.5463H9.98048V22.5016ZM8.19259 17.0964L4.39014 22.5016H4.38884V22.5032L1.60901 26.4546H3.3969L5.15775 23.9515H9.98048V34.0995H11.5695V18.5463V17.0964H9.98048H8.19259Z" fill="#3D4543"/>
<path fill-rule="evenodd" clip-rule="evenodd" d="M19.1961 34.0994C19.1961 35.2642 18.2473 36.2083 17.0773 36.2083C15.907 36.2083 14.9582 35.2642 14.9582 34.0994V10.9016C14.9582 9.73682 15.907 8.79275 17.0773 8.79275C18.2473 8.79275 19.1961 9.73682 19.1961 10.9016V13.9333H20.7851V10.9016C20.7851 8.86338 19.1251 7.21094 17.0773 7.21094C15.0292 7.21094 13.3692 8.86338 13.3692 10.9016V34.0994C13.3692 36.1376 15.0292 37.7901 17.0773 37.7901C19.1251 37.7901 20.7851 36.1376 20.7851 34.0994V31.068H19.1961V34.0994Z" fill="#3D4543"/>
<path fill-rule="evenodd" clip-rule="evenodd" d="M26.5458 26.4547V12.4163H24.9568V26.4547H20.7852V17.0965H19.1962V26.4547V27.9045H20.7852H24.9568H24.9895L23.8764 29.4863H25.6643L27.7972 26.4547H26.5458Z" fill="#3D4543"/>
<path fill-rule="evenodd" clip-rule="evenodd" d="M37.0961 28.8196H37.0668L36.177 31.4963H37.9763L37.0961 28.8196ZM35.8445 32.4697L35.277 34.1826H34.0842L36.4018 27.9045H37.8393L40.0395 34.1826H38.8463L38.2893 32.4697H35.8445Z" fill="#3D4543"/>
<path fill-rule="evenodd" clip-rule="evenodd" d="M41.4182 33.3748H42.5427C42.7514 33.3748 42.9225 33.3213 43.0561 33.2142C43.1897 33.1071 43.2565 32.9562 43.2565 32.7617C43.2565 32.5669 43.1897 32.4145 43.0561 32.3043C42.9225 32.1938 42.7449 32.1387 42.5232 32.1387H41.4182V33.3748ZM41.4182 31.3405H42.4449C42.6537 31.3405 42.8182 31.2903 42.9388 31.1897C43.0594 31.0893 43.1197 30.9447 43.1197 30.7563C43.1197 30.5814 43.0561 30.4467 42.9289 30.3527C42.8018 30.2586 42.6438 30.2115 42.4548 30.2115H41.4182V31.3405ZM42.6308 29.4133C43.048 29.4133 43.3984 29.5303 43.682 29.7636C43.9656 29.9975 44.1075 30.2894 44.1075 30.6397C44.1075 30.8929 44.0423 31.1118 43.9118 31.2968C43.7816 31.4818 43.622 31.6132 43.4327 31.6911C43.6674 31.7428 43.8744 31.8743 44.0537 32.0851C44.2328 32.296 44.3225 32.5539 44.3225 32.859C44.3225 33.2289 44.1889 33.542 43.9217 33.7981C43.6545 34.0545 43.3087 34.1828 42.885 34.1828H40.3719V29.4133H42.6308Z" fill="#3D4543"/>
<path fill-rule="evenodd" clip-rule="evenodd" d="M47.0994 30.338V34.1826H46.0237V30.338H44.6154V29.4133H48.5077V30.338H47.0994Z" fill="#3D4543"/>
<path fill-rule="evenodd" clip-rule="evenodd" d="M49.9841 30.6834C49.7234 30.9786 49.5929 31.3502 49.5929 31.798C49.5929 32.2456 49.7234 32.6174 49.9841 32.9123C50.2448 33.2075 50.5773 33.3552 50.9818 33.3552C51.386 33.3552 51.72 33.2075 51.9839 32.9123C52.248 32.6174 52.3803 32.2456 52.3803 31.798C52.3803 31.3502 52.248 30.9786 51.9839 30.6834C51.72 30.3882 51.386 30.2405 50.9818 30.2405C50.5773 30.2405 50.2448 30.3882 49.9841 30.6834ZM52.7663 30.0167C53.2261 30.5034 53.4557 31.0971 53.4557 31.798C53.4557 32.4857 53.2243 33.0763 52.7616 33.5695C52.2984 34.0626 51.7052 34.3091 50.9818 34.3091C50.2581 34.3091 49.6647 34.0626 49.2017 33.5695C48.739 33.0763 48.5074 32.4857 48.5074 31.798C48.5074 31.0971 48.7372 30.5034 49.197 30.0167C49.6566 29.5301 50.2513 29.2869 50.9818 29.2869C51.7117 29.2869 52.3067 29.5301 52.7663 30.0167Z" fill="#3D4543"/>
<path fill-rule="evenodd" clip-rule="evenodd" d="M58.5503 28.0459C58.909 28.1982 59.1892 28.3783 59.3912 28.5861L58.785 29.3646C58.4003 28.9817 57.9147 28.7902 57.3281 28.7902C56.6891 28.7902 56.1739 28.9961 55.783 29.4085C55.3917 29.8204 55.196 30.3674 55.196 31.0483C55.196 31.7233 55.3917 32.2715 55.783 32.6932C56.1739 33.1152 56.6792 33.3261 57.2987 33.3261C57.9051 33.3261 58.4136 33.0989 58.8243 32.6446L59.45 33.404C58.909 34.0008 58.1529 34.2994 57.1812 34.2994C56.2945 34.2994 55.5498 33.9962 54.9467 33.3895C54.3436 32.7828 54.0421 32.0022 54.0421 31.0483C54.0421 30.0882 54.3501 29.3094 54.9662 28.7123C55.5823 28.1155 56.3694 27.8169 57.3281 27.8169C57.7843 27.8169 58.1918 27.8932 58.5503 28.0459Z" fill="#3D4543"/>
<path fill-rule="evenodd" clip-rule="evenodd" d="M63.244 34.1826V30.338H61.2001V34.1826H60.1245V29.4131H64.3197V34.1826H63.244Z" fill="#3D4543"/>
<path fill-rule="evenodd" clip-rule="evenodd" d="M66.8472 30.5668C66.6093 30.7841 66.4804 31.0291 66.4609 31.3015H68.9447C68.9384 31.0032 68.816 30.7517 68.5781 30.5473C68.34 30.343 68.0614 30.2408 67.7419 30.2408C67.3834 30.2408 67.085 30.3494 66.8472 30.5668ZM69.3603 29.9683C69.8004 30.4224 70.0206 31.0032 70.0206 31.7103C70.0206 31.8986 70.0143 32.0704 70.0011 32.2264H66.4609C66.4937 32.5312 66.6353 32.7941 66.8862 33.0148C67.1373 33.2354 67.4453 33.3457 67.8103 33.3457C68.2407 33.3457 68.6351 33.1508 68.9938 32.7617L69.6686 33.4137C69.2054 34.0044 68.5732 34.2996 67.7713 34.2996C67.0411 34.2996 66.4479 34.0579 65.9915 33.5744C65.535 33.0911 65.3068 32.4989 65.3068 31.798C65.3068 31.0974 65.535 30.5036 65.9915 30.017C66.4479 29.5303 67.0281 29.2869 67.732 29.2869C68.3777 29.2869 68.9205 29.514 69.3603 29.9683Z" fill="#3D4543"/>
<path fill-rule="evenodd" clip-rule="evenodd" d="M75.5453 33.2579V34.8444H74.4694V34.1826H71.0078V29.4133H72.0837V33.2579H73.9805V29.4133H75.0564V33.2579H75.5453Z" fill="#3D4543"/>
<path fill-rule="evenodd" clip-rule="evenodd" d="M82.0384 33.2094V35.0686H80.9235V34.1827H76.6695V27.9338H77.7844V33.2094H80.3856V27.9338H81.5005V33.2094H82.0384Z" fill="#3D4543"/>
<path fill-rule="evenodd" clip-rule="evenodd" d="M84.1649 30.5668C83.9268 30.7841 83.7981 31.0291 83.7788 31.3015H86.2623C86.2561 31.0032 86.1337 30.7517 85.8958 30.5473C85.6577 30.343 85.3791 30.2408 85.0596 30.2408C84.7011 30.2408 84.4027 30.3494 84.1649 30.5668ZM86.678 29.9683C87.1181 30.4224 87.3382 31.0032 87.3382 31.7103C87.3382 31.8986 87.332 32.0704 87.3188 32.2264H83.7788C83.8113 32.5312 83.953 32.7941 84.2038 33.0148C84.4547 33.2354 84.763 33.3457 85.1282 33.3457C85.5584 33.3457 85.9528 33.1508 86.3115 32.7617L86.9863 33.4137C86.5231 34.0044 85.8909 34.2996 85.089 34.2996C84.3588 34.2996 83.7656 34.0579 83.3091 33.5744C82.8529 33.0911 82.6247 32.4989 82.6247 31.798C82.6247 31.0974 82.8529 30.5036 83.3091 30.017C83.7656 29.5303 84.3455 29.2869 85.0497 29.2869C85.6954 29.2869 86.2382 29.514 86.678 29.9683Z" fill="#3D4543"/>
<path fill-rule="evenodd" clip-rule="evenodd" d="M91.494 34.1826V32.1969H89.4012V34.1826H88.3256V29.4131H89.4012V31.2722H91.494V29.4131H92.5699V34.1826H91.494Z" fill="#3D4543"/>
<path fill-rule="evenodd" clip-rule="evenodd" d="M95.7473 30.338V34.1826H94.6717V30.338H93.2635V29.4133H97.1557V30.338H95.7473Z" fill="#3D4543"/>
<path fill-rule="evenodd" clip-rule="evenodd" d="M99.2924 30.6983C99.0153 30.9904 98.8767 31.3568 98.8767 31.7981C98.8767 32.2392 99.0153 32.6077 99.2924 32.9029C99.5695 33.1981 99.9232 33.3455 100.353 33.3455C100.764 33.3455 101.113 33.1965 101.399 32.8979C101.687 32.5994 101.83 32.2328 101.83 31.7981C101.83 31.3632 101.687 30.9984 101.399 30.7032C101.113 30.4078 100.764 30.2603 100.353 30.2603C99.9232 30.2603 99.5695 30.4062 99.2924 30.6983ZM102.231 30.0218C102.681 30.4988 102.906 31.0908 102.906 31.7981C102.906 32.5055 102.681 33.099 102.231 33.5794C101.781 34.0596 101.181 34.2994 100.432 34.2994C99.786 34.2994 99.2775 34.1212 98.9061 33.7644C98.9191 33.8943 98.9256 33.9882 98.9256 34.0464V36.0321H97.8497V29.4135H98.8962V29.5499C98.8962 29.6213 98.8897 29.7216 98.8767 29.8515C99.2677 29.488 99.786 29.3064 100.432 29.3064C101.181 29.3064 101.781 29.5449 102.231 30.0218Z" fill="#3D4543"/>
<path fill-rule="evenodd" clip-rule="evenodd" d="M34.9089 38.2958V40.4607H34.1543V37.7434H35.7966V38.2958H34.9089Z" fill="#00C1DE"/>
<path fill-rule="evenodd" clip-rule="evenodd" d="M37.1897 38.5388C37.0494 38.686 36.9789 38.8738 36.9789 39.102C36.9789 39.323 37.0494 39.509 37.1897 39.6601C37.3304 39.8109 37.5079 39.8862 37.7226 39.8862C37.9259 39.8862 38.1008 39.8109 38.2467 39.6601C38.393 39.509 38.4661 39.323 38.4661 39.102C38.4661 38.8777 38.3941 38.6907 38.2495 38.5416C38.1053 38.3926 37.9298 38.3178 37.7226 38.3178C37.5079 38.3178 37.3304 38.3916 37.1897 38.5388ZM38.863 38.086C39.105 38.3585 39.2261 38.6971 39.2261 39.102C39.2261 39.5035 39.1042 39.8414 38.8601 40.1157C38.6158 40.3899 38.3013 40.527 37.9168 40.527C37.7208 40.527 37.5422 40.4875 37.3811 40.4083C37.2204 40.3291 37.0975 40.2324 37.0122 40.1183C37.0158 40.1809 37.0179 40.2655 37.0179 40.3723V41.5099H36.2633V37.7435H36.9956V37.832C36.9956 37.8909 36.9917 37.9975 36.9844 38.152C37.0694 38.0195 37.1952 37.9075 37.3618 37.8154C37.5284 37.7233 37.7133 37.6772 37.9168 37.6772C38.3052 37.6772 38.6205 37.8133 38.863 38.086Z" fill="#00C1DE"/>
<path fill-rule="evenodd" clip-rule="evenodd" d="M39.9593 41.5101L40.4589 40.3782L39.4212 37.7434H40.2366L40.7916 39.3451C40.8101 39.4005 40.8322 39.4836 40.8584 39.5938H40.8639C40.8823 39.5092 40.9065 39.4261 40.9362 39.3451L41.5132 37.7434H42.3287L40.7641 41.5101H39.9593Z" fill="#00C1DE"/>
<path fill-rule="evenodd" clip-rule="evenodd" d="M44.3989 40.4607V38.3069H43.3723V40.4607H42.6177V37.7434H45.1592V40.4607H44.3989Z" fill="#00C1DE"/>
<path fill-rule="evenodd" clip-rule="evenodd" d="M47.7624 40.4607V38.3069H46.7359V40.4607H45.981V37.7434H48.5225V40.4607H47.7624Z" fill="#00C1DE"/>
<path fill-rule="evenodd" clip-rule="evenodd" d="M50.1128 38.5445C49.9667 38.6953 49.8937 38.8813 49.8937 39.1023C49.8937 39.3232 49.9667 39.5092 50.1128 39.6601C50.2589 39.8112 50.4336 39.8865 50.6374 39.8865C50.8518 39.8865 51.0294 39.8119 51.1698 39.6629C51.3104 39.5139 51.3808 39.3268 51.3808 39.1023C51.3808 38.8777 51.3104 38.6909 51.1698 38.5416C51.0294 38.3926 50.8518 38.3181 50.6374 38.3181C50.4336 38.3181 50.2589 38.3936 50.1128 38.5445ZM51.0008 37.8071C51.1653 37.8935 51.2901 38.0032 51.3751 38.1357C51.3678 37.9885 51.3639 37.8871 51.3639 37.832V37.7435H52.0967V40.4608H51.3639V40.3723C51.3639 40.3064 51.3678 40.1995 51.3751 40.052C51.2865 40.1884 51.1596 40.3017 50.9951 40.392C50.8305 40.482 50.6465 40.527 50.4432 40.527C50.0582 40.527 49.7437 40.3899 49.4999 40.1157C49.2555 39.8414 49.1334 39.5036 49.1334 39.1023C49.1334 38.701 49.2555 38.3631 49.4999 38.0889C49.7437 37.8146 50.0582 37.6772 50.4432 37.6772C50.6501 37.6772 50.836 37.7207 51.0008 37.8071Z" fill="#00C1DE"/>
<path fill-rule="evenodd" clip-rule="evenodd" d="M57.358 40.4607H56.4368L55.377 39.0525L56.3648 37.7434H57.2912L56.2371 39.058L57.358 40.4607ZM54.5834 40.4607H55.338V37.7434H54.5834V40.4607Z" fill="#00C1DE"/>
<path fill-rule="evenodd" clip-rule="evenodd" d="M58.4071 38.5418C58.2741 38.6911 58.2072 38.8778 58.2072 39.1024C58.2072 39.327 58.2741 39.5138 58.4071 39.6628C58.5405 39.8121 58.7087 39.8866 58.9122 39.8866C59.1157 39.8866 59.285 39.8121 59.4199 39.6628C59.5548 39.5138 59.6226 39.327 59.6226 39.1024C59.6226 38.8778 59.5548 38.6911 59.4199 38.5418C59.285 38.3927 59.1157 38.318 58.9122 38.318C58.7087 38.318 58.5405 38.3927 58.4071 38.5418ZM59.9611 38.0807C60.2273 38.3568 60.3606 38.6973 60.3606 39.1024C60.3606 39.4962 60.2262 39.8341 59.9582 40.1158C59.69 40.3976 59.3414 40.5383 58.9122 40.5383C58.483 40.5383 58.1355 40.3976 57.8691 40.1158C57.6026 39.8341 57.4698 39.4962 57.4698 39.1024C57.4698 38.6973 57.6026 38.3568 57.8691 38.0807C58.1355 37.8044 58.483 37.6663 58.9122 37.6663C59.3448 37.6663 59.6946 37.8044 59.9611 38.0807Z" fill="#00C1DE"/>
<path fill-rule="evenodd" clip-rule="evenodd" d="M63.8347 40.4607L63.718 38.5056L63.0245 40.4496H62.3473L61.698 38.5002L61.5764 40.4607H60.8937L61.1157 37.7434H62.1256L62.697 39.5715H62.7027L63.3299 37.7434H64.3286L64.5449 40.4607H63.8347Z" fill="#00C1DE"/>
<path fill-rule="evenodd" clip-rule="evenodd" d="M67.0706 40.4607V38.3069H66.0441V40.4607H65.2892V37.7434H67.8306V40.4607H67.0706Z" fill="#00C1DE"/>
<path fill-rule="evenodd" clip-rule="evenodd" d="M69.4209 38.5445C69.2748 38.6953 69.2018 38.8813 69.2018 39.1023C69.2018 39.3232 69.2748 39.5092 69.4209 39.6601C69.567 39.8112 69.7417 39.8865 69.9452 39.8865C70.16 39.8865 70.3375 39.8119 70.4779 39.6629C70.6185 39.5139 70.6889 39.3268 70.6889 39.1023C70.6889 38.8777 70.6185 38.6909 70.4779 38.5416C70.3375 38.3926 70.16 38.3181 69.9452 38.3181C69.7417 38.3181 69.567 38.3936 69.4209 38.5445ZM70.3089 37.8071C70.4734 37.8935 70.598 38.0032 70.6832 38.1357C70.6757 37.9885 70.672 37.8871 70.672 37.832V37.7435H71.4048V40.4608H70.672V40.3723C70.672 40.3064 70.6757 40.1995 70.6832 40.052C70.5946 40.1884 70.4677 40.3017 70.3032 40.392C70.1386 40.482 69.9546 40.527 69.7513 40.527C69.3663 40.527 69.0518 40.3899 68.8077 40.1157C68.5636 39.8414 68.4415 39.5036 68.4415 39.1023C68.4415 38.701 68.5636 38.3631 68.8077 38.0889C69.0518 37.8146 69.3663 37.6772 69.7513 37.6772C69.9582 37.6772 70.1441 37.7207 70.3089 37.8071Z" fill="#00C1DE"/>
<path fill-rule="evenodd" clip-rule="evenodd" d="M74.0304 40.4607V39.3617H72.9815V40.4607H72.2269V37.7434H72.9815V38.7816H74.0304V37.7434H74.7847V40.4607H74.0304Z" fill="#00C1DE"/>
<path fill-rule="evenodd" clip-rule="evenodd" d="M77.449 40.4608V38.9199C77.449 38.85 77.4601 38.7672 77.4822 38.6712H77.4768L76.378 40.4665H75.6068V37.7435H76.3005V39.2735C76.3005 39.3729 76.2912 39.4632 76.2727 39.5439H76.2782L77.3712 37.7383H78.1428V40.4608H77.449Z" fill="#00C1DE"/>
<path fill-rule="evenodd" clip-rule="evenodd" d="M81.1453 36.5894C81.138 36.8323 81.0491 37.0248 80.8791 37.1663C80.7086 37.3081 80.4941 37.379 80.2352 37.379C79.9761 37.379 79.7608 37.3081 79.5887 37.1663C79.4167 37.0248 79.327 36.8323 79.3197 36.5894H79.8911C79.869 36.6887 79.8921 36.7697 79.9602 36.8323C80.0288 36.8949 80.1206 36.9262 80.2352 36.9262C80.3499 36.9262 80.4406 36.8949 80.5071 36.8323C80.5737 36.7697 80.596 36.6887 80.5737 36.5894H81.1453ZM80.8066 40.4608V38.9199C80.8066 38.8501 80.8178 38.7673 80.8399 38.6713H80.8346L79.7356 40.4665H78.9644V37.7435H79.6581V39.2736C79.6581 39.3729 79.6488 39.463 79.6303 39.5439H79.6358L80.7289 37.7381H81.5004V40.4608H80.8066Z" fill="#00C1DE"/>
</g>
<defs>
<clipPath id="clip0_6_84133">
<rect width="102.938" height="45" fill="white"/>
</clipPath>
</defs>
</svg>
