<svg width="628" height="489" viewBox="0 0 628 489" fill="none" xmlns="http://www.w3.org/2000/svg">
<path fill-rule="evenodd" clip-rule="evenodd" d="M491.838 0.529297C522.297 0.529297 548.77 21.5144 555.7 51.1921L555.701 51.1965L570.395 114.069L605.407 100.756C613.667 97.6156 622.908 101.765 626.049 110.025C629.189 118.285 625.039 127.526 616.78 130.667L599.949 137.066C616.539 150.917 627.093 171.754 627.093 195.057V309.117C627.093 331.641 608.821 349.912 586.298 349.912H541.666C516.405 349.912 495.911 329.419 495.911 304.158V300.321H461.119C463.403 289.903 464.976 279.218 465.786 268.321H511.911C520.748 268.321 527.911 275.485 527.911 284.321V304.158C527.911 311.746 534.078 317.913 541.666 317.913H586.298C591.148 317.913 595.093 313.968 595.093 309.117V195.057C595.093 171.025 575.616 151.548 551.584 151.548H443.678C438.251 140.341 431.938 129.644 424.828 119.548H538.813L524.539 58.4748L524.538 58.4704C520.993 43.2804 507.437 32.5293 491.838 32.5293H331.559C326.09 32.5293 320.88 33.847 316.264 36.2088C304.443 31.8836 292.166 28.5059 279.524 26.1676C291.634 10.4202 310.624 0.529297 331.559 0.529297H491.838ZM536.707 198.894C545.543 198.894 552.707 206.057 552.707 214.894C552.707 223.73 545.543 230.894 536.707 230.894H487.116C478.279 230.894 471.116 223.73 471.116 214.894C471.116 206.057 478.279 198.894 487.116 198.894H536.707Z" fill="#E4E6E8"/>
<path fill-rule="evenodd" clip-rule="evenodd" d="M238.169 72.2021C285.483 72.2021 330.86 90.9979 364.316 124.454C433.984 194.123 433.983 307.077 364.315 376.745C294.646 446.413 181.691 446.413 112.023 376.745C42.3544 307.077 42.3539 194.123 112.022 124.454C145.478 90.9979 190.854 72.2021 238.169 72.2021ZM386.944 101.827C347.486 62.3694 293.97 40.2021 238.169 40.2021C182.367 40.2021 128.851 62.3694 89.3941 101.827C11.0359 180.186 7.40656 304.975 78.5057 387.636L4.68713 461.454C-1.56125 467.702 -1.56125 477.833 4.68713 484.081C10.9355 490.33 21.0661 490.33 27.3145 484.081L101.133 410.263C183.794 481.361 308.583 477.731 386.942 399.373C469.107 317.208 469.108 183.993 386.944 101.827Z" fill="#E4E6E8"/>
<path fill-rule="evenodd" clip-rule="evenodd" d="M260.002 87.7285L254.52 113.912L220.071 100.763C211.816 97.6122 202.569 101.75 199.418 110.006C196.267 118.262 200.405 127.509 208.661 130.66L225.488 137.082C208.91 150.933 198.364 171.763 198.364 195.057V309.117C198.364 331.64 216.636 349.912 239.159 349.912H283.791C309.052 349.912 329.546 329.419 329.546 304.158V300.321H391.075C394.596 290.081 397.117 279.375 398.52 268.321H313.546C304.709 268.321 297.546 275.485 297.546 284.321V304.158C297.546 311.746 291.379 317.912 283.791 317.912H239.159C234.309 317.912 230.364 313.967 230.364 309.117V195.057C230.364 171.025 249.841 151.548 273.873 151.548H368.02C359.048 139.475 348.43 128.697 336.498 119.548H286.034L291.147 95.1249C281.173 91.6734 270.755 89.1718 260.002 87.7285ZM338.342 198.894C347.178 198.894 354.342 206.057 354.342 214.894C354.342 223.73 347.178 230.894 338.342 230.894H288.75C279.914 230.894 272.75 223.73 272.75 214.894C272.75 206.057 279.914 198.894 288.75 198.894H338.342Z" fill="#474450"/>
</svg>
