<svg xmlns="http://www.w3.org/2000/svg" width="106" height="112" viewBox="0 0 106 112">
    <g fill="none" fill-rule="evenodd" transform="translate(1)">
        <path stroke="#3ABBD5" stroke-linecap="round" stroke-linejoin="round" stroke-width="1.6" d="M51 5C22.833 5 0 27.833 0 56c0 16.67 7.999 31.473 20.367 40.78"/>
        <path stroke="#3ABBD5" stroke-linecap="round" stroke-linejoin="round" stroke-width="1.6" d="M45.659.88l6.378 3.966-5.415 5.206M53 107c28.167 0 51-22.833 51-51 0-16.67-7.999-31.473-20.367-40.78"/>
        <path stroke="#3ABBD5" stroke-linecap="round" stroke-linejoin="round" stroke-width="1.6" d="M58.341 111.12l-6.378-3.966 5.415-5.206"/>
        <path d="M21.434 46.267l.486-1.022.21-.44h.008c.377-.77.772-1.527 1.184-2.269h-3.599c-1.324 0-2.4.983-2.4 2.192v1.616c0 1.21 1.076 2.192 2.4 2.192h.806c.278-.75.595-1.508.933-2.269h-.028zM87.924 42.536h-3.602c.423.76.818 1.516 1.186 2.27h.01l.209.44.486 1.021h-.029c.339.761.655 1.519.933 2.269h.805c1.324 0 2.4-.983 2.4-2.192v-1.616c.002-1.21-1.074-2.192-2.398-2.192z"/>
        <path fill="#3ABBD5"  d="M87.596 40.604h-4.143C82.112 38.136 77.236 30.296 75.094 28c-1.888-2-3.736-3.299-8.149-3.299H39.26c-2.75 0-5.395 1.227-7.258 3.364-2.606 2.992-6.003 7.363-8.814 12.54h-4.14c-2.054 0-3.725 1.685-3.725 3.755v1.662c0 2.07 1.671 3.755 3.726 3.755h.281c-.888 3.038-1.346 5.978-1.346 8.78v9.907c0 3.474 2.613 6.34 5.96 6.715v3.601c0 2.07 1.672 3.756 3.727 3.756h5.96c2.054 0 3.726-1.685 3.726-3.756v-3.556H69.134l.154 3.556c0 2.07 1.672 3.756 3.726 3.756h5.96c2.055 0 3.727-1.685 3.727-3.756v-3.6c3.347-.376 5.96-3.243 5.96-6.716v-9.907c0-2.803-.456-5.742-1.346-8.78h.282c2.053 0 3.725-1.684 3.725-3.755V44.36c0-2.07-1.672-3.756-3.726-3.756zM33.12 29.056c1.58-1.813 3.817-2.853 6.14-2.853h27.532c2.617-.086 5.045 1.22 6.732 2.797 1.767 1.653 2.772 3.273 3.562 4.48 2.743 3.675 4.971 7.355 6.629 10.96H22.929c2.95-6.415 7.13-11.87 10.191-15.384zM16.813 46.022V44.36a2.246 2.246 0 0 1 2.235-2.253h3.351a51.752 51.752 0 0 0-1.102 2.333l-.203.452-.453 1.05h.027c-.315.783-.61 1.562-.87 2.333h-.75a2.246 2.246 0 0 1-2.235-2.253zM33.63 81.034h-5.96a2.247 2.247 0 0 1-2.236-2.254v-3.556h10.432v3.556a2.246 2.246 0 0 1-2.236 2.254zm45.344 0h-5.96a2.247 2.247 0 0 1-2.236-2.254v-3.556h10.431v3.556a2.246 2.246 0 0 1-2.235 2.254zm2.98-7.313H24.69c-2.876 0-5.216-2.359-5.216-5.258V64.42h67.696v4.044c.001 2.899-2.339 5.258-5.214 5.258zm-62.48-10.804v-4.36c0-3.94.94-8.181 2.795-12.615h62.106c1.855 4.434 2.795 8.675 2.795 12.614v4.361H19.474zm68.122-14.642h-.75c-.26-.771-.554-1.55-.869-2.333h.026l-.452-1.05-.195-.452a65.517 65.517 0 0 0-1.113-2.333h3.354a2.246 2.246 0 0 1 2.236 2.253v1.662a2.249 2.249 0 0 1-2.237 2.253z"/>
        <path fill="#FFF" d="M19.473 59.347h67.699v6H19.473z"/>
        <rect width="14.178" height="6.5" x="25.304" y="56.097" stroke="#3ABBD5" stroke-width="1.5" rx="2"/>
        <rect width="14.178" height="6.5" x="65.304" y="56.097" stroke="#3ABBD5" stroke-width="1.5" rx="2"/>
        <path stroke="#3ABBD5" stroke-linecap="square" d="M37.5 44.5l14-19"/>
    </g>
</svg>
