<svg xmlns="http://www.w3.org/2000/svg" width="77" height="77" viewBox="0 0 77 77">
    <g fill="none" fill-rule="evenodd">
        <path d="M6.434 40.267l.486-1.022.21-.44h.008c.377-.77.772-1.527 1.184-2.269H4.723c-1.324 0-2.4.983-2.4 2.192v1.616c0 1.21 1.076 2.192 2.4 2.192h.806c.278-.75.595-1.508.933-2.269h-.028zM60.822 26.536c5.79 0 10.5-4.71 10.5-10.5s-4.71-10.5-10.5-10.5-10.5 4.71-10.5 10.5 4.71 10.5 10.5 10.5zm-4.28-13.72a.75.75 0 1 1 1.06-1.06l3.22 3.22 3.22-3.22a.75.75 0 1 1 1.06 1.06l-3.219 3.22 3.22 3.22a.75.75 0 1 1-1.06 1.06l-3.22-3.22-3.22 3.22a.748.748 0 0 1-1.061 0 .75.75 0 0 1 0-1.06l3.22-3.22-3.22-3.22zM72.924 36.536h-3.602c.423.76.818 1.516 1.186 2.27h.01l.209.44.486 1.021h-.029c.339.761.655 1.519.933 2.269h.805c1.324 0 2.4-.983 2.4-2.192v-1.616c.002-1.21-1.074-2.192-2.398-2.192z"/>
        <path fill="#3ABBD5"  d="M72.596 34.604h-4.143c-1.341-2.468-2.929-4.956-4.746-7.441a12.011 12.011 0 0 0 8.889-11.609c0-6.626-5.348-12.018-11.922-12.018-6.573 0-11.922 5.391-11.922 12.018 0 1.09.158 2.142.43 3.147H24.258c-2.75 0-5.395 1.227-7.258 3.364-2.606 2.992-6.003 7.363-8.814 12.54h-4.14c-2.054 0-3.725 1.685-3.725 3.755v1.662c0 2.07 1.671 3.755 3.726 3.755h.281c-.888 3.038-1.346 5.978-1.346 8.78v9.907c0 3.474 2.613 6.34 5.96 6.715v3.601c0 2.07 1.672 3.756 3.727 3.756h5.96c2.054 0 3.726-1.685 3.726-3.756v-3.556H54.134l.154 3.556c0 2.07 1.672 3.756 3.726 3.756h5.96c2.055 0 3.727-1.685 3.727-3.756v-3.6c3.347-.376 5.96-3.243 5.96-6.716v-9.907c0-2.803-.456-5.742-1.346-8.78h.282c2.053 0 3.725-1.684 3.725-3.755V38.36c0-2.07-1.672-3.756-3.726-3.756zM60.675 5.038c5.752 0 10.431 4.717 10.431 10.516S66.427 26.07 60.675 26.07c-5.752 0-10.431-4.718-10.431-10.516s4.679-10.516 10.43-10.516zM18.12 23.056c1.58-1.813 3.817-2.853 6.14-2.853h25.422c1.806 4.324 6.053 7.368 10.992 7.368.479 0 .947-.036 1.412-.092 2.743 3.676 4.971 7.356 6.629 10.96H7.929c2.95-6.414 7.13-11.868 10.191-15.383zM1.813 40.022V38.36a2.246 2.246 0 0 1 2.235-2.253h3.351a51.752 51.752 0 0 0-1.102 2.333l-.203.452-.453 1.05h.027c-.315.783-.61 1.562-.87 2.333h-.75a2.246 2.246 0 0 1-2.235-2.253zM18.63 75.034h-5.96a2.247 2.247 0 0 1-2.236-2.254v-3.556h10.432v3.556a2.246 2.246 0 0 1-2.236 2.254zm45.344 0h-5.96a2.247 2.247 0 0 1-2.236-2.254v-3.556h10.431v3.556a2.246 2.246 0 0 1-2.235 2.254zm2.98-7.313H9.69c-2.876 0-5.216-2.359-5.216-5.258V58.42h67.696v4.044c.001 2.899-2.339 5.258-5.214 5.258zM4.475 56.917v-4.36c0-3.94.94-8.181 2.795-12.615h62.106c1.855 4.434 2.795 8.675 2.795 12.614v4.361H4.474zm68.122-14.642h-.75c-.26-.771-.554-1.55-.869-2.333h.026l-.452-1.05-.195-.452a65.517 65.517 0 0 0-1.113-2.333h3.354a2.246 2.246 0 0 1 2.236 2.253v1.662a2.249 2.249 0 0 1-2.237 2.253z"/>
        <path fill="#FFF" d="M4.473 53.347h67.699v6H4.473z"/>
        <path fill="#3ABBD5"  d="M11.554 50.847a.5.5 0 0 0-.5.5v4a.5.5 0 0 0 .5.5H23.23a.5.5 0 0 0 .5-.5v-4a.5.5 0 0 0-.5-.5H11.554zm0-1.5H23.23a2 2 0 0 1 2 2v4a2 2 0 0 1-2 2H11.554a2 2 0 0 1-2-2v-4a2 2 0 0 1 2-2zM51.554 50.847a.5.5 0 0 0-.5.5v4a.5.5 0 0 0 .5.5H63.23a.5.5 0 0 0 .5-.5v-4a.5.5 0 0 0-.5-.5H51.554zm0-1.5H63.23a2 2 0 0 1 2 2v4a2 2 0 0 1-2 2H51.554a2 2 0 0 1-2-2v-4a2 2 0 0 1 2-2z"/>
        <circle cx="61.183" cy="15.5" r="14.5" fill="#FFF"/>
        <path fill="#3ABBD5"  d="M22.606 39.2l14.593-19.806-.805-.593-14.593 19.805zM61.5 30.75c-8.422 0-15.25-6.828-15.25-15.25S53.078.25 61.5.25 76.75 7.078 76.75 15.5 69.922 30.75 61.5 30.75zm0-1.5c7.594 0 13.75-6.156 13.75-13.75S69.094 1.75 61.5 1.75 47.75 7.906 47.75 15.5s6.156 13.75 13.75 13.75z"/>
        <path fill="#3ABBD5" d="M56.551 7.4c1.104 0 2.028.408 2.772 1.224.744.816 1.116 1.848 1.116 3.096s-.372 2.28-1.116 3.096c-.744.816-1.668 1.224-2.772 1.224-1.136 0-2.076-.408-2.82-1.224-.744-.816-1.116-1.848-1.116-3.096s.372-2.28 1.116-3.096c.744-.816 1.684-1.224 2.82-1.224zM57.08 23h-1.824L66.44 7.592h1.824L57.08 23zm-.528-14.112c-.72 0-1.308.26-1.764.78-.456.52-.684 1.196-.684 2.028 0 .832.228 1.516.684 2.052.456.536 1.044.804 1.764.804.704 0 1.284-.268 1.74-.804.456-.536.684-1.22.684-2.052 0-.832-.228-1.508-.684-2.028-.456-.52-1.036-.78-1.74-.78zm10.392 5.736c1.104 0 2.028.408 2.772 1.224.744.816 1.116 1.848 1.116 3.096s-.372 2.284-1.116 3.108c-.744.824-1.668 1.236-2.772 1.236-1.136 0-2.076-.408-2.82-1.224-.744-.816-1.116-1.856-1.116-3.12 0-1.248.372-2.28 1.116-3.096.744-.816 1.684-1.224 2.82-1.224zm0 1.488c-.72 0-1.312.26-1.776.78-.464.52-.696 1.196-.696 2.028 0 .832.232 1.52.696 2.064a2.23 2.23 0 0 0 1.776.816c.704 0 1.284-.268 1.74-.804.456-.536.684-1.228.684-2.076 0-.832-.228-1.508-.684-2.028-.456-.52-1.036-.78-1.74-.78z"/>
    </g>
</svg>
