<svg xmlns="http://www.w3.org/2000/svg" width="82" height="59" viewBox="0 0 82 59">
    <g fill="none" fill-rule="evenodd" stroke="#3ABBD5" stroke-linecap="round" stroke-linejoin="round" stroke-width="1.5">
        <path d="M58.818 51.311V52a6 6 0 0 0 6 6h3.512a6 6 0 0 0 6-6V31.098c4.84-1.056 7.046-3.025 6.618-5.91-.429-2.884-3.448-4.209-9.057-3.976-3.456-9.12-6.463-14.819-9.022-17.097C60.31 1.836 53.02.808 41 1.029M23.182 51.311V52a6 6 0 0 1-6 6H13.67a6 6 0 0 1-6-6V31.098c-4.84-1.056-7.046-3.025-6.618-5.91.429-2.884 3.448-4.209 9.057-3.976 3.456-9.12 6.463-14.819 9.022-17.097C21.69 1.836 28.98.808 41 1.029M34.5 16.5v22.023M31 32h16"/>
        <path d="M31.386 27h11.89C47.093 26.683 49 24.956 49 21.82c0-3.137-1.908-5.077-5.723-5.82H31M14.444 50.5h54.112"/>
    </g>
</svg>
