<svg width="135" height="44" viewBox="0 0 135 44" fill="none" xmlns="http://www.w3.org/2000/svg">
<path fill-rule="evenodd" clip-rule="evenodd" d="M123.138 12.4496C118.634 13.7129 115.782 17.6498 115.782 22.6038C115.782 30.6946 123.714 35.7201 130.938 32.206C132.163 31.6102 134.893 29.229 134.893 28.7564C134.893 28.5128 131.917 26.5278 131.552 26.5278C131.419 26.5278 130.985 26.8686 130.59 27.2854C128.299 29.6964 124.466 29.8344 122.218 27.5865C121.625 26.9936 121.175 26.3362 121.217 26.1255C121.267 25.8795 123.752 24.7158 128.155 22.8763C135.822 19.6731 135.344 20.0751 134.221 17.7785C132.101 13.4397 127.499 11.2266 123.138 12.4496ZM127.71 16.4983C128.488 16.7923 129.748 17.9096 129.747 18.3047C129.745 18.6095 120.503 22.5102 120.289 22.2961C120.015 22.0224 120.702 19.5437 121.305 18.6311C122.18 17.3056 124.155 16.2428 125.75 16.2399C126.449 16.2386 127.331 16.355 127.71 16.4983Z" fill="#EA4335"/>
<path fill-rule="evenodd" clip-rule="evenodd" d="M107.942 17.0952V32.6529H110.147H112.352V17.0952V1.53748H110.147H107.942V17.0952Z" fill="#34A853"/>
<path fill-rule="evenodd" clip-rule="evenodd" d="M91.2381 12.432C88.0339 13.2457 85.1943 15.9924 84.0523 19.3833C81.7861 26.1125 86.5923 33.0826 93.6097 33.2431C94.9638 33.274 97.1044 32.5365 98.1881 31.6655C98.6859 31.2655 99.1708 30.9379 99.2654 30.9379C99.3599 30.9379 99.3766 31.7925 99.3026 32.8367C99.0147 36.8978 97.2313 38.7939 93.6837 38.8108C91.8312 38.8197 90.2522 38.0592 89.1656 36.6345C88.7402 36.0768 88.3531 35.5033 88.3054 35.36C88.236 35.1524 84.8775 36.3331 84.4537 36.7141C84.2238 36.9204 85.7294 39.0331 86.8593 40.0898C88.7263 41.8361 90.4288 42.5305 93.1456 42.6527C98.166 42.8791 101.475 40.6893 103.074 36.083C103.609 34.5416 103.63 34.1411 103.72 23.649L103.813 12.8076H101.59H99.3673V13.6651C99.3673 14.1367 99.3021 14.5226 99.2225 14.5226C99.1429 14.5226 98.6475 14.1544 98.1219 13.7046C96.5485 12.3578 93.6447 11.821 91.2381 12.432ZM96.4042 16.8845C97.3943 17.3779 97.9144 17.8576 98.596 18.9057C99.4743 20.2567 99.4895 20.3226 99.4898 22.7516C99.4898 25.1891 99.4775 25.2413 98.5889 26.5795C95.9233 30.5944 89.9616 29.8006 88.4386 25.2278C86.5264 19.4869 91.3944 14.3881 96.4042 16.8845Z" fill="#4285F4"/>
<path fill-rule="evenodd" clip-rule="evenodd" d="M67.2068 12.4512C62.393 13.7475 59.1754 18.0331 59.3287 22.9437C59.4958 28.2887 63.1194 32.3967 68.3863 33.212C74.0295 34.0855 79.4801 30.0385 80.3648 24.3187C81.5241 16.8228 74.4999 10.4875 67.2068 12.4512ZM72.9122 17.0876C76.3781 19.1187 76.8943 24.6575 73.89 27.5752C71.6341 29.7663 67.8201 29.6607 65.6285 27.3467C63.899 25.5201 63.4223 22.1812 64.5463 19.7672C65.1755 18.4158 66.6017 17.057 67.9139 16.5582C69.2281 16.0586 71.5819 16.308 72.9122 17.0876Z" fill="#FBBC05"/>
<path fill-rule="evenodd" clip-rule="evenodd" d="M43.0777 12.4512C38.2639 13.7475 35.0462 18.0331 35.1996 22.9437C35.3667 28.2887 38.9903 32.3967 44.2571 33.212C49.9003 34.0855 55.3509 30.0385 56.2356 24.3186C57.395 16.8228 50.3707 10.4875 43.0777 12.4512ZM48.7831 17.0876C52.2489 19.1187 52.7651 24.6575 49.7609 27.5752C47.5049 29.7663 43.6909 29.6607 41.4994 27.3466C39.7699 25.5201 39.2931 22.1812 40.4172 19.7672C41.0464 18.4158 42.4725 17.057 43.7848 16.5582C45.099 16.0586 47.4527 16.308 48.7831 17.0876Z" fill="#EA4335"/>
<path fill-rule="evenodd" clip-rule="evenodd" d="M14.972 0.570922C11.2764 1.14497 8.32528 2.65076 5.6469 5.3289C1.9199 9.05614 0.212961 13.8491 0.879371 18.7166C1.4174 22.6462 2.88277 25.5721 5.77553 28.4933C8.2383 30.9803 10.8557 32.3352 14.5957 33.0587C15.6592 33.2645 18.8528 33.2978 19.6182 33.1113C20.0225 33.0128 20.7391 32.8825 21.2108 32.8217C23.5194 32.5241 26.3463 30.9693 28.4371 28.8475C31.1748 26.0692 32.5735 22.2013 32.4297 17.8069L32.3584 15.6252L24.9471 15.5603L17.5357 15.4956V17.5815V19.6677H22.8366H28.1375L27.9824 20.7994C27.722 22.6989 26.6601 24.7094 25.2242 26.0219C23.5476 27.5542 22.1937 28.1946 19.6859 28.642C17.4977 29.0325 15.8131 28.9453 13.6188 28.3284C8.2361 26.815 4.56398 20.7803 5.49402 14.9764C6.26945 10.1386 9.99253 6.02961 14.565 4.96556C15.3657 4.77911 16.7666 4.70512 18.1389 4.7769C20.6122 4.90626 22.217 5.47712 24.2868 6.96356L25.39 7.75566L26.8679 6.30034L28.3458 4.84501L27.2896 3.926C24.2527 1.28364 19.2164 -0.088138 14.972 0.570922Z" fill="#4285F4"/>
</svg>
