<svg width="120" height="36" viewBox="0 0 120 36" fill="none" xmlns="http://www.w3.org/2000/svg">
<path d="M114.349 30.821C116.7 30.821 118.366 30.3936 119.605 29.4963V25.3504C118.323 26.2487 116.784 26.8034 114.648 26.8034C111.016 26.8034 109.52 23.9843 109.52 19.5383C109.52 14.8811 111.357 12.4884 114.691 12.4884C116.656 12.4884 118.579 13.1724 119.605 13.8131V9.49741C118.537 8.89922 116.656 8.4718 114.135 8.4718C107.64 8.4718 104.264 13.13 104.264 19.6676C104.264 26.8469 107.554 30.821 114.349 30.821ZM82.5564 28.9405V24.7957C80.975 25.8637 78.3256 26.8034 75.847 26.8034C72.1285 26.8034 70.7189 25.0513 70.5057 21.4622H82.7696V18.7703C82.7696 11.292 79.4795 8.4718 74.3939 8.4718C68.1978 8.4718 65.2493 13.2149 65.2493 19.7101C65.2493 27.1874 68.9244 30.821 75.4195 30.821C78.6671 30.821 81.0599 29.9662 82.5564 28.9405ZM35.9775 8.89821V17.4012H29.1832V8.89821H24.0986V30.3926H29.1832V21.4187H35.9775V30.3916H41.0641V8.90023H35.9785L35.9775 8.89821ZM64.0115 26.376H61.7461V8.89922H46.9177V10.7362C46.9177 15.9926 46.5751 22.7869 44.7806 26.376H43.1992V35.3074H47.8999V30.3936H59.3099V35.3074H64.0105V26.376H64.0115ZM98.7954 30.3936H104.564L96.4026 18.8128L103.581 8.89922H98.4538L91.2746 18.8128V8.89922H86.1889V30.3936H91.2746V19.8384L98.7954 30.3936ZM74.3101 12.4884C76.8311 12.4884 77.6001 14.582 77.6001 17.2739V17.7013H70.5067C70.635 14.2829 71.8739 12.4884 74.3101 12.4884ZM56.6605 26.376H49.4812C50.8918 23.1284 51.2758 17.2739 51.2758 13.5564V12.9158H56.6605V26.376Z" fill="black"/>
<path d="M19.8245 30.3926H14.655V4.71089H12.3471C8.11635 4.71089 5.89437 6.84699 5.89437 10.0097C5.89437 13.5988 7.43329 15.2661 10.595 17.4022L13.202 19.1543L5.68116 30.3926H0.083252L6.8351 20.3507C2.94586 17.5729 0.766318 14.8811 0.766318 10.3088C0.766318 4.58256 4.74043 0.694336 12.3047 0.694336H19.8255V30.3926H19.8245Z" fill="#FC3F1D"/>
</svg>
