<svg width="50" height="50" viewBox="0 0 50 50" fill="none" xmlns="http://www.w3.org/2000/svg">
<path d="M39.5833 16.3083C39.5833 15.2042 39.1437 14.1437 38.3625 13.3625L32.4708 7.47083C31.6895 6.68958 30.6291 6.25 29.525 6.25H14.5833C12.2812 6.25 10.4166 8.11458 10.4166 10.4167" stroke="white" stroke-width="3" stroke-linecap="round" stroke-linejoin="round"/>
<path d="M10.4166 39.5835C10.4166 41.8856 12.2812 43.7502 14.5833 43.7502H35.4166C37.7187 43.7502 39.5833 41.8856 39.5833 39.5835" stroke="white" stroke-width="3" stroke-linecap="round" stroke-linejoin="round"/>
<path d="M10.4062 21.854C10.4 21.854 10.3958 21.8582 10.3958 21.8644C10.3958 21.8707 10.4 21.8748 10.4062 21.8748C10.4125 21.8748 10.4166 21.8707 10.4166 21.8644C10.4166 21.8582 10.4125 21.854 10.4062 21.854" stroke="white" stroke-width="3" stroke-linecap="round" stroke-linejoin="round"/>
<path d="M10.3854 28.125C10.3792 28.125 10.375 28.1292 10.375 28.1354C10.375 28.1417 10.3792 28.1458 10.3854 28.1458C10.3917 28.1458 10.3958 28.1417 10.3958 28.1354C10.3958 28.1292 10.3917 28.125 10.3854 28.125" stroke="white" stroke-width="3" stroke-linecap="round" stroke-linejoin="round"/>
<path d="M10.4062 34.354C10.4 34.354 10.3958 34.3582 10.3958 34.3644C10.3958 34.3707 10.4 34.3748 10.4062 34.3748C10.4125 34.3748 10.4166 34.3707 10.4166 34.3644C10.4166 34.3582 10.4125 34.354 10.4062 34.354" stroke="white" stroke-width="3" stroke-linecap="round" stroke-linejoin="round"/>
<path d="M10.4062 15.625C10.4 15.625 10.3958 15.6292 10.3958 15.6354C10.3958 15.6417 10.4 15.6458 10.4062 15.6458C10.4125 15.6458 10.4166 15.6417 10.4166 15.6354C10.4166 15.6292 10.4125 15.625 10.4062 15.625" stroke="white" stroke-width="3" stroke-linecap="round" stroke-linejoin="round"/>
<path d="M39.5729 21.854C39.5666 21.854 39.5624 21.8582 39.5624 21.8644C39.5624 21.8707 39.5666 21.8748 39.5729 21.8748C39.5791 21.8748 39.5833 21.8707 39.5833 21.8644C39.5833 21.8582 39.5791 21.854 39.5729 21.854" stroke="white" stroke-width="3" stroke-linecap="round" stroke-linejoin="round"/>
<path d="M39.5521 28.125C39.5459 28.125 39.5417 28.1292 39.5417 28.1354C39.5417 28.1417 39.5459 28.1458 39.5521 28.1458C39.5584 28.1458 39.5625 28.1417 39.5625 28.1354C39.5625 28.1292 39.5584 28.125 39.5521 28.125" stroke="white" stroke-width="3" stroke-linecap="round" stroke-linejoin="round"/>
<path d="M39.5729 34.354C39.5666 34.354 39.5624 34.3582 39.5624 34.3644C39.5624 34.3707 39.5666 34.3748 39.5729 34.3748C39.5791 34.3748 39.5833 34.3707 39.5833 34.3644C39.5833 34.3582 39.5791 34.354 39.5729 34.354" stroke="white" stroke-width="3" stroke-linecap="round" stroke-linejoin="round"/>
<path d="M24.0929 30.15C23.5629 30.15 23.0229 30.08 22.4729 29.94C21.9229 29.8 21.4179 29.585 20.9579 29.295C20.7679 29.175 20.6379 29.035 20.5679 28.875C20.5079 28.705 20.4929 28.54 20.5229 28.38C20.5629 28.21 20.6379 28.07 20.7479 27.96C20.8679 27.84 21.0079 27.77 21.1679 27.75C21.3379 27.73 21.5229 27.775 21.7229 27.885C22.0929 28.095 22.4679 28.255 22.8479 28.365C23.2279 28.475 23.6329 28.53 24.0629 28.53C24.4829 28.53 24.8429 28.455 25.1429 28.305C25.4429 28.155 25.6729 27.945 25.8329 27.675C25.9929 27.405 26.0729 27.09 26.0729 26.73C26.0729 26.17 25.9029 25.72 25.5629 25.38C25.2229 25.03 24.7579 24.855 24.1679 24.855C23.8479 24.855 23.5379 24.91 23.2379 25.02C22.9379 25.12 22.6429 25.3 22.3529 25.56C22.2629 25.64 22.1479 25.72 22.0079 25.8C21.8679 25.87 21.7179 25.905 21.5579 25.905C21.3079 25.905 21.1179 25.84 20.9879 25.71C20.8579 25.58 20.7929 25.4 20.7929 25.17V20.265C20.7929 19.995 20.8629 19.79 21.0029 19.65C21.1529 19.5 21.3629 19.425 21.6329 19.425H26.5679C26.8379 19.425 27.0429 19.495 27.1829 19.635C27.3329 19.765 27.4079 19.96 27.4079 20.22C27.4079 20.47 27.3329 20.665 27.1829 20.805C27.0429 20.945 26.8379 21.015 26.5679 21.015H22.6679V24.375H22.1729C22.4329 24.025 22.7779 23.755 23.2079 23.565C23.6379 23.375 24.1079 23.28 24.6179 23.28C25.2879 23.28 25.8679 23.425 26.3579 23.715C26.8579 23.995 27.2429 24.39 27.5129 24.9C27.7929 25.4 27.9329 25.985 27.9329 26.655C27.9329 27.345 27.7779 27.955 27.4679 28.485C27.1579 29.005 26.7129 29.415 26.1329 29.715C25.5629 30.005 24.8829 30.15 24.0929 30.15Z" fill="white"/>
</svg>
