<svg width="50" height="50" viewBox="0 0 50 50" fill="none" xmlns="http://www.w3.org/2000/svg">
<path d="M39.5833 16.3083C39.5833 15.2042 39.1437 14.1437 38.3625 13.3625L32.4708 7.47083C31.6895 6.68958 30.6291 6.25 29.525 6.25H14.5833C12.2812 6.25 10.4166 8.11458 10.4166 10.4167" stroke="white" stroke-width="3" stroke-linecap="round" stroke-linejoin="round"/>
<path d="M10.4166 39.5833C10.4166 41.8853 12.2812 43.7499 14.5833 43.7499H35.4166C37.7187 43.7499 39.5833 41.8853 39.5833 39.5833" stroke="white" stroke-width="3" stroke-linecap="round" stroke-linejoin="round"/>
<path d="M10.4062 21.8542C10.4 21.8542 10.3958 21.8584 10.3958 21.8647C10.3958 21.8709 10.4 21.8751 10.4062 21.8751C10.4125 21.8751 10.4166 21.8709 10.4166 21.8647C10.4166 21.8584 10.4125 21.8542 10.4062 21.8542" stroke="white" stroke-width="3" stroke-linecap="round" stroke-linejoin="round"/>
<path d="M10.3854 28.125C10.3792 28.125 10.375 28.1292 10.375 28.1354C10.375 28.1417 10.3792 28.1458 10.3854 28.1458C10.3917 28.1458 10.3958 28.1417 10.3958 28.1354C10.3958 28.1292 10.3917 28.125 10.3854 28.125" stroke="white" stroke-width="3" stroke-linecap="round" stroke-linejoin="round"/>
<path d="M10.4062 34.3542C10.4 34.3542 10.3958 34.3584 10.3958 34.3647C10.3958 34.3709 10.4 34.3751 10.4062 34.3751C10.4125 34.3751 10.4166 34.3709 10.4166 34.3647C10.4166 34.3584 10.4125 34.3542 10.4062 34.3542" stroke="white" stroke-width="3" stroke-linecap="round" stroke-linejoin="round"/>
<path d="M10.4062 15.625C10.4 15.625 10.3958 15.6292 10.3958 15.6354C10.3958 15.6417 10.4 15.6458 10.4062 15.6458C10.4125 15.6458 10.4166 15.6417 10.4166 15.6354C10.4166 15.6292 10.4125 15.625 10.4062 15.625" stroke="white" stroke-width="3" stroke-linecap="round" stroke-linejoin="round"/>
<path d="M39.5729 21.8542C39.5666 21.8542 39.5624 21.8584 39.5624 21.8647C39.5624 21.8709 39.5666 21.8751 39.5729 21.8751C39.5791 21.8751 39.5833 21.8709 39.5833 21.8647C39.5833 21.8584 39.5791 21.8542 39.5729 21.8542" stroke="white" stroke-width="3" stroke-linecap="round" stroke-linejoin="round"/>
<path d="M39.5521 28.125C39.5459 28.125 39.5417 28.1292 39.5417 28.1354C39.5417 28.1417 39.5459 28.1458 39.5521 28.1458C39.5584 28.1458 39.5625 28.1417 39.5625 28.1354C39.5625 28.1292 39.5584 28.125 39.5521 28.125" stroke="white" stroke-width="3" stroke-linecap="round" stroke-linejoin="round"/>
<path d="M39.5729 34.3542C39.5666 34.3542 39.5624 34.3584 39.5624 34.3647C39.5624 34.3709 39.5666 34.3751 39.5729 34.3751C39.5791 34.3751 39.5833 34.3709 39.5833 34.3647C39.5833 34.3584 39.5791 34.3542 39.5729 34.3542" stroke="white" stroke-width="3" stroke-linecap="round" stroke-linejoin="round"/>
<path d="M22.4979 30C22.1779 30 21.9429 29.93 21.7929 29.79C21.6529 29.64 21.5829 29.425 21.5829 29.145C21.5829 28.975 21.6279 28.81 21.7179 28.65C21.8079 28.49 21.9379 28.32 22.1079 28.14L25.1229 24.93C25.5829 24.45 25.9129 24.015 26.1129 23.625C26.3129 23.225 26.4129 22.825 26.4129 22.425C26.4129 21.925 26.2529 21.545 25.9329 21.285C25.6229 21.025 25.1679 20.895 24.5679 20.895C24.2279 20.895 23.8879 20.945 23.5479 21.045C23.2079 21.135 22.8629 21.295 22.5129 21.525C22.3329 21.645 22.1629 21.695 22.0029 21.675C21.8529 21.655 21.7179 21.59 21.5979 21.48C21.4879 21.37 21.4129 21.235 21.3729 21.075C21.3329 20.915 21.3379 20.755 21.3879 20.595C21.4479 20.425 21.5679 20.28 21.7479 20.16C22.1779 19.87 22.6579 19.65 23.1879 19.5C23.7279 19.35 24.2679 19.275 24.8079 19.275C25.5679 19.275 26.2079 19.39 26.7279 19.62C27.2479 19.85 27.6429 20.185 27.9129 20.625C28.1829 21.065 28.3179 21.6 28.3179 22.23C28.3179 22.65 28.2479 23.06 28.1079 23.46C27.9779 23.86 27.7729 24.265 27.4929 24.675C27.2229 25.085 26.8679 25.52 26.4279 25.98L23.6079 28.92V28.41H28.0179C28.2879 28.41 28.4929 28.475 28.6329 28.605C28.7729 28.735 28.8429 28.93 28.8429 29.19C28.8429 29.45 28.7729 29.65 28.6329 29.79C28.4929 29.93 28.2879 30 28.0179 30H22.4979Z" fill="white"/>
</svg>
