<svg width="50" height="50" viewBox="0 0 50 50" fill="none" xmlns="http://www.w3.org/2000/svg">
<path d="M39.5833 16.3083C39.5833 15.2042 39.1437 14.1437 38.3625 13.3625L32.4708 7.47083C31.6895 6.68958 30.6291 6.25 29.525 6.25H14.5833C12.2812 6.25 10.4166 8.11458 10.4166 10.4167" stroke="white" stroke-width="3" stroke-linecap="round" stroke-linejoin="round"/>
<path d="M10.4166 39.5833C10.4166 41.8853 12.2812 43.7499 14.5833 43.7499H35.4166C37.7187 43.7499 39.5833 41.8853 39.5833 39.5833" stroke="white" stroke-width="3" stroke-linecap="round" stroke-linejoin="round"/>
<path d="M10.4062 21.8541C10.4 21.8541 10.3958 21.8583 10.3958 21.8645C10.3958 21.8708 10.4 21.875 10.4062 21.875C10.4125 21.875 10.4166 21.8708 10.4166 21.8645C10.4166 21.8583 10.4125 21.8541 10.4062 21.8541" stroke="white" stroke-width="3" stroke-linecap="round" stroke-linejoin="round"/>
<path d="M10.3854 28.125C10.3792 28.125 10.375 28.1292 10.375 28.1354C10.375 28.1417 10.3792 28.1458 10.3854 28.1458C10.3917 28.1458 10.3958 28.1417 10.3958 28.1354C10.3958 28.1292 10.3917 28.125 10.3854 28.125" stroke="white" stroke-width="3" stroke-linecap="round" stroke-linejoin="round"/>
<path d="M10.4062 34.3542C10.4 34.3542 10.3958 34.3584 10.3958 34.3647C10.3958 34.3709 10.4 34.3751 10.4062 34.3751C10.4125 34.3751 10.4166 34.3709 10.4166 34.3647C10.4166 34.3584 10.4125 34.3542 10.4062 34.3542" stroke="white" stroke-width="3" stroke-linecap="round" stroke-linejoin="round"/>
<path d="M10.4062 15.625C10.4 15.625 10.3958 15.6292 10.3958 15.6354C10.3958 15.6417 10.4 15.6458 10.4062 15.6458C10.4125 15.6458 10.4166 15.6417 10.4166 15.6354C10.4166 15.6292 10.4125 15.625 10.4062 15.625" stroke="white" stroke-width="3" stroke-linecap="round" stroke-linejoin="round"/>
<path d="M39.5729 21.8541C39.5666 21.8541 39.5624 21.8583 39.5624 21.8645C39.5624 21.8708 39.5666 21.875 39.5729 21.875C39.5791 21.875 39.5833 21.8708 39.5833 21.8645C39.5833 21.8583 39.5791 21.8541 39.5729 21.8541" stroke="white" stroke-width="3" stroke-linecap="round" stroke-linejoin="round"/>
<path d="M39.5521 28.125C39.5459 28.125 39.5417 28.1292 39.5417 28.1354C39.5417 28.1417 39.5459 28.1458 39.5521 28.1458C39.5584 28.1458 39.5625 28.1417 39.5625 28.1354C39.5625 28.1292 39.5584 28.125 39.5521 28.125" stroke="white" stroke-width="3" stroke-linecap="round" stroke-linejoin="round"/>
<path d="M39.5729 34.3542C39.5666 34.3542 39.5624 34.3584 39.5624 34.3647C39.5624 34.3709 39.5666 34.3751 39.5729 34.3751C39.5791 34.3751 39.5833 34.3709 39.5833 34.3647C39.5833 34.3584 39.5791 34.3542 39.5729 34.3542" stroke="white" stroke-width="3" stroke-linecap="round" stroke-linejoin="round"/>
<path d="M22.8429 30C22.5829 30 22.3779 29.93 22.2279 29.79C22.0879 29.64 22.0179 29.44 22.0179 29.19C22.0179 28.93 22.0879 28.735 22.2279 28.605C22.3779 28.475 22.5829 28.41 22.8429 28.41H24.5229V21.045H25.4529L23.2479 22.38C23.0579 22.49 22.8779 22.535 22.7079 22.515C22.5479 22.485 22.4079 22.415 22.2879 22.305C22.1779 22.185 22.1029 22.045 22.0629 21.885C22.0229 21.725 22.0329 21.565 22.0929 21.405C22.1629 21.235 22.2929 21.095 22.4829 20.985L24.5529 19.74C24.7529 19.62 24.9529 19.52 25.1529 19.44C25.3529 19.35 25.5379 19.305 25.7079 19.305C25.9179 19.305 26.0929 19.365 26.2329 19.485C26.3729 19.595 26.4429 19.78 26.4429 20.04V28.41H27.9729C28.2329 28.41 28.4329 28.475 28.5729 28.605C28.7229 28.735 28.7979 28.93 28.7979 29.19C28.7979 29.45 28.7229 29.65 28.5729 29.79C28.4329 29.93 28.2329 30 27.9729 30H22.8429Z" fill="white"/>
</svg>
