<svg width="50" height="50" viewBox="0 0 50 50" fill="none" xmlns="http://www.w3.org/2000/svg">
<path d="M39.5833 16.3083C39.5833 15.2042 39.1437 14.1437 38.3625 13.3625L32.4708 7.47083C31.6895 6.68958 30.6291 6.25 29.525 6.25H14.5833C12.2812 6.25 10.4166 8.11458 10.4166 10.4167" stroke="white" stroke-width="3" stroke-linecap="round" stroke-linejoin="round"/>
<path d="M10.4166 39.5833C10.4166 41.8853 12.2812 43.7499 14.5833 43.7499H35.4166C37.7187 43.7499 39.5833 41.8853 39.5833 39.5833" stroke="white" stroke-width="3" stroke-linecap="round" stroke-linejoin="round"/>
<path d="M10.4062 21.8542C10.4 21.8542 10.3958 21.8584 10.3958 21.8647C10.3958 21.8709 10.4 21.8751 10.4062 21.8751C10.4125 21.8751 10.4166 21.8709 10.4166 21.8647C10.4166 21.8584 10.4125 21.8542 10.4062 21.8542" stroke="white" stroke-width="3" stroke-linecap="round" stroke-linejoin="round"/>
<path d="M10.3854 28.125C10.3792 28.125 10.375 28.1292 10.375 28.1354C10.375 28.1417 10.3792 28.1458 10.3854 28.1458C10.3917 28.1458 10.3958 28.1417 10.3958 28.1354C10.3958 28.1292 10.3917 28.125 10.3854 28.125" stroke="white" stroke-width="3" stroke-linecap="round" stroke-linejoin="round"/>
<path d="M10.4062 34.3542C10.4 34.3542 10.3958 34.3584 10.3958 34.3647C10.3958 34.3709 10.4 34.3751 10.4062 34.3751C10.4125 34.3751 10.4166 34.3709 10.4166 34.3647C10.4166 34.3584 10.4125 34.3542 10.4062 34.3542" stroke="white" stroke-width="3" stroke-linecap="round" stroke-linejoin="round"/>
<path d="M10.4062 15.625C10.4 15.625 10.3958 15.6292 10.3958 15.6354C10.3958 15.6417 10.4 15.6458 10.4062 15.6458C10.4125 15.6458 10.4166 15.6417 10.4166 15.6354C10.4166 15.6292 10.4125 15.625 10.4062 15.625" stroke="white" stroke-width="3" stroke-linecap="round" stroke-linejoin="round"/>
<path d="M39.5729 21.8542C39.5666 21.8542 39.5624 21.8584 39.5624 21.8647C39.5624 21.8709 39.5666 21.8751 39.5729 21.8751C39.5791 21.8751 39.5833 21.8709 39.5833 21.8647C39.5833 21.8584 39.5791 21.8542 39.5729 21.8542" stroke="white" stroke-width="3" stroke-linecap="round" stroke-linejoin="round"/>
<path d="M39.5521 28.125C39.5459 28.125 39.5417 28.1292 39.5417 28.1354C39.5417 28.1417 39.5459 28.1458 39.5521 28.1458C39.5584 28.1458 39.5625 28.1417 39.5625 28.1354C39.5625 28.1292 39.5584 28.125 39.5521 28.125" stroke="white" stroke-width="3" stroke-linecap="round" stroke-linejoin="round"/>
<path d="M39.5729 34.3542C39.5666 34.3542 39.5624 34.3584 39.5624 34.3647C39.5624 34.3709 39.5666 34.3751 39.5729 34.3751C39.5791 34.3751 39.5833 34.3709 39.5833 34.3647C39.5833 34.3584 39.5791 34.3542 39.5729 34.3542" stroke="white" stroke-width="3" stroke-linecap="round" stroke-linejoin="round"/>
<path d="M24.7929 30.15C24.2529 30.15 23.6929 30.08 23.1129 29.94C22.5329 29.8 22.0279 29.59 21.5979 29.31C21.3979 29.18 21.2629 29.03 21.1929 28.86C21.1229 28.69 21.1029 28.53 21.1329 28.38C21.1729 28.22 21.2479 28.085 21.3579 27.975C21.4779 27.865 21.6229 27.8 21.7929 27.78C21.9729 27.76 22.1679 27.805 22.3779 27.915C22.7879 28.135 23.1829 28.295 23.5629 28.395C23.9429 28.485 24.3329 28.53 24.7329 28.53C25.1729 28.53 25.5429 28.47 25.8429 28.35C26.1429 28.23 26.3679 28.05 26.5179 27.81C26.6779 27.57 26.7579 27.28 26.7579 26.94C26.7579 26.44 26.5879 26.07 26.2479 25.83C25.9179 25.58 25.4329 25.455 24.7929 25.455H23.8329C23.5529 25.455 23.3379 25.385 23.1879 25.245C23.0479 25.105 22.9779 24.91 22.9779 24.66C22.9779 24.41 23.0479 24.215 23.1879 24.075C23.3379 23.935 23.5529 23.865 23.8329 23.865H24.6129C24.9929 23.865 25.3179 23.805 25.5879 23.685C25.8579 23.555 26.0679 23.375 26.2179 23.145C26.3679 22.915 26.4429 22.635 26.4429 22.305C26.4429 21.845 26.2879 21.495 25.9779 21.255C25.6779 21.015 25.2379 20.895 24.6579 20.895C24.2879 20.895 23.9379 20.94 23.6079 21.03C23.2879 21.11 22.9329 21.265 22.5429 21.495C22.3629 21.605 22.1879 21.65 22.0179 21.63C21.8579 21.61 21.7229 21.545 21.6129 21.435C21.5029 21.325 21.4279 21.195 21.3879 21.045C21.3479 20.885 21.3579 20.725 21.4179 20.565C21.4779 20.395 21.6029 20.25 21.7929 20.13C22.2229 19.85 22.6979 19.64 23.2179 19.5C23.7379 19.35 24.2729 19.275 24.8229 19.275C25.5529 19.275 26.1779 19.39 26.6979 19.62C27.2179 19.84 27.6129 20.16 27.8829 20.58C28.1629 20.99 28.3029 21.49 28.3029 22.08C28.3029 22.5 28.2229 22.885 28.0629 23.235C27.9029 23.575 27.6779 23.865 27.3879 24.105C27.0979 24.345 26.7479 24.515 26.3379 24.615V24.435C27.0579 24.555 27.6179 24.855 28.0179 25.335C28.4179 25.805 28.6179 26.395 28.6179 27.105C28.6179 27.725 28.4629 28.265 28.1529 28.725C27.8429 29.185 27.4029 29.54 26.8329 29.79C26.2629 30.03 25.5829 30.15 24.7929 30.15Z" fill="white"/>
</svg>
