<svg width="50" height="50" viewBox="0 0 50 50" fill="none" xmlns="http://www.w3.org/2000/svg">
<path d="M39.5833 16.3083C39.5833 15.2042 39.1437 14.1437 38.3625 13.3625L32.4708 7.47083C31.6895 6.68958 30.6291 6.25 29.525 6.25H14.5833C12.2812 6.25 10.4166 8.11458 10.4166 10.4167" stroke="white" stroke-width="3" stroke-linecap="round" stroke-linejoin="round"/>
<path d="M10.4166 39.5833C10.4166 41.8853 12.2812 43.7499 14.5833 43.7499H35.4166C37.7187 43.7499 39.5833 41.8853 39.5833 39.5833" stroke="white" stroke-width="3" stroke-linecap="round" stroke-linejoin="round"/>
<path d="M10.4062 21.8542C10.4 21.8542 10.3958 21.8584 10.3958 21.8647C10.3958 21.8709 10.4 21.8751 10.4062 21.8751C10.4125 21.8751 10.4166 21.8709 10.4166 21.8647C10.4166 21.8584 10.4125 21.8542 10.4062 21.8542" stroke="white" stroke-width="3" stroke-linecap="round" stroke-linejoin="round"/>
<path d="M10.3854 28.125C10.3792 28.125 10.375 28.1292 10.375 28.1354C10.375 28.1417 10.3792 28.1458 10.3854 28.1458C10.3917 28.1458 10.3958 28.1417 10.3958 28.1354C10.3958 28.1292 10.3917 28.125 10.3854 28.125" stroke="white" stroke-width="3" stroke-linecap="round" stroke-linejoin="round"/>
<path d="M10.4062 34.3542C10.4 34.3542 10.3958 34.3584 10.3958 34.3647C10.3958 34.3709 10.4 34.3751 10.4062 34.3751C10.4125 34.3751 10.4166 34.3709 10.4166 34.3647C10.4166 34.3584 10.4125 34.3542 10.4062 34.3542" stroke="white" stroke-width="3" stroke-linecap="round" stroke-linejoin="round"/>
<path d="M10.4062 15.625C10.4 15.625 10.3958 15.6292 10.3958 15.6354C10.3958 15.6417 10.4 15.6458 10.4062 15.6458C10.4125 15.6458 10.4166 15.6417 10.4166 15.6354C10.4166 15.6292 10.4125 15.625 10.4062 15.625" stroke="white" stroke-width="3" stroke-linecap="round" stroke-linejoin="round"/>
<path d="M39.5729 21.8542C39.5666 21.8542 39.5624 21.8584 39.5624 21.8647C39.5624 21.8709 39.5666 21.8751 39.5729 21.8751C39.5791 21.8751 39.5833 21.8709 39.5833 21.8647C39.5833 21.8584 39.5791 21.8542 39.5729 21.8542" stroke="white" stroke-width="3" stroke-linecap="round" stroke-linejoin="round"/>
<path d="M39.5521 28.125C39.5459 28.125 39.5417 28.1292 39.5417 28.1354C39.5417 28.1417 39.5459 28.1458 39.5521 28.1458C39.5584 28.1458 39.5625 28.1417 39.5625 28.1354C39.5625 28.1292 39.5584 28.125 39.5521 28.125" stroke="white" stroke-width="3" stroke-linecap="round" stroke-linejoin="round"/>
<path d="M39.5729 34.3542C39.5666 34.3542 39.5624 34.3584 39.5624 34.3647C39.5624 34.3709 39.5666 34.3751 39.5729 34.3751C39.5791 34.3751 39.5833 34.3709 39.5833 34.3647C39.5833 34.3584 39.5791 34.3542 39.5729 34.3542" stroke="white" stroke-width="3" stroke-linecap="round" stroke-linejoin="round"/>
<path d="M25.6979 30.12C25.3979 30.12 25.1629 30.04 24.9929 29.88C24.8229 29.71 24.7379 29.47 24.7379 29.16V27.99H21.0329C20.7229 27.99 20.4729 27.925 20.2829 27.795C20.1029 27.665 20.0129 27.46 20.0129 27.18C20.0129 27.02 20.0529 26.845 20.1329 26.655C20.2229 26.465 20.3779 26.215 20.5979 25.905L24.7079 19.95C24.8479 19.74 25.0029 19.58 25.1729 19.47C25.3429 19.36 25.5379 19.305 25.7579 19.305C26.0179 19.305 26.2329 19.385 26.4029 19.545C26.5729 19.695 26.6579 19.935 26.6579 20.265V26.4H27.3929C27.6829 26.4 27.8979 26.47 28.0379 26.61C28.1879 26.74 28.2629 26.935 28.2629 27.195C28.2629 27.455 28.1879 27.655 28.0379 27.795C27.8979 27.925 27.6829 27.99 27.3929 27.99H26.6579V29.16C26.6579 29.47 26.5729 29.71 26.4029 29.88C26.2329 30.04 25.9979 30.12 25.6979 30.12ZM24.7379 26.4V21.72H25.1729L21.6329 26.91V26.4H24.7379Z" fill="white"/>
</svg>
