<svg width="50" height="50" viewBox="0 0 50 50" fill="none" xmlns="http://www.w3.org/2000/svg">
<g id="Group">
<path id="Path" d="M38.7578 34.6732H5.41059C3.10844 34.6732 1.24219 32.8069 1.24219 30.5048V26.3364C1.24219 24.0342 3.10844 22.168 5.41059 22.168H38.7578" stroke="#3ABDD5" stroke-width="2.5" stroke-linecap="round" stroke-linejoin="round"/>
<path id="Path_2" d="M36.6736 28.421H7.49481" stroke="#3ABDD5" stroke-width="2.5" stroke-linecap="round" stroke-linejoin="round"/>
<path id="Oval" fill-rule="evenodd" clip-rule="evenodd" d="M10.173 13.8314C13.6262 13.8314 16.4256 11.032 16.4256 7.57878C16.4256 4.12556 13.6262 1.32617 10.173 1.32617C6.7198 1.32617 3.92041 4.12556 3.92041 7.57878C3.92041 11.032 6.7198 13.8314 10.173 13.8314Z" stroke="#3ABDD5" stroke-width="2.5" stroke-linecap="round" stroke-linejoin="round"/>
<path id="Oval_2" fill-rule="evenodd" clip-rule="evenodd" d="M29.827 13.8314C33.2802 13.8314 36.0796 11.032 36.0796 7.57878C36.0796 4.12556 33.2802 1.32617 29.827 1.32617C26.3738 1.32617 23.5744 4.12556 23.5744 7.57878C23.5744 11.032 26.3738 13.8314 29.827 13.8314Z" stroke="#3ABDD5" stroke-width="2.5" stroke-linecap="round" stroke-linejoin="round"/>
<path id="Path_3" d="M16.4256 7.57859C17.2691 6.45375 18.593 5.79174 19.999 5.79174C21.4049 5.79174 22.7288 6.45375 23.5723 7.57859" stroke="#3ABDD5" stroke-width="2.5" stroke-linecap="round" stroke-linejoin="round"/>
<path id="Path_4" d="M1.24219 7.57872H3.92039" stroke="#3ABDD5" stroke-width="2.5" stroke-linecap="round" stroke-linejoin="round"/>
<path id="Path_5" d="M36.0796 7.57872H38.7578" stroke="#3ABDD5" stroke-width="2.5" stroke-linecap="round" stroke-linejoin="round"/>
</g>
</svg>
