<svg width="50" height="50" viewBox="0 0 50 50" fill="none" xmlns="http://www.w3.org/2000/svg">
<g id="Furniture/Sofa, Chair">
<path id="Path" fill-rule="evenodd" clip-rule="evenodd" d="M37.5 29.1668H12.5V23.9585C12.5 22.2335 11.1 20.8335 9.37496 20.8335H7.29163C5.56663 20.8335 4.16663 22.2335 4.16663 23.9585V33.3335C4.16663 35.6356 6.03121 37.5002 8.33329 37.5002H41.6666C43.9687 37.5002 45.8333 35.6356 45.8333 33.3335V23.9585C45.8333 22.2335 44.4333 20.8335 42.7083 20.8335H40.625C38.9 20.8335 37.5 22.2335 37.5 23.9585V29.1668Z" stroke="#3ABDD5" stroke-width="2.5" stroke-linecap="round" stroke-linejoin="round"/>
<path id="Path_2" d="M10.4167 37.5V41.6667" stroke="#3ABDD5" stroke-width="2.5" stroke-linecap="round" stroke-linejoin="round"/>
<path id="Path_3" d="M39.5833 37.5V41.6667" stroke="#3ABDD5" stroke-width="2.5" stroke-linecap="round" stroke-linejoin="round"/>
<path id="Path_4" d="M8.33337 20.8332V16.6665C8.33337 13.2144 11.1313 10.4165 14.5834 10.4165H35.4167C38.8688 10.4165 41.6667 13.2144 41.6667 16.6665V20.8332" stroke="#3ABDD5" stroke-width="2.5" stroke-linecap="round" stroke-linejoin="round"/>
</g>
</svg>
