<svg width="36" height="43" viewBox="0 0 36 43" fill="none" xmlns="http://www.w3.org/2000/svg">
<g id="Group">
<path id="Path" fill-rule="evenodd" clip-rule="evenodd" d="M1.32639 12.579V37.5895C1.32639 39.8916 3.19264 41.7579 5.49479 41.7579H30.5052C32.8073 41.7579 34.6736 39.8916 34.6736 37.5895V22.2849C34.6736 20.0738 33.7953 17.9533 32.2318 16.3899L26.6944 10.8524C25.1309 9.28898 23.0104 8.41064 20.7994 8.41064H5.49479C3.19264 8.41064 1.32639 10.2769 1.32639 12.579Z" stroke="#3ABDD5" stroke-width="2.5" stroke-linecap="round" stroke-linejoin="round"/>
<path id="Path_2" fill-rule="evenodd" clip-rule="evenodd" d="M7.57898 2.1582H15.9158C17.0669 2.1582 18 3.09133 18 4.2424V8.41081H5.49478V4.2424C5.49478 3.09133 6.42791 2.1582 7.57898 2.1582Z" stroke="#3ABDD5" stroke-width="2.5" stroke-linecap="round" stroke-linejoin="round"/>
<path id="Rectangle" fill-rule="evenodd" clip-rule="evenodd" d="M17.8038 18.1701C17.3131 17.6795 17.3131 16.884 17.8038 16.3934L19.7301 14.4671C20.2207 13.9765 21.0161 13.9765 21.5068 14.4671L28.6173 21.5775C29.1079 22.0682 29.1079 22.8636 28.6173 23.3542L26.691 25.2805C26.2003 25.7712 25.4049 25.7712 24.9143 25.2805L17.8038 18.1701Z" stroke="#3ABDD5" stroke-width="2.5" stroke-linecap="round" stroke-linejoin="round"/>
<path id="Path_3" d="M9.66319 27.1686H13.8316" stroke="#3ABDD5" stroke-width="2.5" stroke-linecap="round" stroke-linejoin="round"/>
<path id="Path_4" d="M9.66319 33.421H18" stroke="#3ABDD5" stroke-width="2.5" stroke-linecap="round" stroke-linejoin="round"/>
</g>
</svg>
