<svg width="50" height="50" viewBox="0 0 50 50" fill="none" xmlns="http://www.w3.org/2000/svg">
<g id="Group">
<g id="Group_2">
<path id="Path" fill-rule="evenodd" clip-rule="evenodd" d="M26.2646 6.81437L29.2854 5.33729C30.6792 4.65604 32.3646 5.20187 33.0917 6.57479L34.6687 9.54562C35.0854 10.329 35.8396 10.8769 36.7146 11.031L40.0271 11.6123C41.5562 11.881 42.5958 13.3123 42.3792 14.8498L41.9083 18.179C41.7833 19.0581 42.0729 19.9456 42.6896 20.5831L45.0271 22.9998C46.1062 24.1144 46.1062 25.8852 45.0271 27.0019L42.6896 29.4185C42.0729 30.056 41.7833 30.9435 41.9083 31.8227L42.3792 35.1519C42.5958 36.6894 41.5562 38.1206 40.0271 38.3894L36.7146 38.9706C35.8396 39.1248 35.0854 39.6727 34.6687 40.456L33.0917 43.4269C32.3646 44.7977 30.6812 45.3456 29.2854 44.6644L26.2646 43.1873C25.4667 42.7977 24.5354 42.7977 23.7375 43.1873L20.7167 44.6644C19.3229 45.3456 17.6375 44.7998 16.9104 43.4269L15.3333 40.454C14.9167 39.6706 14.1625 39.1227 13.2875 38.9685L9.97499 38.3873C8.44583 38.1185 7.40624 36.6873 7.62291 35.1498L8.09374 31.8206C8.21874 30.9415 7.92916 30.054 7.31249 29.4165L4.97499 26.9998C3.89583 25.8852 3.89583 24.1144 4.97499 22.9977L7.31249 20.581C7.92916 19.9435 8.21874 19.056 8.09374 18.1769L7.62499 14.8477C7.40624 13.3123 8.44791 11.879 9.97708 11.6123L13.2896 11.031C14.1625 10.8769 14.9167 10.329 15.3333 9.54562L16.9104 6.57479C17.6375 5.20396 19.3208 4.65604 20.7167 5.33729L23.7375 6.81437C24.5333 7.20396 25.4667 7.20396 26.2646 6.81437Z" stroke="#3ABDD5" stroke-width="2.5" stroke-linecap="round" stroke-linejoin="round"/>
<path id="Path_2" d="M18.75 31.25L31.25 18.75" stroke="#3ABDD5" stroke-width="2.5" stroke-linecap="round" stroke-linejoin="round"/>
<path id="Path_3" d="M19.2687 18.7498C18.9812 18.7498 18.7479 18.9832 18.75 19.2707C18.75 19.5582 18.9833 19.7915 19.2708 19.7915C19.5583 19.7915 19.7917 19.5582 19.7917 19.2707C19.7917 18.9832 19.5583 18.7498 19.2687 18.7498" stroke="#3ABDD5" stroke-width="2.5" stroke-linecap="round" stroke-linejoin="round"/>
<path id="Path_4" d="M30.7271 30.2083C30.4396 30.2083 30.2063 30.4417 30.2083 30.7292C30.2083 31.0167 30.4417 31.25 30.7292 31.25C31.0167 31.25 31.25 31.0167 31.25 30.7292C31.25 30.4417 31.0167 30.2083 30.7271 30.2083" stroke="#3ABDD5" stroke-width="2.5" stroke-linecap="round" stroke-linejoin="round"/>
</g>
</g>
</svg>
