<svg width="50" height="50" viewBox="0 0 50 50" fill="none" xmlns="http://www.w3.org/2000/svg">
<g id="Hotels/Knife, Fork, Restaurant, Food">
<path id="Path" d="M6.25 6.4248V15.7206V15.9081V15.7206C6.25 18.3748 7.34375 20.7248 9.03958 22.2456C9.86875 22.9894 10.4167 23.9936 10.4167 25.1081V40.6248C10.4167 42.3498 11.8167 43.7498 13.5417 43.7498C15.2667 43.7498 16.6667 42.3498 16.6667 40.6248V25.1081C16.6667 23.9936 17.2146 22.9894 18.0438 22.2456C19.7396 20.7248 20.8333 18.3748 20.8333 15.7206V6.4248V15.7206" stroke="#3ABDD5" stroke-width="2.5" stroke-linecap="round" stroke-linejoin="round"/>
<path id="Path_2" d="M13.5417 16.6667V6.25" stroke="#3ABDD5" stroke-width="2.5" stroke-linecap="round" stroke-linejoin="round"/>
<path id="Path_3" fill-rule="evenodd" clip-rule="evenodd" d="M41.6667 8.44173C41.6667 7.29173 40.7333 6.3584 39.5833 6.3584H37.5C34.0479 6.3584 31.25 9.15631 31.25 12.6084V25.1084C31.25 27.8251 32.9938 30.1146 35.4167 30.9751V40.6251C35.4167 42.3501 36.8167 43.7501 38.5417 43.7501C40.2667 43.7501 41.6667 42.3501 41.6667 40.6251V31.3584V8.44173Z" stroke="#3ABDD5" stroke-width="2.5" stroke-linecap="round" stroke-linejoin="round"/>
</g>
</svg>
