<svg width="36" height="40" viewBox="0 0 36 40" fill="none" xmlns="http://www.w3.org/2000/svg">
<g id="Group">
<path id="Vector" d="M9.83893 33.3827L15.9146 27.289C18.8403 28.3811 22.1335 27.6118 24.2771 25.3356C26.4207 23.0594 26.9987 19.7179 25.7449 16.8505C25.7255 16.8114 25.6887 16.7838 25.6458 16.7761C25.6029 16.7684 25.5589 16.7816 25.5272 16.8115L20.4294 21.8056L16.863 18.2287L21.8346 13.2424C21.8656 13.2105 21.8792 13.1654 21.8711 13.1216C21.8629 13.0778 21.8341 13.0407 21.7937 13.0221C18.8586 11.7582 15.4527 12.4024 13.1782 14.6517C10.9981 16.7899 10.2972 20.0249 11.396 22.8776L5.39963 28.8919M34.6667 22.1268V8.68621C34.6514 7.62194 33.8454 6.7359 32.7873 6.62021C28.3667 6.28428 24.1285 4.71691 20.553 2.09569C19.7954 1.53189 18.8977 1.24999 18 1.25C17.1024 1.25001 16.2048 1.5319 15.4472 2.09569C11.8717 4.71691 7.63346 6.28429 3.21279 6.62021C2.1547 6.73588 1.34868 7.62192 1.33337 8.68621V22.1268C1.33337 29.9828 11.0211 35.8389 15.6326 38.1821C17.1229 38.9407 18.8864 38.9392 20.3753 38.178C24.9899 35.8325 34.6667 29.9907 34.6667 22.1268Z" stroke="#3ABDD5" stroke-width="2.5" stroke-linecap="round" stroke-linejoin="round"/>
</g>
</svg>
