<svg width="50" height="50" viewBox="0 0 50 50" fill="none" xmlns="http://www.w3.org/2000/svg">
<g id="Car, Service, Parts/rear-door">
<path id="Path" d="M27.0834 29.1667H31.25" stroke="#3ABDD5" stroke-width="2.5" stroke-linecap="round" stroke-linejoin="round"/>
<path id="Path_2" d="M6.25 22.9167H43.159" stroke="#3ABDD5" stroke-width="2.5" stroke-linecap="round" stroke-linejoin="round"/>
<path id="Path_3" fill-rule="evenodd" clip-rule="evenodd" d="M28.6905 43.7502H10.4167C8.11548 43.7502 6.25 41.8847 6.25 39.5835V12.5002C6.25 10.199 8.11548 8.3335 10.4167 8.3335H30.4715C34.8137 8.33347 38.7004 11.0269 40.225 15.0926L43.4847 23.7853C43.7813 24.5762 43.8305 25.4386 43.6258 26.2581L42.3908 31.2024C42.064 32.4117 41.0641 33.3208 39.8292 33.5311C35.8117 34.3316 32.6349 37.4097 31.708 41.3998C31.3697 42.7887 30.12 43.7621 28.6905 43.7502V43.7502Z" stroke="#3ABDD5" stroke-width="2.5" stroke-linecap="round" stroke-linejoin="round"/>
</g>
</svg>
