<svg width="50" height="50" viewBox="0 0 50 50" fill="none" xmlns="http://www.w3.org/2000/svg">
<g id="Car, Service, Parts/Repair">
<path id="Path" d="M14.1773 43.75L25.0267 32.8683C30.2511 34.8185 36.132 33.4448 39.9598 29.3802C43.7876 25.3156 44.8198 19.3485 42.5808 14.2282C42.5461 14.1583 42.4805 14.1091 42.4039 14.0954C42.3273 14.0816 42.2488 14.1051 42.1921 14.1586L33.0889 23.0766L26.7204 16.6892L35.5981 7.78511C35.6535 7.72813 35.6778 7.64772 35.6633 7.56949C35.6488 7.49126 35.5973 7.42498 35.5252 7.39177C30.2839 5.13471 24.2019 6.28509 20.1402 10.3018C16.2472 14.1199 14.9956 19.8967 16.9577 24.9909L6.25 35.7307" stroke="#3ABDD5" stroke-width="2.5" stroke-linecap="round" stroke-linejoin="round"/>
</g>
</svg>
