<svg width="51" height="50" viewBox="0 0 51 50" fill="none" xmlns="http://www.w3.org/2000/svg">
<g id="Car, Service, Parts/transmission-checkmark">
<path id="Path" d="M15.0833 12.5002H35.9166" stroke="#3ABDD5" stroke-width="2.5" stroke-linecap="round" stroke-linejoin="round"/>
<path id="Path_2" fill-rule="evenodd" clip-rule="evenodd" d="M42.1667 43.75H38C36.8508 43.7466 35.9201 42.8159 35.9167 41.6667V33.3333C35.9201 32.1841 36.8508 31.2534 38 31.25H42.1667C43.3159 31.2534 44.2467 32.1841 44.25 33.3333V41.6667C44.2467 42.8159 43.3159 43.7466 42.1667 43.75Z" stroke="#3ABDD5" stroke-width="2.5" stroke-linecap="round" stroke-linejoin="round"/>
<path id="Path_3" d="M15.0833 37.5002H35.9166" stroke="#3ABDD5" stroke-width="2.5" stroke-linecap="round" stroke-linejoin="round"/>
<path id="Path_4" fill-rule="evenodd" clip-rule="evenodd" d="M13 43.75H8.83333C7.68414 43.7466 6.75336 42.8159 6.75 41.6667V33.3333C6.75336 32.1841 7.68414 31.2534 8.83333 31.25H13C14.1492 31.2534 15.08 32.1841 15.0833 33.3333V41.6667C15.08 42.8159 14.1492 43.7466 13 43.75Z" stroke="#3ABDD5" stroke-width="2.5" stroke-linecap="round" stroke-linejoin="round"/>
<path id="Path_5" fill-rule="evenodd" clip-rule="evenodd" d="M42.1667 18.75H38C36.8508 18.7466 35.9201 17.8159 35.9167 16.6667V8.33333C35.9201 7.18414 36.8508 6.25336 38 6.25H42.1667C43.3159 6.25336 44.2467 7.18414 44.25 8.33333V16.6667C44.2467 17.8159 43.3159 18.7466 42.1667 18.75Z" stroke="#3ABDD5" stroke-width="2.5" stroke-linecap="round" stroke-linejoin="round"/>
<path id="Path_6" fill-rule="evenodd" clip-rule="evenodd" d="M13 18.75H8.83333C7.68414 18.7466 6.75336 17.8159 6.75 16.6667V8.33333C6.75336 7.18414 7.68414 6.25336 8.83333 6.25H13C14.1492 6.25336 15.08 7.18414 15.0833 8.33333V16.6667C15.08 17.8159 14.1492 18.7466 13 18.75Z" stroke="#3ABDD5" stroke-width="2.5" stroke-linecap="round" stroke-linejoin="round"/>
<path id="Path_7" d="M25.5 12.5V37.5957" stroke="#3ABDD5" stroke-width="2.5" stroke-linecap="round" stroke-linejoin="round"/>
</g>
</svg>
