<svg width="40" height="40" viewBox="0 0 40 40" fill="none" xmlns="http://www.w3.org/2000/svg">
<rect width="40" height="40" rx="10" fill="#5176FF"/>
<path d="M19 20H29" stroke="white" stroke-width="1.5" stroke-linecap="round" stroke-linejoin="round"/>
<path d="M14.4142 18.586C15.1952 19.367 15.1952 20.633 14.4142 21.414C13.6332 22.195 12.3672 22.195 11.5862 21.414C10.8052 20.633 10.8052 19.367 11.5862 18.586C12.3672 17.805 13.6332 17.805 14.4142 18.586" stroke="white" stroke-width="1.5" stroke-linecap="round" stroke-linejoin="round"/>
<path d="M19 13H29" stroke="white" stroke-width="1.5" stroke-linecap="round" stroke-linejoin="round"/>
<path d="M11.02 12.508L12.673 13.996L16 11" stroke="white" stroke-width="1.5" stroke-linecap="round" stroke-linejoin="round"/>
<path d="M19 27H29" stroke="white" stroke-width="1.5" stroke-linecap="round" stroke-linejoin="round"/>
<path d="M14.4142 25.586C15.1952 26.367 15.1952 27.633 14.4142 28.414C13.6332 29.195 12.3672 29.195 11.5862 28.414C10.8052 27.633 10.8052 26.367 11.5862 25.586C12.3672 24.805 13.6332 24.805 14.4142 25.586" stroke="white" stroke-width="1.5" stroke-linecap="round" stroke-linejoin="round"/>
</svg>
