<svg width="70" height="70" viewBox="0 0 70 70" fill="none" xmlns="http://www.w3.org/2000/svg">
<path fill-rule="evenodd" clip-rule="evenodd" d="M53.7075 18.7075L45.4592 10.4592C44.3655 9.36542 42.8809 8.75 41.335 8.75H20.4167C17.1938 8.75 14.5834 11.3604 14.5834 14.5833V55.4167C14.5834 58.6396 17.1938 61.25 20.4167 61.25H49.5834C52.8063 61.25 55.4167 58.6396 55.4167 55.4167V22.8317C55.4167 21.2858 54.8013 19.8012 53.7075 18.7075V18.7075Z" stroke="#474450" stroke-width="3.2" stroke-linecap="round" stroke-linejoin="round"/>
<path d="M55.4167 23.3333H43.75C42.14 23.3333 40.8334 22.0267 40.8334 20.4167V8.75" stroke="#474450" stroke-width="3.2" stroke-linecap="round" stroke-linejoin="round"/>
<path d="M46.6666 32.4333H23.3561" stroke="#474450" stroke-width="3.2" stroke-linecap="round" stroke-linejoin="round"/>
<path d="M46.6666 40.8333H23.3561" stroke="#474450" stroke-width="3.2" stroke-linecap="round" stroke-linejoin="round"/>
<path d="M46.6666 49.2334H23.3561" stroke="#474450" stroke-width="3.2" stroke-linecap="round" stroke-linejoin="round"/>
</svg>
