<svg width="24" height="24" viewBox="0 0 24 24" fill="none" xmlns="http://www.w3.org/2000/svg">
<path d="M20.0033 10.9996L18.1445 11.9" stroke="#9A9EA7" stroke-width="1.5" stroke-linecap="round" stroke-linejoin="round"/>
<path d="M5.86436 11.9L3.99658 10.9996" stroke="#9A9EA7" stroke-width="1.5" stroke-linecap="round" stroke-linejoin="round"/>
<path d="M18.1434 11.8999L17.3881 8.28843C17.17 7.24499 16.2497 6.49768 15.1842 6.49768H8.9096C7.86416 6.49768 6.95578 7.21798 6.71768 8.2364L5.86133 11.8999" stroke="#9A9EA7" stroke-width="1.5" stroke-linecap="round" stroke-linejoin="round"/>
<path d="M14.4523 6.49775L14.1031 4.82605C14.0021 4.34285 13.5759 3.9967 13.0817 3.9967H10.9638C10.4796 3.9967 10.0594 4.32984 9.94939 4.80104L9.55322 6.49775" stroke="#9A9EA7" stroke-width="1.5" stroke-linecap="round" stroke-linejoin="round"/>
<path d="M7.99825 18.2806V20.0033C7.99825 20.5556 7.55006 21.0038 6.99783 21.0038H4.997C4.44477 21.0038 3.99658 20.5556 3.99658 20.0033V17.6003" stroke="#9A9EA7" stroke-width="1.5" stroke-linecap="round" stroke-linejoin="round"/>
<path d="M20.0036 17.6003V20.0033C20.0036 20.5556 19.5554 21.0038 19.0032 21.0038H17.0024C16.4501 21.0038 16.002 20.5556 16.002 20.0033V18.2806" stroke="#9A9EA7" stroke-width="1.5" stroke-linecap="round" stroke-linejoin="round"/>
<path fill-rule="evenodd" clip-rule="evenodd" d="M20.5037 16.2797V14.601C20.5037 13.1094 19.2942 11.8999 17.8025 11.8999H6.19771C4.70609 11.8999 3.49658 13.1094 3.49658 14.601V16.2797C3.49658 17.3852 4.39195 18.2806 5.49742 18.2806H18.5028C19.6083 18.2806 20.5037 17.3842 20.5037 16.2797Z" stroke="#9A9EA7" stroke-width="1.5" stroke-linecap="round" stroke-linejoin="round"/>
<path d="M6.33073 14.8621H7.27613" stroke="#9A9EA7" stroke-width="1.5" stroke-linecap="round" stroke-linejoin="round"/>
<path d="M16.7243 14.8621H17.6697" stroke="#9A9EA7" stroke-width="1.5" stroke-linecap="round" stroke-linejoin="round"/>
</svg>
