<svg width="121" height="40" viewBox="0 0 121 40" fill="none" xmlns="http://www.w3.org/2000/svg">
<g clip-path="url(#clip0_7960_225108)">
<path d="M110.74 0.00013H10.1401C9.77345 0.00013 9.41115 0.00013 9.04542 0.00213C8.73927 0.00413 8.43556 0.00994 8.12647 0.01483C7.45498 0.0227318 6.78508 0.0818063 6.12257 0.19154C5.46099 0.303663 4.82014 0.515046 4.22169 0.81854C3.62397 1.1246 3.07781 1.5223 2.60304 1.9972C2.12577 2.47077 1.72793 3.01815 1.42482 3.61829C1.12087 4.21724 0.910109 4.85907 0.799819 5.52161C0.68848 6.18332 0.628567 6.85265 0.620619 7.52361C0.611339 7.83021 0.610359 8.13783 0.605469 8.44447V31.5587C0.610359 31.8692 0.611339 32.17 0.620619 32.4806C0.62857 33.1516 0.688482 33.8209 0.799819 34.4825C0.909805 35.1455 1.12058 35.7877 1.42482 36.3868C1.72779 36.985 2.12569 37.5302 2.60304 38.0011C3.07601 38.4781 3.62252 38.8761 4.22169 39.1798C4.82014 39.4841 5.46092 39.6968 6.12257 39.8106C6.78519 39.9195 7.45503 39.9786 8.12647 39.9874C8.43556 39.9942 8.73927 39.9981 9.04542 39.9981C9.41114 40.0001 9.77347 40.0001 10.1401 40.0001H110.74C111.1 40.0001 111.465 40.0001 111.824 39.9981C112.129 39.9981 112.441 39.9942 112.746 39.9874C113.416 39.9791 114.085 39.92 114.746 39.8106C115.41 39.696 116.053 39.4834 116.654 39.1798C117.253 38.8759 117.799 38.478 118.272 38.0011C118.748 37.5284 119.146 36.9836 119.453 36.3868C119.755 35.7872 119.964 35.1451 120.072 34.4825C120.184 33.8208 120.246 33.1516 120.258 32.4806C120.262 32.17 120.262 31.8692 120.262 31.5587C120.27 31.1954 120.27 30.8341 120.27 30.4649V9.53626C120.27 9.17005 120.27 8.80677 120.262 8.44447C120.262 8.13783 120.262 7.83021 120.258 7.52357C120.246 6.85255 120.184 6.18337 120.072 5.52157C119.964 4.85941 119.755 4.21763 119.453 3.61825C118.836 2.41533 117.857 1.43616 116.654 0.81845C116.053 0.515697 115.41 0.30437 114.746 0.19145C114.085 0.0812328 113.416 0.0221378 112.746 0.01469C112.441 0.00981 112.129 0.00395 111.824 0.002C111.465 0 111.1 0 110.74 0V0.00013Z" fill="#A6A6A6"/>
<path d="M9.05034 39.125C8.74566 39.125 8.44834 39.1211 8.14605 39.1143C7.51983 39.1061 6.89507 39.0516 6.27691 38.9512C5.7005 38.8519 5.14211 38.6673 4.62017 38.4033C4.10301 38.1415 3.63132 37.7983 3.22317 37.3867C2.80911 36.98 2.46438 36.5082 2.20266 35.9902C1.93804 35.4688 1.75492 34.9099 1.65966 34.333C1.55678 33.7131 1.50112 33.0863 1.49316 32.458C1.48682 32.2471 1.47852 31.5449 1.47852 31.5449V8.44434C1.47852 8.44434 1.48736 7.75293 1.49321 7.5498C1.50083 6.92248 1.55617 6.29665 1.65874 5.67773C1.75417 5.09925 1.93744 4.53875 2.2022 4.01563C2.46296 3.49794 2.80577 3.02586 3.21734 2.61768C3.62844 2.20562 4.10164 1.8606 4.61968 1.59521C5.14042 1.33209 5.69775 1.14873 6.273 1.05127C6.89319 0.949836 7.52012 0.894996 8.14851 0.88721L9.05083 0.875H111.819L112.732 0.8877C113.355 0.895099 113.976 0.94945 114.591 1.05029C115.172 1.14898 115.735 1.33362 116.262 1.59814C117.3 2.13299 118.144 2.97916 118.677 4.01807C118.937 4.53758 119.118 5.09351 119.212 5.66699C119.316 6.29099 119.374 6.92174 119.386 7.5542C119.389 7.8374 119.389 8.1416 119.389 8.44434C119.397 8.81934 119.397 9.17627 119.397 9.53613V30.4648C119.397 30.8281 119.397 31.1826 119.389 31.54C119.389 31.8652 119.389 32.1631 119.385 32.4697C119.373 33.0909 119.316 33.7104 119.214 34.3232C119.121 34.9043 118.938 35.4675 118.674 35.9932C118.41 36.5056 118.068 36.9733 117.658 37.3789C117.25 37.7927 116.777 38.1379 116.259 38.4014C115.734 38.6674 115.171 38.8527 114.591 38.9512C113.973 39.0522 113.348 39.1067 112.722 39.1143C112.429 39.1211 112.122 39.125 111.824 39.125L110.74 39.127L9.05034 39.125Z" fill="black"/>
<path d="M25.3735 20.3008C25.3842 19.4662 25.6059 18.6478 26.018 17.9218C26.43 17.1959 27.019 16.5859 27.73 16.1488C27.2783 15.5036 26.6824 14.9727 25.9895 14.5981C25.2967 14.2236 24.5261 14.0157 23.7389 13.9911C22.0596 13.8148 20.4317 14.9959 19.576 14.9959C18.7037 14.9959 17.3862 14.0086 15.9675 14.0378C15.0498 14.0674 14.1555 14.3343 13.3716 14.8123C12.5877 15.2904 11.941 15.9633 11.4946 16.7656C9.56056 20.1141 11.0032 25.0351 12.8558 27.7417C13.7827 29.0671 14.8659 30.5475 16.2834 30.495C17.6705 30.4375 18.1885 29.6105 19.8628 29.6105C21.5216 29.6105 22.0076 30.495 23.4538 30.4616C24.9422 30.4375 25.8799 29.1304 26.7743 27.7925C27.4403 26.8481 27.9527 25.8044 28.2927 24.7C27.428 24.3343 26.6901 23.7221 26.171 22.9398C25.6519 22.1575 25.3745 21.2397 25.3735 20.3008Z" fill="white"/>
<path d="M22.6411 12.2108C23.4526 11.2366 23.8524 9.98445 23.7556 8.72021C22.5158 8.85044 21.3705 9.44299 20.548 10.3798C20.1459 10.8375 19.8379 11.3699 19.6416 11.9467C19.4454 12.5235 19.3648 13.1333 19.4043 13.7412C20.0245 13.7476 20.638 13.6132 21.1986 13.3481C21.7593 13.083 22.2525 12.6942 22.6411 12.2108Z" fill="white"/>
<path d="M42.9062 27.1397H38.1729L37.0361 30.4961H35.0312L39.5147 18.0781H41.5977L46.0811 30.4961H44.042L42.9062 27.1397ZM38.6631 25.5908H42.4151L40.5655 20.1436H40.5137L38.6631 25.5908Z" fill="white"/>
<path d="M55.7627 25.9699C55.7627 28.7834 54.2569 30.591 51.9844 30.591C51.4088 30.6211 50.8363 30.4885 50.3325 30.2084C49.8287 29.9283 49.4139 29.5119 49.1358 29.007H49.0928V33.4914H47.2344V21.4426H49.0332V22.9485H49.0674C49.3584 22.446 49.7801 22.0318 50.2877 21.7499C50.7954 21.4681 51.3699 21.3291 51.9502 21.3479C54.248 21.3479 55.7627 23.1643 55.7627 25.9699ZM53.8526 25.9699C53.8526 24.1369 52.9053 22.9319 51.46 22.9319C50.0401 22.9319 49.085 24.1623 49.085 25.9699C49.085 27.7942 50.0401 29.0158 51.46 29.0158C52.9053 29.0158 53.8526 27.8196 53.8526 25.9699Z" fill="white"/>
<path d="M65.7276 25.9699C65.7276 28.7834 64.2217 30.591 61.9492 30.591C61.3736 30.6211 60.8011 30.4885 60.2973 30.2084C59.7935 29.9283 59.3788 29.5119 59.1006 29.007H59.0576V33.4914H57.1992V21.4426H58.998V22.9484H59.0322C59.3232 22.446 59.7449 22.0318 60.2525 21.7499C60.7602 21.4681 61.3347 21.3291 61.915 21.3479C64.2129 21.3479 65.7276 23.1643 65.7276 25.9699ZM63.8174 25.9699C63.8174 24.1369 62.8701 22.9318 61.4248 22.9318C60.0049 22.9318 59.0498 24.1623 59.0498 25.9699C59.0498 27.7942 60.0049 29.0158 61.4248 29.0158C62.8701 29.0158 63.8174 27.8195 63.8174 25.9699H63.8174Z" fill="white"/>
<path d="M72.3145 27.0362C72.4522 28.2676 73.6485 29.0762 75.2832 29.0762C76.8496 29.0762 77.9766 28.2676 77.9766 27.1572C77.9766 26.1934 77.2969 25.6162 75.6875 25.2207L74.0782 24.833C71.7979 24.2822 70.7393 23.2158 70.7393 21.4854C70.7393 19.3428 72.6065 17.8711 75.2578 17.8711C77.8818 17.8711 79.6807 19.3428 79.7412 21.4854H77.8652C77.7529 20.2461 76.7285 19.4981 75.2315 19.4981C73.7344 19.4981 72.71 20.2549 72.71 21.3565C72.71 22.2344 73.3643 22.751 74.9649 23.1465L76.333 23.4824C78.8809 24.0849 79.9395 25.1084 79.9395 26.9248C79.9395 29.248 78.0889 30.7031 75.1455 30.7031C72.3916 30.7031 70.5322 29.2822 70.4121 27.0361L72.3145 27.0362Z" fill="white"/>
<path d="M83.9492 19.2998V21.4424H85.6709V22.9141H83.9492V27.9053C83.9492 28.6807 84.2939 29.042 85.0508 29.042C85.2552 29.0384 85.4592 29.0241 85.6621 28.999V30.4619C85.3218 30.5255 84.976 30.5543 84.6299 30.5478C82.7969 30.5478 82.082 29.8593 82.082 28.1035V22.9141H80.7656V21.4424H82.082V19.2998H83.9492Z" fill="white"/>
<path d="M86.6699 25.9697C86.6699 23.1211 88.3476 21.3311 90.9639 21.3311C93.5889 21.3311 95.2588 23.1211 95.2588 25.9697C95.2588 28.8262 93.5977 30.6084 90.9639 30.6084C88.331 30.6084 86.6699 28.8262 86.6699 25.9697ZM93.3652 25.9697C93.3652 24.0156 92.4697 22.8623 90.9639 22.8623C89.458 22.8623 88.5635 24.0244 88.5635 25.9697C88.5635 27.9316 89.458 29.0762 90.9639 29.0762C92.4697 29.0762 93.3652 27.9316 93.3652 25.9697H93.3652Z" fill="white"/>
<path d="M96.7891 21.4425H98.5615V22.9835H98.6045C98.7245 22.5022 99.0064 22.0769 99.403 21.779C99.7996 21.4811 100.287 21.3288 100.782 21.3478C100.996 21.347 101.21 21.3703 101.419 21.4171V23.1554C101.149 23.0728 100.867 23.0348 100.584 23.0431C100.314 23.0321 100.045 23.0797 99.795 23.1826C99.5452 23.2855 99.3205 23.4412 99.1366 23.6391C98.9526 23.837 98.8136 24.0724 98.7292 24.3291C98.6448 24.5857 98.6169 24.8576 98.6475 25.1261V30.4962H96.7891L96.7891 21.4425Z" fill="white"/>
<path d="M109.987 27.8369C109.737 29.4805 108.137 30.6084 106.089 30.6084C103.455 30.6084 101.82 28.8437 101.82 26.0127C101.82 23.1729 103.464 21.3311 106.011 21.3311C108.516 21.3311 110.091 23.0518 110.091 25.7969V26.4336H103.696V26.5459C103.667 26.8791 103.708 27.2148 103.819 27.5306C103.929 27.8464 104.105 28.1352 104.335 28.3778C104.566 28.6203 104.845 28.8111 105.155 28.9374C105.464 29.0637 105.798 29.1226 106.132 29.1103C106.571 29.1515 107.012 29.0498 107.388 28.8203C107.765 28.5909 108.058 28.246 108.223 27.8369L109.987 27.8369ZM103.705 25.1348H108.231C108.248 24.8352 108.203 24.5354 108.098 24.2541C107.993 23.9729 107.832 23.7164 107.623 23.5006C107.415 23.2849 107.164 23.1145 106.886 23.0003C106.609 22.8861 106.311 22.8305 106.011 22.8369C105.708 22.8351 105.408 22.8933 105.128 23.008C104.848 23.1227 104.593 23.2918 104.379 23.5054C104.165 23.7191 103.995 23.973 103.879 24.2527C103.763 24.5323 103.704 24.8321 103.705 25.1348V25.1348Z" fill="white"/>
<path d="M37.3447 11.2534H38.1426C38.2799 11.2705 38.4193 11.259 38.552 11.2195C38.6847 11.1801 38.8077 11.1136 38.9134 11.0242C39.0191 10.9349 39.1051 10.8246 39.1661 10.7003C39.227 10.576 39.2616 10.4405 39.2676 10.3022C39.2676 9.75193 38.8535 9.39646 38.1514 9.39646C38.0106 9.3768 37.8674 9.38553 37.7301 9.42214C37.5929 9.45875 37.4643 9.52249 37.3521 9.60961C37.2398 9.69672 37.1462 9.80544 37.0766 9.92935C37.0071 10.0533 36.9631 10.1898 36.9473 10.331H36.0713C36.0863 10.0747 36.154 9.82428 36.2701 9.59527C36.3861 9.36626 36.5481 9.16359 36.7459 8.99989C36.9437 8.83618 37.173 8.71494 37.4197 8.64372C37.6664 8.5725 37.9251 8.55282 38.1797 8.58591C39.3545 8.58591 40.1817 9.24362 40.1817 10.1904C40.1844 10.5076 40.0783 10.8161 39.881 11.0645C39.6837 11.3129 39.4072 11.486 39.0977 11.5551V11.6255C39.4647 11.6417 39.8103 11.8027 40.059 12.073C40.3077 12.3434 40.4392 12.7013 40.4248 13.0683C40.3976 13.3322 40.3181 13.588 40.1908 13.8208C40.0635 14.0535 39.891 14.2585 39.6834 14.4237C39.4759 14.5889 39.2374 14.7111 38.9821 14.7829C38.7267 14.8548 38.4595 14.875 38.1963 14.8423C37.9325 14.8782 37.6641 14.8607 37.4072 14.7907C37.1503 14.7208 36.9102 14.5998 36.701 14.4351C36.4919 14.2703 36.318 14.0651 36.1899 13.8317C36.0617 13.5983 35.9819 13.3415 35.9551 13.0766H36.8447C36.8984 13.6474 37.4229 14.0156 38.1963 14.0156C38.9697 14.0156 39.4746 13.6021 39.4746 13.0191C39.4746 12.4277 38.999 12.0635 38.168 12.0635H37.3447V11.2534Z" fill="white"/>
<path d="M41.4355 13.4243C41.4355 12.6138 42.04 12.1465 43.1103 12.0801L44.3301 12.0098V11.6211C44.3301 11.1455 44.0166 10.877 43.4082 10.877C42.9121 10.877 42.5693 11.0591 42.4697 11.3774H41.6094C41.7002 10.604 42.4287 10.1079 43.4502 10.1079C44.5791 10.1079 45.2158 10.6699 45.2158 11.6211V14.6978H44.3594V14.0649H44.2891C44.1464 14.2919 43.9459 14.477 43.7083 14.6012C43.4707 14.7254 43.2044 14.7843 42.9365 14.7719C42.7475 14.7916 42.5564 14.7714 42.3757 14.7127C42.1949 14.654 42.0285 14.5581 41.887 14.4311C41.7456 14.3042 41.6324 14.149 41.5546 13.9756C41.4769 13.8021 41.4363 13.6144 41.4355 13.4243ZM44.3301 13.0395V12.6631L43.2304 12.7334C42.6103 12.7749 42.3291 12.9858 42.3291 13.3828C42.3291 13.7881 42.6806 14.0239 43.1641 14.0239C43.3057 14.0383 43.4488 14.024 43.5848 13.9819C43.7208 13.9398 43.847 13.8708 43.9558 13.7789C44.0645 13.6871 44.1537 13.5743 44.2181 13.4473C44.2824 13.3202 44.3205 13.1816 44.3301 13.0395Z" fill="white"/>
<path d="M47.5742 10.9429V14.6978H46.6855V10.1948H49.6504V10.9428L47.5742 10.9429Z" fill="white"/>
<path d="M55.0352 12.4443C55.0352 13.875 54.3115 14.7719 53.1748 14.7719C52.8958 14.791 52.6171 14.7299 52.3716 14.5959C52.1261 14.4619 51.924 14.2606 51.7891 14.0156H51.7188V16.1948H50.8301V10.1948H51.6856V10.939H51.752C51.8893 10.6854 52.094 10.4747 52.3436 10.3302C52.5931 10.1857 52.8777 10.113 53.166 10.1201C54.3115 10.1201 55.0352 11.0131 55.0352 12.4443ZM54.1211 12.4443C54.1211 11.4931 53.6709 10.9184 52.918 10.9184C52.17 10.9184 51.7022 11.5053 51.7022 12.4482C51.7022 13.3867 52.1699 13.9741 52.9141 13.9741C53.6709 13.9741 54.1211 13.3994 54.1211 12.4443Z" fill="white"/>
<path d="M56.2188 16.3106V15.5454C56.315 15.5576 56.4119 15.5632 56.5088 15.562C56.6981 15.576 56.886 15.5197 57.0363 15.4037C57.1866 15.2877 57.2888 15.1203 57.3232 14.9336L57.3896 14.7144L55.7598 10.1948H56.7275L57.8565 13.7715H57.9268L59.0518 10.1948H59.9942L58.3155 14.8838C57.9307 15.9795 57.5049 16.3311 56.587 16.3311C56.5127 16.3311 56.3018 16.3228 56.2188 16.3106Z" fill="white"/>
<path d="M60.6875 13.42H61.5723C61.6592 13.817 62.0313 14.024 62.5518 14.024C63.1436 14.024 63.5068 13.7633 63.5068 13.358C63.5068 12.9239 63.1807 12.7169 62.5518 12.7169H61.8779V12.0265H62.54C63.0771 12.0265 63.3506 11.8199 63.3506 11.4435C63.3506 11.1129 63.0859 10.8605 62.54 10.8605C62.043 10.8605 61.6797 11.0714 61.622 11.4269H60.7656C60.8297 11.0184 61.0514 10.6514 61.3833 10.4048C61.7151 10.1581 62.1305 10.0516 62.54 10.108C63.6103 10.108 64.2227 10.5919 64.2227 11.3527C64.2277 11.5645 64.1598 11.7717 64.0304 11.9395C63.901 12.1073 63.7179 12.2256 63.5117 12.2746V12.3449C63.7572 12.3765 63.9824 12.4972 64.1448 12.6839C64.3072 12.8707 64.3954 13.1106 64.3926 13.358C64.3926 14.214 63.6641 14.7804 62.5518 14.7804C61.5684 14.7804 60.7695 14.3297 60.6875 13.42Z" fill="white"/>
<path d="M65.6719 14.6978V10.1948H66.5527V13.292H66.623L68.6982 10.1948H69.5791V14.6978H68.6982V11.584H68.6318L66.5527 14.6978L65.6719 14.6978Z" fill="white"/>
<path d="M74.4327 10.9428H73.0147V14.6977H72.125V10.9428H70.707V10.1948H74.4327V10.9428Z" fill="white"/>
<path d="M79.2194 13.482C79.0983 13.8935 78.8365 14.2494 78.4797 14.4875C78.1229 14.7257 77.6937 14.8309 77.2673 14.7847C76.9706 14.7926 76.6758 14.7358 76.4033 14.6182C76.1308 14.5007 75.8871 14.3253 75.6892 14.1041C75.4913 13.883 75.3439 13.6214 75.2572 13.3376C75.1705 13.0538 75.1466 12.7545 75.1872 12.4605C75.1477 12.1656 75.172 11.8657 75.2585 11.581C75.345 11.2964 75.4916 11.0336 75.6885 10.8105C75.8853 10.5874 76.1278 10.4093 76.3995 10.2881C76.6712 10.1669 76.9658 10.1054 77.2633 10.108C78.5163 10.108 79.2731 10.964 79.2731 12.378V12.6881H76.0934V12.7379C76.0793 12.9032 76.1 13.0696 76.1541 13.2264C76.2081 13.3832 76.2944 13.527 76.4073 13.6485C76.5203 13.77 76.6574 13.8665 76.8099 13.9318C76.9623 13.9972 77.1268 14.0299 77.2926 14.0279C77.5051 14.0533 77.7203 14.0149 77.9108 13.9177C78.1014 13.8205 78.2588 13.6689 78.363 13.482L79.2194 13.482ZM76.0934 12.0308H78.3668C78.3781 11.8798 78.3576 11.7281 78.3067 11.5854C78.2558 11.4427 78.1757 11.3123 78.0714 11.2024C77.9671 11.0926 77.841 11.0058 77.7011 10.9475C77.5613 10.8893 77.4109 10.861 77.2594 10.8643C77.1057 10.8623 76.9531 10.891 76.8106 10.9489C76.6682 11.0068 76.5388 11.0926 76.4301 11.2014C76.3214 11.3101 76.2356 11.4396 76.1778 11.582C76.12 11.7245 76.0913 11.8771 76.0934 12.0308H76.0934Z" fill="white"/>
<path d="M82.9863 10.1948H85.0166C85.8975 10.1948 86.4141 10.6411 86.4141 11.3398C86.4154 11.5615 86.3406 11.777 86.2021 11.9501C86.0637 12.1233 85.8699 12.2436 85.6533 12.291V12.3613C85.9163 12.3779 86.1628 12.4949 86.342 12.6881C86.5212 12.8813 86.6194 13.1359 86.6162 13.3994C86.6162 14.185 86.0254 14.6977 85.0371 14.6977H82.9863V10.1948ZM83.8672 10.877V12.043H84.7481C85.2852 12.043 85.542 11.8364 85.542 11.4556C85.542 11.1045 85.3184 10.8769 84.8467 10.8769L83.8672 10.877ZM83.8672 12.6963V14.0156H84.9209C85.4463 14.0156 85.7276 13.7837 85.7276 13.3579C85.7276 12.9072 85.4092 12.6963 84.8096 12.6963L83.8672 12.6963Z" fill="white"/>
</g>
<defs>
<clipPath id="clip0_7960_225108">
<rect width="119.664" height="40" fill="white" transform="translate(0.605469)"/>
</clipPath>
</defs>
</svg>
