<svg width="124" height="31" viewBox="0 0 124 31" fill="none" xmlns="http://www.w3.org/2000/svg">
<g clip-path="url(#clip0_6_84182)">
<path d="M21.4298 16.3411L19.2874 17.1355L20.3586 19.285L23.4324 17.743L25.4351 19.2383L28.1829 17.8365L10.6713 4.89253V26.715L13.4192 25.3131V22.7897L16.6793 21.1542L15.6547 19.1448L13.3726 20.6402V10.2663L21.4298 16.3411ZM15.8875 29.0514C19.6134 29.0514 23.0133 27.5561 25.4351 25.0795C27.1117 23.3972 28.3692 21.2477 28.9746 18.8645L25.2953 20.7337L23.2927 19.285L14.7232 23.6308V26.1542L14.3506 26.3411L10.8576 28.0701C12.3945 28.7243 14.1178 29.0514 15.8875 29.0514ZM29.3006 17.042C29.3472 16.528 29.3938 16.014 29.3938 15.5C29.3938 11.7617 27.9034 8.35045 25.4351 5.92055C23.0133 3.49065 19.6134 1.9486 15.8875 1.9486C13.978 1.9486 12.1151 2.36916 10.4385 3.11682L29.3006 17.042ZM9.3207 3.67757C8.20295 4.28505 7.2249 5.03271 6.34 5.92055C3.91819 8.35045 2.38127 11.7617 2.38127 15.5C2.38127 19.2383 3.87162 22.6496 6.34 25.0795C7.2249 25.9673 8.20295 26.715 9.3207 27.3225V3.67757ZM30.6513 18.0233C30.139 21.1542 28.602 23.958 26.4597 26.1075C23.7584 28.8177 20.0326 30.5 15.8875 30.5C11.7425 30.5 8.01665 28.8177 5.31539 26.1075C2.61414 23.3972 0.9375 19.6589 0.9375 15.5C0.9375 11.3411 2.61414 7.6028 5.31539 4.89253C8.01665 2.18225 11.7891 0.5 15.8875 0.5C19.986 0.5 23.7584 2.18225 26.4597 4.89253C29.1609 7.6028 30.8376 11.3411 30.8376 15.5C30.8376 16.3878 30.791 17.229 30.6513 18.0233Z" fill="black"/>
<path d="M43.5521 4.98599H47.3246L50.2121 14.2383H47.1382L46.7191 12.6963H43.785L43.3658 14.2383H40.6646L43.5521 4.98599ZM44.2972 10.6869H46.1136L45.2287 7.32245L44.2972 10.6869ZM51.1435 4.98599H55.5215C56.5925 4.98599 57.3845 5.21964 57.8965 5.6402C58.409 6.06075 58.642 6.66825 58.642 7.4159V7.4626C58.642 8.5374 58.1295 9.1916 57.0585 9.47195C57.617 9.56545 58.083 9.79905 58.409 10.1729C58.735 10.5468 58.9215 11.014 58.9215 11.6215V11.6683C58.9215 13.3972 57.8035 14.2383 55.5215 14.2383H51.19V4.98599H51.1435ZM54.916 12.2757C55.661 12.2757 56.0335 11.9486 56.0335 11.2944V11.2477C56.0335 10.6402 55.661 10.3131 54.8695 10.3131H53.9845V12.2757H54.916ZM54.916 8.5841C55.2885 8.5841 55.5215 8.5374 55.7075 8.3972C55.8475 8.257 55.9405 8.0701 55.9405 7.78975V7.743C55.9405 7.18225 55.6145 6.9019 54.916 6.9019H54.031V8.5841H54.916ZM61.7155 7.229H59.387V4.98599H66.9785V7.229H64.65V14.2383H61.7155V7.229ZM72.241 12.0888C72.8 12.0888 73.266 11.8552 73.592 11.4346C73.918 11.014 74.104 10.4066 74.104 9.6589V9.56545C74.104 8.77105 73.918 8.2103 73.592 7.78975C73.266 7.36915 72.8 7.18225 72.1945 7.18225C71.636 7.18225 71.17 7.36915 70.844 7.78975C70.518 8.2103 70.3315 8.81775 70.3315 9.56545V9.6589C70.3315 10.4533 70.518 11.0608 70.844 11.4813C71.17 11.8552 71.636 12.0888 72.241 12.0888ZM72.148 14.3785C70.6575 14.3785 69.447 13.958 68.6085 13.0701C67.7235 12.1823 67.3045 11.0608 67.3045 9.61215V9.5187C67.3045 8.11685 67.77 6.99535 68.7015 6.1075C69.633 5.21964 70.7975 4.79907 72.241 4.79907C73.685 4.79907 74.896 5.21964 75.8275 6.06075C76.759 6.9019 77.2245 8.02335 77.2245 9.47195V9.56545C77.2245 11.014 76.759 12.1823 75.874 13.0701C74.896 13.958 73.685 14.3785 72.148 14.3785ZM81.323 10.0327C81.23 10.9206 81.09 11.5281 80.904 11.9486H83.419V7.229H81.5095C81.3695 8.77105 81.323 9.7056 81.323 10.0327ZM77.3175 14.2383V11.9954H77.923C78.389 11.7617 78.715 11.0608 78.8545 9.79905C78.948 9.14485 78.948 7.5561 78.948 4.98599H86.3065V11.9954H87.424V14.2383H77.3175ZM88.216 14.2383V4.98599H91.15V10.3131L94.084 4.98599H96.9715V14.2383H94.084V8.81775L91.15 14.1916H88.216V14.2383ZM101.909 10.7337C101.769 11.9486 101.489 12.8365 101.024 13.444C100.605 14.0514 99.9055 14.3785 99.021 14.3785C98.9275 14.3785 98.788 14.3785 98.695 14.3785C98.6015 14.3785 98.5085 14.3318 98.4155 14.3318C98.3225 14.3318 98.2755 14.2851 98.229 14.2851C98.1825 14.2851 98.136 14.2383 98.0895 14.2383L98.043 14.1916V11.9486L98.136 11.9954C98.229 11.9954 98.3225 12.0421 98.4155 12.0421C98.695 12.0421 98.9275 11.8552 99.114 11.5281C99.2535 11.201 99.3935 10.6869 99.4865 9.986C99.5795 9.0514 99.6265 7.4159 99.6265 4.93926H106.845V14.1916H103.865V7.18225H102.095C102.048 8.8645 102.002 10.0327 101.909 10.7337ZM108.475 4.98599H115.042V7.229H111.41V8.5374H114.297V10.5935H111.41V11.9954H115.275V14.2383H108.522V4.98599H108.475ZM116.486 4.98599H120.165C122.68 4.98599 123.938 6.06075 123.938 8.16355V8.2103C123.938 9.1916 123.612 9.93925 123.006 10.4533C122.401 10.9673 121.469 11.2477 120.259 11.2477H119.374V14.2851H116.44V4.98599H116.486ZM119.979 9.2383C120.771 9.2383 121.143 8.9112 121.143 8.2103V8.16355C121.143 7.78975 121.05 7.5561 120.864 7.4159C120.678 7.2757 120.398 7.18225 119.979 7.18225H119.374V9.28505H119.979V9.2383Z" fill="black"/>
<path d="M41.363 16.9954H47.6038V19.2384H44.2971V26.2478H41.363V16.9954ZM52.913 24.145C53.472 24.145 53.938 23.9113 54.264 23.4908C54.59 23.0702 54.776 22.4627 54.776 21.7151V21.6216C54.776 20.8272 54.59 20.2665 54.264 19.8459C53.938 19.4253 53.472 19.2384 52.8665 19.2384C52.308 19.2384 51.842 19.4253 51.516 19.8459C51.19 20.2665 51.0035 20.8739 51.0035 21.6216V21.7151C51.0035 22.5094 51.19 23.1169 51.516 23.5375C51.842 23.9113 52.308 24.145 52.913 24.145ZM52.82 26.4347C51.3295 26.4347 50.1188 26.0141 49.2805 25.1263C48.3956 24.2384 47.9764 23.1169 47.9764 21.6683V21.5749C47.9764 20.173 48.4421 19.0515 49.3736 18.1636C50.3051 17.2758 51.4695 16.8552 52.913 16.8552C54.357 16.8552 55.568 17.2758 56.4995 18.1169C57.431 18.958 57.8965 20.0795 57.8965 21.5281V21.6216C57.8965 23.0702 57.431 24.2384 56.546 25.1263C55.5215 26.0141 54.3105 26.4347 52.82 26.4347ZM61.9485 22.0889C61.8555 22.9767 61.7155 23.5842 61.5295 24.0048H64.044V19.2851H62.1345C62.0415 20.8272 61.995 21.7618 61.9485 22.0889ZM57.943 26.2478V24.0048H58.5485C59.0145 23.7711 59.3405 23.0702 59.48 21.8085C59.573 21.1543 59.573 19.5655 59.573 16.9954H66.932V24.0048H68.0495V26.2478H57.943ZM71.263 16.9954H75.0355L77.923 26.2478H74.849L74.43 24.7057H71.496L71.077 26.2478H68.3755L71.263 16.9954ZM72.055 22.7431H73.871L72.9865 19.3786L72.055 22.7431Z" fill="black"/>
<path d="M80.857 25.687L83.931 22.416C84.4435 21.8552 84.816 21.3879 85.0955 21.0141C85.328 20.6403 85.468 20.2665 85.468 19.9393C85.468 19.659 85.4215 19.4721 85.2815 19.2851C85.142 19.0982 84.9555 19.0515 84.676 19.0515C84.35 19.0515 84.1175 19.145 83.9775 19.3786C83.7915 19.6122 83.698 19.9393 83.6515 20.4534H81.09C81.1365 19.2851 81.4625 18.3973 82.1145 17.7898C82.7665 17.1823 83.698 16.902 84.8625 16.902C85.98 16.902 86.865 17.1823 87.4705 17.6964C88.076 18.2571 88.402 18.958 88.402 19.7992C88.402 20.4066 88.2625 20.9207 87.983 21.4347C87.7035 21.9487 87.2845 22.416 86.7255 22.9767L85.701 23.958H88.495V26.1076H80.997V25.687H80.857ZM93.339 24.0515C93.851 24.0515 94.177 23.8646 94.41 23.4907C94.643 23.1169 94.736 22.5094 94.736 21.715V21.3879C94.736 20.5936 94.643 19.9861 94.41 19.6122C94.177 19.2384 93.8045 19.0515 93.339 19.0515C92.8265 19.0515 92.454 19.2384 92.221 19.6122C91.988 19.9861 91.895 20.5468 91.895 21.3879V21.7618C91.895 22.5562 91.988 23.1636 92.221 23.5375C92.454 23.8646 92.8265 24.0515 93.339 24.0515ZM93.2455 26.2478C91.9415 26.2478 90.8705 25.8739 90.1255 25.0795C89.38 24.2851 89.0075 23.1636 89.0075 21.7618V21.3879C89.0075 19.9861 89.4265 18.8646 90.2185 18.0702C91.01 17.2758 92.035 16.8552 93.292 16.8552C94.5495 16.8552 95.5745 17.2291 96.366 17.9767C97.158 18.7244 97.577 19.8459 97.577 21.2945V21.6216C97.577 23.0702 97.2045 24.1917 96.4125 24.9861C95.6675 25.8739 94.5965 26.2478 93.2455 26.2478ZM98.0895 25.687L101.163 22.416C101.675 21.8552 102.048 21.3879 102.327 21.0141C102.56 20.6403 102.7 20.2665 102.7 19.9393C102.7 19.659 102.653 19.4721 102.514 19.2851C102.374 19.0982 102.187 19.0515 101.908 19.0515C101.582 19.0515 101.349 19.145 101.209 19.3786C101.023 19.6122 100.93 19.9393 100.883 20.4534H98.322C98.3685 19.2851 98.6945 18.3973 99.347 17.7898C99.999 17.1823 100.93 16.902 102.094 16.902C103.212 16.902 104.097 17.1823 104.702 17.6964C105.308 18.2571 105.634 18.958 105.634 19.7992C105.634 20.4066 105.494 20.9207 105.215 21.4347C104.935 21.9487 104.516 22.416 103.957 22.9767L102.933 23.958H105.727V26.1076H98.229V25.687H98.0895Z" fill="#45A1DA"/>
<path d="M109.663 22.4159L106.59 25.6869H106.729V26.1075H114.228V23.958H111.433L112.458 22.9766C113.017 22.4159 113.436 21.9486 113.715 21.4346C113.995 20.9206 114.134 20.4066 114.134 19.7991C114.134 18.958 113.808 18.257 113.203 17.6963C112.598 17.1823 111.713 16.9019 110.595 16.9019C109.431 16.9019 108.499 17.1823 107.847 17.7897C107.195 18.3972 106.869 19.2851 106.822 20.4533H109.384C109.431 19.9393 109.524 19.6122 109.71 19.3785C109.85 19.1449 110.083 19.0514 110.409 19.0514C110.688 19.0514 110.874 19.0981 111.014 19.2851C111.154 19.472 111.2 19.6589 111.2 19.9393C111.2 20.2664 111.061 20.6402 110.828 21.014C110.548 21.3879 110.176 21.8552 109.663 22.4159Z" fill="#45A1DA"/>
<path d="M16.7258 18.3973L14.7698 19.7057V11.3879L21.4297 16.3412L19.2408 17.1356L20.6846 19.9393L18.1696 21.201L16.7258 18.3973Z" fill="#45A1DA"/>
</g>
<defs>
<clipPath id="clip0_6_84182">
<rect width="123" height="30" fill="white" transform="translate(0.9375 0.5)"/>
</clipPath>
</defs>
</svg>
