<svg width="192" height="74" viewBox="0 0 192 74" fill="none" xmlns="http://www.w3.org/2000/svg">
<path d="M2.72727 53.7993V54.6799L3.93466 56.4981H4.82955L3.65057 54.7226V54.6799H10V53.7993H2.72727ZM10.0994 49.406C10.1172 47.9358 9.00923 46.977 7.65625 46.977C6.25 46.977 5.24148 48.0175 5.24148 49.2639C5.24148 50.0132 5.60724 50.656 6.20739 51.0537V51.1105C4.43537 51.107 3.40909 50.4181 3.40909 49.2923C3.40909 48.5253 3.89205 48.0636 4.54545 47.9003V47.0338C3.41619 47.2114 2.62784 48.0708 2.62784 49.2923C2.62784 50.9294 4.0767 51.9344 6.64773 51.9344C9.33594 51.9344 10.0852 50.5992 10.0994 49.406ZM9.31818 49.406C9.31818 50.3186 8.54048 50.9862 7.67045 50.9827C6.80043 50.9791 6.02273 50.2796 6.02273 49.3776C6.02273 48.4862 6.75426 47.8293 7.65625 47.8293C8.57955 47.8293 9.31818 48.5146 9.31818 49.406ZM10 45.4663V44.5431L3.55114 41.3044H2.72727V45.9635H3.50852V42.2135H3.56534L10 45.4663ZM10.0994 37.8353C10.1172 36.3651 9.00923 35.4063 7.65625 35.4063C6.25 35.4063 5.24148 36.4468 5.24148 37.6933C5.24148 38.4426 5.60724 39.0853 6.20739 39.483V39.5399C4.43537 39.5363 3.40909 38.8474 3.40909 37.7217C3.40909 36.9546 3.89205 36.493 4.54545 36.3296V35.4632C3.41619 35.6407 2.62784 36.5001 2.62784 37.7217C2.62784 39.3588 4.0767 40.3637 6.64773 40.3637C9.33594 40.3637 10.0852 39.0285 10.0994 37.8353ZM9.31818 37.8353C9.31818 38.748 8.54048 39.4156 7.67045 39.412C6.80043 39.4085 6.02273 38.7089 6.02273 37.8069C6.02273 36.9156 6.75426 36.2586 7.65625 36.2586C8.57955 36.2586 9.31818 36.944 9.31818 37.8353ZM8.86364 28.4264L4.54545 30.3014V31.4094H10V30.5713H5.74929L10 28.7673V28.0855L5.82741 26.2815H10V25.4435H4.54545V26.523L8.86364 28.4264ZM8.86364 21.0395L4.54545 22.9145V24.0225H10V23.1844H5.74929L10 21.3804V20.6986L5.82741 18.8946H10V18.0566H4.54545V19.1361L8.86364 21.0395Z" fill="#0D0A19" fill-opacity="0.75"/>
<path d="M6.92075 4.88003C6.85449 4.81378 6.74707 4.81378 6.68081 4.88003L5.60111 5.95974C5.53485 6.026 5.53485 6.13342 5.60111 6.19967C5.66737 6.26593 5.77479 6.26593 5.84104 6.19967L6.80078 5.23993L7.76052 6.19967C7.82678 6.26593 7.9342 6.26593 8.00045 6.19967C8.06671 6.13342 8.06671 6.026 8.00045 5.95974L6.92075 4.88003ZM6.97044 15L6.97044 5L6.63112 5L6.63112 15L6.97044 15Z" fill="#0D0A19" fill-opacity="0.75"/>
<path d="M6.68081 68.1183C6.74707 68.1846 6.85449 68.1846 6.92075 68.1183L8.00045 67.0386C8.06671 66.9723 8.06671 66.8649 8.00045 66.7987C7.9342 66.7324 7.82678 66.7324 7.76052 66.7987L6.80078 67.7584L5.84104 66.7987C5.77479 66.7324 5.66737 66.7324 5.60111 66.7987C5.53485 66.8649 5.53485 66.9723 5.60111 67.0386L6.68081 68.1183ZM6.63112 58.7983L6.63112 67.9983L6.97044 67.9983L6.97044 58.7983L6.63112 58.7983Z" fill="#0D0A19" fill-opacity="0.75"/>
<path d="M72.1283 69.7087H75.5516V71.2002H76.3896V69.7087H77.384V68.9275H76.3896V63.9275H75.3243L72.1283 68.9843V69.7087ZM75.5516 68.9275H73.08V68.8706L75.4948 65.0496H75.5516V68.9275ZM78.942 71.2002H79.8653L83.104 64.7513V63.9275H78.4449V64.7087H82.1949V64.7655L78.942 71.2002ZM86.6436 71.2996C88.2487 71.2996 89.172 69.9395 89.172 67.5638C89.172 65.2059 88.2345 63.828 86.6436 63.828C85.0526 63.828 84.1151 65.2059 84.1151 67.5638C84.1151 69.9395 85.0384 71.2996 86.6436 71.2996ZM86.6436 70.5184C85.5853 70.5184 84.9674 69.4566 84.9674 67.5638C84.9674 65.6746 85.5924 64.5951 86.6436 64.5951C87.6947 64.5951 88.3197 65.6746 88.3197 67.5638C88.3197 69.4566 87.7018 70.5184 86.6436 70.5184ZM92.8509 71.2996C94.3034 71.2996 95.3154 70.4509 95.3225 69.2684C95.3154 68.3486 94.7011 67.5674 93.9163 67.4218V67.3792C94.5981 67.2016 95.0455 66.534 95.0526 65.7599C95.0455 64.6519 94.1151 63.828 92.8509 63.828C91.5725 63.828 90.6421 64.6519 90.6492 65.7599C90.6421 66.534 91.0896 67.2016 91.7856 67.3792V67.4218C90.9866 67.5674 90.3722 68.3486 90.3794 69.2684C90.3722 70.4509 91.3843 71.2996 92.8509 71.2996ZM92.8509 70.5184C91.8531 70.5184 91.2387 70.007 91.2458 69.2258C91.2387 68.4055 91.917 67.8195 92.8509 67.8195C93.7707 67.8195 94.449 68.4055 94.4561 69.2258C94.449 70.007 93.8346 70.5184 92.8509 70.5184ZM92.8509 67.0667C92.0555 67.0667 91.4944 66.5695 91.5015 65.8167C91.4944 65.078 92.0342 64.5951 92.8509 64.5951C93.6535 64.5951 94.1933 65.078 94.2004 65.8167C94.1933 66.5695 93.6322 67.0667 92.8509 67.0667ZM102.493 70.0638L100.618 65.7456H99.5102V71.2002H100.348V66.9495L102.152 71.2002H102.834L104.638 67.0276V71.2002H105.476V65.7456H104.397L102.493 70.0638ZM109.993 70.0638L108.118 65.7456H107.01V71.2002H107.848V66.9495L109.652 71.2002H110.334L112.138 67.0276V71.2002H112.976V65.7456H111.897L109.993 70.0638Z" fill="#0D0A19" fill-opacity="0.75"/>
<path d="M178.52 68.1214C178.586 68.0552 178.586 67.9477 178.52 67.8815L177.44 66.8018C177.374 66.7355 177.267 66.7355 177.2 66.8018C177.134 66.868 177.134 66.9755 177.2 67.0417L178.16 68.0015L177.2 68.9612C177.134 69.0275 177.134 69.1349 177.2 69.2011C177.267 69.2674 177.374 69.2674 177.44 69.2011L178.52 68.1214ZM116 68.1711L178.4 68.1711L178.4 67.8318L116 67.8318L116 68.1711Z" fill="#0D0A19" fill-opacity="0.75"/>
<path d="M11.8793 67.8815C11.813 67.9478 11.813 68.0552 11.8793 68.1214L12.959 69.2011C13.0252 69.2674 13.1326 69.2674 13.1989 69.2011C13.2652 69.1349 13.2652 69.0275 13.1989 68.9612L12.2392 68.0015L13.1989 67.0417C13.2652 66.9755 13.2652 66.868 13.1989 66.8018C13.1326 66.7355 13.0252 66.7355 12.959 66.8018L11.8793 67.8815ZM69.1992 67.8318H11.9992V68.1711H69.1992V67.8318Z" fill="#0D0A19" fill-opacity="0.75"/>
<path d="M189.201 60.5055V55.9174H188.42V59.2981H188.363L186.616 57.6646C185.277 56.4146 184.652 56.0452 183.846 56.0452C182.724 56.0452 181.829 56.9543 181.829 58.2327C181.829 59.5076 182.695 60.4771 183.974 60.4771V59.639C183.146 59.639 182.596 59.1028 182.596 58.2611C182.596 57.4728 183.079 56.8691 183.846 56.8691C184.517 56.8691 185.014 57.2633 185.934 58.1049L188.562 60.5055H189.201ZM189.301 52.1917C189.301 50.5866 187.941 49.6633 185.565 49.6633C183.207 49.6633 181.829 50.6008 181.829 52.1917C181.829 53.7826 183.207 54.7201 185.565 54.7201C187.941 54.7201 189.301 53.7968 189.301 52.1917ZM188.519 52.1917C188.519 53.25 187.458 53.8679 185.565 53.8679C183.676 53.8679 182.596 53.2429 182.596 52.1917C182.596 51.1406 183.676 50.5156 185.565 50.5156C187.458 50.5156 188.519 51.1335 188.519 52.1917ZM187.71 48.5974V45.1741H189.201V44.3361H187.71V43.3418H186.928V44.3361H181.928V45.4014L186.985 48.5974H187.71ZM186.928 45.1741V47.6457H186.872L183.051 45.231V45.1741H186.928ZM188.065 36.4275L183.747 38.3025V39.4105H189.201V38.5724H184.95L189.201 36.7684V36.0866L185.029 34.2826H189.201V33.4446H183.747V34.5241L188.065 36.4275ZM188.065 29.0406L183.747 30.9156V32.0236H189.201V31.1855H184.95L189.201 29.3815V28.6997L185.029 26.8957H189.201V26.0577H183.747V27.1372L188.065 29.0406Z" fill="#0D0A19" fill-opacity="0.75"/>
<path d="M178.28 54.2811C178.347 54.2148 178.454 54.2148 178.52 54.2811L179.6 55.3608C179.666 55.427 179.666 55.5345 179.6 55.6007C179.534 55.667 179.426 55.667 179.36 55.6007L178.4 54.641L177.441 55.6007C177.374 55.667 177.267 55.667 177.201 55.6007C177.134 55.5345 177.134 55.427 177.201 55.3608L178.28 54.2811ZM178.231 58.9253V54.401H178.57V58.9253H178.231Z" fill="#0D0A19" fill-opacity="0.75"/>
<path d="M178.28 61.3211C178.347 61.3874 178.454 61.3874 178.52 61.3211L179.6 60.2414C179.666 60.1752 179.666 60.0678 179.6 60.0015C179.534 59.9352 179.426 59.9352 179.36 60.0015L178.4 60.9612L177.441 60.0015C177.374 59.9352 177.267 59.9352 177.201 60.0015C177.134 60.0678 177.134 60.1752 177.201 60.2414L178.28 61.3211ZM178.231 57.2012L178.231 61.2012L178.57 61.2012L178.57 57.2012L178.231 57.2012Z" fill="#0D0A19" fill-opacity="0.75"/>
<g clip-path="url(#clip0)">
<path fill-rule="evenodd" clip-rule="evenodd" d="M45.9223 5.47101C46.4696 5.61273 47.3355 5.93213 47.8464 6.18094L48.7753 6.63318L50.6331 6.45629C56.5271 5.89498 63.4021 5.59946 72.661 5.50949C77.6148 5.46119 82.0267 5.4876 84.3385 5.57943C94.616 5.98708 102.436 7.37776 106.86 9.58453C109.852 11.0767 119.343 16.7567 123.513 19.5508C124.259 20.0503 124.926 20.459 124.995 20.459C125.064 20.459 125.141 20.506 125.165 20.5633C125.19 20.6208 125.977 21.1929 126.914 21.8346C127.852 22.4763 129.067 23.3229 129.614 23.7157L130.61 24.43L132.289 24.3512C133.656 24.287 134.276 24.3247 135.626 24.5537C136.539 24.7084 139.136 24.9878 141.399 25.1745C153.02 26.1331 161.186 27.3145 167.991 29.0219C174.851 30.7429 177.677 32.1609 178.656 34.3743C178.912 34.9535 178.922 35.1485 178.838 38.0531L178.749 41.1203L179.174 42.2882L179.6 43.4561L179.451 45.416C179.289 47.5446 179.112 48.1075 178.561 48.2459C178.377 48.2921 178.139 48.4633 178.033 48.6264C177.838 48.9247 176.763 51.8253 176.763 52.0523C176.763 52.1191 176.938 52.1739 177.152 52.1739C177.744 52.1739 178.223 52.4003 178.223 52.6803C178.223 52.9672 177.459 53.4169 175.965 54.0106C175.419 54.2277 174.484 54.6217 173.889 54.886C173.149 55.2143 172.36 55.4375 171.4 55.5897C170.35 55.7563 169.978 55.8672 169.927 56.0291C169.786 56.4723 169.244 56.8255 168.584 56.9037C168.036 56.9686 167.883 57.0506 167.654 57.3992C167.182 58.1191 165.796 58.9197 164.993 58.9357C164.754 58.9405 164.659 58.8095 164.471 58.2117L164.241 57.4819H163.012C162.336 57.4819 161.747 57.4222 161.702 57.3492C161.511 57.0412 161.123 57.2238 160.967 57.6942C160.726 58.4252 159.368 60.3728 158.428 61.3366C156.27 63.5482 152.95 65.1249 150.126 65.2794L149.166 65.3319L149.128 69.0038L149.091 72.6758L149.06 68.9935L149.029 65.3111H148.056C147.521 65.3111 147.043 65.2714 146.995 65.223C146.946 65.1745 146.354 64.9953 145.679 64.8246C142.334 63.979 139.078 61.3807 137.518 58.312L137.02 57.3311L121.958 57.3716C112.631 57.3967 106.822 57.3643 106.699 57.2864C106.583 57.2133 103.285 57.1308 98.8034 57.0891C91.1211 57.0176 91.1051 57.0169 90.6009 56.7189C90.1598 56.4582 89.9113 56.4203 88.6436 56.4203H87.1915V56.806C87.1915 57.1765 87.1611 57.1956 86.4285 57.2847C86.0087 57.3356 79.8014 57.4017 72.6341 57.4316L59.6027 57.4857L59.1218 58.4008C56.7765 62.864 51.4552 65.7608 46.453 65.2975C43.5148 65.0254 40.2659 63.4451 38.1812 61.274C36.8397 59.8769 35.4988 57.6156 35.1274 56.1237C34.9936 55.5869 34.5519 55.5412 33.0035 55.9034C31.9317 56.1541 31.3189 56.2151 29.9985 56.2023C27.8331 56.1814 26.731 55.8925 24.4667 54.752C22.7353 53.88 22.6942 53.8673 20.6184 53.5552C19.3791 53.3689 17.9107 53.2388 17.0318 53.2377C15.7062 53.2358 15.5289 53.2079 15.4085 52.983C15.3342 52.8442 15.0085 52.6023 14.6847 52.4456C14.0013 52.1148 13.5611 51.5833 13.0064 50.4195C12.665 49.7032 12.6209 49.4899 12.6927 48.8982C12.7527 48.4027 12.7126 48.0437 12.5493 47.616C12.3842 47.1838 12.3454 46.829 12.407 46.3137C12.4535 45.9241 12.5343 45.0082 12.5864 44.2784C12.6602 43.2464 12.7477 42.8449 12.9795 42.472C13.2623 42.0171 13.3218 41.9891 14.1419 41.9233C14.6172 41.885 15.1013 41.7748 15.2178 41.6782C15.5339 41.4158 15.4043 40.2064 14.9596 39.269C14.7004 38.7227 14.5541 38.116 14.4441 37.1313L14.2904 35.7565L14.7165 35.1132C15.1621 34.4404 15.4682 33.5724 15.877 31.8233L16.1206 30.7803L15.7635 30.5201C15.3547 30.2224 15.0035 29.2157 15.0035 28.3416C15.0035 28.0324 14.9556 27.7597 14.8971 27.7353C14.6235 27.6216 14.2065 25.6632 14.2069 24.4937C14.2073 23.1186 14.2173 23.1022 15.4016 22.5176C15.944 22.2498 16.8133 21.4851 18.7854 19.5406C21.8213 16.5475 22.9396 15.49 24.6321 14.0116C25.2934 13.4341 25.8454 12.9019 25.8588 12.8289C25.8722 12.7559 25.6129 12.6272 25.2825 12.5429C24.6083 12.3709 24.4043 12.2307 23.9976 11.6595L23.7151 11.2629L24.0522 10.9728C24.8214 10.3113 31.9631 8.79086 38.7565 7.84233C40.1312 7.65045 40.8955 7.48352 41.061 7.33901C41.3821 7.05862 42.0712 5.85929 42.0728 5.57783C42.0735 5.45787 42.1685 5.32358 42.284 5.27926C42.7428 5.10317 44.9509 5.21955 45.9223 5.47101ZM42.4633 5.46875C42.3222 5.54439 42.2067 5.68227 42.2067 5.77515C42.2067 5.86818 42.0021 6.28406 41.752 6.6994C41.5018 7.11475 41.3535 7.45459 41.4223 7.45459C41.5471 7.45459 46.5408 6.8597 47.6167 6.71665C47.9283 6.67525 48.1519 6.59058 48.1136 6.52861C48.0008 6.34615 46.3255 5.73561 45.3915 5.53643C44.3522 5.31482 42.8172 5.27939 42.4633 5.46875ZM68.2631 5.7311C58.0267 5.97487 50.809 6.46903 42.9366 7.46507C39.8258 7.85865 34.9067 8.57244 34.2448 8.72624L33.9131 8.80333L34.3465 9.19054C34.5848 9.40352 34.9092 9.57776 35.0674 9.57776C35.2257 9.57776 36.7325 9.37035 38.416 9.1169C49.8227 7.39925 61.3531 6.52556 72.5946 6.52689C85.015 6.52848 91.1093 6.90654 97.4092 8.06619C100.592 8.65219 102.032 9.07802 104.395 10.1316L105.873 10.791L106.551 10.4476C106.924 10.2586 107.229 10.0764 107.229 10.0426C107.229 9.81847 104.665 8.79444 102.606 8.19611C95.3271 6.08076 84.9268 5.3342 68.2631 5.7311ZM65.0308 6.79335C58.9972 7.06074 52.425 7.57335 46.254 8.25807C43.7268 8.53847 35.7525 9.65699 35.149 9.81569C34.9346 9.87209 32.5126 12.0785 29.0733 15.3501C25.2618 18.9761 23.1391 20.9014 22.7096 21.1225C22.2558 21.3561 21.7613 21.8193 21.0392 22.6876C20.4751 23.3659 20.043 23.9505 20.0791 23.9864C20.1151 24.0225 20.9734 24.1078 21.9863 24.176C25.798 24.4329 27.7841 24.9716 28.8829 26.0462L29.4259 26.5774L34.5889 26.6998C40.5688 26.8417 47.2531 27.0549 49.1959 27.1659L50.5456 27.243L50.6307 26.4719C50.6774 26.0476 50.8293 25.196 50.9682 24.579C51.1073 23.9623 51.208 23.4477 51.1924 23.4356C51.139 23.3943 47.4397 22.7149 47.2688 22.7149C47.1599 22.7149 47.124 22.8225 47.169 23.0135C47.2244 23.2489 47.2085 23.2396 47.0937 22.9694C46.9564 22.6459 46.7811 22.5918 43.9472 21.9973C42.2965 21.6511 40.0802 21.1618 39.0219 20.9102C37.9637 20.6586 36.6798 20.3562 36.1689 20.2382C34.3553 19.8192 33.7566 19.2498 34.1523 18.3199C34.6037 17.2589 38.1878 12.9971 39.6191 11.8193C40.6904 10.9377 41.9716 10.5811 46.1922 9.98939C56.497 8.54497 70.5922 7.81314 82.4427 8.1072C92.0853 8.34646 96.4801 8.85601 100.889 10.2455C104.441 11.3652 109.479 14.3439 115.722 19.0151C117.794 20.5657 117.768 20.5452 120.218 22.5984C121.122 23.3558 121.965 24.0528 122.093 24.1473C122.298 24.2988 122.382 24.242 122.805 23.665C123.069 23.3054 123.285 22.9553 123.285 22.8871C123.285 22.8189 122.703 22.3687 121.992 21.8867C121.28 21.4046 119.533 20.1589 118.11 19.1182C109.586 12.885 105.47 10.4342 101.443 9.19293C99.0197 8.44597 94.4813 7.65735 90.3339 7.26271C85.0058 6.75567 71.5256 6.50566 65.0308 6.79335ZM80.873 8.67236C80.9195 8.90418 80.9898 9.12632 81.0294 9.16586C81.0689 9.20554 82.8747 9.28012 85.0422 9.33174C93.7076 9.53808 99.321 10.5393 103.845 12.6857C106.48 13.9356 110.208 16.3516 113.598 19.006C114.522 19.7291 114.843 19.9045 115.368 19.974C116.692 20.1493 117.818 21.0028 118.121 22.0618C118.214 22.3845 118.353 22.7323 118.432 22.8347C118.708 23.1951 121.148 25.1035 121.333 25.1035C121.614 25.1035 122.357 24.8256 122.357 24.7208C122.357 24.5913 119.75 22.393 117.436 20.5716C111.182 15.6479 105.157 11.9117 101.247 10.5335C97.5118 9.21656 90.4066 8.34353 82.829 8.27042L80.7888 8.25078L80.873 8.67236ZM67.6185 8.38082C64.293 8.50781 56.6807 8.99615 55.5539 9.15472C54.9929 9.23368 54.8839 9.29883 54.7771 9.61943C54.7086 9.82458 54.6739 10.0135 54.6997 10.0392C54.7256 10.0649 56.359 9.97493 58.3296 9.83931C63.8594 9.45847 67.7324 9.31077 74.5519 9.22053C78.0004 9.17489 80.8219 9.12606 80.8219 9.11213C80.8219 9.09806 80.7564 8.89848 80.6762 8.66864L80.5305 8.25078L75.6669 8.25502C72.9918 8.25728 69.3701 8.31394 67.6185 8.38082ZM30.1311 9.5053C27.0908 10.1144 24.4858 10.791 24.2419 11.0349C24.0609 11.2159 24.2194 11.3404 24.9943 11.6257C26.2518 12.0885 26.6131 12.6454 27.2121 15.0435C27.3636 15.65 27.5146 16.2246 27.5477 16.3203C27.5836 16.4245 28.9657 15.2009 30.9949 13.2682C33.3279 11.0461 34.309 10.0308 34.1475 10.0056C34.0186 9.98541 32.4258 10.2397 30.6078 10.5707C28.79 10.9017 27.2777 11.1476 27.2472 11.1171C27.2167 11.0867 27.3008 11.0282 27.4341 10.9873C27.6258 10.9284 31.2446 10.2671 34.0961 9.77017L34.5444 9.69202L34.1063 9.24005C33.8066 8.93086 33.5811 8.80678 33.3925 8.84765C33.241 8.88043 31.7733 9.17635 30.1311 9.5053ZM46.254 10.1752C43.1633 10.6184 41.3528 10.9905 40.6378 11.3294C39.65 11.7977 36.9828 14.6369 35.0621 17.2646C33.6495 19.1973 33.8978 19.562 37.0978 20.2544C37.6817 20.3809 38.458 20.5681 38.8229 20.6708C40.2485 21.0717 46.403 22.3307 46.6806 22.2783C46.8423 22.2477 46.9923 22.2758 47.014 22.3408C47.0594 22.4771 51.1012 23.2591 51.2585 23.162C51.4477 23.0449 51.3673 22.734 51.1307 22.6679C51.003 22.6322 50.0094 22.4142 48.9227 22.1833C47.3147 21.8417 46.9261 21.7966 46.8347 21.9407C46.7447 22.0827 46.722 22.0785 46.7202 21.9187C46.7184 21.7693 46.1309 21.5895 44.3628 21.1974C43.0674 20.9102 41.8584 20.6299 41.6759 20.5746C41.4935 20.5193 40.3887 20.2541 39.221 19.9853C36.8478 19.439 36.4367 19.2768 36.3229 18.8412C36.2118 18.4164 36.7098 17.4079 37.6536 16.1463C38.5064 15.0063 40.1466 13.1589 40.6749 12.7434C41.8361 11.8301 44.4893 11.2613 51.4192 10.4403C53.0192 10.2508 54.3706 10.0697 54.4221 10.0377C54.5255 9.97387 54.6693 9.34554 54.5972 9.27335C54.5181 9.19439 48.7345 9.81941 46.254 10.1752ZM83.3432 9.4996C83.3432 9.66256 88.8272 24.7911 88.9227 24.8914C88.9853 24.9572 89.9799 25.0582 91.1329 25.1158C92.2859 25.1734 93.7583 25.2537 94.4051 25.2943L95.5808 25.3681L95.5037 24.8709L95.4266 24.3736L95.6003 24.8381C95.6958 25.0935 95.8583 25.3174 95.9614 25.3356C96.0644 25.3537 98.5351 25.4858 101.452 25.6291C105.586 25.8321 106.778 25.8541 106.857 25.7287C106.935 25.6069 106.96 25.6106 106.962 25.7436C106.963 25.8695 107.144 25.9097 107.601 25.8855C107.951 25.8669 108.295 25.8859 108.364 25.9275C108.433 25.9693 109.744 26.0341 111.276 26.0716C112.809 26.1092 113.869 26.112 113.632 26.0777C113.391 26.043 112.997 25.8231 112.736 25.5771C112.311 25.1755 112.271 25.0747 112.271 24.3833C112.271 22.8272 112.842 20.459 113.217 20.459C113.395 20.459 113.359 20.2244 113.045 19.3656C112.725 18.4859 112.684 18.4496 109.598 16.3276C106.421 14.1418 104.519 13.0851 101.921 12.0613C98.6626 10.7774 93.7458 9.90314 88.033 9.59183C85.7574 9.46776 83.3432 9.42025 83.3432 9.4996ZM81.1525 9.70674C81.1983 9.85072 82.1564 13.2929 83.2818 17.3561C84.4072 21.4194 85.3447 24.7606 85.3651 24.7811C85.4339 24.8498 88.6512 25.0093 88.6512 24.944C88.6512 24.8868 83.5733 10.7284 83.2234 9.80998C83.0886 9.45608 83.0538 9.44506 82.0769 9.44506C81.1346 9.44506 81.0749 9.46191 81.1525 9.70674ZM78.3658 9.87633C78.4672 10.4426 79.9311 19.5136 80.3736 22.3168C80.5637 23.521 80.7377 24.5266 80.7602 24.5513C80.7829 24.5761 81.2929 24.63 81.8936 24.6713C82.8092 24.734 82.9678 24.716 82.8737 24.5598C82.7842 24.4113 82.8002 24.4049 82.9528 24.5282C83.2434 24.763 85.0683 24.9162 85.0683 24.7058C85.0683 24.3036 82.6201 15.7031 82.5227 15.7632C82.4632 15.8001 82.4143 15.7082 82.4143 15.5589C82.4143 15.2149 82.25 14.5145 81.5871 12.0327C80.8164 9.14729 81.0498 9.44506 79.5585 9.44506H78.2886L78.3658 9.87633ZM63.3207 9.70422C62.0518 9.77628 60.9826 9.86624 60.9449 9.9038C60.9072 9.94148 61.1533 11.7198 61.4916 13.8556C62.0682 17.4963 62.3283 19.5045 62.1834 19.1984C62.1489 19.1254 61.8197 17.1548 61.4518 14.8193C60.6093 9.47001 60.6924 9.84276 60.3427 9.84515C60.1843 9.84634 59.9858 9.89106 59.9015 9.94467C59.6832 10.0836 61.7921 23.381 62.0667 23.5983C62.1736 23.6827 62.72 23.7571 63.2809 23.7638C64.4938 23.7779 65.7872 23.8362 72.1965 24.1654C74.8605 24.3022 77.1296 24.4133 77.2391 24.4123C77.3486 24.4113 78.1465 24.4562 79.0123 24.5119L80.5865 24.6134L80.5052 24.2282C80.4244 23.8462 79.3049 16.9554 78.5563 12.2317C78.3422 10.8815 78.1359 9.6932 78.0978 9.59103C78.039 9.43391 77.0752 9.41825 71.8282 9.48911C68.4181 9.53529 64.5897 9.63203 63.3207 9.70422ZM55.9228 10.287C55.7349 10.4778 52.7587 22.5626 52.8718 22.6756C53.1128 22.9166 61.7134 23.8355 61.7134 23.6203C61.7134 23.5916 61.2361 20.5846 60.6527 16.9379C60.0694 13.2912 59.5917 10.2263 59.5911 10.1269C59.5903 9.97891 59.2727 9.96325 57.8319 10.0401C56.8017 10.095 56.0112 10.1973 55.9228 10.287ZM106.167 10.9305C106.167 10.9871 106.526 11.2145 106.964 11.4355C107.613 11.7633 107.76 11.7983 107.76 11.6258C107.76 11.5022 107.98 11.3275 108.291 11.2057C108.582 11.0911 108.821 10.9614 108.821 10.9178C108.821 10.8741 108.541 10.6804 108.199 10.487L107.577 10.1358L106.872 10.4816C106.485 10.6717 106.167 10.8737 106.167 10.9305ZM54.6342 10.3413C54.4476 10.6431 52.5557 18.8169 52.5479 19.3548C52.5409 19.8344 52.5099 19.9281 52.4245 19.7292C52.3333 19.5171 52.3085 19.5083 52.3011 19.6851C52.296 19.807 52.2564 20.016 52.213 20.1496C52.1458 20.3562 52.1574 20.3628 52.2894 20.1936C52.4642 19.9698 52.4392 20.0523 52.1245 20.7402C52.0036 21.0043 51.8837 21.4244 51.8581 21.6739C51.8325 21.9234 51.7644 22.2039 51.7067 22.2973C51.649 22.3907 51.6457 22.508 51.6995 22.5579C51.7533 22.6077 51.8238 22.5745 51.8561 22.4839C51.9005 22.3598 51.9638 22.3679 52.1129 22.517C52.4169 22.8211 52.5353 22.7584 52.6798 22.2173C52.8638 21.5278 55.6092 10.3498 55.6092 10.2898C55.6092 10.1948 54.6949 10.243 54.6342 10.3413ZM53.2857 13.426C52.8742 15.0682 52.4853 16.6506 52.4214 16.9425C52.3576 17.2345 52.0914 18.3093 51.8299 19.3311C51.5684 20.3529 51.3807 21.2934 51.4127 21.4212C51.4446 21.5491 51.4166 21.6203 51.3506 21.5793C51.2843 21.5384 51.2294 21.5831 51.2283 21.6787C51.2274 21.7742 51.1905 21.9868 51.1466 22.1509C51.0877 22.3704 51.1234 22.4495 51.281 22.4495C51.3991 22.4495 51.4956 22.3492 51.4956 22.2267C51.4956 22.1042 51.5536 21.8205 51.6246 21.5964C51.935 20.6157 52.4245 18.4784 52.4245 18.1039C52.4245 17.8787 52.4717 17.6746 52.5293 17.6502C52.6648 17.5931 54.4025 10.4761 54.317 10.3292C54.1683 10.0737 53.9963 10.5899 53.2857 13.426ZM50.2051 10.7726C44.4902 11.4947 42.1171 12.0015 41.0486 12.7278C40.0537 13.4042 37.4095 16.5438 36.756 17.825C36.3576 18.6056 36.4142 18.9768 36.9664 19.2074C37.413 19.3941 39.8642 20.012 41.6759 20.3948C42.1503 20.495 43.3446 20.7634 44.3299 20.9915C45.3152 21.2195 46.2706 21.432 46.453 21.4636C46.6355 21.4951 47.564 21.6943 48.5163 21.9061C49.4686 22.1178 50.3884 22.3118 50.5601 22.3371C50.862 22.3817 50.8954 22.2892 51.5751 19.5301C51.9616 17.961 52.2448 16.5651 52.2043 16.4283C52.1637 16.2914 52.1843 16.2125 52.2499 16.2532C52.3544 16.3176 53.7627 10.9704 53.7546 10.5398C53.7504 10.3201 53.8252 10.3152 50.2051 10.7726ZM108.39 11.3294C107.933 11.4947 107.916 11.8659 108.35 12.1889C108.529 12.322 109.487 12.9383 110.481 13.5587C111.474 14.1791 113.164 15.3155 114.236 16.0841C116.972 18.045 120.267 20.4336 120.474 20.6053C121.062 21.0941 123.736 22.8134 124.347 23.0952C124.972 23.3837 125.305 23.4385 126.669 23.478C127.589 23.5049 128.344 23.4685 128.457 23.3922C128.564 23.3196 128.624 23.2357 128.59 23.2059C128.318 22.9702 124.154 20.1808 121.892 18.72C116.325 15.1242 109.279 10.9829 108.954 11.1157C108.845 11.1606 108.591 11.2568 108.39 11.3294ZM24.4252 11.9002C24.7078 12.2009 25.414 12.4945 25.8595 12.4963C26.1844 12.4978 25.8541 12.2053 25.1718 11.8876C24.2697 11.4675 24.0228 11.4718 24.4252 11.9002ZM24.8808 14.0441C23.2223 15.4896 22.0822 16.5589 19.6123 18.985C18.0162 20.5527 17.692 20.9322 17.8662 21.0298C17.9854 21.0965 18.6583 21.1081 19.3872 21.0559C20.6579 20.9649 20.7157 20.9464 21.465 20.3936C21.8889 20.0808 23.324 18.7584 24.6542 17.4549L27.0729 15.0847L26.7224 13.99C26.5297 13.3878 26.3331 12.8952 26.2856 12.8952C26.2381 12.8952 25.6059 13.4122 24.8808 14.0441ZM21.3663 20.7129L20.6833 21.1889L19.0199 21.2089L17.3564 21.2289L16.8788 21.7065L16.4012 22.1841H17.4115C18.1012 22.1841 18.9403 22.0535 20.0564 21.7727C22.8092 21.0799 22.827 21.0686 25.994 18.0041C27.3582 16.6842 27.3649 16.6743 27.2837 16.1589C27.2389 15.874 27.1704 15.5895 27.1316 15.5269C27.0929 15.4643 25.9335 16.4984 24.5552 17.825C23.177 19.1516 21.7418 20.4511 21.3663 20.7129ZM113.269 19.4047C113.374 19.7008 113.493 19.9971 113.534 20.0633C113.609 20.1861 114.266 19.9538 114.257 19.8073C114.253 19.7421 113.191 18.8754 113.107 18.8688C113.092 18.8676 113.165 19.1088 113.269 19.4047ZM113.816 20.2776C113.166 20.5877 112.831 21.2837 112.603 22.8017C112.309 24.7474 112.327 24.9335 112.859 25.4347C113.267 25.8191 113.414 25.8699 114.285 25.9259C114.82 25.9603 115.379 26.0646 115.528 26.1576C115.75 26.2962 116.072 26.2867 117.31 26.1052C119.038 25.8518 119.268 25.7603 119.389 25.2781C119.5 24.8353 119.328 24.556 118.798 24.3172C118.338 24.1098 118.337 24.107 118.106 22.8107C118.018 22.316 117.819 21.726 117.663 21.4998C116.869 20.3442 114.953 19.7356 113.816 20.2776ZM17.4873 22.3114C16.3815 22.316 16.0962 22.3644 15.5631 22.6379C14.9018 22.9772 14.3406 23.3671 14.5031 23.3742C14.5565 23.3765 15.5977 23.5886 16.8172 23.8456C18.2207 24.1413 19.1415 24.2752 19.3262 24.2105C19.5697 24.1251 21.6385 21.8079 21.6385 21.6205C21.6385 21.5875 20.9965 21.7282 20.2119 21.9332C19.1326 22.215 18.4695 22.3071 17.4873 22.3114ZM51.5619 23.0577C51.5619 23.2493 51.6717 23.3225 52.0069 23.3546C52.3413 23.3866 52.4295 23.3537 52.362 23.2219C52.3125 23.1255 52.3512 23.1409 52.4478 23.256C52.8156 23.6945 56.0503 24.0913 61.5143 24.3683C63.7038 24.4794 65.9031 24.6047 66.4013 24.6469C67.2914 24.7221 67.3067 24.718 67.2639 24.4158C67.2205 24.1092 67.2107 24.1077 64.1019 23.9547C59.4266 23.7246 56.9711 23.5236 54.5604 23.1734C53.3632 22.9995 52.3451 22.8809 52.2981 22.91C52.2512 22.939 52.126 22.908 52.02 22.841C51.7496 22.6701 51.5619 22.7588 51.5619 23.0577ZM123.001 23.7194L122.443 24.4587L123.362 25.3561C124.552 26.519 125.861 28.7361 126.505 30.6805C126.562 30.8514 127.551 30.9417 132.791 31.2535C140.415 31.7073 141.067 31.7554 141.067 31.8641C141.067 31.9116 140.873 31.9325 140.636 31.9105C140.398 31.8885 137.637 31.7217 134.498 31.5399C131.36 31.3581 128.321 31.172 127.745 31.1267L126.698 31.044L126.804 32.0214C126.862 32.5591 126.945 34.044 126.988 35.3213L127.067 37.6435L127.664 37.6796C129.457 37.7877 133.901 38.6585 133.901 38.9016C133.901 38.9604 133.349 38.8692 132.674 38.6988C130.975 38.2701 129.241 37.9865 128.063 37.9444L127.067 37.9089L126.967 40.6138C126.912 42.1015 126.783 44.2809 126.681 45.4568C126.579 46.6327 126.522 47.6379 126.554 47.6905C126.629 47.8115 127.304 47.7003 128.007 47.4512C128.548 47.2593 129.374 46.5409 129.225 46.3915C129.181 46.3478 129.044 46.4667 128.92 46.6554C128.517 47.2714 128.195 47.0344 128.195 46.121C128.195 45.4298 128.44 44.9634 129.859 42.9442C132.209 39.6022 132.401 39.4211 133.369 39.6335C133.852 39.7397 133.978 39.9129 133.761 40.1738C133.671 40.2818 133.629 40.4012 133.667 40.4392C133.705 40.477 134.157 39.9829 134.671 39.3411C137.478 35.8386 140.199 34.3894 144.943 33.8699C146.585 33.6901 150.359 33.688 151.819 33.8659C154.481 34.1904 157.512 35.1356 159.872 36.3774L161.093 37.0205L162.625 36.6047C163.467 36.3761 164.156 36.1579 164.154 36.1201C164.153 36.0821 163.532 35.7087 162.774 35.2902C160.896 34.2537 160.527 33.9315 160.629 33.4193C160.754 32.7953 161.313 32.1617 161.871 32.0132C162.316 31.8946 165.63 31.6103 166.605 31.607C167.239 31.6049 166.857 31.4037 165.218 30.8764C160.231 29.2715 154.558 28.2314 144.252 27.0322C133.704 25.8049 130.738 25.3414 128.063 24.5018C127.515 24.33 126.619 24.0947 126.072 23.9789C125.525 23.863 124.778 23.5973 124.413 23.3885C124.048 23.1796 123.707 23.0023 123.655 22.9945C123.602 22.9867 123.308 23.313 123.001 23.7194ZM95.2861 23.6438C95.3686 23.9505 95.4103 24.2274 95.3784 24.2591C95.3467 24.2908 95.2564 24.0629 95.1775 23.7523C95.0987 23.442 95.0572 23.165 95.085 23.137C95.113 23.1092 95.2035 23.3371 95.2861 23.6438ZM118.458 23.6106C118.506 23.8114 118.552 23.9755 118.56 23.9755C118.74 23.9755 119.422 24.5043 119.57 24.7578C119.736 25.0448 119.74 25.1454 119.594 25.3802C119.497 25.5341 119.438 25.6759 119.461 25.6952C119.547 25.7667 120.897 25.3311 120.897 25.2317C120.897 25.1132 118.627 23.2583 118.473 23.2507C118.416 23.248 118.41 23.4098 118.458 23.6106ZM127.35 23.656C126.72 23.6649 126.205 23.7152 126.205 23.7677C126.205 23.8758 127.801 24.1384 129.193 24.2594L130.119 24.3399L129.589 23.9258C129.244 23.6565 128.959 23.534 128.777 23.5757C128.622 23.611 127.981 23.6472 127.35 23.656ZM51.1661 24.4732C51.042 25.0022 50.9087 25.8307 50.8697 26.3139L50.7989 27.1925L52.043 27.2619C53.2856 27.3312 53.2874 27.3308 53.6558 26.9408C54.1412 26.4269 55.6498 26.032 57.1233 26.0333C58.8663 26.0348 61.1858 26.718 61.9114 27.4436C62.104 27.6362 62.5957 27.6904 65.1375 27.7995C67.5187 27.9017 68.1481 27.8939 68.1921 27.7614C68.2358 27.6307 68.2712 27.6326 68.3563 27.7703C68.4615 27.9406 70.8335 28.0899 77.5708 28.3503C78.6656 28.3927 80.5466 28.4834 81.7508 28.5519C84.9114 28.732 85.903 28.7243 85.7805 28.5205C85.7128 28.4078 85.7528 28.413 85.9054 28.5366C86.0289 28.6368 86.1287 28.6667 86.1272 28.603C86.1207 28.3193 85.4745 25.9879 85.3766 25.8946C85.2781 25.8009 82.7689 25.6303 78.5661 25.4314C77.7268 25.3916 74.9202 25.249 72.3292 25.1144C69.2544 24.9547 67.6013 24.9156 67.5692 25.0016C67.5366 25.0889 67.4917 25.0887 67.4365 25.0013C67.3886 24.9254 65.122 24.7478 62.1115 24.5842C57.3353 24.3247 54.6575 24.0806 53.3202 23.7829C52.9079 23.691 52.8226 23.708 52.8226 23.8822C52.8226 24.0736 52.8076 24.0737 52.6567 23.8834C52.4579 23.6328 52.2124 23.5356 51.7423 23.5216C51.4144 23.5118 51.3771 23.5733 51.1661 24.4732ZM14.3931 23.7433C14.7194 24.811 14.8708 25.7132 14.8708 26.591C14.8708 27.2298 14.9244 27.6247 15.0114 27.6247C15.0886 27.6247 15.3853 27.4371 15.6707 27.2077C15.9562 26.9782 16.6218 26.5714 17.1499 26.3033C17.9265 25.9094 18.1839 25.696 18.4963 25.1876C18.7087 24.8421 18.8564 24.5331 18.8246 24.5013C18.7756 24.4523 14.7513 23.5558 14.4307 23.5224C14.371 23.5161 14.3541 23.6157 14.3931 23.7433ZM67.4194 24.3777C67.4194 24.4896 67.494 24.608 67.5853 24.641C67.6764 24.6741 69.9307 24.8131 72.5946 24.9502C76.1268 25.1319 77.4645 25.1595 77.5357 25.0519C77.6068 24.9442 77.6337 24.9441 77.6352 25.0516C77.6372 25.1993 78.8674 25.2906 82.8788 25.4407C83.9006 25.4789 84.871 25.5393 85.0351 25.5747C85.3418 25.641 85.3938 25.5472 85.2531 25.1807C85.1904 25.0171 84.9689 24.9708 84.2501 24.9708C83.5474 24.9708 83.3513 25.0103 83.4272 25.1366C83.4841 25.2315 83.4226 25.2173 83.2831 25.1035C83.0976 24.9521 82.385 24.8723 80.3051 24.7703C78.7495 24.694 77.5349 24.6861 77.4874 24.7522C77.4415 24.8159 77.3817 24.8086 77.3547 24.736C77.3084 24.612 71.2565 24.2379 68.5805 24.1937C67.6179 24.1779 67.4194 24.2094 67.4194 24.3777ZM19.0579 24.7213C18.8662 24.949 18.616 25.3222 18.5019 25.5507C18.3876 25.779 18.0912 26.1571 17.8432 26.3905L17.3921 26.815V29.3799C17.3921 32.6041 17.3593 32.5351 18.8925 32.5333C20.6679 32.531 23.1037 32.2813 24.0278 32.0068C25.3896 31.6024 27.7313 29.8814 28.7811 28.5136C29.5471 27.5155 29.5599 27.0782 28.8457 26.2878C27.9558 25.3028 26.7156 24.8626 23.8523 24.5156C23.036 24.4166 21.7019 24.3293 20.8873 24.3215L19.4062 24.3073L19.0579 24.7213ZM129.191 24.6068C129.863 24.9856 134.673 25.7218 142.394 26.6274C152.824 27.8506 157.416 28.5774 161.693 29.6818C164.189 30.3262 165.96 30.8817 167.395 31.4705C167.913 31.6831 168.697 31.9479 169.136 32.059C170.082 32.2981 173.477 33.4452 174.655 33.9237C175.109 34.1084 175.531 34.2597 175.591 34.2597C175.652 34.2597 175.701 34.0341 175.701 33.7585C175.701 33.0343 176.004 32.6679 176.605 32.6645L177.095 32.6617L176.255 32.1241C174.429 30.9547 170.564 29.7284 164.422 28.3697C159.277 27.2318 150.181 26.0609 140.033 25.2303C138.186 25.0792 136.096 24.8501 135.388 24.7214C134.431 24.5473 133.447 24.4896 131.557 24.4968C130.158 24.5021 129.094 24.5516 129.191 24.6068ZM14.4108 25.402C14.5522 26.433 14.7591 26.7991 14.6614 25.8457C14.5796 25.0468 14.4953 24.7054 14.3797 24.7054C14.3441 24.7054 14.3582 25.0188 14.4108 25.402ZM121.747 25.2419C120.164 25.7894 118.013 26.2962 116.85 26.3957C116.171 26.4537 114.367 26.431 112.67 26.343C108.442 26.1239 108.165 26.1255 108.071 26.3698C108.028 26.4825 108.015 26.5955 108.042 26.6213C108.069 26.6469 110.315 26.77 113.033 26.8948C116.917 27.0731 118.167 27.0892 118.872 26.9695C119.811 26.8101 122.465 26.1357 123.094 25.8969L123.459 25.7579L123.082 25.3644C122.875 25.1479 122.666 24.9708 122.618 24.9708C122.57 24.9708 122.178 25.0927 121.747 25.2419ZM85.4664 25.2403C85.4664 25.3886 85.541 25.5345 85.6323 25.5645C85.8545 25.6376 94.7907 26.0574 95.4021 26.0236C95.6667 26.0089 95.9728 26.0289 96.0823 26.0681C96.3989 26.1814 106.277 26.5931 106.428 26.4995C106.758 26.296 106.556 26.0322 106.068 26.0276C105.794 26.0249 103.391 25.9124 100.727 25.7774C97.5502 25.6165 95.8662 25.5777 95.834 25.6645C95.8019 25.7509 95.7553 25.7495 95.7002 25.6601C95.6494 25.578 93.6296 25.4204 90.6406 25.2654C87.9042 25.1234 85.6207 24.999 85.5659 24.9891C85.5111 24.979 85.4664 25.0921 85.4664 25.2403ZM85.7102 25.8328C85.6508 25.8921 86.3257 28.6636 86.4217 28.7551C86.4437 28.7759 87.0389 28.8139 87.7444 28.8392C88.8473 28.8789 89.0473 28.8533 89.1701 28.6562C89.3685 28.3381 90.1772 27.9509 91.0131 27.7738C92.4523 27.4687 94.7134 27.6711 96.1343 28.232C96.3613 28.3217 96.3779 28.2817 96.308 27.812L96.2308 27.293L96.3926 27.795C96.5056 28.1452 96.7614 28.4536 97.2382 28.8145L97.9217 29.3319L100.883 29.4751C102.512 29.5538 104.098 29.6461 104.407 29.6802C104.943 29.7394 104.982 29.719 105.245 29.2475C105.396 28.9753 105.479 28.8721 105.43 29.0181C105.18 29.7634 105.172 29.7479 105.8 29.7479C106.28 29.7479 106.421 29.6914 106.546 29.4493C106.697 29.1557 106.698 29.1556 106.626 29.4403C106.561 29.6975 106.617 29.7376 107.123 29.7991C107.437 29.8372 108.35 29.8984 109.153 29.935C109.956 29.9716 114.121 30.1935 118.408 30.4281C122.696 30.6626 126.235 30.8234 126.273 30.7854C126.472 30.5868 124.72 27.145 124.015 26.3483L123.617 25.8985L122.357 26.3003C120.465 26.9035 118.695 27.2268 117.293 27.2256C116.611 27.2249 114.206 27.1351 111.948 27.0259C108.662 26.867 107.821 26.8607 107.737 26.9939C107.654 27.1239 107.631 27.1212 107.629 26.9816C107.628 26.8498 107.453 26.815 106.963 26.8489C106.598 26.8742 106.3 26.8619 106.3 26.8215C106.3 26.781 104.583 26.6742 102.485 26.584C100.387 26.4938 98.0792 26.3828 97.3574 26.3376L96.0448 26.2554L96.119 26.7742L96.1932 27.293L96.048 26.7954C95.9631 26.5044 95.8161 26.2926 95.694 26.2854C94.9433 26.241 86.6365 25.8019 86.2516 25.7862C85.99 25.7756 85.7464 25.7966 85.7102 25.8328ZM106.707 26.2809C106.589 26.5014 106.637 26.5381 107.134 26.6072C107.569 26.6679 107.731 26.6348 107.865 26.4582C108.013 26.2625 107.995 26.2196 107.732 26.1452C107.173 25.9864 106.841 26.0302 106.707 26.2809ZM55.9229 26.3086C54.872 26.4549 54.1496 26.7253 54.1496 26.9725C54.1496 27.0479 54.2188 27.0667 54.3035 27.0145C54.6488 26.8011 59.8478 27.0779 60.9172 27.3666C61.1726 27.4355 61.4712 27.5495 61.5807 27.62C61.7545 27.7316 61.7496 27.7779 61.5422 27.9849C61.3304 28.1961 61.0354 28.221 58.8219 28.2134C57.4564 28.2086 55.9373 28.1623 55.4463 28.1104C54.6266 28.0238 54.5601 28.0353 54.6363 28.2516C54.682 28.3813 54.5612 28.2608 54.3681 27.9838C54.1749 27.7069 54.0169 27.3562 54.0169 27.2045C54.0169 26.9744 53.9838 26.9561 53.8178 27.094C53.4867 27.3688 53.5828 27.8722 54.0474 28.2966C54.2832 28.512 54.5369 28.6675 54.6114 28.6424C54.6858 28.6172 54.8064 28.6747 54.8794 28.7698C55.277 29.2885 58.4114 29.5368 59.8216 29.1614C60.7818 28.9058 61.6903 28.4465 61.8589 28.1315C61.9692 27.9254 61.9471 27.8083 61.7572 27.5937C61.4335 27.228 60.0975 26.6298 59.1921 26.4453C57.7449 26.1505 57.2189 26.1284 55.9229 26.3086ZM16.0963 27.1204C15.1917 27.7391 15.0955 27.9659 15.2821 29.0373C15.4124 29.7856 15.5167 30.0172 15.8712 30.3449C16.1082 30.5639 16.4839 31.1463 16.7061 31.6389C16.9603 32.2024 17.1887 32.5346 17.3221 32.5346C17.5041 32.5346 17.5099 32.4923 17.3636 32.236C17.1219 31.8128 17.1279 27.0208 17.3706 26.5882L17.5427 26.2817L17.1026 26.5074C16.8604 26.6316 16.4076 26.9074 16.0963 27.1204ZM29.5596 27.0852C29.7747 27.9077 28.2318 29.7158 26.1104 31.1275C25.1713 31.7523 24.9806 31.9345 25.0771 32.1146C25.3352 32.596 26.3847 33.5132 27.0133 33.8066C27.3785 33.977 29.5108 34.5702 31.7518 35.1246L35.8262 36.1327L37.0592 35.4743C38.7762 34.5573 40.7547 33.8898 43.041 33.4563C45.0332 33.0784 48.7639 33.0579 51.2663 33.4111C51.8451 33.4927 51.8932 33.4789 51.8261 33.2497C51.7772 33.0825 51.8052 33.0986 51.9099 33.2976C51.9963 33.4617 52.1401 33.5962 52.2296 33.5962C52.3352 33.5962 52.1609 32.9197 51.7326 31.6671C51.3698 30.6062 50.968 29.2179 50.8395 28.5819L50.606 27.4257L49.9116 27.3852C49.2445 27.3463 49.2202 27.3567 49.2955 27.6506C49.3728 27.9525 49.3719 27.9528 49.2258 27.6704C49.0362 27.3041 48.6462 27.2734 41.875 27.088C39.0286 27.0101 36.4012 26.931 36.0362 26.912C35.6713 26.8932 34.0497 26.8666 32.4327 26.8531C29.5852 26.8293 29.4946 26.8367 29.5596 27.0852ZM54.3572 27.2127C54.316 27.2795 55.1996 27.3677 56.3731 27.4142C57.5221 27.4597 58.9698 27.5243 59.5902 27.558C60.3985 27.6018 60.6241 27.5829 60.3864 27.4914C59.6682 27.215 54.5033 26.9762 54.3572 27.2127ZM50.8957 27.9897C50.9888 28.6168 51.9355 31.7943 52.3868 32.9948L52.6235 33.6243L54.1496 34.0622C54.9889 34.3031 55.9353 34.6042 56.2527 34.7313C56.7408 34.9267 56.848 34.9339 56.9474 34.7769C57.0437 34.6249 57.0652 34.63 57.0669 34.8057C57.0681 34.9323 57.4933 35.2666 58.1052 35.6221C61.5528 37.6254 63.5077 39.9675 64.685 43.5054C64.8835 44.102 65.1346 44.6637 65.2429 44.7536C65.3644 44.8544 66.2369 44.9627 67.5242 45.0366C72.8614 45.343 87.2686 46.0259 87.3573 45.9767C87.4121 45.9463 87.4569 43.8063 87.4569 41.221V36.5206L87.1583 36.4597C86.9941 36.4261 85.4863 36.3625 83.8077 36.3183C82.129 36.274 78.4865 36.1571 75.7131 36.0584C71.9204 35.9233 70.6464 35.9165 70.573 36.0313C70.5021 36.1423 70.4749 36.1385 70.4735 36.0179C70.472 35.892 69.9453 35.852 68.2887 35.852C66.1431 35.852 63.8481 36.0762 62.3437 36.4326C61.924 36.532 61.5807 36.5616 61.5807 36.4982C61.5807 36.4347 61.5955 36.3827 61.6138 36.3824C61.6322 36.3822 62.2531 36.2643 62.9938 36.1206C64.6718 35.7947 68.0928 35.5548 69.3953 35.6714L70.3758 35.7593L70.2948 35.2418L70.2139 34.7241L70.3759 35.1458C70.465 35.3778 70.5677 35.5957 70.6042 35.63C70.6407 35.6644 72.5814 35.7576 74.9169 35.8372C77.2524 35.9169 79.9842 36.0192 80.9878 36.0646L82.8124 36.1473L82.8208 35.8337C82.829 35.5313 82.8333 35.5301 82.9415 35.798C83.0412 36.0443 83.2019 36.0856 84.3597 36.1623C86.2209 36.2856 87.4569 36.2703 87.4569 36.1242C87.4569 35.1154 86.3905 29.292 86.1643 29.0657C86.0601 28.9615 82.0981 28.6943 80.5755 28.6889C79.9556 28.6866 79.875 28.7161 79.9455 28.9186C80.0118 29.1088 79.9899 29.1037 79.8246 28.8899C79.6355 28.6453 79.2728 28.6131 74.0896 28.3786C69.7775 28.1834 68.5446 28.1638 68.5026 28.2896C68.4607 28.4155 68.4266 28.415 68.3478 28.2874C68.2769 28.1727 67.3739 28.0843 65.3228 27.9915L62.3988 27.8594L61.946 28.3121C60.8074 29.4507 57.7747 29.9219 55.6672 29.2876C55.2608 29.1652 55.0785 29.1553 55.0785 29.2555C55.0785 29.3352 55.0037 29.3111 54.9126 29.2017C54.8213 29.0924 54.5024 28.8476 54.2038 28.6577C53.9053 28.4678 53.5856 28.1303 53.4934 27.9078C53.3316 27.5173 53.2925 27.5015 52.3775 27.4575C51.856 27.4326 51.2881 27.4002 51.1155 27.3857C50.8146 27.3604 50.8057 27.3846 50.8957 27.9897ZM54.5965 27.7178C54.7744 27.8957 56.2214 28.0005 58.6547 28.0117C60.2027 28.0187 61.0565 27.9764 60.9768 27.8966C60.868 27.7878 54.7094 27.493 54.5587 27.5894C54.5283 27.6088 54.5453 27.6665 54.5965 27.7178ZM90.5604 28.0856C89.7395 28.33 89.1819 28.7434 89.1819 29.1074C89.1819 29.5284 89.9674 30.2068 90.8407 30.5403C91.8398 30.9216 94.0193 31.0595 95.1341 30.8118C96.2921 30.5546 96.8785 30.2842 96.8785 30.0075C96.8785 29.7857 96.7796 29.7713 95.7173 29.8374C94.2675 29.9276 90.5475 29.6875 90.0778 29.4735C89.6391 29.2737 89.5473 29.0473 89.7774 28.7326C89.937 28.5142 90.127 28.4918 91.5265 28.526C93.1816 28.5666 95.7952 28.7752 96.3305 28.9095C96.5645 28.9683 96.6319 28.9407 96.5873 28.8046C96.506 28.5555 95.1867 28.0398 94.2528 27.8921C93.2588 27.735 91.413 27.8318 90.5604 28.0856ZM85.6161 28.1224C85.781 28.3328 85.7764 28.3375 85.5659 28.1725C85.3448 27.9991 85.2746 27.8901 85.3839 27.8901C85.4113 27.8901 85.5159 27.9947 85.6161 28.1224ZM16.5959 29.0181C16.5959 29.4418 16.5623 29.4825 16.212 29.4825C15.8885 29.4825 15.667 29.2908 15.667 29.0106C15.667 28.9513 16.4118 28.5536 16.5229 28.5536C16.5631 28.5536 16.5959 28.7626 16.5959 29.0181ZM96.7458 28.8699C96.7458 28.9708 96.8652 29.0847 97.0112 29.1229C97.2779 29.1926 97.3919 29.6152 97.1439 29.6152C97.0709 29.6152 97.0112 29.7048 97.0112 29.8143C97.0112 30.0542 97.166 30.0708 97.3827 29.8541C97.6435 29.5933 97.5653 29.2567 97.177 28.967C96.7374 28.6391 96.7458 28.6409 96.7458 28.8699ZM91.0397 28.8071C91.0397 28.9313 92.0871 29.0255 94.7553 29.1414C96.7123 29.2264 96.4151 29.0097 94.3484 28.8449C92.2537 28.6778 91.0397 28.6639 91.0397 28.8071ZM90.3099 28.819C90.2632 28.8945 90.3774 28.9517 90.5753 28.9517C90.7731 28.9517 90.8874 28.8945 90.8407 28.819C90.7956 28.746 90.6761 28.6863 90.5753 28.6863C90.4744 28.6863 90.355 28.746 90.3099 28.819ZM16.1423 28.8996C16.0269 28.9439 15.9324 29.0677 15.9324 29.1747C15.9324 29.447 16.3832 29.3356 16.4383 29.0498C16.487 28.7967 16.4539 28.78 16.1423 28.8996ZM86.528 29.2093C86.528 29.351 86.5886 29.5044 86.6628 29.5502C86.737 29.5961 86.7621 29.6913 86.7185 29.7617C86.675 29.8321 86.7963 30.6789 86.988 31.6434C87.1799 32.608 87.41 34.0241 87.4995 34.7905L87.662 36.1838L88.2561 36.2735C88.5828 36.3229 89.1339 36.3676 89.4805 36.373C90.0436 36.3818 90.1128 36.351 90.1289 36.0843C90.1464 35.7962 90.1489 35.7956 90.2023 36.0677C90.263 36.3767 89.9949 36.3538 96.3808 36.5985L98.6035 36.6837L98.6119 36.3674C98.6203 36.0569 98.6225 36.0564 98.7356 36.3367C98.8382 36.5912 98.9849 36.6308 100.087 36.7022C101.635 36.8024 124.59 37.5814 125.927 37.5788L126.909 37.5771L126.817 35.2881C126.732 33.1957 126.542 31.2355 126.411 31.1046C126.362 31.055 112.815 30.2753 108.443 30.0704C106.768 29.9919 106.385 30.0079 106.289 30.1599C106.195 30.308 106.171 30.2986 106.169 30.1128C106.168 29.9264 106.05 29.8806 105.57 29.8806C105.182 29.8806 104.972 29.9386 104.971 30.0465C104.969 30.1779 104.947 30.1776 104.863 30.0449C104.787 29.9251 103.781 29.8271 101.328 29.7008L97.899 29.5242L97.5216 29.9346C97.2426 30.2382 97.1638 30.4314 97.2188 30.6768C97.3974 31.4733 97.3882 31.6241 97.1968 31.0316C97.0319 30.5206 96.9452 30.41 96.7683 30.4843C96.047 30.7871 94.9673 31.0554 94.1581 31.133C91.9577 31.3439 89.4686 30.4962 89.0413 29.3906C88.9261 29.0923 88.698 29.0438 87.0919 28.9756C86.614 28.9553 86.528 28.991 86.528 29.2093ZM90.3762 29.2171C90.3762 29.2901 90.4808 29.3489 90.6085 29.3478C90.807 29.3461 90.8118 29.327 90.6416 29.2171C90.3912 29.0552 90.3762 29.0552 90.3762 29.2171ZM91.0397 29.3324C91.0397 29.5329 91.9653 29.6123 94.324 29.6138C95.7008 29.6147 96.6131 29.5644 96.6131 29.4877C96.6131 29.4175 96.0905 29.3403 95.452 29.316C92.8512 29.2169 91.0397 29.2236 91.0397 29.3324ZM15.9274 32.4351C15.6065 33.7472 15.1268 34.9651 14.7798 35.3486C14.602 35.545 14.58 35.7988 14.6468 36.8791C14.7614 38.7295 14.7801 38.7714 15.4921 38.7714H16.0824L16.5623 37.743C16.9799 36.8482 17.0545 36.5336 17.1363 35.3213C17.1879 34.5549 17.3218 33.6795 17.4338 33.3759C17.6519 32.7841 17.6194 32.6673 17.2358 32.6673C17.0711 32.6673 16.8742 32.4288 16.6332 31.9374C16.4363 31.536 16.2644 31.2076 16.2514 31.2076C16.2383 31.2076 16.0925 31.76 15.9274 32.4351ZM97.6636 32.3466C97.7492 32.6867 97.7945 32.9899 97.764 33.0203C97.7336 33.0506 97.6387 32.7973 97.553 32.4572C97.4674 32.1171 97.4221 31.8139 97.4526 31.7835C97.483 31.7531 97.5779 32.0064 97.6636 32.3466ZM162.167 32.122C161.412 32.2782 160.809 32.9311 160.867 33.5298C160.916 34.04 161.683 34.567 164.223 35.8348C167.036 37.2393 168.019 37.5944 169.73 37.8247C172.853 38.2451 173.394 38.1678 174.288 37.1732C175.123 36.2444 175.172 35.8929 174.62 34.8064L174.173 33.9279L172.383 33.2854C171.398 32.932 169.965 32.4694 169.199 32.2574C167.834 31.8799 167.755 31.8732 165.285 31.9353C163.898 31.9702 162.495 32.0542 162.167 32.122ZM23.3635 32.3577C22.8891 32.465 21.456 32.5935 20.1788 32.6433L17.8566 32.7336L17.6238 33.4603C17.4959 33.8598 17.3413 34.8153 17.2804 35.5835C17.1872 36.7577 17.1028 37.1114 16.75 37.8055C16.5193 38.2596 16.3305 38.6837 16.3305 38.7481C16.3305 38.8124 16.8494 38.9048 17.4834 38.9536C18.7793 39.0531 23.7809 39.7647 27.4569 40.3724C28.7959 40.5938 30.196 40.757 30.568 40.7352C31.2361 40.6961 31.2531 40.6841 31.9459 39.7666C32.6823 38.7914 34.4517 37.0427 35.0755 36.6736C35.2768 36.5543 35.4226 36.4 35.3996 36.3306C35.3765 36.2612 33.5396 35.7491 31.3177 35.1927C29.096 34.6363 27.0393 34.054 26.7473 33.8987C26.1896 33.602 25.324 32.8146 24.9819 32.2925C24.8332 32.0656 24.7067 32.0078 24.503 32.0733C24.3507 32.1224 23.8379 32.2503 23.3635 32.3577ZM176.082 33.0203C175.832 33.3233 175.87 35.6811 176.152 37.2882C176.356 38.457 177.009 40.6929 177.115 40.5871C177.142 40.5603 177.071 39.7676 176.958 38.8256C176.844 37.8834 176.715 36.3532 176.671 35.4252C176.583 33.5882 176.655 33.3308 177.251 33.3308C177.68 33.3308 177.523 33.1012 176.989 32.9467C176.373 32.7688 176.285 32.776 176.082 33.0203ZM98.0617 33.8062C98.1473 34.1463 98.1926 34.4496 98.162 34.4799C98.1317 34.5103 98.0368 34.257 97.9511 33.9169C97.8655 33.5768 97.8202 33.2736 97.8507 33.2432C97.8811 33.2128 97.976 33.4661 98.0617 33.8062ZM43.7036 33.5428C41.7727 33.8292 39.3439 34.5428 37.894 35.2499C35.9508 36.1976 35.9585 36.1511 37.6753 36.577C38.4896 36.7791 39.26 36.9115 39.3874 36.8713C39.5148 36.8312 40.0371 36.64 40.548 36.4465C43.1335 35.4674 48.0334 35.2396 51.8986 35.9193C52.5064 36.0261 53.0268 36.0901 53.0555 36.0614C53.0841 36.0328 53.0135 35.8276 52.8987 35.6056C52.7838 35.3835 52.6925 35.1539 52.6958 35.0957C52.6992 35.0373 52.8458 35.2582 53.0216 35.5866C53.4491 36.385 53.4323 36.2507 52.9468 34.9865C52.5114 33.8528 52.2944 33.5065 52.2878 33.9346C52.2841 34.17 52.2718 34.1729 52.1514 33.9664C52.0787 33.8417 51.8267 33.7037 51.5915 33.6597C49.6385 33.2951 45.7617 33.2378 43.7036 33.5428ZM177.638 34.4709L178.118 35.3876L178.056 36.9136C178.009 38.0613 177.911 38.6946 177.658 39.4681C177.308 40.5403 177.357 40.8596 177.74 39.9989C178.309 38.7219 178.535 36.1283 178.168 35.0877C177.959 34.4968 177.307 33.4058 177.217 33.4963C177.185 33.5281 177.375 33.9667 177.638 34.4709ZM177.72 33.6957C178.499 35.2272 178.538 35.3719 178.526 36.6482C178.512 38.1124 178.228 39.4771 177.733 40.4625C177.394 41.1374 177.391 41.1664 177.625 41.4246C178.206 42.0671 178.412 41.5901 178.614 39.1292C178.878 35.9108 178.756 34.5241 178.148 33.8528C177.924 33.6051 177.617 33.4923 177.72 33.6957ZM177.254 34.528C177.73 35.4452 177.805 36.6323 177.491 38.2982C177.212 39.7778 177.289 40.2521 177.604 38.9983C178.116 36.9574 178.033 35.4729 177.34 34.2824C176.874 33.484 176.809 33.6707 177.254 34.528ZM143.833 34.19C141.501 34.552 139.554 35.2814 137.939 36.3978C136.324 37.5148 135.438 38.5446 130.822 44.6748C128.758 47.4164 128.417 47.7149 127.175 47.8701C126.564 47.9464 126.477 47.9965 126.417 48.3068C126.291 48.9579 126.026 51.6413 126.082 51.6925C126.113 51.7204 127.452 51.7655 129.058 51.7927L131.977 51.8422L132.067 50.4859C132.312 46.7979 133.274 44.4245 135.773 41.3476C138.046 38.5491 140.723 36.7787 143.698 36.1071C146.37 35.5037 151.368 35.6629 154.474 36.4502C155.939 36.8218 158.014 37.5408 158.122 37.7143C158.16 37.776 158.473 37.7447 158.818 37.6449C159.163 37.545 159.699 37.397 160.01 37.316C160.32 37.235 160.574 37.1123 160.574 37.0431C160.574 36.8472 157.722 35.505 156.385 35.0715C155.087 34.6507 152.937 34.1788 151.47 33.9927C150.177 33.8285 145.359 33.953 143.833 34.19ZM53.1677 35.09C53.3701 35.6186 53.5835 36.1161 53.642 36.1955C53.7005 36.275 54.0625 36.4107 54.4465 36.4971C54.8306 36.5836 55.7568 36.9483 56.505 37.3073C57.2531 37.6664 57.8651 37.9444 57.8651 37.9252C57.8651 37.8537 59.2789 39.1241 59.8587 39.7165C61.8121 41.7125 63.0965 44.8223 63.8338 49.3403L63.9885 50.2884L66.268 50.3711C67.5216 50.4166 72.6914 50.5465 77.7562 50.6599C85.0124 50.8223 86.9863 50.8314 87.0655 50.7034C87.1208 50.6141 87.2059 49.6693 87.255 48.604C87.304 47.5387 87.3546 46.5774 87.3673 46.4679C87.3976 46.2081 87.0512 46.1834 75.1252 45.5971C69.8389 45.3373 65.4065 45.0673 65.2754 44.9971C64.9644 44.8307 64.8451 44.5946 64.3947 43.2541C63.6676 41.0904 62.0758 38.7427 60.4717 37.4679C59.2815 36.5223 57.5939 35.4539 57.29 35.4539C57.1685 35.4539 57.0689 35.408 57.0689 35.3519C57.0689 35.0969 52.9318 33.7855 52.8443 34.013C52.8199 34.0767 52.9654 34.5613 53.1677 35.09ZM174.837 34.7861C175.02 35.1485 175.171 35.64 175.171 35.8781C175.171 36.4435 174.486 37.4454 173.792 37.8951C173.337 38.1906 173.115 38.2402 172.258 38.2382C171.052 38.2353 168.876 37.9355 167.874 37.6344C167.474 37.5141 166.569 37.1563 165.865 36.8396L164.583 36.2637L163.144 36.653C162.352 36.8672 161.62 37.0746 161.518 37.1139C161.391 37.1627 161.59 37.4188 162.147 37.9229C163.692 39.3216 165.498 42.4044 166.458 45.2823C167.1 47.2076 167.648 50.4489 167.332 50.4489C167.264 50.4489 167.209 50.2205 167.209 49.9414C167.209 48.9624 166.786 46.9172 166.258 45.34C165.267 42.3809 163.556 39.4512 161.993 38.0364C161.175 37.2967 160.922 37.2106 160.229 37.4379C160.017 37.5073 159.59 37.6291 159.28 37.7085C158.97 37.7878 158.716 37.8952 158.716 37.9472C158.716 37.9991 158.999 38.2203 159.345 38.4387C160.235 39.0012 161.695 40.4129 162.383 41.3764C163.271 42.6209 164.005 44.3214 164.489 46.2532C164.871 47.7746 165.283 50.2492 165.384 51.6243L165.417 52.0699L167.408 52.0732C169.033 52.076 169.228 52.0946 168.469 52.1751C167.958 52.2293 166.76 52.281 165.806 52.2902L164.072 52.3066L164.123 54.1976C164.151 55.2377 164.195 56.1533 164.219 56.2325C164.268 56.3878 165.148 56.2965 169.594 55.6744C172.333 55.2912 173.359 55.0202 174.679 54.3308C175.798 53.7464 175.978 53.4583 177.037 50.5686C177.47 49.3865 177.825 48.4048 177.825 48.387C177.825 48.3691 178.056 48.2617 178.34 48.1483C179.032 47.8715 179.153 47.4829 179.247 45.2405C179.321 43.4713 179.315 43.4159 179.055 43.4159C178.907 43.4159 178.724 43.4906 178.649 43.5817C178.574 43.673 178.026 45.4495 177.433 47.5295C176.839 49.6096 176.212 51.6205 176.039 51.9981C175.74 52.6534 175.696 52.6892 175.096 52.7792C174.059 52.9347 171.038 52.771 170.587 52.5349C170.094 52.2769 169.427 51.5749 169.148 51.0195C168.835 50.3986 168.876 48.8189 169.265 46.5225C169.864 42.9884 170.693 40.256 171.284 39.8688C171.896 39.4675 174.076 39.486 176.19 39.9106L176.613 39.9954L176.417 39.3502C176.147 38.465 175.701 35.8213 175.701 35.1093C175.701 34.5781 175.663 34.5089 175.27 34.3372C174.534 34.0151 174.476 34.0747 174.837 34.7861ZM176.985 34.8113C177.187 35.1803 177.225 35.5447 177.215 36.98C177.206 38.1993 177.237 38.5884 177.322 38.307C177.388 38.088 177.453 37.3416 177.465 36.6482C177.485 35.5617 177.446 35.308 177.182 34.8108C177.015 34.4935 176.847 34.264 176.81 34.3008C176.773 34.3376 176.852 34.5673 176.985 34.8113ZM98.4598 35.2659C98.5454 35.606 98.5907 35.9092 98.5601 35.9396C98.5298 35.97 98.4349 35.7167 98.3492 35.3766C98.2636 35.0365 98.2183 34.7333 98.2488 34.7029C98.2792 34.6725 98.3741 34.9258 98.4598 35.2659ZM176.87 36.1506C176.897 36.6589 176.979 37.0463 177.058 37.0463C177.209 37.0463 177.128 35.5902 176.962 35.3214C176.824 35.0986 176.816 35.1702 176.87 36.1506ZM43.6205 35.9185C41.1134 36.2471 39.5573 36.8473 37.5635 38.2544C34.406 40.4828 31.06 45.558 31.06 48.1191C31.06 48.5679 31.0823 48.5911 31.5136 48.5911C31.7631 48.5911 32.0516 48.6235 32.1548 48.663C32.2929 48.7161 32.3873 48.5326 32.5131 47.9663C33.0266 45.6561 34.1678 43.5947 36.0559 41.5671C38.7173 38.709 41.0605 37.5187 44.7516 37.1496C47.195 36.9053 51.8117 37.2932 53.7381 37.9046C53.9618 37.9756 54.0017 37.9462 53.9456 37.7516C53.9051 37.6119 53.9419 37.636 54.0331 37.8093C54.1194 37.9735 54.2468 38.1079 54.3161 38.1079C54.6521 38.1079 56.7049 39.2014 57.4928 39.7998C58.036 40.2125 58.4057 40.4145 58.4443 40.3197C58.4791 40.2344 58.5124 40.2887 58.5181 40.4402C58.5238 40.5916 58.6839 40.8603 58.8736 41.0374C59.2959 41.4312 59.9939 42.4718 60.3977 43.3098C60.563 43.6529 60.7439 43.9054 60.7997 43.8709C60.8555 43.8364 60.897 43.914 60.8921 44.0433C60.8872 44.1726 61.0992 44.9115 61.3634 45.6853C61.9896 47.519 62.6423 51.395 62.6423 53.2801C62.6423 53.83 62.6676 53.8709 63.0569 53.9488C63.9674 54.1308 64.1019 54.0774 64.1019 53.5333C64.1019 51.8283 63.3125 47.1545 62.6956 45.2073C62.2378 43.7626 61.1908 41.6758 60.3916 40.6157C59.6634 39.6496 58.2357 38.3894 58.1525 38.639C58.1239 38.7248 58.0317 38.6554 57.9477 38.4846C57.8637 38.314 57.4076 37.9682 56.9342 37.7162C55.7929 37.1086 53.5681 36.3413 53.5032 36.5328C53.468 36.6366 53.4273 36.6352 53.3613 36.5284C53.2511 36.3499 51.8431 36.0426 50.3677 35.8747C48.6503 35.6795 45.277 35.7013 43.6205 35.9185ZM143.92 36.2724C141.415 36.7651 139.467 37.8583 137.339 39.9656C133.953 43.317 132.534 46.3007 132.231 50.7007L132.136 52.0771L129.071 52.026L126.006 51.9749L125.861 52.7077C125.781 53.1107 125.675 53.7527 125.624 54.1342L125.532 54.8279H129.572H133.612L133.669 51.61C133.735 47.9118 133.806 47.5361 134.827 45.457C135.642 43.7995 136.908 42.1473 138.631 40.4965C140.127 39.0621 140.994 38.5038 142.558 37.9657C144.178 37.4086 145.744 37.179 147.924 37.179C154.634 37.179 158.995 38.9288 161.376 42.5759C162.601 44.4525 163.291 46.6039 163.776 50.0622L164.073 52.1739H164.661H165.249L165.156 51.1455C165.031 49.7734 164.624 47.4434 164.283 46.1412C163.624 43.6311 162.752 41.9442 161.316 40.4027C159.425 38.3724 157.278 37.2471 153.806 36.4674C151.022 35.842 146.556 35.754 143.92 36.2724ZM35.252 36.7727C34.3752 37.3759 32.8551 38.8732 32.081 39.896C31.5892 40.5457 31.2558 40.8573 30.9619 40.9416C30.6527 41.0303 29.7703 40.9362 27.5837 40.5815C24.9079 40.1475 20.2622 39.4349 20.1079 39.4349C20.0739 39.4349 20.0461 39.5553 20.0461 39.7023C20.0461 39.8597 19.8688 40.0813 19.6148 40.2413C19.2293 40.4843 19.0098 40.5087 17.5468 40.4717L15.9101 40.4301L15.6891 41.0915C15.431 41.8638 15.0977 42.0841 14.1836 42.0869C13.5139 42.089 13.2778 42.2448 12.9324 42.9129C12.6739 43.4125 12.7693 43.5101 13.6812 43.6786C14.4603 43.8227 14.4844 43.8429 16.1036 45.7082C16.67 46.3606 17.0013 46.6269 17.3642 46.7212C17.769 46.8265 30.2281 48.4584 30.6268 48.4584C30.6939 48.4584 30.8229 48.0553 30.9135 47.5627C31.5013 44.3682 34.5271 40.0892 37.7378 37.9119C38.3811 37.4757 38.8287 37.0922 38.7325 37.0597C38.2561 36.8992 36.2717 36.4054 36.0601 36.3949C35.9273 36.3883 35.5637 36.5583 35.252 36.7727ZM87.7017 41.2927C87.6732 45.8651 87.6798 46.0045 87.9295 46.0376C88.9568 46.1735 126.164 47.7481 126.251 47.6593C126.343 47.5656 126.709 42.6254 126.813 40.0795L126.903 37.8712L125.26 37.7863C123.088 37.6739 100.87 36.9136 99.7589 36.9136C98.9309 36.9136 98.8965 36.9265 98.9586 37.2122C99.0189 37.4889 99.0104 37.4864 98.8432 37.179L98.6629 36.8473L94.8182 36.7105C92.7035 36.6351 90.2439 36.5754 89.3523 36.5778L87.7312 36.5819L87.7017 41.2927ZM44.5289 37.3765C41.4052 37.5895 38.8014 38.9138 36.3253 41.5488C33.2615 44.8092 32.4586 47.0783 32.1782 53.2687C32.1295 54.3452 32.0386 55.226 31.9762 55.226C31.9138 55.226 30.0341 54.9533 27.7991 54.6198C25.5641 54.2865 23.7052 54.0439 23.6685 54.0807C23.5735 54.1757 25.5328 55.1364 26.4819 55.4602C27.8953 55.9424 28.8358 56.0617 30.6302 55.9862C31.7209 55.9404 32.6759 55.8184 33.3219 55.6423C33.8726 55.4922 34.4547 55.4037 34.6157 55.4459C34.7767 55.4879 34.9071 55.5004 34.9056 55.4737C34.9043 55.4469 34.8167 54.9473 34.7112 54.3635C34.3357 52.285 34.5424 50.0088 35.3057 47.8205C36.298 44.9749 38.5388 42.318 41.2022 40.8285C45.4691 38.4423 51.014 38.6898 54.944 41.4418C55.4001 41.7612 55.8736 42.0822 55.9962 42.1552C56.4299 42.4134 57.9177 44.1599 58.5963 45.2073C59.3523 46.3741 59.9583 47.7592 60.338 49.1882C60.5332 49.923 60.5832 50.5747 60.5769 52.3066C60.5696 54.3202 60.5391 54.5921 60.1972 55.6904C59.9927 56.3473 59.7927 56.9991 59.7529 57.139C59.6818 57.3887 59.9056 57.3916 72.2748 57.3041C79.2017 57.255 85.3618 57.1765 85.964 57.1297C86.9835 57.0503 87.0588 57.0241 87.0588 56.7477V56.4508L82.8456 56.3506C79.5381 56.2719 66.389 56.3484 63.1731 56.465L62.5759 56.4866L62.4855 54.1644C62.3471 50.6069 61.8337 47.4732 61.0224 45.2328C60.8242 44.6854 60.7083 44.5123 60.6225 44.6356C60.5416 44.7517 60.5293 44.711 60.585 44.5126C60.799 43.7516 58.7404 40.9071 57.1589 39.7786C56.2759 39.1484 54.5857 38.2909 54.465 38.4118C54.4268 38.45 54.4894 38.6631 54.6042 38.8851C54.7191 39.1073 54.8103 39.3368 54.8068 39.3951C54.8035 39.4535 54.6542 39.2199 54.4752 38.8761C54.1866 38.3217 54.0709 38.2273 53.453 38.0425C51.822 37.5546 48.0835 37.1497 46.254 37.263C45.8891 37.2856 45.1128 37.3367 44.5289 37.3765ZM144.185 37.6897C141.642 38.2467 140.241 39.0724 138.148 41.2457C136.549 42.9056 135.558 44.2809 134.835 45.8407C133.935 47.7848 133.874 48.1889 133.803 52.6895L133.74 56.7216L124.167 56.6378C118.902 56.5916 109.19 56.5207 102.584 56.4803C91.7178 56.4137 90.5998 56.4261 90.8328 56.6124C91.0562 56.7909 91.8159 56.8185 96.5389 56.8198C99.7925 56.8206 103.27 56.9 105.172 57.0168C108.595 57.227 126.683 57.2987 133.449 57.129L136.912 57.0422L136.602 56.0653C136.139 54.6092 135.984 53.3478 136.059 51.6432C136.205 48.2815 137.478 45.3925 139.863 43.0077C142.239 40.6314 145.094 39.3764 148.498 39.2122C154.656 38.9153 160.122 42.9283 161.723 48.9228C162.033 50.0817 162.078 50.5019 162.077 52.2403C162.077 53.9558 162.031 54.3957 161.745 55.425C161.563 56.0819 161.368 56.7238 161.311 56.8516C161.232 57.0304 161.271 57.0838 161.481 57.0838C161.63 57.0838 161.789 57.1435 161.834 57.2165C161.88 57.2897 162.476 57.3492 163.165 57.3492H164.415L164.627 58.0791C164.828 58.77 164.858 58.8046 165.194 58.725C166.23 58.4798 167.164 57.8671 167.615 57.1359C167.869 56.7264 167.951 56.6857 168.523 56.6857C169.023 56.6857 169.217 56.6173 169.464 56.3545C169.635 56.1723 169.741 55.9888 169.699 55.9467C169.657 55.9046 168.437 56.0239 166.989 56.2118C165.541 56.3997 164.281 56.5534 164.19 56.5532C164.073 56.553 164.024 56.2849 164.023 55.6573C164.023 54.3623 163.776 51.2501 163.557 49.7803C162.795 44.661 161.204 41.6414 158.248 39.7077C156.551 38.5974 153.781 37.751 150.887 37.4578C148.961 37.2629 145.603 37.379 144.185 37.6897ZM15.1406 39.0036C15.143 39.0584 15.257 39.428 15.3941 39.8249L15.6433 40.5468L15.7944 39.9576C15.8775 39.6337 15.9692 39.2977 15.998 39.211C16.0497 39.0554 15.821 38.9495 15.3685 38.9195C15.2407 38.911 15.1382 38.9488 15.1406 39.0036ZM145.869 39.7738C143.547 40.3629 141.705 41.4233 139.973 43.1676C138.222 44.9305 137.146 46.8607 136.529 49.3465C136.097 51.0881 136.127 53.6185 136.602 55.4156C138 60.7055 142.549 64.5872 147.866 65.0278C152.738 65.4316 157.163 63.3056 159.842 59.2733C161.229 57.186 161.769 55.4277 161.865 52.6839C161.941 50.514 161.791 49.5435 161.077 47.5653C160.07 44.7739 157.598 42.0704 154.801 40.7C151.974 39.3148 148.925 38.9986 145.869 39.7738ZM44.3891 39.7652C39.9068 40.9021 36.491 44.2942 35.1425 48.9473C34.8794 49.8554 34.8429 50.2733 34.8495 52.3066C34.8566 54.4404 34.8863 54.7235 35.2151 55.7942C37.0682 61.827 42.5312 65.5408 48.8011 65.0303C56.8922 64.3716 62.4045 56.0201 59.8474 48.2942C59.1411 46.1602 58.2495 44.709 56.6809 43.1404C54.6252 41.0846 52.1209 39.8383 49.2457 39.4402C47.9697 39.2635 45.7924 39.4092 44.3891 39.7652ZM16.0546 39.7251C16.0025 39.9211 15.9935 40.1152 16.0346 40.1564C16.0757 40.1975 16.8344 40.2311 17.7207 40.2311C18.9021 40.2311 19.4005 40.1809 19.5892 40.0429C19.7308 39.9394 19.7991 39.8071 19.741 39.749C19.5899 39.598 17.5789 39.3232 16.8038 39.3478C16.2131 39.3666 16.1401 39.4033 16.0546 39.7251ZM171.434 39.9771C171.069 40.1723 170.708 41.0727 170.188 43.0841C169.323 46.427 168.893 49.7193 169.199 50.6471C169.415 51.3017 170.294 52.256 170.835 52.4228C171.435 52.6077 173.899 52.7189 174.838 52.6035L175.634 52.5057L175.93 51.7586C176.303 50.8194 177.342 47.268 177.266 47.1925C177.176 47.1025 173.619 47.1 172.384 47.189C170.892 47.2965 170.737 47.1928 171.268 46.4416L171.671 45.8708L174.295 45.9111L176.918 45.9513L176.828 45.6457C176.578 44.7976 175.869 43.6018 175.449 43.3199C174.884 42.9411 173.351 42.4774 172.367 42.3881C171.659 42.3239 171.595 42.344 171.12 42.7796C170.638 43.2211 170.602 43.3173 170.174 45.2845C169.629 47.7946 169.391 49.5628 169.512 50.2018C169.626 50.8013 170.105 51.5341 170.496 51.7078C170.788 51.8374 170.899 52.0412 170.677 52.0412C170.253 52.0412 169.487 51.0053 169.284 50.1573C169.095 49.3727 170.182 43.6364 170.634 43.026C171.319 42.1032 171.992 41.9888 173.809 42.4874C175.699 43.0058 176.225 43.4806 176.896 45.2748C177.333 46.4427 177.569 46.3637 177.991 44.9087C178.176 44.2702 178.368 43.6482 178.418 43.5268C178.59 43.1055 176.789 42.2604 174.059 41.4812C172.136 40.9324 172.062 40.9068 172.146 40.8225C172.238 40.7307 175.189 41.5924 176.456 42.0808C177.032 42.303 177.787 42.6646 178.133 42.8841C178.782 43.2951 179.081 43.3725 179.21 43.1624C179.328 42.972 179.143 42.6197 178.926 42.6197C178.456 42.6197 177.463 41.6925 177.007 40.8282C176.853 40.5363 176.664 40.2572 176.588 40.208C176.468 40.1312 175.835 40.0293 173.91 39.7765C173.289 39.6951 171.724 39.822 171.434 39.9771ZM131.7 40.7287C130.835 41.8809 129.564 43.6737 128.933 44.6328C128.549 45.2147 128.435 45.5234 128.428 45.994C128.42 46.5414 128.515 46.8707 128.64 46.7223C129.059 46.2214 133.537 40.1653 133.59 40.0265C133.649 39.8733 133.53 39.833 133.018 39.833C132.376 39.833 132.369 39.8376 131.7 40.7287ZM131.32 43.4627C130.176 44.9846 129.265 46.2545 129.295 46.2848C129.351 46.3407 133.529 40.817 133.619 40.5673C133.717 40.2978 133.386 40.7148 131.32 43.4627ZM178.227 41.9859C178.225 42.0388 178.41 42.1792 178.64 42.2979C179.038 42.5038 179.053 42.5025 178.958 42.2681C178.904 42.1331 178.797 41.8504 178.721 41.6401L178.582 41.2575L178.407 41.5737C178.311 41.7476 178.23 41.9331 178.227 41.9859ZM150.437 43.4072C153.964 43.9683 156.792 46.5477 157.729 50.0585C158.039 51.219 158.042 53.1669 157.735 54.3915C156.958 57.4937 154.424 60.0362 151.273 60.8746C150.003 61.2126 147.905 61.1795 146.64 60.8019C145.465 60.4506 145.14 60.2951 143.957 59.5144C141.752 58.0604 140.138 54.9853 140.138 52.2403C140.138 49.6837 141.57 46.7259 143.525 45.2436C144.455 44.5387 145.772 43.8723 146.716 43.6288C147.712 43.3719 149.533 43.2634 150.437 43.4072ZM48.911 43.406C51.8263 43.8706 54.2667 45.6462 55.5424 48.2308C56.7945 50.7677 56.844 53.4647 55.6838 55.9558C54.5826 58.3208 52.631 60.014 50.1023 60.7987C48.9005 61.1716 46.6668 61.2057 45.3915 60.8705C44.0869 60.5276 42.5345 59.6592 41.527 58.7088C36.9455 54.3868 38.0609 47.038 43.7327 44.1769C45.0184 43.5284 47.428 43.1696 48.911 43.406ZM146.581 43.8763C143.912 44.6951 141.857 46.6508 140.824 49.3552C140.518 50.1576 140.482 50.4413 140.477 52.1076C140.471 53.6708 140.517 54.1127 140.764 54.8943C141.585 57.4836 143.712 59.6236 146.379 60.5415C147.593 60.9595 149.757 61.0487 151.056 60.7342C152.631 60.3527 154.357 59.3657 155.411 58.2432C156.141 57.4649 156.975 56.0743 157.348 55.0114C157.675 54.0783 157.715 53.7791 157.718 52.2403C157.72 50.772 157.674 50.3769 157.407 49.5863C157.014 48.4231 156.605 47.6927 155.743 46.621C154.701 45.3231 153.119 44.3006 151.39 43.8063C150.078 43.4311 147.93 43.4623 146.581 43.8763ZM44.8645 43.9326C41.3724 45.1611 39.0984 48.1674 38.9187 51.7927C38.7912 54.3635 39.6264 56.5165 41.4652 58.3573C43.1996 60.0937 45.2046 60.932 47.6229 60.932C49.1025 60.932 50.1632 60.6867 51.4223 60.053C53.2998 59.1084 54.5308 57.8857 55.414 56.0885C56.0562 54.7821 56.2798 53.7882 56.2798 52.2403C56.2798 50.7569 56.0645 49.751 55.4772 48.4889C54.4505 46.2832 52.5697 44.6596 50.1198 43.8645C49.2944 43.5966 48.953 43.5621 47.4483 43.5939C46.0587 43.6233 45.5563 43.6891 44.8645 43.9326ZM12.7742 44.6105C12.7742 45.481 12.6902 45.3965 13.7721 45.6152C14.2332 45.7085 14.6645 46.2677 15.5508 47.9219C17.5747 51.6997 18.4916 52.9883 19.2797 53.1629C19.8803 53.296 31.348 54.9606 31.6644 54.9606C31.9855 54.9606 31.9889 54.9476 31.9889 53.7189C31.9889 53.0361 32.0549 51.6888 32.1356 50.7251C32.2162 49.7614 32.2554 48.9459 32.2225 48.9131C32.1896 48.8802 28.8543 48.4307 24.8109 47.9141C20.7674 47.3975 17.274 46.8975 17.048 46.803C16.8174 46.7066 16.1332 46.0463 15.4901 45.2994C14.3826 44.0131 14.3195 43.9634 13.6451 43.8481C13.2609 43.7824 12.9078 43.7477 12.8604 43.771C12.8131 43.7942 12.7742 44.172 12.7742 44.6105ZM151.474 45.0082C151.255 45.8202 150.107 48.028 149.763 48.2989C149.272 48.6849 148.754 48.6695 148.307 48.2554C148.01 47.98 146.924 45.8951 146.598 44.9751C146.469 44.6093 146.713 44.7044 146.888 45.0876C147.003 45.3402 147.106 45.4071 147.274 45.3383C147.685 45.1693 149.877 45.1128 150.489 45.2553C150.817 45.3318 151.103 45.3458 151.124 45.2864C151.145 45.2271 151.252 45.0656 151.363 44.9276C151.554 44.6894 151.559 44.6935 151.474 45.0082ZM50.0306 44.8397C50.0335 44.9294 49.7612 45.6302 49.4255 46.3969C48.7644 47.9064 48.1809 48.5911 47.5558 48.5911C47.0007 48.5911 46.3111 47.7405 45.6821 46.2803C45.1391 45.0194 44.9415 44.3169 45.3327 45.0377C45.5052 45.3554 45.5803 45.3872 45.9577 45.3031C46.1936 45.2504 46.9241 45.2073 47.581 45.2073C48.2379 45.2073 48.9684 45.2504 49.2043 45.3031C49.5817 45.3872 49.6568 45.3554 49.8293 45.0377C49.937 44.839 50.0277 44.7499 50.0306 44.8397ZM147.841 45.4173C147.453 45.5005 147.171 45.6336 147.171 45.7337C147.171 45.8287 147.417 46.3967 147.716 46.9958C148.14 47.8424 148.353 48.1237 148.672 48.2576C149.418 48.5716 149.816 48.2483 150.521 46.7557C150.807 46.1477 151.019 45.6267 150.99 45.5978C150.87 45.4777 149.843 45.2994 149.201 45.2869C148.822 45.2796 148.21 45.3383 147.841 45.4173ZM46.3268 45.4173C45.9583 45.4963 45.6569 45.6175 45.6569 45.6865C45.6569 45.9791 46.5954 47.7577 46.9016 48.0454C47.6278 48.7276 48.3148 48.3204 49.0496 46.7719C49.3001 46.2439 49.5051 45.7541 49.5051 45.6833C49.5051 45.3491 47.4476 45.177 46.3268 45.4173ZM12.615 46.5191C12.615 46.9858 12.6983 47.5271 12.8005 47.724C12.9249 47.9641 12.9636 48.329 12.9176 48.8343C12.8419 49.6706 13.015 50.2141 13.6943 51.2728C14.0456 51.82 14.9284 52.5598 15.0652 52.4213C15.0914 52.3948 15.0241 52.0248 14.9154 51.5991C14.6918 50.7228 14.7434 50.4489 15.1321 50.4489C15.2803 50.4489 15.4016 50.4092 15.4016 50.3608C15.4016 50.1687 13.9019 47.4444 13.642 47.1646C13.4896 47.0004 13.432 46.866 13.514 46.866C13.7828 46.866 14.302 47.6976 15.2841 49.701C16.3548 51.8853 17.0186 52.7219 17.8672 52.9562C18.5141 53.1348 18.5816 53.0549 18.1649 52.6039C17.6222 52.016 17.1056 51.1819 15.8202 48.8172C15.1537 47.5913 14.5034 46.4422 14.3748 46.2637C14.1306 45.9245 13.6003 45.7041 12.9799 45.6837C12.6187 45.6719 12.615 45.6802 12.615 46.5191ZM171.51 46.4051C171.313 46.6626 171.187 46.9071 171.228 46.9487C171.269 46.9902 171.741 47.0158 172.275 47.0056C172.809 46.9954 174.184 46.9767 175.329 46.9642C177.409 46.9412 177.412 46.9409 177.492 46.6226C177.536 46.4473 177.552 46.2837 177.527 46.2591C177.473 46.2045 173.986 45.9834 172.756 45.9565C171.885 45.9375 171.859 45.9469 171.51 46.4051ZM87.5896 46.4653C87.5896 46.6096 87.5239 47.6288 87.4435 48.7298C87.3632 49.8309 87.3278 50.7622 87.3649 50.7993C87.431 50.8654 125.708 51.7826 125.773 51.7196C125.856 51.6401 126.244 48.055 126.177 47.9886C126.136 47.9475 123.364 47.7978 120.016 47.6558C110.952 47.2717 92.8507 46.4669 90.5753 46.347C87.358 46.1776 87.5896 46.1684 87.5896 46.4653ZM154.332 46.4269C154.335 46.5138 154.277 46.6218 154.204 46.667C153.956 46.8206 154.071 47.1648 154.547 47.6923C154.989 48.1807 155.801 49.6805 155.966 50.3099C156.016 50.4993 156.151 50.585 156.414 50.593L156.792 50.6044L156.394 50.727C155.676 50.9481 153.2 51.0357 152.765 50.8553C152.298 50.6621 152.015 50.0747 152.138 49.5557C152.279 48.9625 154.321 46.0504 154.332 46.4269ZM144.383 46.9808C146.084 49.2406 146.332 49.9731 145.632 50.673C145.291 51.0143 145.272 51.017 143.808 50.9373C142.994 50.893 142.089 50.8117 141.797 50.7565L141.266 50.6563L141.708 50.5857C142.103 50.5228 142.177 50.4396 142.397 49.8135C142.652 49.0861 143.114 48.2999 143.77 47.4763C144.079 47.0884 144.121 46.9614 143.99 46.8038C143.901 46.697 143.849 46.5547 143.874 46.4877C143.899 46.4205 144.128 46.6425 144.383 46.9808ZM52.8226 46.3838C52.8226 46.4397 52.7599 46.6023 52.6835 46.7451C52.5681 46.961 52.6442 47.1335 53.1342 47.7649C53.7601 48.5717 54.1448 49.2722 54.4073 50.0839C54.5469 50.5154 54.6244 50.5834 54.9893 50.5951L55.4102 50.6088L54.9458 50.7263C54.6903 50.791 53.8128 50.8834 52.9956 50.9318C51.7217 51.007 51.4607 50.9872 51.165 50.7936C50.3158 50.2371 50.4795 49.408 51.791 47.6223C52.6903 46.3978 52.8226 46.239 52.8226 46.3838ZM43.244 47.4512C44.6441 49.3416 44.8442 50.1246 44.0828 50.7324C43.7575 50.992 43.6243 51.0062 42.2067 50.9324C41.3674 50.8886 40.5015 50.7971 40.2826 50.7286L39.8845 50.6044L40.2619 50.593C40.5249 50.585 40.6606 50.4993 40.7103 50.3099C40.8776 49.6701 41.6913 48.1767 42.1483 47.671C42.5984 47.1725 42.6292 47.0915 42.4865 46.7782C42.1946 46.1378 42.4185 46.3365 43.244 47.4512ZM153.142 48.1397C152.396 49.2343 152.213 49.7334 152.379 50.215C152.559 50.7381 153.227 50.9044 154.666 50.7846L155.819 50.6885L155.734 50.3365C155.565 49.6345 154.886 48.3471 154.403 47.8118C154.131 47.5105 153.87 47.2641 153.823 47.2641C153.776 47.2641 153.469 47.6581 153.142 48.1397ZM142.793 49.318C142.168 50.6277 142.191 50.6735 143.505 50.783C144.116 50.8338 144.803 50.8345 145.031 50.7843C145.474 50.6869 145.844 50.2773 145.844 49.8833C145.844 49.5582 145.384 48.667 144.806 47.874L144.332 47.2231L143.762 47.8521C143.449 48.198 143.013 48.8577 142.793 49.318ZM51.5288 48.3753C50.7753 49.4915 50.6407 50.1025 51.0643 50.4843C51.4282 50.8122 51.9437 50.8852 53.1722 50.7829L54.3103 50.6881L54.2277 50.2699C54.0427 49.3309 52.7013 47.2032 52.3581 47.3043C52.2851 47.3258 51.912 47.8078 51.5288 48.3753ZM41.3456 49.2878C40.6604 50.6576 40.667 50.6727 42.0037 50.7841C43.2188 50.8853 43.7347 50.8114 44.0977 50.4843C44.5775 50.052 44.3481 49.2567 43.3628 47.9362L42.8246 47.215L42.318 47.7857C42.0395 48.0997 41.6019 48.7755 41.3456 49.2878ZM149.99 49.4616C150.705 49.6872 151.389 50.3053 151.739 51.0422C152.11 51.825 151.992 53.1469 151.488 53.8479C150.871 54.7068 150.308 55.0097 149.228 55.0654C148.447 55.1058 148.204 55.0631 147.702 54.7973C146.571 54.1981 145.91 52.7432 146.23 51.5546C146.678 49.8926 148.37 48.9504 149.99 49.4616ZM48.2445 49.373C49.2956 49.6439 50.1349 50.4596 50.4522 51.5187C50.7947 52.6617 50.1039 54.2024 48.9867 54.7872C47.8924 55.3599 46.3307 55.1244 45.5177 54.2638C44.9228 53.6343 44.6972 52.9841 44.7505 52.0528C44.7917 51.3332 44.8757 51.0696 45.226 50.5615C45.8688 49.6292 47.202 49.1042 48.2445 49.373ZM149.643 49.8586C149.853 50.1796 149.851 50.2165 149.595 50.5619L149.326 50.9264L149.709 51.1466C151.036 51.9078 149.938 53.9325 148.589 53.2139C148.149 52.9794 147.976 52.6864 147.972 52.1659C147.967 51.655 148.295 51.1948 148.771 51.0438L149.052 50.9544L148.775 50.7604C148.464 50.5424 148.403 49.9398 148.664 49.6621C148.801 49.5168 148.76 49.5021 148.432 49.5784C147.261 49.8511 146.48 50.8135 146.404 52.0772C146.363 52.7573 146.411 53.0095 146.673 53.5009C147.329 54.7271 148.832 55.2881 150.028 54.7528C150.489 54.5463 150.517 54.5102 150.253 54.4637C149.82 54.3874 149.501 53.859 149.683 53.5188C149.869 53.1706 150.276 53.0507 150.629 53.2399C150.854 53.36 150.902 53.4859 150.86 53.8444C150.794 54.4081 150.874 54.4123 151.244 53.8649C151.668 53.2374 151.816 52.7664 151.81 52.0658C151.805 51.4522 151.802 51.4486 151.616 51.7924C151.512 51.9839 151.309 52.1714 151.165 52.209C150.805 52.3032 150.356 51.9574 150.356 51.5856C150.356 51.168 150.67 50.9372 151.144 51.0069L151.537 51.0645L151.311 50.6776C151.072 50.2664 150.584 49.8675 150.071 49.662C149.511 49.4376 149.4 49.4884 149.643 49.8586ZM48.0454 49.6448C48.0454 49.7136 48.1051 49.8066 48.1781 49.8517C48.395 49.9857 48.3295 50.4302 48.0522 50.7075C47.7977 50.962 47.7977 50.9673 48.0488 51.0471C48.4341 51.1694 48.8416 51.763 48.8416 52.2021C48.8416 52.7441 48.2025 53.3682 47.6473 53.3682C47.0921 53.3682 46.453 52.7441 46.453 52.2021C46.453 51.7547 46.8626 51.1688 47.2642 51.0412L47.5377 50.9544L47.2608 50.7604C46.9738 50.5594 46.8842 49.9953 47.1165 49.8517C47.3992 49.677 47.2419 49.493 46.8843 49.58C45.8181 49.8395 44.8575 51.1008 44.8636 52.2331C44.8669 52.8441 45.2162 53.6831 45.6602 54.1464C46.3817 54.8993 47.7335 55.1644 48.68 54.7387C49.1484 54.528 49.1566 54.5141 48.8416 54.4606C48.3837 54.383 48.1781 54.1863 48.1781 53.8259C48.1781 53.4827 48.4969 53.1028 48.7847 53.1028C49.149 53.1028 49.5348 53.6298 49.442 54C49.3676 54.2958 49.3836 54.3203 49.5565 54.1769C49.9579 53.8438 50.3016 52.905 50.293 52.1652C50.2865 51.6133 50.2571 51.5122 50.1677 51.7341C50.0128 52.1183 49.6398 52.3011 49.2846 52.1669C48.9218 52.0297 48.7819 51.6045 48.9787 51.237C49.0988 51.0124 49.2247 50.9644 49.5831 51.0062C49.8322 51.0353 50.0359 51.0319 50.0359 50.9988C50.0359 50.7614 49.2389 49.9774 48.7907 49.7738C48.167 49.4907 48.0454 49.4696 48.0454 49.6448ZM148.693 50.0656C148.514 50.6268 149.3 50.9341 149.511 50.3856C149.638 50.0545 149.457 49.7854 149.108 49.7854C148.892 49.7854 148.751 49.8803 148.693 50.0656ZM47.2563 49.9759C47.0884 50.1783 47.2714 50.7143 47.5084 50.7143C47.9512 50.7143 48.2457 50.1625 47.9569 49.8739C47.8045 49.7214 47.4212 49.7771 47.2563 49.9759ZM64.1347 51.7427C64.1951 52.3814 64.2758 53.1575 64.314 53.4678L64.3837 54.0317L67.4607 54.0358C69.1531 54.0381 74.1804 54.0946 78.6324 54.1615C83.0845 54.2285 86.7663 54.2415 86.8142 54.1907C86.8622 54.1397 86.9433 53.4065 86.9947 52.5612L87.0878 51.0242L78.4147 50.8239C73.6446 50.7137 68.4554 50.6141 66.8833 50.6025L64.0251 50.5816L64.1347 51.7427ZM15.2689 50.6545C15.2689 50.6946 15.3536 50.8912 15.4571 51.0913C15.5605 51.2914 15.7217 51.8257 15.8154 52.2789L15.9855 53.1028H16.6977H17.4098L16.7693 52.4725C16.417 52.1259 15.9803 51.5585 15.7987 51.2119C15.514 50.6685 15.2689 50.4106 15.2689 50.6545ZM15.292 52.1442C15.5623 52.9277 15.6047 52.9867 15.6401 52.628C15.6905 52.1173 15.1008 50.4935 15.0306 50.9499C15.0051 51.1161 15.1227 51.6535 15.292 52.1442ZM147.602 50.9903C147.869 51.1457 147.914 51.776 147.675 52.0147C147.426 52.2639 146.94 52.2018 146.724 51.8933C146.508 51.5852 146.566 51.2688 146.883 51.0128C147.129 50.8146 147.292 50.8095 147.602 50.9903ZM46.1877 51.1124C46.5072 51.4319 46.524 51.6859 46.2446 51.9655C45.9971 52.213 45.5086 52.238 45.2853 52.0147C45.062 51.7914 45.0871 51.3029 45.3345 51.0554C45.6141 50.776 45.8681 50.7928 46.1877 51.1124ZM150.612 51.3226C150.376 51.6065 150.613 51.9749 151.032 51.9749C151.357 51.9749 151.508 51.672 151.367 51.3037C151.269 51.0491 150.83 51.0601 150.612 51.3226ZM146.814 51.3295C146.704 51.6156 146.94 51.9749 147.238 51.9749C147.368 51.9749 147.535 51.8786 147.609 51.7607C147.812 51.4393 147.624 51.1124 147.238 51.1124C147.045 51.1124 146.861 51.2066 146.814 51.3295ZM87.2703 51.5436C87.2339 51.7809 87.1684 52.4975 87.1246 53.136L87.045 54.2971L88.6111 54.2987C89.4724 54.2996 96.5666 54.3867 104.376 54.4921C112.185 54.5974 120.097 54.6959 121.958 54.7107L125.342 54.7379L125.552 53.3766C125.697 52.4291 125.718 52.0002 125.618 51.9656C125.43 51.8999 93.6312 51.1519 90.0836 51.1296L87.3362 51.1124L87.2703 51.5436ZM49.1734 51.5768C49.1734 51.8794 49.2399 51.9844 49.4505 52.0144C49.854 52.0722 50.0943 51.7347 49.9035 51.3782C49.6674 50.9372 49.1734 51.0716 49.1734 51.5768ZM45.3205 51.3926C45.202 51.7658 45.5342 52.098 45.9074 51.9795C46.1789 51.8934 46.3 51.4016 46.0992 51.2009C45.8984 51 45.4066 51.1211 45.3205 51.3926ZM148.659 51.727C148.607 51.6949 148.556 51.8048 148.546 51.9713C148.532 52.2094 148.583 52.2595 148.787 52.2065C148.97 52.1583 149.066 52.2203 149.119 52.4218C149.179 52.6514 149.56 52.8479 149.56 52.6493C149.56 52.6187 149.596 52.4993 149.64 52.3839C149.699 52.231 149.64 52.1739 149.424 52.1739C149.16 52.1739 149.135 52.1235 149.201 51.7195C149.274 51.268 149.273 51.2667 149.014 51.5253C148.871 51.6684 148.711 51.7593 148.659 51.727ZM47.4281 51.578C47.318 51.6881 47.1785 51.7479 47.1183 51.7106C47.0579 51.6733 47.0399 51.7623 47.0781 51.9084C47.1165 52.0555 47.2591 52.1739 47.3975 52.1739C47.5619 52.1739 47.6473 52.268 47.6473 52.449C47.6473 52.7891 48.0866 52.7505 48.1532 52.4047C48.1844 52.2423 48.1116 52.1739 47.9074 52.1739C47.6605 52.1739 47.626 52.1146 47.6756 51.7759C47.7421 51.3232 47.7092 51.2969 47.4281 51.578ZM176.255 53.0365C176.032 53.4478 175.926 53.7663 176.013 53.7662C176.277 53.7661 177.75 53.0225 177.939 52.7936C178.092 52.6092 178.092 52.5662 177.939 52.5178C177.839 52.4862 177.669 52.4305 177.559 52.394C176.901 52.1746 176.656 52.2952 176.255 53.0365ZM148.444 53.4346C148.645 53.7419 148.645 53.7907 148.444 54.0981C148.082 54.6508 147.304 54.4394 147.304 53.7882C147.304 53.0687 148.052 52.8366 148.444 53.4346ZM46.8969 53.3455C47.1824 53.661 47.1749 53.9376 46.8738 54.2102C46.5692 54.4859 46.2666 54.4898 45.998 54.2213C45.5999 53.8231 45.8858 53.1028 46.4419 53.1028C46.5714 53.1028 46.7762 53.212 46.8969 53.3455ZM147.437 53.7663C147.437 54.1001 147.834 54.316 148.137 54.1466C148.652 53.858 148.194 53.1051 147.672 53.3842C147.543 53.4536 147.437 53.6255 147.437 53.7663ZM46.1307 53.444C45.7766 53.7983 45.9757 54.2126 46.4667 54.1428C46.8239 54.0921 46.9532 53.7175 46.7131 53.4282C46.509 53.1822 46.3894 53.1855 46.1307 53.444ZM149.866 53.5853C149.756 53.8714 149.992 54.2308 150.29 54.2308C150.42 54.2308 150.587 54.1344 150.661 54.0166C150.864 53.6952 150.677 53.3682 150.29 53.3682C150.097 53.3682 149.913 53.4624 149.866 53.5853ZM48.3725 53.6485C48.1943 54.2097 48.98 54.517 49.1906 53.9684C49.3176 53.6373 49.1373 53.3682 48.7884 53.3682C48.5723 53.3682 48.4313 53.4631 48.3725 53.6485ZM155.779 53.6441C156.675 53.7604 157.015 53.899 156.403 53.899C156.146 53.899 156.016 53.9797 155.966 54.1707C155.797 54.8158 154.993 56.2691 154.494 56.8314C153.98 57.4101 153.962 57.4565 154.158 57.7356C154.271 57.8975 154.336 58.0581 154.301 58.0927C154.204 58.1897 152.508 55.8579 152.282 55.3168C151.992 54.6239 152.031 54.3264 152.469 53.8888C152.835 53.5223 152.914 53.5019 153.895 53.5178C154.467 53.5271 155.314 53.5839 155.779 53.6441ZM145.38 53.6437C146.111 54.0723 146.181 54.853 145.574 55.8096C144.963 56.773 143.854 58.2052 143.854 58.0307C143.854 57.9458 143.925 57.7627 144.012 57.6236C144.147 57.4076 144.103 57.2968 143.711 56.8623C143.093 56.1781 142.692 55.5067 142.396 54.6655C142.177 54.041 142.103 53.9578 141.708 53.8952L141.266 53.825L141.731 53.7243C142.612 53.5333 145.098 53.4784 145.38 53.6437ZM53.6188 53.5744C53.7282 53.5981 54.1761 53.6619 54.614 53.7163C55.3164 53.8036 55.358 53.824 54.968 53.8903C54.575 53.957 54.4984 54.0433 54.28 54.6655C53.9854 55.5044 53.5831 56.178 52.9715 56.8558C52.5625 57.3091 52.5337 57.3912 52.6756 57.7024C52.9761 58.3622 52.731 58.1352 51.861 56.948C50.7612 55.4473 50.4665 54.7414 50.7193 54.2141C50.8179 54.0085 51.0477 53.7649 51.2302 53.6726C51.5243 53.5239 53.0852 53.4598 53.6188 53.5744ZM44.0874 53.7519C44.8672 54.3741 44.6858 55.0681 43.2268 57.0477C42.4197 58.1425 42.1952 58.3418 42.4846 57.7064C42.6246 57.3993 42.5915 57.3096 42.1493 56.7936C41.7217 56.2948 40.9182 54.8218 40.697 54.1312C40.6511 53.9879 40.4814 53.8946 40.2535 53.8876L39.8845 53.8762L40.2826 53.7546C40.5015 53.6879 41.3674 53.5962 42.2067 53.551C43.632 53.4741 43.7561 53.4874 44.0874 53.7519ZM152.576 54.0086C152.129 54.4552 152.247 55.0121 153.032 56.176C153.419 56.7482 153.776 57.2165 153.827 57.2165C154.2 57.2165 155.619 54.9009 155.696 54.1644C155.727 53.8653 155.671 53.8241 155.133 53.7454C154.051 53.5872 152.877 53.7079 152.576 54.0086ZM143.277 53.7213L142.369 53.8071L142.45 54.2179C142.577 54.8625 143.17 55.9402 143.776 56.6292L144.331 57.2591L144.806 56.6075C146.018 54.9475 146.139 54.2056 145.26 53.8231C144.786 53.6168 144.526 53.6034 143.277 53.7213ZM51.0695 54.0334C50.6216 54.5864 50.8025 55.2085 51.7992 56.5442L52.3373 57.2653L52.8784 56.6676C53.4483 56.0382 54.1013 54.8372 54.2337 54.175C54.3111 53.7882 54.3023 53.7812 53.6669 53.7241C53.312 53.6923 52.6357 53.6829 52.1643 53.7032C51.4667 53.7334 51.2626 53.7948 51.0695 54.0334ZM41.7754 53.7201C41.0766 53.7861 40.8797 53.8515 40.8799 54.0178C40.88 54.3952 41.6206 55.8023 42.2095 56.544L42.7818 57.2647L43.1686 56.8094C44.1972 55.5989 44.5836 54.4305 44.0977 53.9996C43.6993 53.6464 43.1968 53.5859 41.7754 53.7201ZM62.775 55.246V56.3277L65.4571 56.2333C66.9321 56.1814 70.9778 56.1419 74.4474 56.1453C81.7961 56.1529 121.45 56.3903 128.693 56.4703L133.636 56.5248V55.8091C133.636 55.4154 133.591 55.0888 133.536 55.0834C133.265 55.0566 69.017 54.1976 66.1256 54.1822L62.775 54.1644V55.246ZM149.763 56.1817C150.107 56.4525 151.255 58.6604 151.474 59.4724C151.559 59.7871 151.554 59.7912 151.363 59.553C151.252 59.415 151.144 59.2484 151.122 59.1828C151.099 59.1151 150.769 59.1308 150.357 59.2192C149.654 59.3699 147.753 59.3203 147.28 59.1389C147.123 59.0785 146.998 59.1637 146.854 59.4287C146.706 59.7021 146.65 59.7392 146.646 59.5655C146.64 59.3086 147.835 56.7563 148.124 56.4087C148.595 55.8422 149.221 55.7555 149.763 56.1817ZM48.4388 56.3993C48.7296 56.7051 49.1464 57.426 49.4799 58.2003C50.0215 59.4579 50.2206 60.164 49.8317 59.4475C49.6575 59.1267 49.588 59.1 49.1403 59.1821C48.4679 59.3053 46.6338 59.2976 46.0285 59.169C45.5792 59.0736 45.5206 59.0961 45.3372 59.4344C44.9419 60.1633 45.1364 59.4673 45.6821 58.2003C46.3237 56.7106 46.9984 55.8895 47.581 55.8895C47.8408 55.8895 48.1009 56.0441 48.4388 56.3993ZM148.333 56.5198C147.99 56.8792 147.171 58.4621 147.171 58.7652C147.171 58.9236 147.43 58.9953 148.513 59.1376C149.035 59.2059 150.854 59.0185 150.99 58.8822C151.073 58.799 150.221 57.0393 149.882 56.5953C149.442 56.0182 148.839 55.9889 148.333 56.5198ZM46.8298 56.528C46.476 56.9533 45.5754 58.7716 45.6711 58.8674C45.706 58.9021 46.1498 58.9949 46.6577 59.0733C47.5129 59.2056 49.2681 59.0902 49.47 58.8882C49.5912 58.7669 48.8278 57.1276 48.4193 56.6319C47.9069 56.0102 47.2937 55.9702 46.8298 56.528ZM151.064 72.2999C151.192 72.4278 151.172 72.8467 151.035 72.9318C150.933 72.9948 150.609 72.9197 149.825 72.6505C149.708 72.6102 149.871 72.5069 150.223 72.3988C150.916 72.1859 150.946 72.1825 151.064 72.2999ZM148.034 72.409C148.554 72.5753 148.558 72.5812 148.233 72.7073C147.288 73.0739 146.908 72.9722 147.123 72.4104C147.212 72.1793 147.315 72.1792 148.034 72.409Z" fill="black"/>
</g>
<defs>
<clipPath id="clip0">
<rect width="167.2" height="60.1124" fill="white" transform="matrix(-1 0 0 1 179.6 5.2002)"/>
</clipPath>
</defs>
</svg>
