<svg width="50" height="50" viewBox="0 0 50 50" fill="none" xmlns="http://www.w3.org/2000/svg">
<path d="M17.9375 14.5782H25.8116" stroke="#2554FF" stroke-width="2.5" stroke-linecap="round" stroke-linejoin="round"/>
<path d="M18.7487 25H12.4961V39.5894" stroke="#2554FF" stroke-width="2.5" stroke-linecap="round" stroke-linejoin="round"/>
<path d="M12.495 39.5892H4.1582V15.7501C4.1582 14.3202 4.93373 13.0028 6.18405 12.3091L19.9627 4.65379C21.1519 3.99301 22.598 3.99301 23.7872 4.65379L37.5659 12.3091C38.8151 13.0037 39.5896 14.3208 39.5896 15.7501V18.7472" stroke="#2554FF" stroke-width="2.5" stroke-linecap="round" stroke-linejoin="round"/>
<path d="M45.8425 37.0883C45.8425 34.7862 43.9762 32.9199 41.674 32.9199H25.0004C22.6983 32.9199 20.832 34.7862 20.832 37.0883" stroke="#2554FF" stroke-width="2.5" stroke-linecap="round" stroke-linejoin="round"/>
<path d="M20.832 37.0879V43.7573C20.832 44.9084 21.7652 45.8415 22.9162 45.8415H24.9796C26.1307 45.8415 27.0638 44.9084 27.0638 43.7573V42.3797H39.6107V43.7573C39.6107 44.9084 40.5438 45.8415 41.6949 45.8415H43.7582C44.9093 45.8415 45.8425 44.9084 45.8425 43.7573V37.0879" stroke="#2554FF" stroke-width="2.5" stroke-linecap="round" stroke-linejoin="round"/>
<path d="M28.6217 37.713H25.5059" stroke="#2554FF" stroke-width="2.5" stroke-linecap="round" stroke-linejoin="round"/>
<path d="M41.1706 37.713H38.0547" stroke="#2554FF" stroke-width="2.5" stroke-linecap="round" stroke-linejoin="round"/>
<path d="M42.7266 32.7883L45.8424 31.2314" stroke="#2554FF" stroke-width="2.5" stroke-linecap="round" stroke-linejoin="round"/>
<path d="M23.9583 32.7883L20.832 31.2314" stroke="#2554FF" stroke-width="2.5" stroke-linecap="round" stroke-linejoin="round"/>
<path d="M28.2681 25C26.8214 25.0037 25.5662 25.9994 25.2335 27.4073L23.9121 33.0554L25.2335 27.4073C25.5662 25.9994 26.8214 25.0037 28.2681 25H38.4056C39.8523 25.0037 41.1075 25.9994 41.4402 27.4073L42.7616 33.0554" stroke="#2554FF" stroke-width="2.5" stroke-linecap="round" stroke-linejoin="round"/>
</svg>
