<svg width="74" height="74" viewBox="0 0 74 74" fill="none" xmlns="http://www.w3.org/2000/svg">
<path d="M22.3674 63.9802H21.4867L19.6685 65.1876V66.0825L21.4441 64.9035H21.4867V71.2529H22.3674V63.9802ZM26.6742 71.3524C28.1266 71.3524 29.1387 70.5036 29.1458 69.3211C29.1387 68.4014 28.5244 67.6201 27.7396 67.4745V67.4319C28.4214 67.2544 28.8688 66.5867 28.8759 65.8126C28.8688 64.7046 27.9384 63.8808 26.6742 63.8808C25.3958 63.8808 24.4654 64.7046 24.4725 65.8126C24.4654 66.5867 24.9129 67.2544 25.6089 67.4319V67.4745C24.8099 67.6201 24.1955 68.4014 24.2026 69.3211C24.1955 70.5036 25.2076 71.3524 26.6742 71.3524ZM26.6742 70.5711C25.6764 70.5711 25.062 70.0597 25.0691 69.2785C25.062 68.4582 25.7403 67.8722 26.6742 67.8722C27.594 67.8722 28.2722 68.4582 28.2793 69.2785C28.2722 70.0597 27.6579 70.5711 26.6742 70.5711ZM26.6742 67.1194C25.8788 67.1194 25.3177 66.6222 25.3248 65.8694C25.3177 65.1308 25.8575 64.6478 26.6742 64.6478C27.4768 64.6478 28.0166 65.1308 28.0237 65.8694C28.0166 66.6222 27.4555 67.1194 26.6742 67.1194ZM32.7079 63.8808C31.2306 63.863 30.2789 64.9745 30.2789 66.3097C30.2789 67.716 31.3158 68.7245 32.5658 68.7245C33.3187 68.7245 33.9579 68.3552 34.3556 67.7586H34.4124C34.4124 69.5484 33.7164 70.5711 32.5942 70.5711C31.8272 70.5711 31.3584 70.0882 31.2022 69.4205H30.3357C30.5062 70.5711 31.3726 71.3524 32.5942 71.3524C34.2277 71.3524 35.2363 69.9035 35.2363 67.3183C35.2363 64.6478 33.901 63.895 32.7079 63.8808ZM32.7079 64.662C33.6169 64.662 34.2846 65.4433 34.2846 66.2955C34.2846 67.162 33.5743 67.9433 32.6794 67.9433C31.7846 67.9433 31.1312 67.2188 31.1312 66.3097C31.1312 65.4007 31.813 64.662 32.7079 64.662ZM39.0753 63.9802H38.1946L36.3764 65.1876V66.0825L38.152 64.9035H38.1946V71.2529H39.0753V63.9802ZM46.748 70.1166L44.873 65.7984H43.765V71.2529H44.6031V67.0022L46.4071 71.2529H47.0889L48.8929 67.0803V71.2529H49.731V65.7984H48.6514L46.748 70.1166ZM54.1337 70.1166L52.2587 65.7984H51.1508V71.2529H51.9888V67.0022L53.7928 71.2529H54.4746L56.2786 67.0803V71.2529H57.1167V65.7984H56.0371L54.1337 70.1166Z" fill="#0D0A19" fill-opacity="0.75"/>
<path d="M73.1212 68.1212C73.1882 68.0543 73.1882 67.9457 73.1212 67.8788L72.0303 66.7878C71.9633 66.7209 71.8548 66.7209 71.7878 66.7878C71.7209 66.8548 71.7209 66.9633 71.7878 67.0303L72.7576 68L71.7878 68.9697C71.7209 69.0367 71.7209 69.1452 71.7878 69.2122C71.8548 69.2791 71.9633 69.2791 72.0303 69.2122L73.1212 68.1212ZM59 68.1714L73 68.1714L73 67.8286L59 67.8286L59 68.1714Z" fill="#0D0A19" fill-opacity="0.75"/>
<path d="M0.87793 67.9823C0.810986 68.0492 0.810986 68.1578 0.87793 68.2247L1.96887 69.3157C2.03581 69.3826 2.14435 69.3826 2.2113 69.3157C2.27825 69.2487 2.27825 69.1402 2.2113 69.0732L1.24158 68.1035L2.2113 67.1338C2.27825 67.0668 2.27825 66.9583 2.2113 66.8914C2.14435 66.8244 2.03581 66.8244 1.96887 66.8914L0.87793 67.9823ZM18.7305 67.9321H0.999146V68.2749H18.7305V67.9321Z" fill="#0D0A19" fill-opacity="0.75"/>
<g clip-path="url(#clip0)">
<path fill-rule="evenodd" clip-rule="evenodd" d="M36.8091 7.35778C36.7726 7.41684 34.9834 7.50091 32.8329 7.54472C28.4997 7.63311 26.3652 7.75655 22.1287 8.16383C20.5571 8.31483 19.1284 8.4271 18.9538 8.41313C17.8653 8.32639 17.3526 8.40894 16.86 8.75056C16.0759 9.29423 15.4827 10.1776 14.3278 12.5208C12.4119 16.4083 10.999 19.9766 10.0029 23.4426C9.74196 24.3506 9.43806 25.165 9.32745 25.2523C9.07129 25.4547 8.00401 25.4592 7.80348 25.2586C7.70138 25.1565 7.65109 24.5876 7.65109 23.5344C7.65109 21.9665 7.6502 21.9617 7.27988 21.5913C6.80923 21.1207 6.34721 21.1108 4.7553 21.5372C2.43418 22.1591 1.97026 22.5324 1.22492 24.3779C0.835036 25.3431 0.905519 25.9298 1.47967 26.4994C1.84187 26.8587 2.01204 26.911 3.65068 27.1673C5.03597 27.3839 5.69254 27.4266 6.62356 27.3602C7.89137 27.2699 7.91295 27.2831 7.42567 27.8512C7.28191 28.0188 7.11592 28.0519 6.70369 27.9954C6.22478 27.9299 6.13855 27.96 5.88596 28.281C5.61545 28.6248 5.60491 28.7575 5.80887 29.2527C5.87758 29.4197 5.83871 29.4749 5.65241 29.4749C5.31917 29.4749 4.98415 29.8668 4.98415 30.2565C4.98415 30.431 5.12245 30.7036 5.29148 30.8624C5.58777 31.1408 5.59221 31.1702 5.41429 31.6745C4.80001 33.4156 4.73092 35.6201 5.11115 41.3491C5.32463 44.5658 5.36438 46.5531 5.36667 54.1123L5.36933 63.0656L5.65292 63.5617C6.13335 64.4018 6.46227 64.5596 8.02992 64.7027L9.42511 64.8301L9.46092 68.2658L9.49686 71.7014L9.52645 68.2594L9.55604 64.8175L10.8923 64.7311C12.3524 64.6367 12.7683 64.5248 13.2193 64.1048C13.8807 63.489 13.939 63.2247 13.9174 60.9384C13.9002 59.1197 13.925 58.8112 14.0886 58.8112C14.1937 58.8112 14.7258 58.4969 15.2709 58.1127L16.2621 57.4143H37.0793H57.8965L58.9001 58.1127C59.452 58.4969 59.9765 58.8112 60.0656 58.8112C60.1906 58.8112 60.2278 59.288 60.2278 60.8867C60.2278 62.8063 60.2498 63.0041 60.5202 63.5219C60.8886 64.2269 61.7911 64.7545 62.6547 64.7698C62.9768 64.7754 63.5045 64.8163 63.8274 64.8606L64.4146 64.941L64.4506 68.3213L64.4865 71.7014L64.5161 68.3219L64.5457 64.9425L65.2124 64.8624C65.5792 64.8183 66.1286 64.7817 66.4335 64.7812C67.3052 64.7794 68.1531 64.2513 68.5443 63.4659L68.8636 62.8252V53.5895C68.8636 45.5906 68.8992 43.8124 69.1293 40.3115C69.4342 35.674 69.3925 34.1361 68.9122 32.2877C68.6457 31.2615 68.6236 31.0485 68.7724 30.9388C68.8696 30.8671 69.0197 30.6759 69.1059 30.5141C69.236 30.2699 69.2264 30.1647 69.0502 29.8957C68.9333 29.7172 68.7311 29.5435 68.601 29.5095C68.4007 29.457 68.3757 29.3638 68.4389 28.9028C68.5057 28.415 68.4788 28.3354 68.1811 28.1403C67.9421 27.9837 67.722 27.9463 67.3978 28.0071C67.0225 28.0775 66.9061 28.0427 66.703 27.7991C66.5689 27.6382 66.4573 27.4554 66.4548 27.3931C66.4524 27.3286 66.9837 27.3157 67.6889 27.3635C68.7027 27.4321 69.2446 27.3912 70.679 27.1384C71.6425 26.9686 72.5178 26.7575 72.6241 26.6693C72.9457 26.4025 73.1815 25.8323 73.1814 25.3221C73.1812 24.8002 72.6012 23.4518 72.086 22.7757C71.6754 22.237 71.3247 22.0662 69.6793 21.6042C67.889 21.1015 67.3743 21.101 66.8945 21.6018C66.5385 21.9734 66.527 22.0283 66.458 23.6655L66.3872 25.3475L65.9512 25.3891C65.7114 25.4119 65.3331 25.3964 65.1106 25.3546C64.7205 25.2815 64.6933 25.2341 64.3558 24.0431C63.3076 20.3427 61.8051 16.5078 59.8311 12.4937C58.6736 10.1403 57.8622 8.99617 57.0661 8.59524C56.6066 8.36398 55.6572 8.23432 55.4827 8.37909C55.391 8.45516 54.8021 8.43726 53.8777 8.3302C50.1142 7.89447 43.5101 7.5051 39.8766 7.50472C38.2892 7.50459 37.3684 7.45786 37.3684 7.37747C37.3684 7.22342 36.9022 7.20704 36.8091 7.35778ZM38.886 7.63172C42.1398 7.63235 48.1167 7.95226 52.1635 8.34226C53.2811 8.45008 54.5384 8.55917 54.9574 8.58495L55.7194 8.63156L56.7016 10.6311C57.2419 11.7309 57.6648 12.6497 57.6415 12.673C57.6183 12.6962 56.462 12.6009 55.0719 12.461C50.739 12.025 48.3638 11.9328 39.5964 11.8607C29.2251 11.7752 22.172 12.0131 17.7075 12.5988C17.1267 12.675 16.6191 12.7049 16.5794 12.6651C16.5396 12.6255 16.9466 11.6909 17.4837 10.5885L18.4602 8.58394L19.1197 8.57594C19.4825 8.57149 21.0937 8.44361 22.7002 8.29172C26.3787 7.94375 29.1556 7.78614 33.5332 7.67705C35.7848 7.62079 36.9874 7.54485 36.9874 7.45875C36.9874 7.37861 37.0473 7.38661 37.1398 7.47907C37.2421 7.58143 37.816 7.63159 38.886 7.63172ZM18.1918 8.57975C18.1918 8.61239 17.7407 9.59814 17.1894 10.7704C15.9402 13.4271 15.0024 15.6508 14.0949 18.1087C12.9806 21.1263 12.3581 23.1134 11.9163 25.0618C11.8033 25.5604 11.334 25.5525 11.334 25.052C11.334 23.6044 14.5065 14.8088 16.5526 10.5841C17.4516 8.72795 17.5843 8.52044 17.8719 8.52044C18.0479 8.52044 18.1918 8.54711 18.1918 8.57975ZM56.8883 9.09193C58.7106 12.3263 62.6381 22.8011 62.7928 24.8395C62.8254 25.271 62.794 25.3475 62.5848 25.3475C62.3786 25.3475 62.2899 25.1497 62.0439 24.1411C61.2397 20.8445 59.054 15.1126 56.75 10.2585L55.9173 8.50431L56.2597 8.54406C56.5063 8.57276 56.6821 8.72592 56.8883 9.09193ZM16.2386 10.8176C15.2571 12.8649 13.9801 15.9862 13.022 18.6802C12.1737 21.0656 11.207 24.3481 11.207 24.8432C11.207 25.1908 11.0758 25.4263 10.572 25.9825C9.99075 26.6244 9.93703 26.7366 9.93703 27.3095C9.93703 27.6538 10.0842 28.7818 10.2642 29.8164C10.4441 30.8509 10.6212 31.8712 10.6576 32.0838L10.7237 32.4703L9.63656 32.6049C8.37942 32.7607 7.86304 33.0687 7.25676 34.0248C6.84974 34.6666 6.76465 35.5568 7.03579 36.3348C7.16951 36.7183 7.15542 36.7759 6.87704 36.9832C6.00597 37.6322 5.82881 37.8061 5.68175 38.1557L5.52173 38.5363L5.29326 38.1013C4.7755 37.1152 4.95634 33.7904 5.64504 31.6339C6.12052 30.145 6.5024 29.3761 7.24863 28.4051L7.82685 27.6529L7.94001 27.9924C8.07246 28.3897 8.17495 28.4136 8.44215 28.1097C8.84333 27.6533 9.18572 26.7675 9.99469 24.0923C11.447 19.289 12.4762 16.6825 14.5974 12.4351C15.7002 10.227 16.0024 9.72704 16.4983 9.29042C16.8227 9.00493 17.108 8.79133 17.1325 8.81584C17.1569 8.84022 16.7547 9.74101 16.2386 10.8176ZM57.5877 9.192C58.1703 9.69643 59.0031 11.1363 60.2869 13.8591C62.0464 17.5908 62.8649 19.7393 64.1076 23.8871C64.9512 26.7032 65.5955 28.2348 65.9665 28.3063C66.1253 28.3368 66.1897 28.2404 66.2198 27.9268L66.2602 27.5065L66.877 28.332C68.4336 30.4152 69.122 32.7565 69.1123 35.934C69.1078 37.3689 69.0667 37.7421 68.872 38.1077L68.6369 38.549L68.4385 38.0743C68.303 37.7498 68.0422 37.4764 67.6147 37.2106L66.9893 36.8218L67.1644 36.2396C67.5074 35.0999 67.3019 34.3122 66.4301 33.4248C65.8793 32.8642 65.3991 32.672 64.2934 32.5692C63.649 32.5093 63.4074 32.4398 63.4507 32.3269C63.6553 31.7939 64.3213 27.1972 64.2407 26.8757C64.1891 26.6707 63.8938 26.2497 63.5843 25.9402C63.1625 25.5183 63.0217 25.2798 63.0217 24.9865C63.0217 24.7713 62.7368 23.6453 62.3885 22.484C61.2205 18.5889 59.5286 14.1657 57.9337 10.8381C57.3898 9.70316 56.9833 8.77659 57.0305 8.77926C57.0778 8.7818 57.3285 8.9676 57.5877 9.192ZM45.8137 12.0783C51.2738 12.2685 56.8635 12.6825 57.5877 12.9503C58.2759 13.205 62.4929 24.9662 62.0535 25.4057C61.8315 25.6276 14.3037 25.6904 12.7494 25.4708L12.0693 25.3747L12.1459 24.8961C12.3874 23.3854 14.0665 18.4629 15.5953 14.7838C16.4574 12.7088 16.0891 12.9514 18.8268 12.6555C20.9873 12.4219 24.3278 12.2108 27.8436 12.0859C31.9931 11.9383 41.6813 11.9342 45.8137 12.0783ZM24.6687 12.9683C22.1891 13.0921 19.8136 13.2248 19.3899 13.2629C18.1592 13.3739 17.207 13.7901 16.4747 14.5372C15.8666 15.1576 15.8004 15.297 15.0499 17.5372C14.6171 18.8294 14.0898 20.5618 13.8781 21.3868C13.5382 22.7122 13.51 22.9534 13.637 23.4576C13.716 23.7715 13.9371 24.1846 14.1282 24.3758C14.8823 25.13 13.5785 25.0859 36.5429 25.1318C58.7743 25.176 58.8964 25.1732 59.7493 24.6036C60.8163 23.891 60.8249 23.0249 59.7989 19.6327C58.8705 16.5628 58.3386 15.1908 57.86 14.6303C57.3904 14.0805 56.3822 13.559 55.4019 13.359C54.7539 13.2267 49.836 12.9578 44.4055 12.7578L42.1084 12.6732L41.8973 12.9745C41.7813 13.1402 41.6863 13.3997 41.6863 13.551C41.6863 13.7023 41.577 13.9611 41.4436 14.126C41.2254 14.3956 41.0811 14.4301 40.0112 14.4688L38.8212 14.5119L38.5075 15.1673L38.1938 15.8228L37.3075 15.861C36.0432 15.9155 35.9212 15.8625 35.6152 15.1263L35.3505 14.4893H34.3358C32.9253 14.4893 32.7256 14.3914 32.4852 13.5814C32.3765 13.2156 32.2164 12.8711 32.1294 12.8157C31.8994 12.6697 29.7751 12.7131 24.6687 12.9683ZM32.089 13.0378C32.1987 13.1477 32.2885 13.3505 32.2885 13.4887C32.2885 13.8406 32.6201 14.4432 32.8657 14.5374C32.9787 14.5807 33.3158 14.6163 33.6146 14.6163C33.9134 14.6163 34.414 14.6513 34.727 14.6943C35.2297 14.7632 35.3138 14.822 35.4508 15.201C35.717 15.9368 35.8725 16.0133 37.1037 16.0133C38.3216 16.0133 38.4461 15.9498 38.7535 15.1711C38.9271 14.7319 39.2778 14.6204 40.4944 14.6177C41.3317 14.6159 41.7583 14.3012 41.8771 13.5982C41.9297 13.2869 42.059 13.0377 42.2097 12.9571C42.4701 12.8176 53.2458 13.2498 54.9151 13.4666C55.9047 13.5951 57.1453 14.1162 57.6049 14.5962C57.7826 14.7819 58.0666 15.2481 58.2357 15.6323C58.6923 16.6688 59.8007 20.1197 60.1723 21.6614C60.4518 22.8212 60.4762 23.0764 60.3466 23.4806C60.0631 24.3638 59.5211 24.7157 58.1447 24.9103C57.5021 25.0011 57.3638 24.9848 57.2206 24.8013C57.0632 24.5995 57.0573 24.5999 57.1297 24.8078C57.2027 25.0177 56.8096 25.03 50.0182 25.03C44.5114 25.03 42.8292 24.9944 42.8292 24.8776C42.8292 24.7592 42.7953 24.7592 42.6768 24.8776C42.563 24.9914 41.1432 25.03 37.0712 25.03C32.0283 25.03 31.605 25.0133 31.445 24.8078C31.2801 24.5961 31.2756 24.5961 31.3493 24.8078C31.4224 25.0177 31.0292 25.03 24.2378 25.03C19.007 25.03 17.0489 24.9912 17.0489 24.8876C17.0489 24.7838 17.0031 24.7829 16.8812 24.8841C16.6567 25.0704 15.275 24.8481 14.6381 24.5232C14.1202 24.2589 13.7463 23.6373 13.7478 23.0424C13.7491 22.5265 14.1477 20.9405 14.815 18.7965C15.9322 15.2072 16.3525 14.4882 17.6838 13.8894C18.5987 13.4778 19.6067 13.3757 25.4942 13.0984C31.8901 12.7972 31.8486 12.7976 32.089 13.0378ZM6.89609 21.4779C7.37563 21.7346 7.52409 22.2699 7.52409 23.7434C7.52409 24.5095 7.55876 25.2266 7.60118 25.3371C7.66061 25.4919 7.86838 25.538 8.50603 25.538H9.3338L9.26268 25.8873C9.22356 26.0793 9.09822 26.4584 8.98405 26.7295L8.77666 27.2225L7.58835 27.1353C6.75195 27.0739 6.32816 27.0929 6.1576 27.1994C5.96431 27.3202 5.50776 27.2847 3.90544 27.0245C2.18679 26.7455 1.85076 26.6532 1.58457 26.3871C0.93257 25.7351 1.11837 24.5483 2.09993 23.0957C2.56829 22.4025 3.04732 22.1569 4.8724 21.6741C6.20701 21.3213 6.54266 21.2887 6.89609 21.4779ZM69.6891 21.791C70.3177 21.9734 71.0321 22.2196 71.2765 22.3382C71.7982 22.5911 72.418 23.4653 72.8008 24.4884C73.1113 25.3183 73.0694 25.8041 72.6412 26.3386C72.3763 26.6694 72.2124 26.718 70.3347 27.0227C68.698 27.2884 68.2663 27.3213 68.0652 27.1957C67.887 27.0845 67.4802 27.0658 66.6253 27.1299L65.4338 27.2192L65.1938 26.6644C64.6899 25.4989 64.6752 25.538 65.6121 25.538C66.3023 25.538 66.4639 25.4968 66.5732 25.2924C66.6455 25.1573 66.7047 24.3901 66.7047 23.5876C66.7047 22.1895 66.7189 22.1116 67.0459 21.723C67.3611 21.3485 67.4317 21.3229 67.9666 21.3883C68.2854 21.4273 69.0604 21.6085 69.6891 21.791ZM17.2564 25.75L22.3531 25.8324L24.3027 29.2472C25.3749 31.1253 26.271 32.6052 26.2941 32.5358C26.3172 32.4665 25.5354 31.0191 24.5567 29.3195C23.578 27.6198 22.7395 26.1307 22.6934 26.0106C22.6144 25.8046 23.4466 25.792 37.1113 25.792C45.0874 25.792 51.5942 25.8369 51.5708 25.8917C51.5476 25.9466 50.6856 27.4601 49.6553 29.2551C48.6251 31.0501 47.7821 32.5596 47.7821 32.6096C47.7821 32.8487 48.1963 32.1809 49.9329 29.1414L51.8105 25.8555L56.7494 25.7704C59.4658 25.7237 61.8739 25.6559 62.101 25.6197C62.3281 25.5836 62.5138 25.6014 62.5138 25.6593C62.5138 25.7172 62.1582 26.0939 61.7236 26.4962C60.3441 27.7734 58.068 28.6399 53.7313 29.5387C52.5197 29.7899 51.3571 30.0482 51.1475 30.1128C50.3538 30.3578 52.0351 30.0925 54.061 29.6532C58.5258 28.6851 60.4879 27.9047 61.9675 26.5089C62.4595 26.0447 62.92 25.665 62.9906 25.665C63.0614 25.665 63.3259 25.8937 63.5785 26.1734C63.9839 26.6221 64.0377 26.7604 64.0377 27.3514C64.0377 28.0785 63.3166 32.4074 63.1731 32.5415C63.1247 32.5867 60.5919 33.1796 57.5446 33.8587L52.0039 35.0937L51.7219 34.8117C51.3194 34.4091 49.9873 33.8147 49.1744 33.6748C47.1561 33.3278 41.341 33.4389 39.743 33.8552C38.9829 34.053 38.0708 34.5769 37.9533 34.8828C37.9047 35.0097 37.6652 35.0628 37.1405 35.0628C36.5034 35.0628 36.3525 35.0156 36.0887 34.733C35.3473 33.9386 34.4072 33.7091 31.1237 33.5212C27.8894 33.336 25.0241 33.5194 23.879 33.9847C23.4409 34.1626 22.8673 34.4813 22.6042 34.6926L22.1261 35.0769L16.5712 33.846C13.5162 33.169 10.9983 32.6001 10.9762 32.5817C10.9053 32.5226 10.2166 28.5527 10.1247 27.6726L10.0361 26.8229L10.6014 26.2244L11.1667 25.626L12.2248 26.5403C13.4595 27.6073 14.496 28.1388 16.5524 28.7597C18.6667 29.3981 23.6203 30.4433 23.3987 30.2041C23.3638 30.1666 22.5637 29.9834 21.6207 29.7972C19.4072 29.3601 16.3213 28.5654 15.2011 28.1436C14.0557 27.7126 13.4288 27.3378 12.4164 26.4789C11.5587 25.7513 11.3746 25.449 11.8737 25.5879C12.0308 25.6316 14.453 25.7045 17.2564 25.75ZM8.58617 27.4148C8.61969 27.4691 8.53867 27.6548 8.40596 27.8275L8.16466 28.1415L8.16187 27.7287C8.1592 27.3411 8.42094 27.1475 8.58617 27.4148ZM66.0463 27.7299C66.0968 28.1675 65.9037 28.1816 65.7091 27.7545C65.5147 27.3279 65.5216 27.2897 65.7839 27.3395C65.9179 27.3649 66.0222 27.5198 66.0463 27.7299ZM6.36359 28.5707C6.33603 28.6512 6.24777 28.6614 6.14262 28.5961C6.04635 28.5363 6.00991 28.4188 6.06172 28.3351C6.17297 28.1551 6.43598 28.3603 6.36359 28.5707ZM7.0161 28.3077C7.0161 28.475 6.64362 28.9172 6.63918 28.7551C6.63689 28.6735 6.60044 28.5164 6.55802 28.4059C6.50278 28.2619 6.55675 28.205 6.74852 28.205C6.89571 28.205 7.0161 28.2512 7.0161 28.3077ZM67.6305 28.459C67.5939 28.5987 67.5155 28.7129 67.4563 28.7129C67.397 28.7129 67.2874 28.5987 67.2126 28.459C67.0939 28.2372 67.1161 28.205 67.3867 28.205C67.6343 28.205 67.6834 28.2561 67.6305 28.459ZM68.0922 28.5338C67.8673 28.8048 67.6927 28.7484 67.8495 28.4554C67.9253 28.3138 68.0445 28.2332 68.1142 28.2762C68.196 28.3268 68.1881 28.4182 68.0922 28.5338ZM6.13665 28.8749C6.1209 29.0268 5.94679 28.9973 5.89218 28.8336C5.86424 28.7498 5.90996 28.7041 5.99378 28.732C6.0776 28.7599 6.14186 28.8242 6.13665 28.8749ZM68.3556 28.8187C68.3556 28.9841 68.2046 29.0941 68.0818 29.0183C67.9505 28.9371 68.0638 28.7129 68.2361 28.7129C68.3019 28.7129 68.3556 28.7606 68.3556 28.8187ZM6.12712 29.7849C6.12712 29.8856 6.06998 30.0032 6.00013 30.0464C5.93028 30.0896 5.87313 30.0976 5.87313 30.0643C5.87313 30.0309 5.83846 29.9133 5.79604 29.8028C5.7455 29.671 5.78906 29.6019 5.92304 29.6019C6.03531 29.6019 6.12712 29.6842 6.12712 29.7849ZM68.3556 29.7849C68.3556 30.0785 68.1367 30.1309 68.0644 29.8545C68.0216 29.6908 68.0612 29.6019 68.1771 29.6019C68.2752 29.6019 68.3556 29.6842 68.3556 29.7849ZM5.66905 29.9298C5.77915 30.2166 5.76861 30.2375 5.55564 30.1559C5.45087 30.1156 5.36514 30.0031 5.36514 29.9058C5.36514 29.6652 5.5738 29.6817 5.66905 29.9298ZM68.7247 30.0608C68.5401 30.2831 68.4223 30.1963 68.5295 29.9169C68.5725 29.8046 68.6682 29.7501 68.7418 29.7957C68.8339 29.8526 68.8285 29.9357 68.7247 30.0608ZM68.9906 30.3004C68.9906 30.4052 68.8979 30.4909 68.7846 30.4909C68.6158 30.4909 68.6071 30.4565 68.7366 30.3004C68.8236 30.1956 68.9163 30.1099 68.9426 30.1099C68.969 30.1099 68.9906 30.1956 68.9906 30.3004ZM5.55564 30.3639C5.59882 30.4338 5.5484 30.4909 5.44363 30.4909C5.33885 30.4909 5.21783 30.4338 5.17465 30.3639C5.13147 30.2941 5.18189 30.2369 5.28666 30.2369C5.39143 30.2369 5.51246 30.2941 5.55564 30.3639ZM36.6699 32.0175C35.6761 32.2268 35.416 32.7747 36.0666 33.2879C36.3603 33.5195 36.5412 33.5555 37.2024 33.5138C38.0296 33.4616 38.5113 33.1904 38.5113 32.7769C38.5113 32.2631 37.4943 31.8438 36.6699 32.0175ZM37.5271 32.4329C37.8574 32.5547 37.796 32.7769 37.4319 32.7769C37.2572 32.7769 37.1144 32.8379 37.1144 32.9127C37.1144 33.0988 36.5755 33.006 36.5105 32.8086C36.4777 32.709 36.5806 32.6499 36.7863 32.6499C37.0412 32.6499 37.1148 32.5862 37.1163 32.3641C37.1174 32.203 37.159 32.1378 37.2115 32.2146C37.2628 32.2896 37.4049 32.3877 37.5271 32.4329ZM35.9311 32.8007C35.8906 32.9019 35.8605 32.8718 35.8544 32.7239C35.849 32.59 35.8789 32.5151 35.9211 32.5573C35.9633 32.5994 35.9678 32.709 35.9311 32.8007ZM15.5249 33.7928C18.0391 34.3516 20.1177 34.8088 20.1443 34.8088C20.2526 34.8088 20.7318 36.0849 20.7318 36.3733C20.7318 36.832 19.9186 37.4985 18.5412 38.1685L17.3547 38.7457H15.1952C12.8247 38.7457 9.90592 38.5532 9.11181 38.3444C8.36252 38.1474 7.47863 37.2113 7.2207 36.3414C6.92073 35.3303 6.95857 34.8221 7.38376 34.1518C7.76843 33.5452 8.42539 32.9731 8.85756 32.868C8.99725 32.8341 9.52607 32.7997 10.0327 32.7916C10.756 32.78 11.9352 32.995 15.5249 33.7928ZM65.8451 33.1524C66.0896 33.3198 66.4829 33.7404 66.7193 34.0871C67.0684 34.5989 67.1455 34.8273 67.1294 35.3028C67.0822 36.7056 66.1589 38.0701 65.0604 38.3608C64.2606 38.5726 60.8585 38.7669 58.7038 38.724L56.6084 38.6822L55.5494 38.1441C54.9668 37.8482 54.2667 37.4291 53.9937 37.2127C53.5762 36.8822 53.4975 36.7451 53.4998 36.3538C53.5013 36.0978 53.6101 35.6513 53.7417 35.3617C53.9803 34.8362 53.983 34.8347 55.1676 34.567C55.8204 34.4196 57.8403 33.9594 59.6563 33.5445C62.6155 32.8685 63.085 32.7932 64.1796 32.8191C65.2323 32.844 65.4622 32.89 65.8451 33.1524ZM34.1299 33.9565C35.9305 34.37 36.366 34.9334 36.5918 37.1405C36.754 38.7246 36.5828 40.4978 36.1916 41.2856C35.8454 41.9829 34.9719 42.6035 34.0623 42.7987C33.2619 42.9703 30.2509 42.9752 27.9404 42.8086C24.7788 42.5806 23.6617 41.8344 22.8326 39.3963C22.4476 38.2645 22.2046 36.6565 22.2876 35.7914C22.3398 35.2483 22.4207 35.0773 22.7585 34.7952C23.2706 34.3677 24.393 33.9229 25.3037 33.7865C26.4168 33.6197 33.2359 33.751 34.1299 33.9565ZM48.8616 33.7959C49.411 33.8732 50.0931 34.0886 50.6472 34.3599C51.8869 34.9668 52.0313 35.3068 51.8289 37.1411C51.517 39.9661 50.4463 41.7774 48.7021 42.4299C47.5286 42.8689 41.6869 43.1191 40.1368 42.7967C39.2553 42.6133 38.3744 42.0456 38.0355 41.4426C37.3625 40.2453 37.3178 36.9084 37.9533 35.3201C38.305 34.4413 39.2788 33.9894 41.2284 33.8003C42.7383 33.6538 47.8308 33.651 48.8616 33.7959ZM27.1451 34.3143C25.3059 34.4 24.3236 34.6796 23.6069 35.3217C23.2174 35.6705 23.2086 35.7031 23.2237 36.736C23.2407 37.8998 23.5112 39.0961 23.9826 40.0934C24.6999 41.6106 25.3874 41.8921 28.834 42.0792C31.7907 42.2398 34.0244 42.0866 34.8988 41.6633C35.3702 41.4351 35.4936 41.2896 35.738 40.674C35.9888 40.0421 36.0237 39.7307 36.0181 38.1742C36.0106 36.0465 35.8692 35.5489 35.1218 35.0205C34.7256 34.7404 34.3485 34.6222 33.4189 34.4871C31.9913 34.2796 29.4128 34.2086 27.1451 34.3143ZM43.1467 34.3135C39.0546 34.458 38.3766 34.8521 38.1373 37.2257C37.9167 39.4132 38.3874 41.2629 39.2733 41.6909C40.001 42.0423 42.1328 42.2102 44.6707 42.1157C47.0213 42.0283 48.3578 41.8352 49.0346 41.4852C50.0015 40.9852 50.8111 39.0638 50.9227 37.0038L50.9931 35.7064L50.6032 35.3422C50.3889 35.1419 49.8807 34.8468 49.4741 34.6863C48.5653 34.3275 46.3863 34.1992 43.1467 34.3135ZM27.5105 34.9675C27.74 36.5824 27.8968 39.3135 27.8611 41.0771L27.8436 41.9482L27.4946 41.8606C27.3027 41.8124 27.1366 41.7634 27.1256 41.7516C27.1145 41.7398 27.0428 40.5586 26.9662 39.1267C26.8895 37.6948 26.7917 36.0517 26.7488 35.4755L26.6705 34.4278H27.0522C27.4044 34.4278 27.4396 34.4693 27.5105 34.9675ZM28.1018 34.4596C28.146 34.789 28.4713 40.6677 28.4744 41.1904C28.4776 41.7567 28.4358 41.9206 28.2881 41.9206C28.1669 41.9206 28.0945 41.7934 28.0892 41.5714C28.0846 41.3794 28.0592 40.3343 28.0328 39.2491C28.0065 38.1641 27.925 36.9068 27.8517 36.4552C27.6527 35.2287 27.6746 34.4278 27.9071 34.4278C28.0119 34.4278 28.0995 34.4422 28.1018 34.4596ZM29.1606 35.2215C29.3951 37.6218 29.4806 38.9681 29.4872 40.3649L29.4946 41.9206H29.1136C28.904 41.9206 28.7307 41.9063 28.7284 41.8889C28.6912 41.6031 28.3565 35.4651 28.3544 35.031C28.3517 34.4504 28.3653 34.4278 28.7173 34.4278C29.0731 34.4278 29.0851 34.4497 29.1606 35.2215ZM29.7512 34.7136C29.7527 34.8708 29.8376 36.428 29.9397 38.1742C30.1688 42.0914 30.1684 41.9206 29.9476 41.9206C29.684 41.9206 29.651 41.6796 29.6344 39.6347C29.6261 38.6219 29.545 37.0633 29.454 36.1711C29.3631 35.2789 29.316 34.5218 29.3493 34.4884C29.5114 34.3263 29.7488 34.4593 29.7512 34.7136ZM30.7315 34.9993C30.7483 35.2787 30.8221 35.9102 30.8955 36.4026C30.9687 36.8951 31.0536 38.3416 31.0838 39.6172L31.1388 41.9362L30.7295 41.8966L30.32 41.8571L30.1221 38.2377C30.0131 36.247 29.947 34.5722 29.9752 34.5158C30.0034 34.4594 30.1783 34.4309 30.3637 34.4523C30.6599 34.4866 30.7047 34.5533 30.7315 34.9993ZM31.3312 34.5866C31.359 34.6739 31.4435 35.974 31.5188 37.4757C31.5941 38.9775 31.6896 40.592 31.731 41.0634C31.8018 41.8701 31.7908 41.9206 31.5431 41.9206C31.2914 41.9206 31.2804 41.8555 31.2865 40.4133C31.2935 38.7609 31.2065 37.3353 31.0011 35.7369C30.9276 35.1648 30.9047 34.6361 30.9504 34.5622C31.0633 34.3796 31.2693 34.3926 31.3312 34.5866ZM43.2092 35.0945C43.2087 35.4612 43.1483 36.1317 43.0747 36.5845C43.0013 37.0372 42.9217 38.3231 42.8979 39.4419C42.8419 42.0776 42.8583 41.9206 42.6387 41.9206C42.3992 41.9206 42.3992 41.7278 42.6387 37.7297C42.7412 36.0184 42.8261 34.5754 42.8272 34.5231C42.8283 34.4707 42.915 34.4278 43.0197 34.4278C43.165 34.4278 43.21 34.5862 43.2092 35.0945ZM44.2235 34.8406C44.222 35.0675 44.1372 36.682 44.0351 38.4282C43.933 40.1744 43.8485 41.6746 43.8474 41.7619C43.8461 41.8522 43.6853 41.9206 43.4746 41.9206H43.1041L43.0619 40.9999C43.0112 39.8943 43.1411 37.517 43.3498 35.7295L43.5017 34.4278H43.864C44.1885 34.4278 44.2259 34.4707 44.2235 34.8406ZM44.8612 35.0954C44.8612 35.4626 44.8054 35.9572 44.7374 36.1947C44.6345 36.5534 44.4843 39.6292 44.4811 41.4444C44.4804 41.7827 44.4249 41.9206 44.2897 41.9206C44.054 41.9206 44.0471 41.4394 44.2318 37.8567C44.3922 34.7433 44.4332 34.4278 44.6764 34.4278C44.8147 34.4278 44.8612 34.596 44.8612 35.0954ZM45.8751 34.5231C45.874 34.5754 45.7892 36.0184 45.6867 37.7297C45.5842 39.441 45.4993 41.0877 45.4982 41.3889C45.4962 41.9282 45.4899 41.9361 45.0905 41.8969L44.6849 41.8571L44.6942 40.1067C44.7023 38.5459 44.9125 35.4766 45.0635 34.7136C45.1069 34.4937 45.2074 34.4278 45.4986 34.4278C45.7069 34.4278 45.8763 34.4707 45.8751 34.5231ZM46.4629 35.0945C46.2636 36.663 46.1223 38.7903 46.1207 40.2443C46.1193 41.5125 46.0834 41.8199 45.9291 41.8791C45.8247 41.9192 45.7159 41.9288 45.6874 41.9002C45.6274 41.8402 45.9968 34.8239 46.0726 34.5866C46.1004 34.4993 46.2187 34.4278 46.3354 34.4278C46.5174 34.4278 46.5355 34.5224 46.4629 35.0945ZM47.4035 34.9041C47.4049 35.166 47.3367 36.7986 47.252 38.5321C47.1121 41.4008 47.0766 41.6953 46.8587 41.812C46.3011 42.1105 46.2645 41.9511 46.3237 39.4818C46.3544 38.2038 46.4379 36.8504 46.5092 36.4742C46.5807 36.0979 46.6391 35.5216 46.6391 35.1936C46.6391 34.5144 46.6918 34.4278 47.1048 34.4278C47.3621 34.4278 47.4015 34.4905 47.4035 34.9041ZM47.9829 35.7499C47.7319 39.0303 47.6777 40.1268 47.7427 40.6099C47.832 41.2732 47.7086 41.7936 47.4622 41.7936C47.2317 41.7936 47.2317 41.8932 47.464 37.9202C47.5661 36.174 47.6509 34.6757 47.6525 34.5905C47.654 34.4997 47.741 34.4687 47.8631 34.5156C48.0441 34.585 48.0597 34.7459 47.9829 35.7499ZM26.0294 36.1435C26.2114 37.8779 26.3091 41.5311 26.1756 41.6137C26.1269 41.6438 25.9482 41.6157 25.7785 41.5512L25.4702 41.434L25.3059 38.1079C25.1664 35.2805 25.1682 34.7649 25.3179 34.6685C25.7666 34.3798 25.866 34.5859 26.0294 36.1435ZM26.5824 35.285C26.5871 35.6866 26.6628 37.2725 26.7505 38.8092C26.8383 40.3459 26.868 41.6524 26.8164 41.7127C26.56 42.0126 26.4461 41.5652 26.4393 40.2304C26.4325 38.9262 26.3144 37.1334 26.1135 35.285C26.0391 34.6004 26.051 34.5548 26.3039 34.5548C26.5466 34.5548 26.5745 34.628 26.5824 35.285ZM32.3337 35.0408C32.5382 36.319 32.7233 39.4651 32.6883 41.0634L32.6695 41.9206H32.2885C31.925 41.9206 31.9075 41.8959 31.9069 41.3809C31.9064 40.8319 31.7225 37.5049 31.5876 35.6025L31.5133 34.5548H31.8846C32.2169 34.5548 32.2642 34.606 32.3337 35.0408ZM32.9255 34.5866C33.0778 36.9628 33.3009 40.9857 33.3024 41.3809C33.304 41.7769 33.2538 41.9206 33.114 41.9206C33.0042 41.9206 32.9189 41.7995 32.9128 41.6349C32.9068 41.4777 32.8819 40.4633 32.8574 39.3807C32.8329 38.298 32.7524 37.0408 32.6786 36.5868C32.4786 35.3567 32.5001 34.5548 32.733 34.5548C32.8378 34.5548 32.9244 34.5692 32.9255 34.5866ZM33.9609 35.5159C34.1513 37.205 34.3103 39.7593 34.2845 40.7142C34.2575 41.7136 34.2514 41.7308 33.9166 41.7695C33.6025 41.8057 33.571 41.7666 33.5085 41.2615C33.4302 40.6289 33.1744 35.8907 33.1762 35.1055C33.1775 34.591 33.1869 34.5793 33.5267 34.6696C33.8441 34.7539 33.8837 34.8313 33.9609 35.5159ZM41.6399 35.158C41.4574 36.5462 41.3006 38.9074 41.2988 40.2965C41.297 41.7023 41.1949 42.1252 40.9259 41.8397C40.8321 41.74 41.1329 35.0855 41.2481 34.7136C41.2752 34.6263 41.3923 34.5548 41.5083 34.5548C41.6865 34.5548 41.707 34.6487 41.6399 35.158ZM42.5752 35.1574C42.5752 35.9481 42.3345 40.3996 42.2454 41.2539C42.1795 41.8867 42.1575 41.9206 41.8124 41.9206H41.4488L41.5025 39.5333C41.532 38.2203 41.614 36.841 41.6847 36.4681C41.7553 36.0952 41.8133 35.5502 41.8133 35.2571C41.8133 34.6431 41.8718 34.5548 42.279 34.5548C42.5477 34.5548 42.5752 34.6108 42.5752 35.1574ZM48.8944 34.6602C49.0226 34.7416 49.0184 35.4094 48.873 38.0387C48.7733 39.8411 48.6443 41.3597 48.5863 41.4134C48.5281 41.4671 48.3521 41.5499 48.1949 41.5974C47.91 41.6835 47.9091 41.6793 47.9165 40.2464C47.9232 38.9282 48.0407 37.1392 48.2422 35.285C48.3226 34.5449 48.4782 34.3959 48.8944 34.6602ZM41.0492 34.7771C41.0481 34.8294 40.9633 36.2724 40.8608 37.9837C40.7583 39.695 40.6735 41.2524 40.6723 41.4444C40.6705 41.745 40.6187 41.7936 40.3001 41.7936C39.9321 41.7936 39.9298 41.7889 39.8873 40.9364C39.8414 40.0111 40.0817 35.937 40.2281 35.158C40.3069 34.7383 40.361 34.6818 40.6844 34.6818C40.8862 34.6818 41.0504 34.7247 41.0492 34.7771ZM24.9295 34.8406C24.9807 35.075 25.2737 41.231 25.2356 41.2691C25.2065 41.2981 25.0956 41.2496 24.9892 41.1612C24.8362 41.0342 24.7957 40.6927 24.7957 39.5313C24.7957 38.7232 24.7306 37.4205 24.6511 36.6363C24.5078 35.2219 24.5395 34.8088 24.7917 34.8088C24.8637 34.8088 24.9258 34.8232 24.9295 34.8406ZM34.5128 34.9675C34.5445 35.0549 34.6434 36.545 34.7328 38.2789C34.857 40.6907 34.8602 41.4606 34.7461 41.5553C34.5073 41.7535 34.4656 41.5455 34.4626 40.1376C34.4595 38.75 34.2196 35.3348 34.1131 35.1624C34.0334 35.0336 34.1726 34.8088 34.3319 34.8088C34.3998 34.8088 34.4812 34.8803 34.5128 34.9675ZM39.9887 35.666C39.7621 38.0519 39.6544 40.0114 39.7215 40.5239C39.8108 41.2053 39.6662 41.704 39.423 41.5536C39.2878 41.47 39.2825 40.9593 39.3943 38.7966C39.5808 35.1964 39.6271 34.8088 39.8713 34.8088C40.0401 34.8088 40.0578 34.9382 39.9887 35.666ZM49.4559 37.3052C49.3837 38.5515 49.3534 39.8569 49.3889 40.2062C49.4523 40.8315 49.2019 41.4778 48.9817 41.2576C48.8855 41.1614 49.1624 35.0756 49.2714 34.893C49.3062 34.8345 49.3915 34.8435 49.461 34.9129C49.5447 34.9966 49.5429 35.8034 49.4559 37.3052ZM21.7005 35.1486L22.0979 35.218L22.1615 36.6326C22.2213 37.9623 22.318 38.4136 22.9773 40.4397C23.0467 40.6531 22.994 40.6665 22.3688 40.5952C19.2854 40.2427 12.2524 40.0336 10.863 40.2529C9.59503 40.4529 9.36072 40.5859 9.06977 41.2704C8.44101 42.7498 8.05037 46.5393 8.25585 49.1661C8.38996 50.8799 8.52495 51.2837 9.18483 51.9436C10.0174 52.7762 10.0324 52.7789 13.8162 52.7789C17.7094 52.7789 17.5934 52.8055 18.3752 51.7283C18.6138 51.3994 19.6274 49.7927 20.6276 48.1576C22.6597 44.836 23.1818 44.1884 24.0337 43.9333C24.4961 43.7947 26.9801 43.7621 37.0509 43.7621C48.5229 43.7621 49.5524 43.7794 50.2109 43.9833C51.0664 44.2481 51.1752 44.3759 52.8838 47.1219C56.387 52.7519 56.2948 52.6412 57.5944 52.7804C58.0455 52.8286 59.6394 52.8481 61.1366 52.8236C63.5352 52.7842 63.9034 52.7505 64.2339 52.5402C64.8443 52.152 65.313 51.6692 65.6051 51.1279C65.8644 50.6472 65.8791 50.4565 65.8757 47.572C65.8722 44.392 65.718 42.9955 65.2077 41.5189C64.9098 40.6571 64.5749 40.4307 63.3392 40.2558C62.1084 40.0817 56.9344 40.1838 53.4984 40.4503C52.2069 40.5503 51.1346 40.6166 51.1155 40.5974C51.0964 40.5783 51.1757 40.3395 51.2919 40.067C51.6977 39.115 51.985 37.7836 52.0605 36.5054L52.1367 35.2175L52.838 35.0766C53.2237 34.9992 53.5625 34.9589 53.5908 34.9872C53.619 35.0156 53.5523 35.3033 53.4426 35.6267C53.3328 35.95 53.243 36.3357 53.243 36.4838C53.243 36.9062 54.1803 37.6679 55.5161 38.3309L56.7354 38.9362L59.2118 38.9095C60.5739 38.8948 62.4312 38.8208 63.3392 38.7451C65.2437 38.5863 65.8279 38.3702 66.5121 37.5707L66.9553 37.053L67.4144 37.296C68.0344 37.6245 68.3268 38.0226 68.4241 38.671C68.5019 39.1901 67.9015 44.451 67.1361 49.957C66.7532 52.7117 66.0205 55.0867 65.2509 56.0676C65.0951 56.2663 64.9117 56.3046 64.2007 56.2864C63.7268 56.2743 63.2535 56.2395 63.1487 56.2093C63.044 56.179 61.5867 56.0368 59.9103 55.8937C55.0463 55.4781 54.5537 55.3687 53.4458 54.4589L53.0771 54.156L53.414 53.6602C53.5993 53.3876 53.751 53.0171 53.751 52.8372C53.751 52.4427 53.1048 51.3421 52.2217 50.2323C50.9739 48.6642 50.6354 48.5612 46.1312 48.3791C42.1535 48.2182 26.4753 48.3203 25.0497 48.5162C23.6749 48.7052 23.1314 48.9509 22.4208 49.7047C21.7133 50.4551 20.8009 51.7569 20.5329 52.3985C20.3256 52.8943 20.4407 53.3477 20.8974 53.8351L21.173 54.1294L20.8571 54.3786C20.2673 54.8441 19.4562 55.2834 18.9819 55.3939C18.722 55.4544 16.9092 55.6493 14.9534 55.8268C12.9977 56.0043 10.9403 56.1974 10.3815 56.2557C9.82273 56.3141 9.27068 56.3136 9.1546 56.2546C8.81158 56.0804 8.4372 55.3655 7.9 53.8595C7.32077 52.2361 7.25613 51.8493 6.32181 44.4312C5.58066 38.547 5.57812 38.3853 6.21742 37.7073C6.39369 37.5202 6.69823 37.3009 6.89419 37.2197C7.22806 37.0814 7.28076 37.1059 7.73643 37.6118C8.00376 37.9085 8.45269 38.2536 8.73399 38.3784C9.3865 38.6681 11.7677 38.8709 14.9534 38.9081L17.3664 38.9362L18.5907 38.3452C20.1509 37.5919 20.8588 36.9778 20.8588 36.3775C20.8588 36.1388 20.773 35.7384 20.6683 35.4877C20.4167 34.8856 20.4145 34.8906 20.8905 34.9916C21.1175 35.0398 21.4821 35.1104 21.7005 35.1486ZM24.5344 37.3252C24.6119 38.4649 24.6365 39.6885 24.5894 40.0445L24.5036 40.6917L24.1971 40.0887C23.7491 39.2071 23.3987 37.6943 23.3987 36.6412C23.3987 35.7646 23.4179 35.7043 23.798 35.3845C24.0176 35.1997 24.2413 35.0945 24.2954 35.1509C24.3494 35.2072 24.457 36.1857 24.5344 37.3252ZM35.1793 35.2593C36.0294 35.8546 36.1508 40.0575 35.3466 41.0506C35.1226 41.3273 35.118 41.3166 35.0394 40.3243C34.9954 39.7704 34.9274 38.5457 34.888 37.6027C34.8487 36.6598 34.788 35.7025 34.7532 35.4755C34.6825 35.0149 34.7684 34.9714 35.1793 35.2593ZM39.3582 36.3645C39.3143 37.0804 39.2402 38.4824 39.1933 39.4801C39.1006 41.4534 38.9953 41.6466 38.5958 40.5766C38.067 39.1605 38.2151 36.1965 38.8525 35.439C39.3782 34.814 39.4454 34.9371 39.3582 36.3645ZM50.4356 35.4312C50.7734 35.7468 50.83 35.8894 50.83 36.424C50.83 37.7003 50.297 39.763 49.8002 40.4092C49.5674 40.7119 49.5657 40.7048 49.5615 39.4442C49.5565 37.968 49.8132 35.0628 49.9486 35.0628C49.9995 35.0628 50.2187 35.2287 50.4356 35.4312ZM37.7083 35.3675C37.4623 36.0087 37.3446 37.2788 37.3873 38.8326C37.4315 40.4412 37.4651 40.6498 37.7871 41.3079C38.1723 42.0952 38.9027 42.669 39.8448 42.9244C40.4607 43.0914 45.0447 43.1016 46.8366 42.9398C48.6084 42.7799 49.4429 42.4455 50.3315 41.539L51.0395 40.8168L52.9349 40.67C58.9204 40.2063 63.8515 40.2402 64.534 40.7498C65.2712 41.3001 65.7251 43.897 65.7378 47.6364C65.7454 49.8455 65.7123 50.3309 65.5198 50.8349C65.2816 51.4586 64.5267 52.245 63.9359 52.4847C63.4472 52.6831 58.7089 52.7758 57.6244 52.6082C56.8413 52.4873 56.6819 52.4136 56.2866 51.99C55.8092 51.4783 53.878 48.501 53.878 48.2767C53.878 48.2034 54.1274 48.1435 54.4323 48.1435H54.9866L56.0515 49.5695C56.6733 50.4021 57.3014 51.1024 57.5609 51.2522C57.9617 51.4836 58.2713 51.513 60.7087 51.5498C63.2444 51.588 63.4463 51.5739 63.9647 51.323C64.8448 50.897 65.1931 50.2731 65.3322 48.8736C65.4729 47.4585 65.3464 44.4189 65.1248 43.8891C65.0372 43.6795 64.7281 43.2938 64.4378 43.0319C63.9688 42.6086 63.8358 42.5557 63.2436 42.5566C61.702 42.559 58.276 43.0755 57.1799 43.4706C56.6003 43.6797 56.2759 43.9366 55.2734 44.9805L54.0654 46.2385H53.3029H52.5403L52.1393 45.5718C51.5505 44.5934 50.9517 43.9997 50.3807 43.8285C48.734 43.3347 25.1857 43.3369 23.7797 43.8309C23.1911 44.0378 22.744 44.4687 22.1124 45.4382L21.5909 46.2385L20.8122 46.236L20.0333 46.2333L19.2251 45.3248C18.1118 44.0734 17.522 43.6091 16.7536 43.3792C15.769 43.0847 13.3254 42.7098 11.7345 42.6091C10.3465 42.5213 10.3188 42.5249 9.88915 42.8525C9.64938 43.0355 9.31907 43.4007 9.15537 43.6642C8.86594 44.1295 8.85756 44.2238 8.85756 47.0005C8.85756 50.2168 8.88537 50.3316 9.85321 51.1144L10.3409 51.5089L12.9574 51.5503C14.7161 51.5781 15.7511 51.542 16.1144 51.4403C16.7728 51.256 17.2696 50.7737 18.3314 49.288L19.1443 48.1506L19.7611 48.147C20.2176 48.1444 20.3614 48.1867 20.3143 48.3093C20.1608 48.7094 18.0558 51.9181 17.7725 52.184C17.3136 52.6148 16.0344 52.7512 13.0485 52.6879C10.2646 52.6289 10.0807 52.5856 9.29735 51.8021C8.60572 51.1105 8.50603 50.712 8.4405 48.3733C8.32798 44.3666 8.90709 41.0564 9.79099 40.6535C10.3004 40.4212 13.0749 40.2574 15.1439 40.3372C16.1567 40.3764 18.3855 40.4953 20.0968 40.6016C23.0425 40.7845 23.2182 40.8097 23.3971 41.072C24.1399 42.1619 25.3899 42.771 27.223 42.9361C29.4001 43.1324 33.6582 43.0957 34.4036 42.8744C35.2476 42.6237 36.0329 42.039 36.3438 41.4297C36.9458 40.2494 37.0222 37.9187 36.5345 35.6025L36.4476 35.1898H37.1121C37.6291 35.1898 37.7614 35.2292 37.7083 35.3675ZM5.53837 39.8099C5.71146 40.9011 5.71375 41.0985 5.55577 41.3241C5.30698 41.6792 5.27256 41.53 5.18176 39.6982C5.09324 37.9118 5.24475 37.9592 5.53837 39.8099ZM69.05 38.841C69.0194 39.1728 68.9595 39.949 68.9167 40.5661C68.844 41.6163 68.8266 41.6704 68.6459 41.4124C68.4779 41.1726 68.4735 40.9769 68.6118 39.9095C68.7549 38.8032 68.9041 38.2377 69.0526 38.2377C69.0818 38.2377 69.0806 38.5091 69.05 38.841ZM6.18732 44.7781C6.85609 50.5308 7.10767 52.0118 7.73313 53.8783C8.11767 55.0258 8.44583 55.7723 8.70326 56.0846C9.0906 56.5545 9.09555 56.5563 9.88484 56.4929C10.7948 56.4199 10.8212 56.4517 10.8242 57.6275C10.8268 58.5965 10.9656 58.6842 12.4941 58.6842H13.7629L13.7232 60.9487L13.6834 63.2133L13.3218 63.687C13.1227 63.9476 12.8084 64.2219 12.6233 64.2966C12.0595 64.5239 9.6057 64.6533 8.12148 64.5341C6.52183 64.4054 6.22758 64.2607 5.77788 63.3806L5.49214 62.8213V52.3179C5.49214 46.5409 5.53125 41.7126 5.57901 41.5882C5.65444 41.3916 5.67857 41.4027 5.76417 41.6731C5.81814 41.8442 6.00864 43.2414 6.18732 44.7781ZM68.6731 52.309V62.9386L68.364 63.4784C68.153 63.8465 67.877 64.1042 67.495 64.2891C66.9839 64.5365 66.7281 64.56 64.5656 64.5577C61.7391 64.5547 61.3009 64.441 60.7963 63.5798C60.382 62.873 60.3045 62.202 60.4153 60.2818L60.5073 58.6842H61.6728C63.277 58.6842 63.4027 58.5871 63.4027 57.3483V56.4078L64.2233 56.4845C65.0414 56.5608 65.0448 56.5598 65.445 56.1077C65.7202 55.7969 66.0233 55.1427 66.4094 54.0262C67.0152 52.2747 67.2914 50.6366 68.0499 44.2967C68.2999 42.2084 68.4349 41.4411 68.5347 41.5409C68.6323 41.6386 68.6731 44.8079 68.6731 52.309ZM14.2582 43.0729C16.8351 43.4362 17.3317 43.6408 18.4904 44.8164C19.4181 45.7577 19.8302 46.2312 19.8387 46.3655C19.841 46.4004 18.5999 46.3615 17.0806 46.279C15.5615 46.1965 13.4576 46.125 12.4055 46.1203L10.4925 46.1115L10.1619 46.4608C9.98008 46.6528 9.81232 46.9215 9.78895 47.0578C9.72977 47.4031 10.5864 47.5513 11.9055 47.4239C13.0288 47.3155 20.6036 47.3381 20.7158 47.4502C20.7545 47.4889 20.7252 47.618 20.6506 47.7368C20.5533 47.8918 20.3028 47.964 19.7661 47.9922L19.0173 48.0313L18.2044 49.1649C17.7572 49.7883 17.1931 50.4967 16.9508 50.7392C16.3256 51.3642 15.6092 51.4825 12.7838 51.4265L10.467 51.3806L9.98872 50.9935C9.22344 50.3741 9.07104 49.9428 8.98138 48.1435C8.93795 47.2704 8.95471 45.9775 9.01859 45.2704C9.14635 43.857 9.36745 43.3824 10.1134 42.9211C10.574 42.6363 11.3674 42.6652 14.2582 43.0729ZM64.3574 43.2061C65.1418 43.9292 65.2067 44.2626 65.1581 47.3134C65.1173 49.872 65.1161 49.8821 64.7709 50.3799C64.1055 51.339 63.9411 51.3819 60.9263 51.3819C57.5567 51.3819 57.655 51.422 56.1811 49.4452L55.1157 48.0165H54.3743C53.7527 48.0165 53.61 47.9737 53.4911 47.7516C53.4132 47.6059 53.3697 47.4665 53.3945 47.4417C53.4193 47.4169 55.0877 47.3407 57.1022 47.2725C60.1503 47.1692 60.8636 47.1783 61.3535 47.327C62.3448 47.6279 64.3183 47.4927 64.3901 47.119C64.4404 46.857 63.9552 46.2491 63.5826 46.1075C63.3117 46.0045 60.3637 46.0857 55.9883 46.3168C54.8243 46.3782 54.3663 46.3631 54.4008 46.2642C54.4276 46.1876 54.8753 45.6564 55.3958 45.0836C56.0627 44.3497 56.5341 43.9541 56.9921 43.7446C57.6599 43.4388 59.9546 42.9958 61.7929 42.8177C63.7399 42.6293 63.7299 42.6278 64.3574 43.2061ZM18.0648 46.5073C19.7063 46.5884 21.0923 46.6929 21.145 46.7393C21.1976 46.7856 21.1684 46.9225 21.0801 47.0433C20.9299 47.2487 20.6716 47.2539 17.1408 47.1222C13.7189 46.9947 13.3022 47.0013 12.7263 47.1925C12.2254 47.3589 11.8614 47.3848 11.0136 47.3142C10.4215 47.2648 9.93703 47.1784 9.93703 47.1222C9.93703 47.066 10.0922 46.8357 10.2818 46.6102L10.6266 46.2006L12.8535 46.2801C14.0783 46.3237 16.4234 46.426 18.0648 46.5073ZM63.9597 46.6492C64.1933 46.9477 64.2383 47.0838 64.1243 47.1476C63.8315 47.3115 61.9449 47.3001 61.2932 47.1304C60.7651 46.993 59.9483 46.9869 56.9129 47.0978C53.1013 47.237 52.9965 47.2283 52.9909 46.7783C52.9896 46.6708 53.2252 46.6155 53.7192 46.6071C54.1209 46.6002 55.6781 46.5227 57.1799 46.4347C58.6816 46.3469 60.7491 46.2667 61.7744 46.2567L63.6383 46.2385L63.9597 46.6492ZM29.5974 49.0007L29.5581 49.4769H28.0341H26.5101L26.5547 49.096C26.5791 48.8864 26.6253 48.6722 26.6574 48.6197C26.6894 48.5673 27.3729 48.5245 28.1762 48.5245H29.6369L29.5974 49.0007ZM30.0826 48.8102C30.0405 48.9674 30.0052 49.2073 30.0043 49.3436C30.0032 49.4943 29.9582 49.544 29.8891 49.4706C29.744 49.316 29.8632 48.5245 30.0318 48.5245C30.1019 48.5245 30.1247 48.6529 30.0826 48.8102ZM34.1934 49.0325V49.5404H32.225H30.2565V49.0325V48.5245H32.225H34.1934V49.0325ZM34.7014 48.9615C34.7014 49.2019 34.6443 49.4338 34.5744 49.4769C34.4977 49.5243 34.4474 49.3512 34.4474 49.0399C34.4474 48.7565 34.5046 48.5245 34.5744 48.5245C34.6443 48.5245 34.7014 48.7211 34.7014 48.9615ZM39.2733 49.0325V49.5404H37.1104C34.7671 49.5404 34.7098 49.5224 34.8806 48.8417L34.9603 48.5245H37.1168H39.2733V49.0325ZM39.7813 49.0325C39.7813 49.3119 39.7304 49.5404 39.6682 49.5404C39.549 49.5404 39.4077 48.6864 39.51 48.584C39.6812 48.4128 39.7813 48.5782 39.7813 49.0325ZM43.8922 48.8102C44.0963 49.5718 44.1556 49.5501 41.972 49.5119L39.9718 49.4769L39.9324 49.0007L39.8929 48.5245H41.8543C43.7808 48.5245 43.8169 48.5295 43.8922 48.8102ZM44.3532 49.1109C44.3532 49.375 44.3016 49.5236 44.2262 49.4769C44.1564 49.4338 44.0992 49.1984 44.0992 48.954C44.0992 48.6899 44.1508 48.5414 44.2262 48.588C44.2961 48.6311 44.3532 48.8665 44.3532 49.1109ZM47.5237 48.7701C47.5959 48.9052 47.6551 49.1338 47.6551 49.2781C47.6551 49.5285 47.5864 49.5404 46.146 49.5404C44.6882 49.5404 44.6342 49.5307 44.5602 49.2547C44.3639 48.5219 44.3592 48.5245 45.9362 48.5245C47.2457 48.5245 47.4054 48.5492 47.5237 48.7701ZM25.987 49.0007C25.9411 49.1927 25.8795 49.3927 25.8501 49.4452C25.7697 49.5884 23.0177 49.5619 23.0177 49.4179C23.0177 49.1144 24.4218 48.6809 25.4648 48.6623C26.0628 48.6516 26.0694 48.6559 25.987 49.0007ZM26.388 49.0007C26.3405 49.1927 26.2408 49.4071 26.1663 49.4769C26.0719 49.5657 26.0548 49.5083 26.1101 49.2864C26.1536 49.1118 26.19 48.8976 26.1909 48.8102C26.1919 48.723 26.256 48.6515 26.3334 48.6515C26.4233 48.6515 26.4429 48.778 26.388 49.0007ZM48.0342 49.1987C48.0327 49.507 48.0028 49.5583 47.9091 49.4134C47.7463 49.1616 47.7463 48.6144 47.9091 48.715C47.979 48.7581 48.0352 48.9758 48.0342 49.1987ZM50.5891 49.0502C50.9311 49.1973 51.211 49.3679 51.211 49.4291C51.211 49.4903 50.5604 49.5404 49.7654 49.5404C48.3735 49.5404 48.3169 49.5298 48.2431 49.2547C48.0748 48.6268 48.1009 48.6092 49.0652 48.6988C49.5613 48.7449 50.2471 48.903 50.5891 49.0502ZM51.7216 49.861C51.8099 49.9674 51.8597 50.0755 51.8324 50.101C51.805 50.1264 51.3335 50.2394 50.7847 50.3518C49.9064 50.5319 48.2665 50.5564 37.0955 50.5564C25.9933 50.5564 24.2813 50.5312 23.4251 50.3546C22.8868 50.2436 22.4237 50.1307 22.3963 50.1037C22.369 50.0766 22.4188 49.9674 22.5072 49.861C22.6494 49.6897 24.3262 49.6674 37.1144 49.6674C49.9026 49.6674 51.5793 49.6897 51.7216 49.861ZM23.2082 50.4955C23.6273 50.5967 24.3338 50.6804 24.778 50.6814L25.586 50.6834L25.4968 51.1586C25.3743 51.8119 25.3581 51.8264 24.7564 51.8263C24.2058 51.8263 21.8951 51.2501 21.7016 51.0647C21.5575 50.9264 22.0105 50.3103 22.2557 50.3109C22.3605 50.3112 22.7891 50.3942 23.2082 50.4955ZM52.3544 50.6839C52.5597 50.9723 52.5851 51.0794 52.4583 51.1228C51.4588 51.4644 49.897 51.8264 49.4223 51.8264C48.8375 51.8264 48.8272 51.8193 48.7016 51.3245C48.6315 51.0485 48.6056 50.7914 48.6438 50.753C48.6821 50.7148 49.0611 50.681 49.486 50.6781C49.911 50.675 50.5729 50.5943 50.957 50.4984C51.9598 50.2481 52.0528 50.2605 52.3544 50.6839ZM25.8765 51.3099C25.8285 51.594 25.7372 51.8264 25.6735 51.8264C25.5262 51.8264 25.5287 51.7454 25.6946 51.1477C25.8679 50.5238 25.9908 50.6334 25.8765 51.3099ZM29.3431 51.2232L29.3041 51.7629L27.6116 51.7985C26.0395 51.8313 25.9239 51.8179 25.9864 51.608C26.0233 51.4836 26.091 51.2247 26.1369 51.0327L26.2202 50.6834H27.8012H29.3822L29.3431 51.2232ZM29.7816 51.3502C29.7482 51.6121 29.6698 51.8264 29.6077 51.8264C29.4739 51.8264 29.4652 51.624 29.5755 51.0724C29.6854 50.5229 29.8575 50.7549 29.7816 51.3502ZM34.1048 50.7787C34.134 50.8311 34.1312 51.0883 34.0983 51.3502L34.0386 51.8264H31.9513H29.864L29.95 51.3502C29.9972 51.0883 30.0603 50.8311 30.0902 50.7787C30.1201 50.7262 31.0236 50.6834 32.098 50.6834C33.1724 50.6834 34.0755 50.7262 34.1048 50.7787ZM34.5744 51.2549C34.5744 51.5692 34.5173 51.8264 34.4474 51.8264C34.3776 51.8264 34.3204 51.5692 34.3204 51.2549C34.3204 50.9406 34.3776 50.6834 34.4474 50.6834C34.5173 50.6834 34.5744 50.9406 34.5744 51.2549ZM39.3758 51.2867L39.4149 51.8264H37.1292C35.872 51.8264 34.8136 51.7781 34.7772 51.7192C34.7408 51.6603 34.7451 51.4018 34.7868 51.1449L34.8626 50.6777L37.0996 50.7122L39.3368 50.7469L39.3758 51.2867ZM39.9083 51.3259C39.9083 51.6012 39.8575 51.8264 39.7954 51.8264C39.6547 51.8264 39.4868 50.9787 39.5935 50.8062C39.745 50.561 39.9083 50.8306 39.9083 51.3259ZM44.1491 50.8843C44.1915 50.9948 44.2262 51.2534 44.2262 51.459V51.8327L42.1625 51.7978L40.0988 51.7629L40.0598 51.2232L40.0207 50.6834H42.0464C43.7764 50.6834 44.0833 50.7128 44.1491 50.8843ZM44.6289 51.3176C44.6556 51.5974 44.6397 51.8264 44.5936 51.8264C44.4887 51.8264 44.3573 51.3499 44.355 50.9617C44.3521 50.4777 44.5766 50.7694 44.6289 51.3176ZM47.9536 50.7797C47.9863 50.8325 48.0531 51.0897 48.1023 51.3512L48.1914 51.8264H46.5429H44.8945L44.819 51.3621C44.7776 51.1067 44.7736 50.8495 44.81 50.7906C44.8922 50.6575 47.8716 50.6471 47.9536 50.7797ZM48.4641 51.0962C48.5061 51.2534 48.5396 51.4962 48.5385 51.6359C48.5369 51.8395 48.5154 51.852 48.4304 51.6994C48.2521 51.3791 48.1514 50.8104 48.2728 50.8104C48.3359 50.8104 48.4219 50.9389 48.4641 51.0962ZM53.2947 52.1316C53.6365 52.8073 53.6398 52.8341 53.433 53.2701C53.1518 53.8624 52.8343 54.0499 51.846 54.2071C51.3049 54.293 46.0543 54.3284 36.6064 54.3094C24.5694 54.2853 22.1092 54.2509 21.6889 54.1012C21.0585 53.8766 20.5554 53.1884 20.6552 52.6873C20.7539 52.1912 21.3351 51.3184 21.5666 51.3184C21.6748 51.3184 22.2885 51.4756 22.9303 51.6676L24.0972 52.0169L37.1779 52.0076L50.2586 51.9983L51.465 51.6146C52.1443 51.3985 52.7312 51.2765 52.808 51.3352C52.8831 51.3926 53.102 51.751 53.2947 52.1316ZM23.7162 54.5004C24.6941 54.5765 25.7644 54.6042 26.0946 54.562C26.4248 54.5199 31.4824 54.4998 37.3338 54.5175C49.7742 54.5552 51.0085 54.5412 52.0751 54.3508C52.8136 54.219 52.8974 54.228 53.1546 54.4655C53.308 54.6071 53.7428 54.9039 54.121 55.1251C54.9136 55.5887 55.8034 55.7319 60.1008 56.0875C61.5327 56.206 62.8345 56.3522 62.9937 56.4124C63.268 56.516 63.2788 56.5669 63.2 57.3807C63.1543 57.8532 63.0785 58.2824 63.0315 58.3347C62.9845 58.3869 62.2631 58.4658 61.4282 58.5101L59.9103 58.5905L58.8747 57.8754L57.8391 57.1603H37.0857H16.3322L15.3253 57.8704L14.3184 58.5806L12.7393 58.5068C11.6768 58.4573 11.127 58.3807 11.0585 58.2729C11.0027 58.1849 10.9561 57.7334 10.9549 57.2696L10.953 56.4266L11.3657 56.3538C11.5928 56.3138 12.4928 56.221 13.3659 56.1475C19.1714 55.6585 19.5973 55.5718 20.7953 54.6338C21.1573 54.3503 21.3944 54.2542 21.6207 54.299C21.7954 54.3337 22.7383 54.4244 23.7162 54.5004Z" fill="black"/>
</g>
<defs>
<clipPath id="clip0">
<rect width="72.1342" height="57.5296" fill="white" transform="translate(1 7.25293)"/>
</clipPath>
</defs>
</svg>
