<svg width="137" height="144" viewBox="0 0 137 144" fill="none" xmlns="http://www.w3.org/2000/svg">
<path fill-rule="evenodd" clip-rule="evenodd" d="M37.0939 125.106H16.2918C9.9746 125.106 4.84274 119.963 4.84274 113.632V30.2334C4.84274 23.9028 9.9746 18.76 16.2918 18.76H27.7409V29.2628C27.7409 31.146 29.2588 32.6526 31.1236 32.6526H84.6829C86.5622 32.6526 88.0656 31.1315 88.0656 29.2628V18.76H99.5147C105.832 18.76 110.964 23.9028 110.964 30.2334V58.033C110.964 59.3803 112.048 60.4667 113.378 60.4667C114.708 60.4667 115.792 59.3803 115.792 58.033V30.2334C115.792 21.2228 108.492 13.9071 99.5002 13.9071H88.0511V3.38985C88.0511 1.5066 86.5332 0 84.6684 0H31.1381C29.2588 0 27.7554 1.52108 27.7554 3.38985V13.8926H16.3063C7.30025 13.9071 0 21.2083 0 30.2334V113.647C0 122.657 7.30025 129.973 16.2918 129.973H37.0939C38.4239 129.973 39.5081 128.887 39.5081 127.539C39.5081 126.192 38.4239 125.12 37.0939 125.12V125.106ZM83.2373 4.85298V27.7996H32.5837V4.85298H83.2373Z" fill="#E4E6E8"/>
<path fill-rule="evenodd" clip-rule="evenodd" d="M128.369 109.185L128.296 108.895L135.279 105.375C136.479 104.767 136.956 103.318 136.348 102.115C135.741 100.913 134.296 100.435 133.096 101.043L127.154 104.042L124.654 93.3367C123.295 87.5276 118.119 83.4134 112.164 83.4134H86.8513C80.8954 83.4134 75.7202 87.5276 74.3613 93.3367L71.8605 104.042L65.9191 101.043C64.7192 100.435 63.2736 100.928 62.6665 102.115C62.0593 103.318 62.5508 104.767 63.7362 105.375L70.7184 108.895L70.6462 109.185C65.7745 111.546 62.3918 116.53 62.3918 122.324V134.493C62.3918 139.665 66.5841 143.866 71.7448 143.866H78.6837C83.8444 143.866 88.0367 139.665 88.0367 134.493V133.45H110.935V134.493C110.935 139.665 115.127 143.866 120.288 143.866H127.227C132.387 143.866 136.58 139.665 136.58 134.493V122.324C136.58 116.53 133.211 111.546 128.325 109.185H128.369ZM79.0884 94.4376C79.9269 90.816 83.1506 88.2664 86.8657 88.2664H112.178C115.893 88.2664 119.102 90.8305 119.955 94.4376L123.078 107.78C122.745 107.751 122.413 107.722 122.066 107.722H76.9779C76.6309 107.722 76.2984 107.751 75.966 107.78L79.0884 94.4376ZM131.78 134.493C131.78 136.985 129.757 139.013 127.27 139.013H120.331C117.845 139.013 115.821 136.985 115.821 134.493V131.016C115.821 129.669 114.737 128.597 113.407 128.597H85.6659C84.3215 128.597 83.2373 129.683 83.2373 131.016V134.493C83.2373 136.985 81.2135 139.013 78.727 139.013H71.7882C69.3018 139.013 67.2779 136.985 67.2779 134.493V122.324C67.2779 118.268 69.7644 114.777 73.2916 113.328C73.494 113.285 73.6675 113.212 73.8554 113.125C74.8384 112.792 75.8937 112.589 76.9923 112.589H122.08C123.179 112.589 124.234 112.778 125.217 113.125C125.391 113.212 125.579 113.285 125.781 113.328C129.308 114.791 131.795 118.268 131.795 122.324V134.493H131.78Z" fill="#E4E6E8"/>
<path fill-rule="evenodd" clip-rule="evenodd" d="M30.1695 54.7301C28.3481 54.7301 26.888 56.2077 26.888 58.0185C26.888 59.8293 28.3625 61.307 30.1695 61.307C31.9765 61.307 33.451 59.8293 33.451 58.0185C33.451 56.2077 31.9765 54.7301 30.1695 54.7301Z" fill="#E4E6E8"/>
<path fill-rule="evenodd" clip-rule="evenodd" d="M30.1695 82.5442C28.3481 82.5442 26.888 84.0218 26.888 85.8326C26.888 87.6434 28.3625 89.1211 30.1695 89.1211C31.9765 89.1211 33.451 87.6434 33.451 85.8326C33.451 84.0218 31.9765 82.5442 30.1695 82.5442Z" fill="#E4E6E8"/>
<path fill-rule="evenodd" clip-rule="evenodd" d="M85.6514 55.5993H50.9716C49.6417 55.5993 48.5575 56.6858 48.5575 58.0185C48.5575 59.3513 49.6417 60.4523 50.9716 60.4523H85.6514C86.9958 60.4523 88.0656 59.3658 88.0656 58.0185C88.0656 56.6713 86.9814 55.5993 85.6514 55.5993Z" fill="#E4E6E8"/>
<path fill-rule="evenodd" clip-rule="evenodd" d="M57.9105 83.4134H50.9716C49.6417 83.4134 48.5575 84.4999 48.5575 85.8326C48.5575 87.1654 49.6417 88.2519 50.9716 88.2519H57.9105C59.2549 88.2519 60.3246 87.1654 60.3246 85.8326C60.3246 84.4999 59.2404 83.4134 57.9105 83.4134Z" fill="#E4E6E8"/>
</svg>
