<svg width="20" height="20" viewBox="0 0 20 20" fill="none" xmlns="http://www.w3.org/2000/svg">
<path fill-rule="evenodd" clip-rule="evenodd" d="M11.6668 11.6667H13.3335C13.7935 11.6667 14.1668 12.0401 14.1668 12.5001V15.8334C14.1668 16.2934 13.7935 16.6667 13.3335 16.6667H11.6668C11.2068 16.6667 10.8335 16.2934 10.8335 15.8334V12.5001C10.8335 12.0401 11.2068 11.6667 11.6668 11.6667Z" stroke="#9A9EA7" stroke-width="1.5" stroke-linecap="round" stroke-linejoin="round"/>
<path d="M17.4998 14.1667H14.1665" stroke="#9A9EA7" stroke-width="1.5" stroke-linecap="round" stroke-linejoin="round"/>
<path d="M10.8333 14.1667H2.5" stroke="#9A9EA7" stroke-width="1.5" stroke-linecap="round" stroke-linejoin="round"/>
<path fill-rule="evenodd" clip-rule="evenodd" d="M8.3335 8.33325H6.66683C6.20683 8.33325 5.8335 7.95992 5.8335 7.49992V4.16659C5.8335 3.70659 6.20683 3.33325 6.66683 3.33325H8.3335C8.7935 3.33325 9.16683 3.70659 9.16683 4.16659V7.49992C9.16683 7.95992 8.7935 8.33325 8.3335 8.33325Z" stroke="#9A9EA7" stroke-width="1.5" stroke-linecap="round" stroke-linejoin="round"/>
<path d="M2.5 5.83317H5.83333" stroke="#9A9EA7" stroke-width="1.5" stroke-linecap="round" stroke-linejoin="round"/>
<path d="M9.1665 5.83317H17.4998" stroke="#9A9EA7" stroke-width="1.5" stroke-linecap="round" stroke-linejoin="round"/>
</svg>
