<svg width="133" height="40" viewBox="0 0 133 40" fill="none" xmlns="http://www.w3.org/2000/svg">
<path d="M127.611 39.7529H5.14285C2.44856 39.7529 0.244141 37.5307 0.244141 34.8147V5.18503C0.244141 2.46898 2.44856 0.246763 5.14285 0.246763H127.611C130.305 0.246763 132.509 2.46898 132.509 5.18503V34.8147C132.509 37.5307 130.305 39.7529 127.611 39.7529Z" fill="black"/>
<path d="M127.611 0.246763H5.14285C2.44856 0.246763 0.244141 2.46898 0.244141 5.18503V34.8147C0.244141 37.5307 2.44856 39.7529 5.14285 39.7529H127.611C130.305 39.7529 132.509 37.5307 132.509 34.8147V5.18503C132.509 2.46898 130.305 0.246763 127.611 0.246763ZM127.611 1.03689C129.88 1.03689 131.726 2.89802 131.726 5.18503V34.8147C131.726 37.1021 129.88 38.9632 127.611 38.9632H5.14285C2.87416 38.9632 1.02793 37.1021 1.02793 34.8147V5.18503C1.02793 2.89802 2.87416 1.03689 5.14285 1.03689H127.611Z" fill="#A6A6A6"/>
<path d="M105.014 29.8765H106.843V17.5296H105.014V29.8765ZM121.481 21.9772L119.385 27.3302H119.323L117.148 21.9772H115.178L118.44 29.459L116.58 33.6207H118.488L123.514 21.9772H121.481ZM111.113 28.4741C110.514 28.4741 109.679 28.1724 109.679 27.4255C109.679 26.4725 110.719 26.1072 111.617 26.1072C112.421 26.1072 112.798 26.2819 113.287 26.5204C113.145 27.6639 112.168 28.4741 111.113 28.4741V28.4741ZM111.334 21.7071C110.01 21.7071 108.639 22.295 108.072 23.5976L109.695 24.2804C110.041 23.5976 110.687 23.3749 111.365 23.3749C112.311 23.3749 113.272 23.9471 113.287 24.9637V25.0906C112.956 24.9 112.248 24.6141 111.381 24.6141C109.632 24.6141 107.851 25.5828 107.851 27.3938C107.851 29.0459 109.285 30.1102 110.892 30.1102C112.121 30.1102 112.798 29.5543 113.225 28.9031H113.287V29.856H115.052V25.1222C115.052 22.9305 113.429 21.7071 111.334 21.7071V21.7071ZM100.035 23.4802H97.4351V19.248H100.035C101.402 19.248 102.178 20.3888 102.178 21.3641C102.178 22.3209 101.402 23.4802 100.035 23.4802ZM99.9883 17.5296H95.6079V29.8765H97.4351V25.1986H99.9883C102.014 25.1986 104.006 23.7198 104.006 21.3641C104.006 19.0084 102.014 17.5296 99.9883 17.5296ZM76.1012 28.4764C74.8382 28.4764 73.7808 27.4104 73.7808 25.9463C73.7808 24.4668 74.8382 23.3846 76.1012 23.3846C77.3481 23.3846 78.3267 24.4668 78.3267 25.9463C78.3267 27.4104 77.3481 28.4764 76.1012 28.4764V28.4764ZM78.2004 22.6686H78.1372C77.727 22.1754 76.9374 21.7299 75.9432 21.7299C73.8597 21.7299 71.95 23.5755 71.95 25.9463C71.95 28.3013 73.8597 30.1311 75.9432 30.1311C76.9374 30.1311 77.727 29.6855 78.1372 29.1766H78.2004V29.7812C78.2004 31.3885 77.3481 32.2476 75.9749 32.2476C74.8543 32.2476 74.1598 31.4359 73.8754 30.7518L72.2814 31.4201C72.7392 32.5339 73.9546 33.9023 75.9749 33.9023C78.1216 33.9023 79.9367 32.6292 79.9367 29.5265V21.9845H78.2004V22.6686ZM81.1993 29.8765H83.0303V17.5292H81.1993V29.8765ZM85.7295 25.8032C85.682 24.1801 86.9764 23.3529 87.9075 23.3529C88.6341 23.3529 89.2494 23.7186 89.4541 24.2442L85.7295 25.8032ZM91.4117 24.4031C91.0648 23.464 90.0067 21.7299 87.8443 21.7299C85.6977 21.7299 83.9143 23.4324 83.9143 25.9305C83.9143 28.2855 85.682 30.1311 88.0495 30.1311C89.9597 30.1311 91.0648 28.9536 91.5224 28.2696L90.1017 27.3147C89.6285 28.0149 88.9809 28.4764 88.0495 28.4764C87.1183 28.4764 86.4555 28.0466 86.0292 27.2036L91.6007 24.8803L91.4117 24.4031ZM47.0213 23.0188V24.8008H51.2513C51.1251 25.8032 50.7936 26.535 50.2885 27.0443C49.6731 27.665 48.7102 28.3491 47.0213 28.3491C44.4169 28.3491 42.3809 26.2329 42.3809 23.6075C42.3809 20.9821 44.4169 18.8657 47.0213 18.8657C48.4262 18.8657 49.4519 19.4227 50.2096 20.1388L51.4565 18.8819C50.3991 17.8633 48.9941 17.0837 47.0213 17.0837C43.454 17.0837 40.4551 20.0115 40.4551 23.6075C40.4551 27.2036 43.454 30.1311 47.0213 30.1311C48.9471 30.1311 50.3991 29.4949 51.5354 28.3013C52.7034 27.1238 53.0666 25.4691 53.0666 24.1327C53.0666 23.7186 53.0352 23.3371 52.9717 23.0188H47.0213ZM57.8758 28.4764C56.6128 28.4764 55.5236 27.4262 55.5236 25.9305C55.5236 24.4189 56.6128 23.3846 57.8758 23.3846C59.1383 23.3846 60.2274 24.4189 60.2274 25.9305C60.2274 27.4262 59.1383 28.4764 57.8758 28.4764V28.4764ZM57.8758 21.7299C55.571 21.7299 53.6927 23.496 53.6927 25.9305C53.6927 28.3491 55.571 30.1311 57.8758 30.1311C60.18 30.1311 62.0584 28.3491 62.0584 25.9305C62.0584 23.496 60.18 21.7299 57.8758 21.7299ZM67.0003 28.4764C65.7378 28.4764 64.6485 27.4262 64.6485 25.9305C64.6485 24.4189 65.7378 23.3846 67.0003 23.3846C68.2629 23.3846 69.3521 24.4189 69.3521 25.9305C69.3521 27.4262 68.2629 28.4764 67.0003 28.4764ZM67.0003 21.7299C64.6957 21.7299 62.8177 23.496 62.8177 25.9305C62.8177 28.3491 64.6957 30.1311 67.0003 30.1311C69.3047 30.1311 71.183 28.3491 71.183 25.9305C71.183 23.496 69.3047 21.7299 67.0003 21.7299Z" fill="white"/>
<path d="M10.5418 32.2363L10.469 32.1661C10.1839 31.862 10.0156 31.3898 10.0156 30.7784V30.9223V9.07929C10.0156 9.07731 10.0156 9.07583 10.0156 9.07425C10.0156 9.07613 10.0156 9.07771 10.0156 9.07968V9.22398C10.0156 8.56186 10.2119 8.06309 10.5407 7.76403L22.6795 20.0006L10.5418 32.2363ZM10.0156 9.07307C10.0156 9.01865 10.0171 8.96581 10.0198 8.91376C10.0171 8.96541 10.0156 9.01865 10.0156 9.07307ZM10.0198 8.91139C10.0198 8.9107 10.0198 8.90991 10.0201 8.90912C10.0198 8.90991 10.0198 8.9107 10.0198 8.91139ZM10.0201 8.90448C10.0201 8.90408 10.0201 8.90369 10.0201 8.90329C10.0201 8.90369 10.0201 8.90408 10.0201 8.90448Z" fill="url(#paint0_linear_8154_119978)"/>
<path d="M26.7234 24.2256L26.8157 24.1727L31.6095 21.427C32.0665 21.165 32.3711 20.8475 32.5231 20.5115C32.3715 20.8475 32.0668 21.1654 31.6095 21.4274L26.8157 24.1731L26.7234 24.2256V24.2256ZM26.7246 24.0809L22.6777 20.0007L26.7242 15.9212L31.6095 18.719C32.2298 19.0744 32.5781 19.5324 32.6363 20.0003C32.6363 20.0007 32.6363 20.0015 32.6363 20.0022C32.5781 20.469 32.2298 20.9274 31.6095 21.2827L26.7246 24.0809" fill="url(#paint1_linear_8154_119978)"/>
<path d="M11.4065 32.7021C11.0675 32.7021 10.7716 32.591 10.5408 32.3812L10.5412 32.3808C10.772 32.5906 11.0682 32.7021 11.4073 32.7021C11.4367 32.7021 11.4666 32.7014 11.4969 32.6999C11.4662 32.7014 11.4359 32.7021 11.4065 32.7021V32.7021ZM11.4069 32.5575C11.0678 32.5579 10.772 32.4463 10.5412 32.2365V32.2362L22.6789 20.0004L26.7257 24.0806L12.5045 32.2261C12.1111 32.451 11.7383 32.5575 11.4069 32.5575V32.5575ZM10.5378 32.3785C10.5163 32.3588 10.4953 32.338 10.4746 32.3164L10.5378 32.3785Z" fill="url(#paint2_linear_8154_119978)"/>
<path d="M22.6779 20.001L10.5391 7.76444C10.7698 7.55495 11.0653 7.44384 11.404 7.44384C11.7362 7.44384 12.1093 7.55071 12.5035 7.77599L26.7243 15.9215L22.6779 20.001V20.001ZM26.8158 15.8293L12.5035 7.63179C12.1093 7.40641 11.7362 7.29955 11.404 7.29955C11.4024 7.29955 11.4013 7.29955 11.3998 7.29955C11.4017 7.29955 11.4032 7.29955 11.4055 7.29955C11.737 7.29955 12.1097 7.40601 12.5035 7.6314L26.8158 15.8293V15.8293Z" fill="url(#paint3_linear_8154_119978)"/>
<path d="M11.4972 32.7002C11.8052 32.6824 12.1463 32.5756 12.5049 32.3707L26.7248 24.2256L12.5049 32.3707C12.1466 32.5759 11.8052 32.6824 11.4972 32.7002V32.7002ZM10.5412 32.3815L10.5381 32.3788C10.5392 32.3796 10.5404 32.3807 10.5412 32.3815ZM10.4749 32.3167L10.4688 32.3106V32.3102C10.4711 32.3124 10.473 32.3147 10.4749 32.3167Z" fill="black"/>
<path d="M26.7246 24.2256L26.8169 24.1727L26.7246 24.2256Z" fill="url(#paint4_linear_8154_119978)"/>
<path d="M11.4076 32.7021C11.0685 32.7021 10.7723 32.5906 10.5415 32.3808L10.5412 32.3812C10.5404 32.3804 10.5392 32.3793 10.5381 32.3785L10.4749 32.3164C10.473 32.3144 10.4711 32.3121 10.4688 32.3099L10.5415 32.2365C10.7723 32.4463 11.0682 32.5579 11.4072 32.5575C11.7386 32.5575 12.1114 32.451 12.5048 32.2261L26.726 24.0806L26.8171 24.1725L26.7248 24.2253L12.5048 32.3704C12.1463 32.5752 11.8052 32.6821 11.4972 32.6999C11.4669 32.7014 11.437 32.7021 11.4076 32.7021" fill="url(#paint5_linear_8154_119978)"/>
<path d="M10.469 32.3105C10.1839 32.0064 10.0156 31.5343 10.0156 30.9228V30.9224C10.0156 31.5343 10.1839 32.0061 10.469 32.3102V32.3105" fill="black"/>
<path d="M10.469 32.3105C10.1839 32.0064 10.0156 31.5346 10.0156 30.9228V30.7789C10.0156 31.3903 10.1839 31.8625 10.469 32.1666L10.5418 32.2369L10.469 32.3105" fill="url(#paint6_linear_8154_119978)"/>
<path d="M10.4688 32.3105L10.5415 32.2369V32.2372L10.4688 32.3105" fill="url(#paint7_linear_8154_119978)"/>
<path d="M32.5234 20.5117C32.5988 20.345 32.6367 20.1737 32.6367 20.0024C32.6367 20.0021 32.6367 20.0017 32.6367 20.0017C32.6367 20.1733 32.5988 20.3446 32.5234 20.5117Z" fill="black"/>
<path d="M26.8157 24.1729L26.7246 24.081L31.6095 21.2828C32.2299 20.9275 32.5782 20.4691 32.6364 20.0023C32.6364 20.1736 32.5985 20.3449 32.5231 20.5116C32.3712 20.8476 32.0666 21.1651 31.6095 21.4271L26.8157 24.1729Z" fill="url(#paint8_linear_8154_119978)"/>
<path d="M32.6374 20.001V20.0006C32.6371 19.4839 32.2945 18.9674 31.6106 18.5754L26.8168 15.8296H26.8164L26.8168 15.8293L31.6106 18.575C32.2953 18.967 32.6382 19.4843 32.6374 20.001Z" fill="#404040"/>
<path d="M32.6368 20C32.5786 19.532 32.2303 19.0741 31.6099 18.7187L26.7246 15.9209L26.8157 15.829H26.8161L31.6099 18.5748C32.2939 18.9668 32.6364 19.4834 32.6368 20Z" fill="url(#paint9_linear_8154_119978)"/>
<path d="M10.0156 9.07422C10.0156 9.07382 10.0156 9.07343 10.0156 9.07303C10.0156 9.07343 10.0156 9.07382 10.0156 9.07422ZM10.0198 8.91372C10.0198 8.91293 10.0198 8.91215 10.0198 8.91136C10.0198 8.91215 10.0198 8.91293 10.0198 8.91372ZM10.0201 8.90908C10.0201 8.9075 10.0201 8.90602 10.0201 8.90444C10.0201 8.90602 10.0201 8.9075 10.0201 8.90908ZM10.0201 8.90326C10.0769 7.88864 10.6241 7.30257 11.3983 7.29911C11.0627 7.30108 10.7703 7.41219 10.5415 7.6201V7.6197L10.5387 7.62247C10.5146 7.64439 10.4917 7.6676 10.469 7.6915C10.2119 7.96577 10.0496 8.37664 10.0201 8.90326Z" fill="#404040"/>
<path d="M10.0156 9.22363V9.07934C10.0156 9.07736 10.0156 9.07578 10.0156 9.07391C10.0156 9.07351 10.0156 9.07312 10.0156 9.07272C10.0156 9.0183 10.0171 8.96507 10.0198 8.91341C10.0198 8.91262 10.0198 8.91183 10.0198 8.91104C10.0198 8.91035 10.0198 8.90956 10.0201 8.90877C10.0201 8.90719 10.0201 8.90571 10.0201 8.90413C10.0201 8.90373 10.0201 8.90334 10.0201 8.90294C10.0496 8.37633 10.2119 7.96546 10.469 7.69119L10.5407 7.76368C10.2119 8.06275 10.0156 8.56151 10.0156 9.22363V9.22363ZM10.5387 7.62215L10.5415 7.61939C10.5407 7.62057 10.5395 7.62136 10.5387 7.62215Z" fill="url(#paint10_linear_8154_119978)"/>
<path d="M26.7256 15.9209L12.5048 7.77542C12.1106 7.55013 11.7375 7.44327 11.4053 7.44327C11.0666 7.44327 10.7711 7.55438 10.5404 7.76386L10.4688 7.69137C10.4914 7.66747 10.5143 7.64426 10.5384 7.62233C10.5392 7.62154 10.5404 7.62075 10.5412 7.61996C10.77 7.41206 11.0624 7.30095 11.398 7.29897C11.3988 7.29897 11.3999 7.29897 11.4011 7.29897C11.4026 7.29897 11.4037 7.29897 11.4053 7.29897C11.7375 7.29897 12.1106 7.40584 12.5048 7.63122L26.8171 15.8287L26.8167 15.829L26.7256 15.9209Z" fill="url(#paint11_linear_8154_119978)"/>
<path d="M42.8602 10.0903C42.8716 11.0278 42.6853 11.7839 42.3025 12.3581H45.2742V7.88814H42.8602V10.0903ZM41.5054 14.3438H40.7832V12.3581H41.358C41.867 11.9159 42.1158 11.1605 42.1055 10.0903V7.16014H46.0301V12.3581H46.6865V14.3438H45.964V13.0861H41.5054V14.3438" fill="white"/>
<path d="M42.8585 10.0902L42.7606 10.0914L42.7613 10.1712C42.7609 11.0582 42.5772 11.7665 42.2193 12.3027L42.1169 12.4567H45.3706V7.78925H42.7606V10.091V10.0914L42.8585 10.0902H42.9565V7.98678H45.1746V12.2592H42.3009V12.3579L42.3821 12.4128C42.7674 11.8348 42.9573 11.0848 42.9573 10.1712L42.9565 10.089L42.8585 10.0902H42.9565H42.8585ZM41.5037 14.3436V14.2449H40.8795V12.4567H41.3564H41.3927L41.4203 12.4328C41.9499 11.9722 42.2022 11.2048 42.2022 10.155L42.2018 10.0894V10.0902V7.25878H45.9305V12.4567H46.5869V14.2449H46.0603V13.0859V12.9872H41.4058V14.3436H41.5037V14.2449V14.3436H41.6017V13.1847H45.8644V14.3436V14.4424H46.6849H46.7829V12.2592H46.1265V7.06125H42.0059V10.0906V10.091L42.0062 10.155C42.0059 11.177 41.7601 11.878 41.2924 12.2827L41.3564 12.3579V12.2592H40.7816H40.6836V14.4424H41.5037H41.6017V14.3436H41.5037" fill="white"/>
<path d="M48.8241 11.8245C49.2595 12.2685 49.7916 12.4904 50.4211 12.4904C51.0506 12.4904 51.5834 12.2685 52.0177 11.8245C52.4533 11.3804 52.6714 10.8128 52.6714 10.1234C52.6714 9.43406 52.4533 8.86645 52.0177 8.4224C51.5834 7.97836 51.0506 7.75653 50.4211 7.75653C49.7916 7.75653 49.2595 7.97836 48.8241 8.4224C48.3896 8.86645 48.1715 9.43406 48.1715 10.1234C48.1715 10.8128 48.3896 11.3804 48.8241 11.8245ZM52.5766 12.3206C51.9986 12.9197 51.2803 13.2188 50.4211 13.2188C49.5619 13.2188 48.8432 12.9197 48.2664 12.3206C47.6885 11.7222 47.4004 10.9896 47.4004 10.1234C47.4004 9.25727 47.6885 8.52463 48.2664 7.9263C48.8432 7.32709 49.5619 7.02774 50.4211 7.02774C51.2753 7.02774 51.9921 7.32868 52.5726 7.93016C53.1525 8.53164 53.4426 9.2627 53.4426 10.1234C53.4426 10.9896 53.1536 11.7222 52.5766 12.3206Z" fill="white"/>
<path d="M48.8244 11.8243L48.7547 11.8938C49.2059 12.3556 49.7688 12.5902 50.4215 12.589C51.0736 12.5902 51.6377 12.3556 52.0877 11.8938C52.542 11.4316 52.7705 10.8335 52.7697 10.1233C52.7705 9.41309 52.542 8.81506 52.0877 8.35284C51.6377 7.89101 51.0736 7.65644 50.4215 7.65763C49.7688 7.65644 49.2059 7.89101 48.7547 8.35284C48.3016 8.81506 48.0731 9.41309 48.0739 10.1233C48.0731 10.8335 48.3016 11.4316 48.7547 11.8938L48.8244 11.8243L48.8944 11.7549C48.4787 11.3285 48.2709 10.7922 48.2698 10.1233C48.2709 9.45437 48.4787 8.91807 48.8944 8.4917H48.894C49.3135 8.06543 49.8144 7.85635 50.4215 7.85516C51.028 7.85635 51.5301 8.06543 51.9484 8.4917L51.9499 8.49328L51.9484 8.4917C52.3652 8.91807 52.5727 9.45437 52.5738 10.1233C52.5727 10.7922 52.3652 11.3285 51.9484 11.7549C51.5301 12.1812 51.028 12.3903 50.4215 12.3915C49.8144 12.3903 49.3135 12.1812 48.894 11.7549L48.8244 11.8243ZM52.5769 12.3204L52.5068 12.2518C51.9453 12.832 51.2581 13.1187 50.4215 13.1199C49.5845 13.1187 48.8975 12.832 48.3368 12.2518C47.7764 11.6696 47.4998 10.9675 47.4987 10.1233C47.4998 9.27916 47.7764 8.57704 48.3368 7.99481C48.8975 7.41457 49.5845 7.12756 50.4215 7.12637C51.2531 7.12756 51.9385 7.41575 52.503 7.99906C53.0656 8.58395 53.3438 9.28499 53.3449 10.1233C53.3438 10.9675 53.0664 11.6696 52.5068 12.2518L52.5769 12.3204L52.6472 12.3891C53.2412 11.7742 53.5416 11.0114 53.5409 10.1233C53.5416 9.24025 53.2405 8.47906 52.6434 7.86138C52.0464 7.24133 51.2986 6.92775 50.4215 6.92884C49.5397 6.92775 48.7895 7.23985 48.1964 7.85753V7.85713C47.6012 8.47244 47.302 9.23521 47.3027 10.1233C47.302 11.0114 47.6012 11.7742 48.1964 12.3895V12.3891C48.7895 13.0068 49.5397 13.3182 50.4215 13.3174C51.3028 13.3182 52.0529 13.0068 52.6472 12.3891L52.5769 12.3204Z" fill="white"/>
<path d="M57.2455 13.2188C56.3805 13.2188 55.6553 12.9236 55.0697 12.3329C54.4831 11.7427 54.1914 11.0061 54.1914 10.1234C54.1914 9.24068 54.4831 8.50418 55.0697 7.91396C55.6553 7.32324 56.3805 7.02774 57.2455 7.02774C58.1314 7.02774 58.8518 7.3507 59.4047 7.99613L58.8785 8.50961C58.4797 8.00729 57.9343 7.75653 57.2455 7.75653C56.6044 7.75653 56.0636 7.9745 55.6235 8.41045C55.1826 8.8464 54.9626 9.41747 54.9626 10.1234C54.9626 10.8294 55.1826 11.4009 55.6235 11.8364C56.0636 12.2724 56.6044 12.4904 57.2455 12.4904C57.9516 12.4904 58.5532 12.2036 59.0518 11.63L59.577 12.1593C59.3083 12.4849 58.9723 12.743 58.5665 12.9328C58.162 13.1234 57.7208 13.2188 57.2455 13.2188" fill="white"/>
<path d="M57.2458 13.2186V13.1199C56.4027 13.1187 55.7081 12.8351 55.1393 12.263C54.571 11.69 54.2905 10.984 54.2897 10.1233C54.2905 9.26257 54.571 8.55659 55.1393 7.98365C55.7081 7.41111 56.4027 7.12756 57.2458 7.12637C58.1084 7.12795 58.7943 7.4358 59.3308 8.0604L59.405 7.996L59.3369 7.92499L58.8107 8.43886L58.8788 8.50948L58.9553 8.44775C58.5397 7.92232 57.9577 7.65615 57.2458 7.65763C56.5825 7.65684 56.0119 7.88647 55.5553 8.3397C55.0942 8.79462 54.8637 9.39718 54.8649 10.1233C54.8637 10.8494 55.0942 11.4528 55.5553 11.9069C56.0119 12.3601 56.5825 12.5898 57.2458 12.589C57.9786 12.5902 58.6136 12.2869 59.1256 11.6951L59.0521 11.6299L58.9829 11.6997L59.508 12.229L59.5773 12.1592L59.5018 12.0963C59.2424 12.4103 58.9194 12.6588 58.5255 12.8432C58.134 13.0276 57.7085 13.1195 57.2458 13.1199V13.2186V13.3174C57.7341 13.3174 58.1903 13.2194 58.6082 13.0223C59.0262 12.827 59.3745 12.5597 59.6526 12.2225L59.7096 12.1534L59.1215 11.56L59.0472 11.4852L58.9784 11.5647C58.4938 12.1206 57.9251 12.3903 57.2458 12.3915C56.6266 12.3903 56.1164 12.1842 55.6927 11.7657H55.6924C55.2714 11.349 55.0616 10.8092 55.0609 10.1233C55.0616 9.43738 55.2714 8.89842 55.6924 8.48094H55.6927C56.1164 8.06237 56.6266 7.85635 57.2458 7.85516C57.9113 7.85674 58.4199 8.0921 58.8023 8.57121L58.8696 8.65615L59.4731 8.06701L59.5397 8.00212L59.4793 7.9316C58.9102 7.26494 58.1551 6.92775 57.2458 6.92884C56.3586 6.92805 55.6028 7.2356 55.0008 7.844C54.3957 8.45121 54.0926 9.21901 54.0938 10.1233C54.0926 11.0276 54.3957 11.7954 55.0008 12.403C55.6028 13.011 56.3586 13.3182 57.2458 13.3174V13.2186" fill="white"/>
<path d="M62.632 13.0859H61.8762V7.88801H60.2344V7.16001H64.2738V7.88801H62.632V13.0859Z" fill="white"/>
<path d="M62.6323 13.0858V12.987H61.9745V7.78911H60.3327V7.25864H64.1762V7.78911H62.5343V13.0858H62.6323V12.987V13.0858H62.7303V7.98664H64.3721V7.15988V7.06111H60.1367V7.88788V7.98664H61.7786V13.1846H62.6323H62.7303V13.0858H62.6323" fill="white"/>
<path d="M69.4603 7.16048L67.236 12.1593C66.9287 12.8658 66.4729 13.2188 65.8651 13.2188C65.6845 13.2188 65.49 13.1748 65.2815 13.0864L65.4785 12.3827C65.6048 12.4548 65.7361 12.4904 65.8728 12.4904C66.0481 12.4904 66.1839 12.456 66.2796 12.3873C66.3753 12.3183 66.4641 12.1921 66.5464 12.0104L66.7598 11.5382L64.7812 7.16048H65.668L67.1212 10.5621H67.1537L68.5731 7.16048H69.4603" fill="white"/>
<path d="M69.4603 7.16033L69.3708 7.11983L67.1465 12.119L67.1461 12.1198C66.8437 12.8046 66.4308 13.1164 65.8651 13.1198C65.7002 13.1198 65.5187 13.0797 65.3193 12.9952L65.2815 13.0863L65.376 13.1132L65.5727 12.4095L65.4785 12.3826L65.4307 12.4686C65.57 12.5481 65.7189 12.5894 65.8728 12.589C66.0599 12.589 66.2168 12.5531 66.3366 12.4674C66.4545 12.3814 66.549 12.2413 66.6355 12.0515L66.8491 11.5793L66.8674 11.538L64.9336 7.25909H65.6038L67.0565 10.6607H67.1537H67.2188L68.6382 7.25909H69.4603V7.16033L69.3708 7.11983L69.4603 7.16033V7.06156H68.5731H68.5081L67.063 10.5238L67.1537 10.5619V10.4631H67.1212V10.5619L67.2111 10.523L65.7327 7.06156H64.7813H64.6289L66.652 11.538L66.4572 11.9693C66.3795 12.1426 66.296 12.2545 66.2226 12.3065C66.151 12.3587 66.0358 12.3918 65.8728 12.3914C65.753 12.3914 65.6401 12.3609 65.5267 12.2965L65.4181 12.2348L65.1874 13.0593L65.1636 13.1433L65.2436 13.1773C65.4613 13.2695 65.6684 13.3174 65.8651 13.3174C66.5145 13.3204 67.0136 12.9262 67.3256 12.1989L67.3252 12.1996L69.6115 7.06156H69.4603V7.16033" fill="white"/>
<path d="M70.3145 13.0859V7.16001H74.5675V13.0859H73.8117V7.88801H71.0691V13.0859H70.3145Z" fill="white"/>
<path d="M70.3148 13.0858H70.4127V7.25864H74.4696V12.987H73.91V7.78911H70.9715V12.987H70.3148V13.0858H70.4127H70.3148V13.1846H71.0695H71.1674V7.98664H73.7141V13.1846H74.5678H74.6658V7.06111H70.2168V13.1846H70.3148V13.0858" fill="white"/>
<path d="M75.9141 13.0859V7.16001H76.6692V9.70055H79.6084V7.16001H80.3642V13.0859H79.6084V10.4124H76.6692V13.0859H75.9141Z" fill="white"/>
<path d="M75.9144 13.0858H76.0124V7.25864H76.5715V9.79919H79.7067V7.25864H80.2666V12.987H79.7067V10.3135H76.5715V12.987H75.9144V13.0858H76.0124H75.9144V13.1846H76.6695H76.7674V10.511H79.5107V13.1846H80.3646H80.4625V7.06111H79.6087H79.5107V9.60166H76.7674V7.06111H75.9144H75.8164V13.1846H75.9144V13.0858Z" fill="white"/>
<path d="M82.7655 11.8245C83.2011 12.2685 83.733 12.4904 84.3625 12.4904C84.9921 12.4904 85.5249 12.2685 85.9592 11.8245C86.3947 11.3804 86.6129 10.8128 86.6129 10.1234C86.6129 9.43406 86.3947 8.86645 85.9592 8.4224C85.5249 7.97836 84.9921 7.75653 84.3625 7.75653C83.733 7.75653 83.2011 7.97836 82.7655 8.4224C82.3315 8.86645 82.1129 9.43406 82.1129 10.1234C82.1129 10.8128 82.3315 11.3804 82.7655 11.8245ZM86.518 12.3206C85.9405 12.9197 85.2218 13.2188 84.3625 13.2188C83.5034 13.2188 82.7851 12.9197 82.2079 12.3206C81.63 11.7222 81.3418 10.9896 81.3418 10.1234C81.3418 9.25727 81.63 8.52463 82.2079 7.9263C82.7851 7.32709 83.5034 7.02774 84.3625 7.02774C85.2172 7.02774 85.9336 7.32868 86.5141 7.93016C87.094 8.53164 87.3841 9.2627 87.3841 10.1234C87.3841 10.9896 87.0951 11.7222 86.518 12.3206Z" fill="white"/>
<path d="M82.7658 11.8243L82.6962 11.8938C83.1478 12.3556 83.7103 12.5902 84.3629 12.589C85.0154 12.5902 85.5791 12.3556 86.0296 11.8938C86.4835 11.4316 86.712 10.8335 86.7112 10.1233C86.712 9.41309 86.4835 8.81506 86.0296 8.35284C85.5791 7.89101 85.0154 7.65644 84.3629 7.65763C83.7103 7.65644 83.1478 7.89101 82.6962 8.35284C82.2431 8.81506 82.0145 9.41309 82.0153 10.1233C82.0145 10.8335 82.2431 11.4316 82.6962 11.8938L82.7658 11.8243L82.8358 11.7549C82.4202 11.3285 82.2124 10.7922 82.2112 10.1233C82.2124 9.45437 82.4202 8.91807 82.8358 8.4917C83.255 8.06543 83.7563 7.85635 84.3629 7.85516C84.9695 7.85635 85.4716 8.06543 85.8899 8.4917L85.8929 8.49486L85.8899 8.4917C86.3067 8.91807 86.5145 9.45437 86.5153 10.1233C86.5145 10.7922 86.3067 11.3285 85.8899 11.7549C85.4716 12.1812 84.9695 12.3903 84.3629 12.3915C83.7563 12.3903 83.255 12.1812 82.8358 11.7549L82.7658 11.8243ZM86.5183 12.3204L86.4482 12.2518C85.8868 12.832 85.1995 13.1187 84.3629 13.1199C83.5263 13.1187 82.839 12.832 82.2787 12.2518L82.2756 12.2487L82.2787 12.2518C81.7179 11.6696 81.4413 10.9675 81.4401 10.1233C81.4413 9.27916 81.7179 8.57704 82.2787 7.99481C82.839 7.41457 83.5263 7.12756 84.3629 7.12637C85.1946 7.12756 85.88 7.41575 86.4444 7.99906C87.0071 8.58395 87.2856 9.28499 87.2864 10.1233C87.2856 10.9675 87.0078 11.6696 86.4482 12.2518L86.5183 12.3204L86.5887 12.3891C87.183 11.7742 87.4831 11.0114 87.4824 10.1233C87.4831 9.24025 87.182 8.47906 86.5849 7.86138C85.9879 7.24133 85.24 6.92775 84.3629 6.92884C83.4811 6.92775 82.7314 7.23985 82.1378 7.85753V7.85713C81.5427 8.47244 81.2434 9.23521 81.2441 10.1233C81.2434 11.0114 81.5427 11.7742 82.1378 12.3895V12.3891C82.7314 13.0068 83.4811 13.3182 84.3629 13.3174C85.2446 13.3182 85.9944 13.0068 86.5887 12.3891L86.5183 12.3204" fill="white"/>
<path d="M91.2271 12.3579H92.7466C93.0366 12.3579 93.2718 12.2557 93.453 12.0509C93.6333 11.8475 93.7234 11.6237 93.7234 11.3807C93.7234 11.138 93.6304 10.9162 93.4442 10.7148C93.259 10.5134 93.0141 10.4124 92.7133 10.4124H91.2271V12.3579ZM91.2271 9.70055H92.5987C92.8838 9.70055 93.1121 9.60604 93.2845 9.41502C93.4569 9.2248 93.5432 9.0169 93.5432 8.79043C93.5432 8.56436 93.4599 8.35675 93.2923 8.17008C93.1258 7.98213 92.9053 7.88801 92.632 7.88801H91.2271V9.70055ZM90.4727 13.0859V7.16001H92.5987C93.0582 7.16001 93.4569 7.31359 93.793 7.61907C94.13 7.92584 94.2985 8.31043 94.2985 8.77384C94.2985 9.05502 94.226 9.30352 94.0801 9.51883C93.936 9.73404 93.743 9.8969 93.502 10.0072V10.04C93.791 10.1392 94.0301 10.3104 94.2162 10.5531C94.4014 10.7962 94.4955 11.0778 94.4955 11.3976C94.4955 11.883 94.3191 12.2857 93.9654 12.6056C93.6127 12.9258 93.1954 13.0859 92.7133 13.0859H90.4727" fill="white"/>
<path d="M91.2274 12.3578V12.4566H92.747C93.0595 12.4578 93.3289 12.342 93.5258 12.1166C93.7198 11.8994 93.8227 11.6487 93.8217 11.3805C93.8227 11.1121 93.7159 10.8624 93.516 10.6472C93.3132 10.4253 93.036 10.3123 92.7136 10.3135H91.1294V12.4566H91.2274V12.3578H91.3253V10.511H92.7136C92.9938 10.5121 93.2045 10.6017 93.373 10.7818C93.5454 10.97 93.6248 11.1641 93.6258 11.3805C93.6248 11.5985 93.5474 11.7953 93.3799 11.9851C93.2162 12.1688 93.0144 12.2575 92.747 12.259H91.2274V12.3578H91.3253H91.2274ZM91.2274 9.70042V9.79918H92.599C92.9047 9.80027 93.1673 9.6938 93.3573 9.48126V9.48165C93.5425 9.2779 93.6415 9.04254 93.6415 8.7903C93.6415 8.53953 93.5464 8.30496 93.3652 8.10358V8.10397C93.1819 7.89479 92.9272 7.78793 92.6323 7.78911H91.1294V9.79918H91.2274V9.70042H91.3253V7.98664H92.6323C92.8841 7.98822 93.0703 8.06921 93.2192 8.23553L93.2202 8.23622L93.2192 8.23592C93.373 8.40876 93.4445 8.58931 93.4455 8.7903C93.4445 8.99049 93.371 9.17183 93.2123 9.34812V9.34852C93.0575 9.5179 92.8626 9.60047 92.599 9.60165H91.2274V9.70042H91.3253H91.2274ZM90.473 13.0858H90.5709V7.25864H92.599C93.037 7.25943 93.4073 7.40215 93.7277 7.69232C94.0461 7.98318 94.1999 8.33469 94.2009 8.7737C94.2009 9.038 94.1333 9.26447 94 9.46309C93.8648 9.66378 93.6875 9.81341 93.4612 9.91721L93.4044 9.94348V10.0399V10.1105L93.47 10.1332C93.7433 10.2274 93.9638 10.3856 94.1392 10.6136L94.1401 10.6147L94.1392 10.6132C94.3116 10.8401 94.3978 11.097 94.3978 11.3975C94.3968 11.8589 94.2342 12.2281 93.9001 12.5322C93.5631 12.8366 93.1741 12.9862 92.7136 12.987H90.473V13.0858H90.5709H90.473V13.1846H92.7136C93.2172 13.1854 93.662 13.0148 94.0314 12.6788C94.4037 12.3435 94.5947 11.9071 94.5938 11.3975C94.5947 11.0584 94.4928 10.7521 94.294 10.4928L94.293 10.4916L94.294 10.4924C94.097 10.2355 93.8403 10.051 93.5337 9.94654L93.5023 10.0399H93.6003V10.0071H93.5023L93.5425 10.097C93.7982 9.98012 94.0079 9.80452 94.1617 9.5738V9.5742C94.3184 9.3424 94.3968 9.07188 94.3968 8.7737C94.3978 8.28639 94.2156 7.86822 93.859 7.54565L93.857 7.54378L93.859 7.54565C93.5062 7.22427 93.0801 7.06032 92.599 7.06111H90.375V13.1846H90.473V13.0858" fill="white"/>
<defs>
<linearGradient id="paint0_linear_8154_119978" x1="21.6031" y1="8.84887" x2="5.02836" y2="25.2909" gradientUnits="userSpaceOnUse">
<stop stop-color="#00A0FF"/>
<stop offset="0.00657445" stop-color="#00A1FF"/>
<stop offset="0.2601" stop-color="#00BEFF"/>
<stop offset="0.5122" stop-color="#00D2FF"/>
<stop offset="0.7604" stop-color="#00DFFF"/>
<stop offset="1" stop-color="#00E3FF"/>
</linearGradient>
<linearGradient id="paint1_linear_8154_119978" x1="33.3922" y1="20.0013" x2="9.68537" y2="20.0013" gradientUnits="userSpaceOnUse">
<stop stop-color="#FFE000"/>
<stop offset="0.4087" stop-color="#FFBD00"/>
<stop offset="0.7754" stop-color="#FFA500"/>
<stop offset="1" stop-color="#FF9C00"/>
</linearGradient>
<linearGradient id="paint2_linear_8154_119978" x1="24.5684" y1="22.2674" x2="2.0918" y2="44.5639" gradientUnits="userSpaceOnUse">
<stop stop-color="#FF3A44"/>
<stop offset="1" stop-color="#C31162"/>
</linearGradient>
<linearGradient id="paint3_linear_8154_119978" x1="7.39282" y1="0.421128" x2="17.4295" y2="10.3774" gradientUnits="userSpaceOnUse">
<stop stop-color="#32A071"/>
<stop offset="0.0685" stop-color="#2DA771"/>
<stop offset="0.4762" stop-color="#15CF74"/>
<stop offset="0.8009" stop-color="#06E775"/>
<stop offset="1" stop-color="#00F076"/>
</linearGradient>
<linearGradient id="paint4_linear_8154_119978" x1="33.3935" y1="20.0015" x2="9.6864" y2="20.0015" gradientUnits="userSpaceOnUse">
<stop stop-color="#CCB300"/>
<stop offset="0.4087" stop-color="#CC9700"/>
<stop offset="0.7754" stop-color="#CC8400"/>
<stop offset="1" stop-color="#CC7D00"/>
</linearGradient>
<linearGradient id="paint5_linear_8154_119978" x1="24.5687" y1="22.2674" x2="2.09212" y2="44.5639" gradientUnits="userSpaceOnUse">
<stop stop-color="#CC2E36"/>
<stop offset="1" stop-color="#9C0E4E"/>
</linearGradient>
<linearGradient id="paint6_linear_8154_119978" x1="21.6031" y1="8.84935" x2="5.02832" y2="25.2913" gradientUnits="userSpaceOnUse">
<stop stop-color="#008DE0"/>
<stop offset="0.00657445" stop-color="#008DE0"/>
<stop offset="0.2601" stop-color="#00A7E0"/>
<stop offset="0.5122" stop-color="#00B8E0"/>
<stop offset="0.7604" stop-color="#00C4E0"/>
<stop offset="1" stop-color="#00C7E0"/>
</linearGradient>
<linearGradient id="paint7_linear_8154_119978" x1="24.5693" y1="22.2678" x2="2.0921" y2="44.5653" gradientUnits="userSpaceOnUse">
<stop stop-color="#E0333C"/>
<stop offset="1" stop-color="#AB0F56"/>
</linearGradient>
<linearGradient id="paint8_linear_8154_119978" x1="33.3922" y1="20.0014" x2="9.68543" y2="20.0014" gradientUnits="userSpaceOnUse">
<stop stop-color="#E0C500"/>
<stop offset="0.4087" stop-color="#E0A600"/>
<stop offset="0.7754" stop-color="#E09100"/>
<stop offset="1" stop-color="#E08900"/>
</linearGradient>
<linearGradient id="paint9_linear_8154_119978" x1="33.3926" y1="20.001" x2="9.68582" y2="20.001" gradientUnits="userSpaceOnUse">
<stop stop-color="#FFE840"/>
<stop offset="0.4087" stop-color="#FFCE40"/>
<stop offset="0.7754" stop-color="#FFBC40"/>
<stop offset="1" stop-color="#FFB540"/>
</linearGradient>
<linearGradient id="paint10_linear_8154_119978" x1="21.6031" y1="8.84852" x2="5.02836" y2="25.2905" gradientUnits="userSpaceOnUse">
<stop stop-color="#40B8FF"/>
<stop offset="0.00657445" stop-color="#40B9FF"/>
<stop offset="0.2601" stop-color="#40CEFF"/>
<stop offset="0.5122" stop-color="#40DDFF"/>
<stop offset="0.7604" stop-color="#40E7FF"/>
<stop offset="1" stop-color="#40EAFF"/>
</linearGradient>
<linearGradient id="paint11_linear_8154_119978" x1="7.39412" y1="0.420553" x2="17.4308" y2="10.3769" gradientUnits="userSpaceOnUse">
<stop stop-color="#65B895"/>
<stop offset="0.0685" stop-color="#62BD95"/>
<stop offset="0.4762" stop-color="#50DB97"/>
<stop offset="0.8009" stop-color="#44ED98"/>
<stop offset="1" stop-color="#40F498"/>
</linearGradient>
</defs>
</svg>
