<svg width="25" height="26" viewBox="0 0 25 26" fill="none" xmlns="http://www.w3.org/2000/svg">
<path d="M8.92285 18.251C9.59604 19.0926 10.2804 20.1472 10.6395 20.7867C11.077 21.6169 11.2566 22.1779 11.5819 23.1765C11.7727 23.7263 11.9522 23.8945 12.3337 23.8945C12.7488 23.8945 12.9396 23.614 13.0854 23.1765C13.3883 22.234 13.624 21.516 13.9942 20.8316C14.7235 19.5189 15.6435 18.352 16.5411 17.23C16.7879 16.9159 18.3587 15.0646 19.0655 13.5949C19.0655 13.5949 19.9294 11.9904 19.9294 9.7465C19.9294 7.64833 19.0767 6.18979 19.0767 6.18979L16.6084 6.85181L15.1049 10.8011L14.7347 11.3397L14.6562 11.4406L14.5551 11.564L14.3869 11.766L14.14 12.0129L12.8049 13.1011L9.47262 15.0309L8.92285 18.251Z" fill="#3EB758"/>
<path d="M5.47852 13.3256C6.29756 15.1881 7.85711 16.8148 8.92299 18.251L14.5665 11.564C14.5665 11.564 13.7699 12.6074 12.3338 12.6074C10.7294 12.6074 9.42786 11.3285 9.42786 9.71275C9.42786 8.60201 10.0898 7.83908 10.0898 7.83908L6.2639 8.8601L5.47852 13.3256Z" fill="#F9B418"/>
<path d="M14.6338 2.45361C16.5076 3.05951 18.112 4.32728 19.0769 6.20094L14.5665 11.5752C14.5665 11.5752 15.2285 10.8011 15.2285 9.70153C15.2285 8.05222 13.8373 6.80684 12.3338 6.80684C10.9089 6.80684 10.0898 7.83906 10.0898 7.83906V4.45073L14.6338 2.45361Z" fill="#5277C4"/>
<path d="M6.51074 4.82097C7.63272 3.48588 9.59617 2.10586 12.3113 2.10586C13.6241 2.10586 14.6226 2.45366 14.6226 2.45366L10.0898 7.83911H6.88098L6.51074 4.82097Z" fill="#406BBD"/>
<path d="M5.47829 13.3257C5.47829 13.3257 4.73779 11.8558 4.73779 9.73539C4.73779 7.72693 5.52317 5.97671 6.52173 4.83224L10.1008 7.85038L5.47829 13.3257Z" fill="#F0393A"/>
</svg>
