<svg width="80" height="56" viewBox="0 0 80 56" fill="none" xmlns="http://www.w3.org/2000/svg">
<g clip-path="url(#clip0_7887_138534)">
<path d="M48.2456 13.3545H31.7109V42.7735H48.2456V13.3545Z" fill="#FF5F00"/>
<path d="M32.7613 28.0641C32.7587 25.2309 33.4071 22.4341 34.6576 19.8857C35.908 17.3372 37.7276 15.1039 39.9787 13.3546C37.1911 11.1852 33.8432 9.83599 30.3177 9.46135C26.7922 9.0867 23.2314 9.70167 20.0422 11.236C16.853 12.7703 14.1642 15.1621 12.283 18.1379C10.4019 21.1137 9.4043 24.5535 9.4043 28.0641C9.4043 31.5748 10.4019 35.0146 12.283 37.9904C14.1642 40.9662 16.853 43.358 20.0422 44.8923C23.2314 46.4266 26.7922 47.0416 30.3177 46.6669C33.8432 46.2923 37.1911 44.9431 39.9787 42.7737C37.7277 41.0244 35.908 38.791 34.6576 36.2426C33.4072 33.6941 32.7587 30.8974 32.7613 28.0641Z" fill="#EB001B"/>
<path d="M70.552 28.0641C70.5522 31.5747 69.5547 35.0145 67.6736 37.9903C65.7926 40.9661 63.1038 43.3579 59.9147 44.8922C56.7256 46.4266 53.1648 47.0416 49.6394 46.6669C46.114 46.2923 42.7661 44.9431 39.9785 42.7736C42.2276 41.0226 44.0458 38.7889 45.2961 36.2408C46.5463 33.6928 47.1959 30.8969 47.1959 28.0641C47.1959 25.2313 46.5463 22.4355 45.2961 19.8874C44.0458 17.3394 42.2276 15.1056 39.9785 13.3546C42.7661 11.1851 46.114 9.83599 49.6394 9.46134C53.1648 9.0867 56.7256 9.7017 59.9147 11.236C63.1038 12.7704 65.7926 15.1621 67.6736 18.138C69.5547 21.1138 70.5522 24.5536 70.552 28.0641Z" fill="#F79E1B"/>
<path d="M68.7485 39.6569V39.0546H68.9938V38.9319H68.3691V39.0546H68.6145V39.6569H68.7485ZM69.9613 39.6569V38.9307H69.7699L69.5496 39.4302L69.3293 38.9307H69.1377V39.6569H69.2729V39.1091L69.4795 39.5814H69.6197L69.8262 39.1079V39.6569H69.9613Z" fill="#F79E1B"/>
</g>
<defs>
<clipPath id="clip0_7887_138534">
<rect width="80" height="56" fill="white"/>
</clipPath>
</defs>
</svg>
