<svg width="80" height="56" viewBox="0 0 80 56" fill="none" xmlns="http://www.w3.org/2000/svg">
<g clip-path="url(#clip0_7887_138544)">
<path fill-rule="evenodd" clip-rule="evenodd" d="M25.9117 19.3496V19.3572C25.9042 19.3572 23.5248 19.3496 22.8904 21.6248C22.3088 23.7111 20.6697 29.4709 20.6243 29.6296H20.1711C20.1711 29.6296 18.4943 23.7413 17.9051 21.6173C17.2706 19.3421 14.8838 19.3496 14.8838 19.3496H9.44531V36.6594H14.8838V26.3793H15.1104H15.337L18.5094 36.6594H22.2861L25.4585 26.3869H25.9117V36.6594H31.3502V19.3496H25.9117Z" fill="#4DB45E"/>
<path fill-rule="evenodd" clip-rule="evenodd" d="M45.7768 19.3496C45.7768 19.3496 44.1831 19.4932 43.4353 21.1637L39.5831 29.6296H39.1299V19.3496H33.6914V36.6594H38.8277C38.8277 36.6594 40.497 36.5082 41.2448 34.8453L45.0215 26.3793H45.4747V36.6594H50.9132V19.3496H45.7768Z" fill="#4DB45E"/>
<path fill-rule="evenodd" clip-rule="evenodd" d="M53.3301 27.2109V36.6595H58.7685V31.1415H64.6602C67.2283 31.1415 69.4037 29.5013 70.2119 27.2109H53.3301Z" fill="#4DB45E"/>
<path fill-rule="evenodd" clip-rule="evenodd" d="M64.6613 19.3496H52.5684C53.1726 22.6453 55.6426 25.2909 58.8377 26.1526C59.5628 26.3491 60.3257 26.4549 61.1113 26.4549H70.4321C70.5152 26.0619 70.553 25.6612 70.553 25.2455C70.553 21.9876 67.9169 19.3496 64.6613 19.3496Z" fill="url(#paint0_linear_7887_138544)"/>
</g>
<defs>
<linearGradient id="paint0_linear_7887_138544" x1="52.5698" y1="22.9023" x2="70.553" y2="22.9023" gradientUnits="userSpaceOnUse">
<stop offset="0.3" stop-color="#00B4E6"/>
<stop offset="1" stop-color="#088CCB"/>
</linearGradient>
<clipPath id="clip0_7887_138544">
<rect width="61.107" height="17.3098" fill="white" transform="translate(9.44531 19.3496)"/>
</clipPath>
</defs>
</svg>
