<svg width="42" height="42" viewBox="0 0 42 42" fill="none" xmlns="http://www.w3.org/2000/svg">
<path d="M7.03904e-06 20.16C7.03904e-06 10.6554 7.05359e-06 5.9052 2.94 2.94C5.88 -0.0251929 10.6428 7.03904e-06 20.16 7.03904e-06H21.84C31.3447 7.03904e-06 36.0949 7.05359e-06 39.06 2.94C42.0251 5.88 42 10.6428 42 20.16V21.84C42 31.3447 42 36.0949 39.06 39.06C36.12 42.0251 31.3571 42 21.84 42H20.16C10.6554 42 5.9052 42 2.94 39.06C-0.0251929 36.12 7.03904e-06 31.3571 7.03904e-06 21.84V20.16Z" fill="#E4E6E8"/>
<path d="M21.0405 21.4141C24.5439 21.4141 27.3999 18.5581 27.3999 15.0547C27.3999 11.5513 24.5439 8.69531 21.0405 8.69531C17.4991 8.69531 14.6431 11.5513 14.6431 15.0547C14.6431 18.5581 17.4991 21.4141 21.0405 21.4141ZM21.0405 12.4272C22.4876 12.4272 23.6681 13.6076 23.6681 15.0547C23.6681 16.5017 22.4876 17.6822 21.0405 17.6822C19.5935 17.6822 18.413 16.5017 18.413 15.0547C18.3749 13.6076 19.5554 12.4272 21.0405 12.4272Z" fill="white"/>
<path d="M23.5921 26.6312C24.8868 26.3265 26.1435 25.8314 27.2857 25.1079C28.1617 24.5748 28.4282 23.3943 27.8571 22.5185C27.324 21.6426 26.1435 21.3761 25.2676 21.9473C22.6781 23.5847 19.289 23.5847 16.6996 21.9473C15.8237 21.4141 14.6813 21.6426 14.1101 22.5185C13.6151 23.3943 13.8816 24.5367 14.7575 25.0698C15.8999 25.7934 17.1565 26.2884 18.4513 26.5931L14.9098 30.1346C14.1863 30.8581 14.1863 32.0386 14.9098 32.7621C15.2906 33.1428 15.7476 33.2952 16.2426 33.2952C16.7377 33.2952 17.1946 33.1047 17.5754 32.7621L21.0788 29.2587L24.5822 32.7621C25.3057 33.4856 26.4861 33.4856 27.2097 32.7621C27.9332 32.0386 27.9332 30.8581 27.2097 30.1346L23.5921 26.6312Z" fill="white"/>
</svg>
