<svg width="25" height="25" viewBox="0 0 25 25" fill="none" xmlns="http://www.w3.org/2000/svg">
<path fill-rule="evenodd" clip-rule="evenodd" d="M5.62695 10.545V10.373C5.62695 6.577 8.70395 3.5 12.5 3.5V3.5C16.296 3.5 19.373 6.577 19.373 10.373V10.545C19.373 14.006 14.991 19.216 13.225 21.176C12.836 21.608 12.164 21.608 11.775 21.176C10.009 19.216 5.62695 14.006 5.62695 10.545Z" stroke="#0D0A19" stroke-width="1.5" stroke-linecap="round" stroke-linejoin="round"/>
<path d="M10.5 10.455C10.5 11.56 11.395 12.455 12.5 12.455V12.455C13.605 12.455 14.5 11.56 14.5 10.455V10.418C14.5 9.313 13.605 8.418 12.5 8.418V8.418C11.395 8.418 10.5 9.313 10.5 10.418" stroke="#0D0A19" stroke-width="1.5" stroke-linecap="round" stroke-linejoin="round"/>
</svg>
