<svg width="18" height="19" viewBox="0 0 18 19" fill="none" xmlns="http://www.w3.org/2000/svg">
<path d="M8.01318 11.6852H9.43506V11.5908C9.45495 10.4473 9.78307 9.93524 10.6282 9.41322C11.5182 8.87629 12.065 8.12061 12.065 7.002C12.065 5.38623 10.842 4.29248 9.01745 4.29248C7.34202 4.29248 5.99969 5.27188 5.93506 7.06166H7.44642C7.50608 6.00768 8.25679 5.54532 9.01745 5.54532C9.86262 5.54532 10.5487 6.10711 10.5487 6.98708C10.5487 7.72785 10.0863 8.24987 9.49472 8.61776C8.57 9.18453 8.02313 9.74632 8.01318 11.5908V11.6852ZM8.76389 14.708C9.3058 14.708 9.75821 14.2655 9.75821 13.7136C9.75821 13.1717 9.3058 12.7243 8.76389 12.7243C8.21702 12.7243 7.76958 13.1717 7.76958 13.7136C7.76958 14.2655 8.21702 14.708 8.76389 14.708Z" fill="#FF8181"/>
</svg>
