<svg width="51" height="28" viewBox="0 0 51 28" fill="none" xmlns="http://www.w3.org/2000/svg">
<g clip-path="url(#clip0_644:121149)">
<path d="M10.2442 15.4751L13.6457 17.7115L13.6455 21.8608L10.2285 27.9805L10.2442 15.4751Z" fill="#62B22F"/>
<path d="M7.42383 13.7061L10.8178 15.6728L0.742188 21.792L4.03082 15.8066L7.42383 13.7061Z" fill="#974995"/>
<path d="M23.2488 8.05469L16.7646 8.02235L13.6416 6.14479L10.2471 0.204426L23.2488 8.05469Z" fill="#EE7024"/>
<path d="M10.2491 0.204254L13.6436 6.1446L13.6505 14.3301L10.2285 13.2844L10.2491 0.204254Z" fill="#FBB61B"/>
<path d="M0.714844 6.17775L4.04172 12.2259L4.03092 15.8066L0.74229 21.792L0.714844 6.17775Z" fill="#5A58A3"/>
<path d="M0.714844 6.18006L23.1994 19.9373L16.7563 19.9824L4.04172 12.2282L0.714844 6.18006Z" fill="#2188CB"/>
<path d="M16.7666 8.02255L23.2509 8.05488L13.6534 13.9551L13.6436 9.92558L16.7666 8.02255Z" fill="#DA0954"/>
<path d="M35.4659 8.99676C36.2548 8.27749 37.3347 7.91492 38.3969 7.94824C39.5072 7.9257 40.6253 8.00115 41.7297 7.86984C41.4906 8.60283 41.0055 9.23782 40.6821 9.93945C39.8864 9.95415 39.0897 9.92475 38.295 9.95219C37.2729 10.0355 36.2989 10.8635 36.1989 11.9052C37.1289 10.9782 38.5841 10.9155 39.7894 11.2202C40.5969 11.4946 41.3161 12.1002 41.6091 12.9155C41.8796 13.6318 41.9237 14.4187 41.7473 15.1625C41.4798 16.1826 40.6596 16.9724 39.6924 17.3457C38.5517 17.775 37.2396 17.7975 36.1039 17.3428C35.0259 16.9038 34.2636 15.8847 34.0029 14.7666C33.7175 13.7717 33.7556 12.2987 34.0482 11.2874C34.3006 10.4149 34.7976 9.61 35.4659 8.99676ZM38.2254 12.8812C37.619 12.7612 36.936 13.0082 36.6214 13.5415C36.0503 14.5092 36.8352 15.9548 38.1157 15.773C39.5134 15.5746 39.8764 13.3217 38.2254 12.8812ZM29.1963 10.3775C30.4526 10.0688 31.8892 10.159 32.9622 10.9419C32.6075 11.5142 32.287 12.1061 31.9617 12.695C31.4374 12.5206 30.9279 12.2433 30.3605 12.257C29.7588 12.2384 29.1071 12.4735 28.7652 12.9909C28.4006 13.5387 28.383 14.2913 28.7377 14.8499C29.0533 15.3771 29.6735 15.6211 30.2625 15.676C30.7221 15.624 31.1895 15.5593 31.6148 15.3643C31.7167 15.3006 31.8343 15.3036 31.9499 15.3114C32.1577 15.9053 32.6124 16.3962 32.7917 16.9969C31.6344 17.6152 30.2546 17.7416 28.9876 17.4339C28.1145 17.1772 27.2825 16.6774 26.7827 15.8994C25.9919 14.6862 26.0223 12.9704 26.9307 11.8278C27.4785 11.0889 28.3163 10.6078 29.1963 10.3775ZM42.9673 10.4088C45.4083 10.3912 47.8503 10.3902 50.2904 10.4088C50.2688 12.7273 50.2825 15.0478 50.2845 17.3663C49.4633 17.3702 48.6411 17.3722 47.8199 17.3653C47.8582 15.8435 47.7817 14.3237 47.8297 12.8067C47.8337 12.6882 47.8062 12.5784 47.7484 12.4765C46.9988 12.4931 46.2472 12.4941 45.4975 12.4755C45.4505 14.1022 45.4887 15.7328 45.4789 17.3614C44.643 17.3761 43.8071 17.3683 42.9722 17.3653C42.9732 15.0459 42.983 12.7273 42.9673 10.4088Z" fill="white"/>
<path d="M13.6456 21.8608L16.7559 19.9823L23.1989 19.9372L10.2285 27.9805L13.6456 21.8608Z" fill="#037F37"/>
</g>
<defs>
<clipPath id="clip0_644:121149">
<rect width="49.5846" height="27.8301" fill="white" transform="translate(0.708008 0.163086)"/>
</clipPath>
</defs>
</svg>
