<svg width="14" height="15" viewBox="0 0 14 15" fill="none" xmlns="http://www.w3.org/2000/svg">
<path d="M8.03123 6.46815C8.60075 7.03767 8.60075 7.96103 8.03123 8.53054C7.46172 9.10006 6.53835 9.10006 5.96884 8.53054C5.39932 7.96103 5.39932 7.03767 5.96884 6.46815C6.53835 5.89864 7.46172 5.89864 8.03123 6.46815" stroke="#0D0A19" stroke-width="0.88" stroke-linecap="round" stroke-linejoin="round"/>
<path fill-rule="evenodd" clip-rule="evenodd" d="M8.66189 2.90312L9.00197 3.01629C9.31347 3.12012 9.52406 3.41179 9.52406 3.74021V4.22846C9.52406 4.64379 9.85539 4.98271 10.2707 4.99146L10.7596 5.00196C11.0425 5.00779 11.2991 5.17054 11.4257 5.42371L11.5861 5.74454C11.7331 6.03854 11.6754 6.39321 11.4432 6.62537L11.0979 6.97071C10.8045 7.26412 10.7992 7.73837 11.0862 8.03821L11.4246 8.39171C11.6206 8.59646 11.6871 8.89221 11.5972 9.16112L11.4841 9.50121C11.3802 9.81271 11.0886 10.0233 10.7601 10.0233H10.2719C9.85656 10.0233 9.51764 10.3546 9.50889 10.77L9.49839 11.2588C9.49256 11.5417 9.32981 11.7984 9.07664 11.925L8.75581 12.0854C8.46181 12.2324 8.10714 12.1746 7.87497 11.9425L7.52964 11.5971C7.23622 11.3037 6.76197 11.2985 6.46214 11.5855L6.10864 11.9238C5.90389 12.1198 5.60814 12.1863 5.33922 12.0965L4.99914 11.9833C4.68764 11.8795 4.47706 11.5878 4.47706 11.2594V10.7711C4.47706 10.3558 4.14572 10.0169 3.73039 10.0081L3.24156 9.99762C2.95864 9.99179 2.70197 9.82904 2.57539 9.57587L2.41497 9.25504C2.26797 8.96104 2.32572 8.60637 2.55789 8.37421L2.90322 8.02887C3.19664 7.73546 3.20189 7.26121 2.91489 6.96137L2.57656 6.60787C2.37997 6.40254 2.31347 6.10621 2.40331 5.83787L2.51647 5.49779C2.62031 5.18629 2.91197 4.97571 3.24039 4.97571H3.72864C4.14397 4.97571 4.48289 4.64437 4.49164 4.22904L4.50214 3.74021C4.50914 3.45729 4.67131 3.20062 4.92447 3.07404L5.24531 2.91362C5.53931 2.76662 5.89397 2.82437 6.12614 3.05654L6.47147 3.40187C6.76489 3.69529 7.23914 3.70054 7.53897 3.41354L7.89247 3.07521C8.09722 2.87979 8.39356 2.81329 8.66189 2.90312V2.90312Z" stroke="#0D0A19" stroke-width="0.88" stroke-linecap="round" stroke-linejoin="round"/>
</svg>
