<svg width="80" height="56" viewBox="0 0 80 56" fill="none" xmlns="http://www.w3.org/2000/svg">
<path fill-rule="evenodd" clip-rule="evenodd" d="M47.8039 18.39C47.5084 18.4262 47.0145 18.5127 46.7064 18.5825C43.1888 19.3784 41.0519 21.6923 41.0519 24.7055C41.0519 25.9719 41.458 26.9679 42.341 27.867C42.9745 28.512 43.683 28.9965 45.2765 29.8743C46.4966 30.5464 46.9564 30.8426 47.3476 31.2082C47.7416 31.5764 47.8986 31.8964 47.8961 32.3264C47.8916 33.1134 47.1987 33.7882 46.085 34.0901C45.6192 34.2164 44.4304 34.2641 43.7434 34.1842C42.6221 34.0537 41.3371 33.688 40.39 33.2299C40.1036 33.0914 39.888 33.0125 39.878 33.0424C39.8284 33.1912 39.0015 37.1899 39.0171 37.2057C39.0811 37.2703 40.2065 37.6272 40.8655 37.7919C44.0343 38.5837 47.2322 38.3716 49.5098 37.2185C51.6583 36.1308 52.856 34.4235 53.0498 32.1727C53.2289 30.0921 52.3915 28.5413 50.3654 27.2016C50.1116 27.0338 49.3515 26.5924 48.6762 26.2208C47.2934 25.4598 46.9636 25.2479 46.6188 24.8989C46.2961 24.5722 46.1897 24.3427 46.1929 23.9801C46.1976 23.4539 46.5371 23.0207 47.1941 22.7025C47.7962 22.411 48.1937 22.34 49.2017 22.344C50.4116 22.3488 51.5451 22.5764 52.6543 23.0371C52.9086 23.1428 53.1196 23.2245 53.1232 23.2189C53.1269 23.2132 53.3171 22.3297 53.5461 21.2556C53.7752 20.1814 53.9725 19.2682 53.9847 19.2263C54.0196 19.1061 53.0918 18.8059 51.9938 18.5821C50.7032 18.319 49.0172 18.2417 47.8039 18.39ZM9.53445 18.6877C9.52107 18.7342 9.49592 18.8732 9.47867 18.9967L9.44727 19.2214L9.72689 19.2776C10.725 19.4782 12.1142 19.9047 13.2599 20.3621C14.7459 20.9553 15.1015 21.309 15.4483 22.5385C15.5373 22.854 16.4672 26.4485 17.5147 30.5263L19.4194 37.9405H22.0262L24.633 37.9405L28.6242 28.3169C30.8194 23.0239 32.6226 18.6731 32.6313 18.6483C32.6411 18.6209 31.6424 18.6033 30.0639 18.6033C27.6519 18.6033 27.4775 18.6089 27.4367 18.6877C27.4127 18.7341 26.2589 21.6691 24.8726 25.2098C23.4864 28.7505 22.3379 31.6632 22.3204 31.6824C22.303 31.7015 21.8009 29.1326 21.2047 25.9737C20.2117 20.7129 20.1069 20.201 19.9575 19.8837C19.7604 19.4649 19.4347 19.1214 19.0269 18.9021C18.4693 18.6023 18.5189 18.6051 13.8217 18.6042C9.8026 18.6034 9.55749 18.6082 9.53445 18.6877ZM34.7266 18.7118C34.7121 18.7715 33.8051 23.0736 32.7109 28.2719C31.6167 33.4703 30.7097 37.7723 30.6953 37.832L30.6692 37.9405L33.148 37.9402L35.6268 37.9398L37.6299 28.3873C38.7316 23.1334 39.6429 18.7827 39.655 18.719L39.6769 18.6033H37.2149H34.7528L34.7266 18.7118ZM61.8729 18.6543C61.2896 18.7529 60.6609 19.2538 60.3312 19.8825C60.2069 20.1195 52.8583 37.8587 52.8583 37.9217C52.8583 37.9325 54.0236 37.9357 55.4478 37.9289L58.0374 37.9164L58.5257 36.4938L59.0139 35.0713L62.1937 35.0589L65.3735 35.0465L65.4214 35.2759C65.4477 35.402 65.5826 36.0532 65.7213 36.7229L65.9733 37.9405H68.2638H70.5543L70.5295 37.832C70.5159 37.7723 69.6165 33.4215 68.5308 28.1634L66.557 18.6033L64.3322 18.609C63.1085 18.6121 62.0018 18.6325 61.8729 18.6543ZM63.8445 27.5245L64.598 31.0688L63.583 31.0818C63.0247 31.0889 62.0979 31.0889 61.5233 31.0818L60.4787 31.0688L61.638 27.8138C63.12 23.6529 63.0574 23.8231 63.0755 23.9078C63.0841 23.9476 63.4301 25.5751 63.8445 27.5245Z" fill="#1434CB"/>
</svg>
