<svg width="42" height="42" viewBox="0 0 42 42" fill="none" xmlns="http://www.w3.org/2000/svg">
<path d="M7.16932e-06 20.16C7.16932e-06 10.6554 8.31316e-06 5.9052 2.94001 2.94C5.88001 -0.0251929 10.6426 7.03904e-06 20.16 7.03904e-06H21.84C31.3444 7.03904e-06 36.0946 7.05359e-06 39.06 2.94C42.0251 5.88 42 10.6428 42 20.16V21.84C42 31.3447 42 36.0949 39.06 39.06C36.12 42.0251 31.3571 42 21.84 42H20.16C10.6553 42 5.9051 42 2.94001 39.06C-0.0253501 36.12 7.16932e-06 31.3571 7.16932e-06 21.84V20.16Z" fill="#E4E6E8"/>
<path d="M22.3478 30.24C12.776 30.24 7.316 23.6796 7.08936 12.7596H11.8816C12.0411 20.7732 15.5734 24.1668 18.3747 24.8682V12.7764H22.8898V19.6896C25.6533 19.3914 28.5598 16.2414 29.5382 12.7764H34.0533C33.3016 17.0436 30.1516 20.1936 27.9129 21.4914C29.6616 22.3588 31.2063 23.587 32.4457 25.095C33.6851 26.6029 34.5909 28.3566 35.1033 30.24H30.1347C29.0678 26.9135 26.4093 24.36 22.8898 23.9946V30.24H22.3478Z" fill="white"/>
</svg>
