<svg width="26" height="26" viewBox="0 0 26 26" fill="none" xmlns="http://www.w3.org/2000/svg">
<path d="M13 1.69019C8.00288 1.69019 3.95215 5.74092 3.95215 10.7381C3.95215 13.2357 4.96415 15.4972 6.60091 17.1345C8.23813 18.7726 12.0952 21.1431 12.3214 23.6313C12.3553 24.0043 12.6254 24.3099 13 24.3099C13.3746 24.3099 13.6447 24.0043 13.6786 23.6313C13.9048 21.1431 17.7619 18.7726 19.3991 17.1345C21.0359 15.4972 22.0479 13.2357 22.0479 10.7381C22.0479 5.74092 17.9972 1.69019 13 1.69019Z" fill="#FF4433"/>
<path d="M13.0003 13.905C14.7492 13.905 16.167 12.4872 16.167 10.7383C16.167 8.98934 14.7492 7.57153 13.0003 7.57153C11.2513 7.57153 9.8335 8.98934 9.8335 10.7383C9.8335 12.4872 11.2513 13.905 13.0003 13.905Z" fill="white"/>
</svg>
