<svg width="42" height="42" viewBox="0 0 42 42" fill="none" xmlns="http://www.w3.org/2000/svg">
<path d="M7.03904e-06 20.16C7.03904e-06 10.6554 7.05359e-06 5.9052 2.94 2.94C5.88 -0.0251929 10.6428 7.03904e-06 20.16 7.03904e-06H21.84C31.3447 7.03904e-06 36.0949 7.05359e-06 39.06 2.94C42.0251 5.88 42 10.6428 42 20.16V21.84C42 31.3447 42 36.0949 39.06 39.06C36.12 42.0251 31.3571 42 21.84 42H20.16C10.6554 42 5.9052 42 2.94 39.06C-0.0251929 36.12 7.03904e-06 31.3571 7.03904e-06 21.84V20.16Z" fill="#E4E6E8"/>
<path d="M34.1719 14.3438C33.8594 13.1563 32.9219 12.2188 31.7344 11.8906C29.5938 11.3125 21 11.3125 21 11.3125C21 11.3125 12.4062 11.3125 10.25 11.8906C9.0625 12.2031 8.14063 13.1406 7.8125 14.3438C7.25 16.5 7.25 21 7.25 21C7.25 21 7.25 25.5 7.82812 27.6562C8.14062 28.8438 9.07812 29.7812 10.2656 30.1094C12.4062 30.6875 21 30.6875 21 30.6875C21 30.6875 29.5938 30.6875 31.75 30.1094C32.9375 29.7969 33.8594 28.8594 34.1875 27.6562C34.75 25.5 34.75 21 34.75 21C34.75 21 34.75 16.5 34.1719 14.3438Z" fill="white"/>
<path d="M18.1875 25.0937V16.9062L25.375 21L18.1875 25.0937Z" fill="#E4E6E8"/>
</svg>
