<svg width="144" height="50" viewBox="0 0 144 50" fill="none" xmlns="http://www.w3.org/2000/svg">
<g clip-path="url(#clip0)">
<path d="M41.1605 5.31977C51.4984 -1.71511 61.7637 -1.72965 72.0581 5.27617C82.3089 -1.72965 92.5743 -1.71511 102.97 5.31977C108.807 0.915701 115.472 -0.813951 122.819 0.508724C128.975 1.61337 134.028 4.69477 137.875 9.6221C145.571 19.4767 144.888 33.1686 136.191 42.2965C127.784 51.1337 113.526 52.7762 102.956 44.6512C92.6469 51.6861 82.3815 51.7297 72.0436 44.7093C61.8073 51.7151 51.5129 51.7296 41.1605 44.6657C30.0965 53.2413 15.1123 50.7558 7.09754 41.4099C-1.13506 31.8314 -1.12054 18.0087 7.03946 8.61919C15.3011 -0.90116 30.2563 -3.13953 41.1605 5.31977ZM107.036 40.4361C114.383 45.9157 125.374 45.5523 132.401 37.9651C139.197 30.6395 139.109 19.0988 132.285 11.8895C125.098 4.28779 114.034 4.24419 107.05 9.56396C110.506 14.1134 112.335 19.2151 112.335 24.9564C112.335 30.7413 110.491 35.8576 107.036 40.4361ZM37.0805 9.56396C29.9949 4.20058 18.9455 4.34593 11.8454 11.9041C4.97768 19.2151 4.96316 30.7994 11.7874 38.0378C18.9455 45.6395 29.9513 45.814 37.095 40.4215C33.6538 35.8721 31.8099 30.7704 31.7953 25.0291C31.7663 19.2442 33.6103 14.1279 37.0805 9.56396ZM45.3857 9.57849C48.8703 14.1134 50.6853 19.2442 50.6853 24.9855C50.6853 30.7413 48.8413 35.8866 45.3711 40.4361C52.3696 45.7267 62.1122 45.0145 67.891 40.3924C64.4063 35.8576 62.5913 30.7122 62.5768 25C62.5623 19.2587 64.3918 14.0988 67.9055 9.56396C61.2991 4.47675 51.4694 4.73837 45.3857 9.57849ZM76.1962 40.407C82.6574 45.3924 92.371 45.3488 98.6434 40.4797C91.616 30.1453 91.5869 19.8401 98.6434 9.49128C92.1242 4.47675 82.3089 4.73837 76.2107 9.57849C79.7099 14.0988 81.5249 19.2442 81.5249 24.9564C81.5249 30.6831 79.7244 35.8285 76.1962 40.407ZM72.0436 36.25C77.2125 29.7384 76.8496 19.593 72.0436 13.7936C67.2666 19.8256 66.9327 29.5494 72.0436 36.25ZM102.854 13.7355C97.7723 20.4215 98.0917 30.0872 102.883 36.2355C107.965 29.8692 107.733 19.6802 102.854 13.7355ZM41.2476 36.2791C46.5037 29.2878 45.8793 19.6076 41.2331 13.75C36.398 19.8547 36.1367 29.6948 41.2476 36.2791Z" fill="black"/>
</g>
<defs>
<clipPath id="clip0">
<rect width="142.437" height="50" fill="white" transform="translate(0.781494)"/>
</clipPath>
</defs>
</svg>
